<svg width="91" height="91" viewBox="0 0 91 91" fill="none" xmlns="http://www.w3.org/2000/svg">
<g clip-path="url(#clip0_132_314)">
<mask id="mask0_132_314" style="mask-type:luminance" maskUnits="userSpaceOnUse" x="0" y="0" width="91" height="91">
<path d="M62.7275 87.2862C85.6485 77.792 96.533 51.5143 87.0388 28.5934C77.5447 5.67237 51.267 -5.21221 28.346 4.28198C5.425 13.7762 -5.45957 40.0539 4.03461 62.9748C13.5288 85.8958 39.8065 96.7804 62.7275 87.2862Z" fill="white"/>
</mask>
<g mask="url(#mask0_132_314)">
<path d="M112.912 0.862732H-21.853V90.7059H112.912V0.862732Z" fill="#EE5E54"/>
<path d="M-8.14292 84.345L4.14762 83.9137L99.4892 15.4173L99.2017 7.22363L86.9111 7.65488L-8.43042 76.1513L-8.14292 84.345Z" fill="#F8E9D4"/>
<path d="M99.2556 84.2731L86.965 83.8598L-8.48431 15.4892L-8.21478 7.29547L4.07576 7.70875L99.5251 76.0614L99.2556 84.2551V84.2731Z" fill="#F8E9D4"/>
<path d="M-8.14288 84.345L0.0508108 84.0575L35.8443 58.3444L27.6506 58.6319L-8.14288 84.345Z" fill="#EE5E54"/>
<path d="M55.2324 33.2242L63.4261 32.9367L99.2017 7.22363L91.008 7.51113L55.2324 33.2242Z" fill="#EE5E54"/>
<path d="M99.2556 84.2731L99.4353 78.8106L71.6198 58.9014L63.4261 58.6318L99.2556 84.291V84.2731Z" fill="#EE5E54"/>
<path d="M-8.19684 7.29547L-8.37653 12.7579L19.4389 32.6672L27.6326 32.9367L-8.19684 7.29547Z" fill="#EE5E54"/>
<path d="M55.7895 -1.02399H35.2693V92.6105H55.7895V-1.02399Z" fill="#F8E9D4"/>
<path d="M107.701 31.9664H-16.6421V59.6022H107.701V31.9664Z" fill="#F8E9D4"/>
<path d="M107.701 37.5007H-16.6421V54.0858H107.701V37.5007Z" fill="#EE5E54"/>
<path d="M51.6747 0.449463H39.3661V91.1012H51.6747V0.449463Z" fill="#EE5E54"/>
</g>
</g>
<defs>
<clipPath id="clip0_132_314">
<rect width="89.8431" height="89.8431" fill="white" transform="translate(0.607849 0.862732)"/>
</clipPath>
</defs>
</svg>
