<svg width="533" height="284" viewBox="0 0 533 284" fill="none" xmlns="http://www.w3.org/2000/svg">
<path d="M490.878 13.0111L490.755 17.9624C502.968 19.9605 512.517 22.1217 519.309 24.2014C522.708 25.2424 525.364 26.247 527.296 27.1761C528.611 27.8088 529.461 28.3462 529.975 28.7508C529.446 28.9818 528.61 29.2611 527.353 29.5277C523.167 30.415 515.943 30.8507 505.413 30.5173L504.872 35.473C512.782 36.9612 518.182 38.7246 521.331 40.3934C522.93 41.2413 523.723 41.9484 524.04 42.3882C524.055 42.4085 524.068 42.4269 524.079 42.4434C524.03 42.4928 523.96 42.5552 523.864 42.6288C523.6 42.8302 523.193 43.0712 522.601 43.3248C521.408 43.8353 519.667 44.3106 517.324 44.669C512.651 45.3838 505.942 45.5805 497.264 44.9195L496.412 49.8229C502.53 51.5035 506.176 53.2282 507.92 54.6507C508.581 55.1896 508.799 55.547 508.866 55.6886C508.841 55.722 508.8 55.7693 508.738 55.832C508.398 56.1737 507.658 56.6598 506.304 57.15C504.986 57.6274 503.248 58.0513 501.086 58.3731C496.763 59.0163 490.95 59.2221 483.845 58.7558L482.911 63.6288C487.72 65.1861 490.427 66.7196 491.67 67.9062C492.126 68.3414 492.274 68.6237 492.319 68.7364C492.309 68.7495 492.296 68.7659 492.279 68.7859C491.848 69.2947 490.379 70.1432 487.309 70.6478C484.403 71.1255 480.523 71.2179 475.921 70.7067L470.708 70.1275L473.541 74.5418C474.673 76.3053 475.034 77.4315 475.05 78.0658C475.057 78.3245 475.005 78.4534 474.957 78.5364C474.901 78.6317 474.756 78.8186 474.369 79.0488C473.522 79.5514 471.901 80.0355 469.093 80.2733C466.345 80.5061 462.717 80.4855 458.061 80.1825L452.914 79.8476L455.839 84.0951C456.922 85.6671 457.345 86.771 457.413 87.4895C457.462 88.0081 457.351 88.3925 456.807 88.8632C456.122 89.4559 454.762 90.1367 452.295 90.7095C449.873 91.2717 446.617 91.679 442.367 91.8983L440.388 92.0004L440.036 93.9503C439.675 95.9461 439.028 97.2487 438.222 98.1156C437.432 98.9645 436.307 99.5932 434.614 99.9194C431.048 100.606 425.532 99.8543 417.389 97.568L411.79 95.9958L414.502 101.141C415.371 102.79 415.456 104.076 415.223 104.983C414.995 105.87 414.384 106.705 413.234 107.348C410.837 108.687 406.182 109.058 399.918 106.479L397.197 105.359L396.531 108.226C395.884 111.016 394.913 112.208 394.022 112.737C393.104 113.282 391.661 113.489 389.257 112.939L385.591 112.099L386.235 115.804C386.514 117.407 385.922 118.189 385.201 118.594C384.314 119.091 382.735 119.26 380.891 118.445L377.381 116.895V120.732C377.381 123.731 376.719 124.51 376.42 124.729C376.017 125.025 375.021 125.292 372.496 124.853L369.722 124.371L369.571 127.183C369.434 129.748 368.552 130.978 367.557 131.585C366.443 132.265 364.551 132.563 361.686 131.91L359.324 131.371L358.711 133.714C357.806 137.174 356.757 138.693 355.701 139.383C354.68 140.051 353.045 140.336 349.901 139.707L346.976 139.123L346.911 142.105C346.843 145.21 343.689 147.362 340.219 145.706L336.556 143.958L336.643 148.015C336.68 149.778 335.98 150.313 335.443 150.508C334.679 150.785 333.225 150.722 331.488 149.565L329.215 148.049L327.907 150.448C327.064 151.993 325.733 152.54 324.399 152.396C322.999 152.244 321.387 151.282 320.395 149.299L317.521 143.551L315.755 149.73C315.32 151.253 314.472 151.811 313.669 151.966C312.741 152.144 311.393 151.862 310.06 150.738L308.395 149.334L306.776 150.791C305.228 152.183 304.278 152.555 303.655 152.578C303.127 152.597 302.228 152.381 300.729 150.881L297.596 147.749L296.534 152.05L294.302 161.089L293.791 163.157L295.751 163.99C296.923 164.487 298.079 164.978 299.222 165.463C319.098 173.896 334.929 180.613 356.627 193.083C362.144 196.388 363.596 199.759 363.05 202.788C362.433 206.216 359.126 210.459 352.184 214.941L350.102 216.285L351.428 218.378C353.611 221.828 353.349 226.3 351.254 230.198C349.149 234.114 345.482 236.896 341.622 237.203L339.404 237.38L339.322 239.604C338.932 250.251 330.077 256.557 321.961 256.17L319.605 256.058L319.356 258.403C318.903 262.661 316.25 265.881 312.572 267.642C308.861 269.42 304.234 269.633 300.182 267.87L297.432 266.672L296.75 269.594C295.771 273.787 293.161 276.358 290.042 277.494C286.858 278.653 283.013 278.359 279.651 276.465L277.949 275.506L276.607 276.927C274.871 278.764 272.142 281.5 266.482 281.5C260.822 281.5 258.092 278.764 256.357 276.927L255.015 275.506L253.312 276.465C249.942 278.363 246.064 278.68 242.87 277.532C239.749 276.41 237.15 273.853 236.221 269.625L235.575 266.686L232.804 267.86C228.74 269.581 224.1 269.365 220.385 267.597C216.708 265.847 214.06 262.655 213.608 258.403L213.355 256.028L210.971 256.172C203.01 256.651 194.033 250.268 193.641 239.604L193.56 237.38L191.341 237.203C187.482 236.896 183.815 234.114 181.709 230.198C179.614 226.3 179.353 221.828 181.536 218.378L182.854 216.296L180.791 214.948C173.839 210.406 170.531 206.162 169.913 202.745C169.37 199.738 170.811 196.393 176.335 193.084C198.034 180.613 213.865 173.896 233.742 165.462C234.885 164.978 236.041 164.487 237.212 163.99L239.172 163.157L238.662 161.089L236.429 152.05L235.367 147.749L232.235 150.881C230.735 152.381 229.837 152.597 229.309 152.578C228.686 152.555 227.735 152.183 226.188 150.791L224.568 149.334L222.903 150.738C221.571 151.862 220.222 152.144 219.295 151.966C218.491 151.811 217.644 151.253 217.209 149.73L215.443 143.551L212.569 149.299C211.577 151.282 209.964 152.244 208.564 152.396C207.23 152.54 205.9 151.993 205.057 150.448L203.749 148.049L201.476 149.565C199.739 150.722 198.284 150.785 197.521 150.508C196.983 150.313 196.284 149.778 196.321 148.015L196.409 143.873L192.704 145.726C189.287 147.434 186.122 145.354 186.053 142.106L185.989 139.122L183.063 139.707C179.921 140.336 178.252 140.053 177.213 139.378C176.156 138.692 175.107 137.184 174.261 133.749L173.672 131.354L171.269 131.912C168.474 132.561 166.608 132.267 165.491 131.585C164.477 130.967 163.573 129.713 163.389 127.138L163.192 124.38L160.467 124.853C157.943 125.292 156.947 125.025 156.543 124.729C156.245 124.51 155.583 123.731 155.583 120.732V116.895L152.073 118.445C150.228 119.26 148.65 119.091 147.762 118.594C147.041 118.189 146.449 117.407 146.728 115.804L147.373 112.099L143.707 112.939C141.303 113.489 139.859 113.282 138.942 112.737C138.051 112.208 137.08 111.016 136.432 108.226L135.771 105.38L133.062 106.473C126.798 108.999 122.166 108.607 119.776 107.267C118.626 106.622 118.015 105.788 117.784 104.908C117.549 104.01 117.626 102.746 118.468 101.129L121.141 95.9941L115.57 97.5692C107.489 99.854 101.97 100.607 98.3895 99.9191C96.6866 99.5921 95.5494 98.9611 94.7516 98.1091C93.9389 97.2412 93.2876 95.9398 92.928 93.9503L92.5754 91.9998L90.5959 91.8983C86.3176 91.6789 83.0395 91.2715 80.6033 90.7089C78.1199 90.1353 76.7558 89.4539 76.0728 88.8633C75.5354 88.3984 75.4315 88.0255 75.485 87.515C75.5601 86.7985 75.9979 85.6929 77.1085 84.1177L80.1224 79.8428L74.9029 80.1825C70.247 80.4855 66.6184 80.5061 63.8708 80.2733C61.063 80.0355 59.4416 79.5514 58.5949 79.0488C58.2072 78.8186 58.063 78.6317 58.007 78.5364C57.9583 78.4534 57.9067 78.3245 57.9135 78.0658C57.93 77.4315 58.2906 76.3053 59.4226 74.5418L62.2561 70.1275L57.0427 70.7067C52.4407 71.2179 48.561 71.1255 45.6543 70.6478C42.5848 70.1432 41.1157 69.2947 40.6849 68.786C40.668 68.7659 40.655 68.7495 40.6451 68.7364C40.6901 68.6237 40.8374 68.3414 41.2933 67.9062C42.5363 66.7196 45.2436 65.1861 50.0528 63.6288L49.1189 58.7558C42.0119 59.2222 36.1974 59.0233 31.8733 58.3881C29.71 58.0703 27.9713 57.6507 26.653 57.1772C25.2989 56.6908 24.5597 56.208 24.2212 55.8695C24.1629 55.8112 24.1243 55.7667 24.0994 55.7345C24.1685 55.5902 24.3889 55.2328 25.0459 54.6955C26.7936 53.2663 30.4429 51.5286 36.5614 49.8201L35.6991 44.9195C27.0217 45.5805 20.3129 45.3838 15.6395 44.669C13.2966 44.3106 11.5554 43.8353 10.3628 43.3248C9.7702 43.0712 9.36363 42.8302 9.09992 42.6288C9.00355 42.5552 8.93392 42.4928 8.88445 42.4434C8.89575 42.4269 8.90863 42.4085 8.92328 42.3882C9.24051 41.9484 10.0332 41.2413 11.6329 40.3934C14.7813 38.7246 20.1814 36.9612 28.0918 35.473L27.5505 30.5173C17.0192 30.8507 9.80094 30.422 5.62309 29.5426C4.39443 29.284 3.57076 29.0134 3.04365 28.788C3.56247 28.3846 4.41138 27.8519 5.71538 27.2258C7.65003 26.297 10.3063 25.2916 13.7041 24.2478C20.492 22.1625 30.0293 19.9873 42.2145 17.9614L42.0856 13.0111C30.0385 11.648 21.282 10.2049 15.641 8.78638C13.3434 8.20862 11.6607 7.65838 10.5139 7.16218C11.8903 6.64817 13.9524 6.11717 16.7639 5.60379C22.6977 4.52028 31.5223 3.59277 43.1752 2.9254L43.181 2.92505C76.559 0.935905 118.041 6.01934 160.534 16.2518L162.265 11.5994C161.346 11.1255 160.632 10.6986 160.089 10.3274C160.483 10.2951 160.94 10.2773 161.464 10.2809C167.006 10.3192 177.375 12.6989 188.955 18.9247L189.008 18.9537L189.064 18.98C193.507 21.0954 202.125 26.9405 212.484 34.3646C219.405 39.3249 226.986 44.9035 234.443 50.3913C238.068 53.0582 241.663 55.7037 245.139 58.2463L248.545 60.7377L249.093 56.5536C249.924 50.219 252.058 45.8399 255.749 42.1495L256.418 41.4804L256.476 40.5359C256.802 35.2686 257.636 31.2781 258.901 28.4405C260.144 25.6537 261.73 24.1226 263.569 23.4144C264.524 23.0579 265.174 22.3325 265.505 21.9404C265.801 21.589 266.11 21.1625 266.348 20.833C266.404 20.7557 266.456 20.6838 266.503 20.6195C266.504 20.6204 266.504 20.6213 266.505 20.6223C266.568 20.7063 266.642 20.8065 266.722 20.9161C266.951 21.228 267.237 21.6159 267.492 21.9238C267.79 22.2836 268.425 23.027 269.348 23.3964L269.365 23.4032L269.383 23.4098C271.227 24.1159 272.817 25.6476 274.062 28.4405C275.328 31.2781 276.161 35.2686 276.487 40.5359L276.544 41.4609L277.191 42.1251C280.804 45.838 283.033 50.34 283.754 56.5182L284.253 60.791L287.718 58.2426C291.005 55.8258 294.402 53.3135 297.831 50.7768C305.435 45.153 313.201 39.4094 320.287 34.3214C330.65 26.8802 339.28 21.0487 343.756 18.9951L343.828 18.9621L343.897 18.9247C355.475 12.6997 365.873 10.3193 371.429 10.2809C371.945 10.2774 372.396 10.2944 372.786 10.3256C372.238 10.6969 371.518 11.123 370.594 11.5957L372.317 16.2521C414.922 6.0193 456.516 0.935959 489.782 2.92503L489.788 2.92539C501.441 3.59277 510.266 4.52028 516.2 5.60379C519.011 6.11717 521.073 6.64817 522.45 7.16218C521.303 7.65837 519.62 8.20862 517.323 8.78638C511.682 10.2049 502.925 11.648 490.878 13.0111ZM508.905 55.6244C508.906 55.6239 508.904 55.6307 508.895 55.6455C508.899 55.6321 508.903 55.6248 508.905 55.6244ZM24.058 55.6686C24.059 55.6689 24.0631 55.6757 24.067 55.6882C24.0589 55.6746 24.0569 55.6683 24.058 55.6686ZM2.42244 29.393C2.4224 29.393 2.42308 29.3917 2.42465 29.3892C2.42327 29.3917 2.42249 29.393 2.42244 29.393ZM8.95198 7.9476C8.95153 7.94755 8.95611 7.94257 8.96704 7.93281C8.95789 7.94277 8.95242 7.94765 8.95198 7.9476ZM158.774 9.17551C158.776 9.17568 158.785 9.18905 158.797 9.21522C158.779 9.18843 158.772 9.17535 158.774 9.17551ZM374.126 9.16223C374.128 9.16207 374.121 9.17525 374.103 9.20217C374.115 9.17585 374.124 9.16238 374.126 9.16223ZM267.179 19.8082C267.179 19.8088 267.173 19.8141 267.161 19.8228C267.173 19.812 267.18 19.8077 267.179 19.8082ZM265.837 19.84C265.822 19.8306 265.815 19.8247 265.815 19.8242C265.815 19.8237 265.822 19.8283 265.837 19.84ZM524.012 7.9476C524.011 7.94763 524.006 7.94283 523.997 7.93305C524.008 7.94267 524.012 7.94757 524.012 7.9476Z" fill="#F9EAD5" stroke="#EE5D53" stroke-width="5"/>
</svg>
