<svg width="342" height="635" viewBox="0 0 342 635" fill="none" xmlns="http://www.w3.org/2000/svg">
<g clip-path="url(#clip0_186_273)">
<path d="M325.916 529.367C325.916 529.367 325.916 528.565 325.916 528.164C325.783 527.362 325.649 526.693 325.382 525.891C325.382 526.693 325.515 527.629 325.649 528.431C325.649 528.699 325.649 529.1 325.783 529.367H325.916ZM324.179 40.3811L316.562 39.4451V12.4352L340.081 45.1948H345.693V5.48221L351.439 4.67993V0H333.8V4.67993L341.417 5.48221V27.0099L321.774 0H306.674V4.67993L311.217 5.08107L312.153 6.41819V39.5789L306.407 40.3811V45.0611H324.046V40.3811H324.179ZM631.388 326.927L630.051 334.682H617.49C617.49 329.066 617.49 323.45 617.49 317.701H624.84L625.642 322.915H629.517V308.474H625.642L624.84 313.689H617.624C617.624 308.474 617.624 303.26 617.624 298.179H628.849L630.185 305.934H635.797L635.263 294.435H601.054V298.045L606.132 298.58C606.132 304.062 606.132 309.678 606.132 315.294V317.834C606.132 323.45 606.132 329.066 606.132 334.548L601.054 335.083V338.693H636.599L637.134 327.194H631.521L631.388 326.927ZM64.9427 294.435H50.7783V298.045L55.4552 298.847L47.7048 326.124L39.9545 298.847L45.8341 298.179V294.568H25.79V298.179L30.7342 298.713L22.7166 325.723L15.768 298.58L20.7122 298.045V294.435H0V298.045L4.14244 298.446L16.1689 338.56H22.7166L31.9369 307.94L41.4244 338.56H47.9721L59.7313 298.847L64.9427 298.045V294.435ZM333.132 607.188L329.925 605.717C325.916 603.979 323.778 602.107 323.778 598.497C323.778 594.886 326.852 592.346 330.727 592.346C332.33 592.346 333.8 592.613 335.27 593.282L336.606 601.171H342.753L343.288 591.811C340.081 589.672 335.404 588.468 330.593 588.468C320.438 588.468 313.89 593.415 313.89 601.438C313.89 608.792 318.433 612.804 326.317 616.414L329.123 617.751C333.132 619.489 334.869 621.094 334.869 624.704C334.869 628.314 332.33 631.122 327.52 631.122C324.981 631.122 322.977 630.721 320.972 629.919L319.636 621.629H313.355L312.954 631.523C316.83 633.93 322.442 635 327.52 635C339.012 635 345.025 629.384 345.025 621.495C345.025 614.676 341.551 611.065 332.999 607.188H333.132ZM575.665 311.282C574.463 245.897 547.737 186.796 505.11 143.34L523.551 124.887L520.21 121.545L501.769 139.997C458.341 97.3426 399.144 70.6001 333.8 69.3967L328.99 49.4736L324.179 69.3967C258.702 70.6001 199.505 97.3426 156.076 140.131L137.502 121.545L134.162 124.887L152.736 143.473C110.242 186.93 83.5169 246.031 82.3142 311.282L62.5374 316.096L65.3436 316.765L82.3142 320.776C83.5169 386.295 110.242 445.53 152.869 488.986L134.162 507.706L137.502 511.049L156.21 492.329C199.639 534.983 258.836 561.726 324.179 562.929L328.856 582.585L329.925 578.306L333.667 562.795C399.01 561.592 458.073 534.983 501.502 492.329L520.076 510.915L523.417 507.572L504.843 488.986C547.604 445.53 574.329 386.161 575.532 320.642L595.308 315.829L592.502 315.16L575.532 311.149L575.665 311.282ZM529.698 180.779C538.383 193.749 546 207.522 552.013 221.963C558.16 236.537 562.971 251.914 566.044 267.425C568.85 281.465 570.587 295.772 570.855 310.213L548.272 304.73C545.466 249.507 522.214 199.633 486.001 162.594L501.903 146.682C512.192 157.246 521.546 168.611 529.831 180.779H529.698ZM543.461 303.527L535.31 301.521C534.642 292.563 533.573 283.871 531.836 275.314L539.72 273.709C541.724 283.47 542.927 293.365 543.461 303.393V303.527ZM451.793 193.214L409.968 261.541L404.623 270.233L380.57 264.483L451.793 193.214ZM373.755 235.601L361.06 182.785L351.573 143.206C367.207 145.212 382.441 149.357 397.006 155.507C407.295 159.92 417.317 165.268 426.671 171.553C434.555 176.901 442.172 182.919 449.12 189.604L381.238 231.189L373.888 235.735L373.755 235.601ZM413.977 263.948L455.535 196.022C462.216 202.975 468.229 210.597 473.574 218.486C479.855 227.846 485.333 237.741 489.609 248.17C495.756 262.745 499.899 277.854 501.903 293.499L462.216 284.005L409.433 271.302L413.977 263.948ZM458.073 191.877L465.957 178.907L461.681 181.581L452.996 186.93C425.602 160.589 389.924 142.939 350.37 138.259L344.624 114.458C366.405 116.062 387.518 121.277 407.696 129.701C419.722 134.782 431.214 141.067 442.038 148.287C452.728 155.507 462.75 163.798 471.971 173.024C481.057 182.116 489.476 192.278 496.692 202.975C504.041 213.806 510.322 225.305 515.266 237.339C523.818 257.53 528.896 278.657 530.499 300.452L506.714 294.702C502.037 254.989 484.264 219.288 457.94 191.877H458.073ZM369.078 112.987L370.681 105.098C384.445 107.772 397.941 111.917 411.037 117.266L407.963 124.62C395.536 119.539 382.574 115.527 369.211 112.853L369.078 112.987ZM443.642 143.874L448.051 137.189C448.051 137.189 448.72 137.59 449.12 137.857C460.345 145.479 471.035 154.17 480.656 163.931L475.044 169.547C465.423 160.054 455 151.362 443.642 143.874ZM500.834 200.836L507.515 196.423C515.132 207.789 521.68 219.957 527.025 232.526C527.159 232.927 527.292 233.194 527.426 233.595L520.076 236.671C514.865 224.102 508.451 212.068 500.834 200.97V200.836ZM377.764 78.8903C393.264 82.0994 408.631 86.7793 423.197 92.9301C437.495 98.9471 451.392 106.569 464.354 115.26C476.514 123.55 488.006 132.91 498.562 143.206L482.661 159.118C445.646 122.748 395.67 99.482 340.482 96.674L335.003 74.0766C349.435 74.4778 363.866 76.0823 377.897 78.8903H377.764ZM193.759 115.394C206.721 106.702 220.485 99.0809 234.916 93.0638C249.482 86.913 264.849 82.0994 280.349 79.024C294.38 76.216 308.812 74.4778 323.244 74.2104L317.765 96.8077C262.443 99.6157 212.467 122.882 175.452 159.385L159.551 143.473C170.107 133.178 181.599 123.684 193.759 115.394ZM206.32 193.214L274.604 235.066L283.289 240.415L277.543 264.483L206.32 193.214ZM248.68 271.302L195.897 284.005L156.21 293.499C158.214 277.854 162.357 262.745 168.504 248.17C172.913 237.874 178.258 227.846 184.539 218.486C189.884 210.463 196.031 202.975 202.579 196.022L244.137 263.948L248.68 271.302ZM277.009 231.055L209.126 189.47C216.075 182.919 223.558 176.901 231.576 171.419C240.93 165.135 250.818 159.653 261.241 155.374C275.806 149.223 291.04 145.078 306.674 143.072L297.186 182.651L284.492 235.467L277.142 230.921L277.009 231.055ZM205.117 186.93L192.156 179.041L200.04 192.011C173.715 219.422 156.076 255.123 151.266 294.836L127.48 300.585C129.084 278.79 134.295 257.664 142.714 237.473C147.791 225.439 154.072 213.94 161.288 203.109C168.504 192.412 176.789 182.384 186.009 173.158C195.095 164.065 205.251 155.641 215.941 148.421C226.765 141.067 238.257 134.782 250.283 129.835C270.461 121.277 291.574 116.196 313.355 114.591L307.609 138.392C267.922 143.072 232.244 160.722 204.984 187.064L205.117 186.93ZM126.144 275.982L118.26 274.378C120.932 260.605 125.075 247.1 130.42 233.997L137.769 237.072C132.692 249.507 128.683 262.477 126.01 275.849L126.144 275.982ZM150.197 196.825C150.197 196.825 150.598 196.156 150.865 195.889C158.482 184.523 167.301 173.96 176.922 164.199L182.535 169.815C173.047 179.442 164.361 189.872 156.878 201.237L150.197 196.825ZM209.527 137.456C220.885 129.835 232.912 123.283 245.473 117.934C245.874 117.801 246.275 117.667 246.675 117.399L249.749 124.754C237.188 129.968 225.162 136.387 214.07 144.008L209.661 137.323L209.527 137.456ZM288.367 113.121L286.764 105.232C296.518 103.226 306.407 102.023 316.429 101.488L314.424 109.644C305.471 110.313 296.786 111.382 288.233 113.121H288.367ZM92.069 267.291C95.2761 251.78 99.953 236.403 106.1 221.829C112.113 207.522 119.73 193.615 128.416 180.645C136.567 168.478 145.921 157.112 156.21 146.549L172.112 162.461C135.899 199.499 112.648 249.374 109.841 304.597L87.2584 310.079C87.6593 295.638 89.2628 281.331 92.069 267.291ZM87.1248 315.026L196.966 288.685L278.612 269.029L281.419 268.361L323.912 310.881L329.123 316.096H87.1248C87.1248 316.096 87.1248 315.427 87.1248 315.026ZM250.417 502.491C238.391 497.41 226.899 491.125 216.075 483.905C205.385 476.685 195.363 468.394 186.142 459.168C177.056 450.076 168.637 439.914 161.421 429.217C154.072 418.386 147.791 406.887 142.847 394.853C134.295 374.662 129.217 353.402 127.614 331.607L151.399 337.356C156.076 377.069 173.715 412.904 200.04 440.315L192.156 453.151L203.648 446.064L204.984 445.262C232.377 471.603 268.056 489.387 307.877 494.067L313.623 517.868C291.841 516.263 270.595 511.049 250.417 502.625V502.491ZM288.768 519.205L287.164 527.094C273.401 524.42 259.905 520.275 246.809 514.926L249.883 507.572C262.31 512.653 275.272 516.665 288.634 519.339L288.768 519.205ZM214.204 488.318L209.794 495.003C209.794 495.003 209.26 494.602 208.993 494.468C197.634 486.847 186.944 478.022 177.323 468.261L182.935 462.645C192.557 472.272 202.979 480.83 214.338 488.318H214.204ZM157.145 431.222L150.464 435.635C142.847 424.269 136.3 412.235 131.088 399.8C130.954 399.399 130.687 398.998 130.554 398.597L137.903 395.521C143.115 408.09 149.529 420.124 157.012 431.222H157.145ZM156.076 338.426L195.764 347.92L248.546 360.622L244.003 367.976L202.311 436.036C195.764 429.083 189.617 421.595 184.272 413.572C177.991 404.212 172.512 394.318 168.236 383.888C162.09 369.314 157.947 354.07 155.943 338.292L156.076 338.426ZM261.241 476.818C250.952 472.406 240.93 467.057 231.576 460.773C223.558 455.424 216.075 449.274 208.993 442.722L277.009 401.003L284.358 396.457L297.053 449.273L306.674 489.12C291.04 487.114 275.806 482.969 261.241 476.818ZM206.32 438.844L248.145 370.517L253.49 361.826L277.543 367.575L206.32 438.844ZM126.144 356.611L118.26 358.215C116.256 348.454 115.053 338.56 114.518 328.398L122.67 330.403C123.338 339.362 124.407 348.053 126.144 356.611ZM156.344 485.643C146.054 475.08 136.7 463.581 128.416 451.413C119.73 438.443 112.113 424.67 106.1 410.23C99.953 395.655 95.1424 380.278 92.069 364.767C89.1292 350.728 87.5257 336.287 87.2584 321.712L109.841 327.194C112.648 382.551 135.899 432.559 172.245 469.598L156.344 485.51V485.643ZM280.216 553.302C264.715 550.093 249.348 545.413 234.783 539.262C220.485 533.245 206.587 525.623 193.626 516.932C181.465 508.776 169.974 499.282 159.551 488.986L175.452 473.074C212.467 509.444 262.443 532.71 317.631 535.384L323.11 557.982C308.678 557.581 294.247 555.976 280.216 553.168V553.302ZM328.99 558.249C328.99 558.249 328.322 558.249 327.921 558.249L301.463 448.204L281.819 366.506L281.151 363.831L328.856 316.096V558.249H328.99ZM464.354 516.932C451.392 525.623 437.629 533.245 423.197 539.262C408.631 545.413 393.264 550.226 377.764 553.302C363.733 556.243 349.301 557.848 334.869 558.115L340.348 535.518C395.536 532.71 445.379 509.444 482.527 473.208L498.429 489.12C488.006 499.416 476.514 508.776 464.354 516.932ZM451.793 438.844L383.51 396.992L374.824 391.644L380.57 367.575L451.793 438.844ZM409.433 360.756L462.216 348.053L501.903 338.56C499.899 354.204 495.756 369.447 489.609 384.156C485.2 394.451 479.855 404.48 473.574 413.84C468.229 421.729 462.216 429.35 455.535 436.303L413.843 368.244L409.3 360.89L409.433 360.756ZM381.104 401.003L449.12 442.722C442.172 449.407 434.555 455.424 426.537 460.773C417.184 467.057 407.295 472.539 396.872 476.818C382.307 482.969 367.073 487.114 351.439 489.12L361.06 449.273L373.755 396.457L381.104 401.003ZM453.129 445.128L465.957 453.017L458.073 440.181C484.398 412.77 502.037 377.069 506.714 337.223L530.499 331.473C528.896 353.268 523.684 374.528 515.132 394.719C510.054 406.753 503.774 418.252 496.558 429.083C489.342 439.78 481.057 449.808 471.837 459.035C462.617 468.261 452.595 476.551 441.905 483.771C431.081 491.125 419.589 497.41 407.562 502.357C387.385 510.915 366.272 515.996 344.357 517.601L350.103 493.8C389.79 489.12 425.602 471.336 452.996 444.995L453.129 445.128ZM531.969 356.477L539.853 358.082C537.181 371.854 533.038 385.359 527.693 398.463L520.344 395.387C525.421 382.952 529.43 369.982 532.103 356.611L531.969 356.477ZM507.783 435.501C507.783 435.501 507.382 436.036 507.248 436.303C499.631 447.669 490.812 458.366 481.057 468.127L475.445 462.511C485.066 452.884 493.618 442.454 501.235 431.089L507.916 435.501H507.783ZM448.452 494.869C437.228 502.491 425.068 508.909 412.64 514.258C412.239 514.391 411.705 514.659 411.304 514.793L408.231 507.438C420.791 502.224 432.818 495.805 443.909 488.318L448.319 495.003L448.452 494.869ZM369.479 519.071L371.082 526.96C361.327 528.832 351.439 530.169 341.551 530.704L343.555 522.548C352.374 521.879 361.06 520.81 369.612 519.071H369.479ZM566.044 364.901C562.837 380.412 558.16 395.789 552.013 410.363C546 424.67 538.383 438.577 529.698 451.547C521.413 463.714 512.059 475.347 501.636 485.777L485.734 469.865C522.081 432.693 545.466 382.685 548.272 327.328L570.855 321.846C570.454 336.287 568.85 350.728 566.044 364.901ZM570.988 317.032L461.147 343.373L379.501 363.029L376.695 363.698L328.99 315.962V73.9429C328.99 73.9429 329.658 73.9429 330.059 73.9429L356.383 183.721L376.026 265.419L376.695 268.227L341.952 302.992L328.99 315.962H570.988C570.988 316.23 570.988 316.631 570.988 316.898V317.032Z" fill="#EE5D53"/>
</g>
<defs>
<clipPath id="clip0_186_273">
<rect width="637" height="635" fill="white"/>
</clipPath>
</defs>
</svg>
