<svg width="80" height="90" viewBox="0 0 80 90" fill="none" xmlns="http://www.w3.org/2000/svg">
<g clip-path="url(#clip0_132_431)">
<path d="M20.9617 90C9.40301 90 -1.50874e-05 80.5026 -1.50874e-05 68.8467C-1.50874e-05 67.7018 0.910554 66.7821 2.04412 66.7821C3.17769 66.7821 4.08825 67.7018 4.08825 68.8467C4.08825 78.2315 11.6516 85.8895 20.9617 85.8895C25.7561 85.8895 33.0964 81.1595 33.0964 75.341C33.0964 69.5224 37.705 65.1679 41.7747 61.3952C42.9454 60.3253 44.0418 59.293 45.0081 58.2795C49.2636 53.7935 51.6051 47.8999 51.6051 41.6684C51.6051 35.4369 49.115 29.1679 44.5807 24.6257C40.1022 20.121 34.1556 17.6434 27.8374 17.6434C27.7816 17.6434 27.7259 17.6434 27.6701 17.6434C21.3333 17.6809 15.3867 20.2336 10.9082 24.8321C6.42972 29.4307 3.99534 35.4932 4.06967 41.8936C4.06967 43.0386 3.17769 43.9771 2.04412 43.9771C0.910554 43.9771 -0.0185981 43.0761 -0.0185981 41.9312C-0.0929303 34.4234 2.75028 27.3285 8.00928 21.9416C13.2497 16.5547 20.2369 13.5704 27.6516 13.5141C35.1219 13.4578 42.1649 16.367 47.4797 21.6788C52.7944 27.0094 55.712 34.0855 55.712 41.6496C55.712 49.2138 52.9617 55.8582 47.9628 61.1137C46.9036 62.2398 45.6957 63.3472 44.525 64.4171C40.9013 67.7581 37.1661 71.2304 37.1661 75.3034C37.1661 79.3764 35.1219 82.9989 31.4425 85.927C28.302 88.4233 24.2694 89.9812 20.9431 89.9812L20.9617 90Z" fill="#EE5D53"/>
<path d="M13.4727 63.8352C12.3391 63.8352 11.4286 62.9155 11.4286 61.7706C11.4286 60.6257 12.3391 59.7059 13.4727 59.7059C17.8397 59.7059 21.3891 56.121 21.3891 51.7101C21.3891 47.2993 17.8397 43.7143 13.4727 43.7143C12.3391 43.7143 11.4286 42.7946 11.4286 41.6496C11.4286 32.4901 18.806 25.0574 27.856 25.0574C36.9059 25.0574 44.2834 32.5089 44.2834 41.6496C44.2834 42.7946 43.3728 43.7143 42.2392 43.7143C41.1057 43.7143 40.1951 42.7946 40.1951 41.6496C40.1951 34.78 34.6574 29.1867 27.856 29.1867C21.6864 29.1867 16.5389 33.804 15.6469 39.7915C21.2218 40.8238 25.4588 45.7789 25.4588 51.7101C25.4588 58.3921 20.0697 63.8352 13.4541 63.8352H13.4727Z" fill="#EE5D53"/>
<path d="M64.5203 80.7091C64 80.7091 63.4983 80.5214 63.0894 80.1272C62.2718 79.3389 62.2718 78.025 63.0523 77.1992C71.0987 68.8655 75.8931 55.0886 75.8931 40.3545C75.8931 25.6204 71.0987 11.8436 63.0523 3.5099C62.2718 2.68404 62.2718 1.38895 63.0894 0.581854C63.9071 -0.206467 65.1893 -0.206467 65.9884 0.619394C74.7596 9.70386 80 24.5693 80 40.3545C80 56.1397 74.7596 71.0052 65.9884 80.0897C65.5796 80.5026 65.0592 80.7091 64.5203 80.7091Z" fill="#EE5D53"/>
<path d="M57.1614 65.7873C56.6411 65.7873 56.1394 65.5996 55.7305 65.2054C54.9129 64.4171 54.9129 63.1032 55.6934 62.2774C60.4506 57.341 63.3124 49.1387 63.3124 40.3545C63.3124 31.5704 60.4692 23.3681 55.6934 18.4317C54.9129 17.6058 54.9129 16.3107 55.7305 15.5037C56.5482 14.7153 57.8304 14.7153 58.6295 15.5412C64.1301 21.2284 67.4007 30.5005 67.4007 40.3545C67.4007 50.2086 64.1301 59.4619 58.6295 65.1679C58.2207 65.5808 57.7004 65.7873 57.1614 65.7873Z" fill="#EE5D53"/>
</g>
<defs>
<clipPath id="clip0_132_431">
<rect width="80" height="90" fill="white"/>
</clipPath>
</defs>
</svg>
