<svg width="102" height="67" viewBox="0 0 102 67" fill="none" xmlns="http://www.w3.org/2000/svg">
<g clip-path="url(#clip0_132_427)">
<path d="M51.6542 67C14.8503 67 0.270006 34.4453 0.124618 34.1129C-0.0415394 33.7181 -0.0415394 33.2819 0.124618 32.8871C0.270006 32.5547 14.8503 0 51.6542 0C88.4582 0 101.772 32.5963 101.896 32.9287C102.042 33.3026 102.042 33.6974 101.896 34.0713C101.772 34.4037 88.4789 67 51.6542 67ZM3.26084 33.5104C5.42089 37.894 19.6897 63.9253 51.6542 63.9253C83.6188 63.9253 96.8699 37.7278 98.7807 33.5104C96.8699 29.293 83.7019 3.0955 51.6542 3.0955C19.6066 3.0955 5.42089 29.1268 3.26084 33.5104Z" fill="#F15F55"/>
<path d="M50.9896 50.2344C41.7679 50.2344 34.2492 42.7138 34.2492 33.4896C34.2492 24.2654 41.7679 16.7448 50.9896 16.7448C60.2114 16.7448 67.73 24.2654 67.73 33.4896C67.73 42.7138 60.2321 50.2344 50.9896 50.2344ZM50.9896 19.8403C43.471 19.8403 37.3439 25.969 37.3439 33.4896C37.3439 41.0102 43.471 47.1389 50.9896 47.1389C58.5082 47.1389 64.6353 41.0102 64.6353 33.4896C64.6353 25.969 58.5082 19.8403 50.9896 19.8403Z" fill="#F15F55"/>
</g>
<defs>
<clipPath id="clip0_132_427">
<rect width="102" height="67" fill="white"/>
</clipPath>
</defs>
</svg>
