<svg width="1304" height="970" viewBox="0 0 1304 970" fill="none" xmlns="http://www.w3.org/2000/svg">
<g clip-path="url(#clip0_132_339)">
<path d="M229.527 814.148C212.429 814.148 198.644 808.822 188.17 798.169C177.786 787.517 172.594 772.612 172.594 753.455V644.422C172.594 621.505 177.114 603.96 186.156 591.785C195.287 579.611 210.102 573.523 230.602 573.523C241.791 573.523 251.728 575.582 260.411 579.7C269.184 583.818 276.077 589.995 281.09 598.23C286.103 606.377 288.609 616.671 288.609 629.114V669.935H241.612V635.022C241.612 627.951 240.717 623.206 238.927 620.789C237.136 618.283 234.361 617.029 230.602 617.029C226.215 617.029 223.261 618.641 221.739 621.863C220.217 624.996 219.457 629.204 219.457 634.485V752.784C219.457 759.319 220.396 763.929 222.276 766.614C224.246 769.3 227.021 770.643 230.602 770.643C234.63 770.643 237.45 768.986 239.061 765.674C240.762 762.362 241.612 758.065 241.612 752.784V710.218H289.146V754.932C289.146 775.7 283.91 790.784 273.436 800.184C262.962 809.493 248.326 814.148 229.527 814.148ZM304.991 812V575.672H351.988V660.132H374.278V575.672H421.275V812H374.278V704.847H351.988V812H304.991ZM442.223 812V575.672H536.754V621.326H490.294V667.383H534.874V711.829H490.294V765.943H539.842V812H442.223ZM555.553 812V575.672H628.062C640.147 575.672 649.278 578.447 655.455 583.997C661.632 589.458 665.75 597.156 667.809 607.093C669.957 616.94 671.031 628.532 671.031 641.871C671.031 654.761 669.375 665.056 666.063 672.754C662.84 680.453 656.708 685.779 647.667 688.733C655.097 690.255 660.289 693.97 663.243 699.878C666.287 705.697 667.809 713.261 667.809 722.571V812H621.214V719.483C621.214 712.59 619.782 708.338 616.917 706.727C614.142 705.026 609.622 704.175 603.355 704.175V812H555.553ZM603.624 663.221H615.038C621.572 663.221 624.84 656.104 624.84 641.871C624.84 632.65 624.124 626.608 622.691 623.743C621.259 620.879 618.574 619.446 614.635 619.446H603.624V663.221ZM744.615 812L767.442 575.672H847.606L870.03 812H825.316L821.959 773.865H793.492L790.538 812H744.615ZM796.849 736.133H818.333L807.994 615.955H805.846L796.849 736.133ZM884.532 812V575.672H956.505L976.378 719.751L996.117 575.672H1068.76V812H1025.52V641.736L998.399 812H955.968L927.232 641.736V812H884.532ZM1087.56 812V575.672H1133.21V812H1087.56Z" fill="#EE5E54"/>
<path d="M1299.86 0C1299.86 0 1291.85 45.7293 1262.02 147.41C1232.2 249.09 1185.53 280.025 1169.79 299.662C1154.05 319.298 1118.15 374.981 1080.87 409.412C1043.86 443.575 984.214 487.152 981.728 497.912C980.9 502.216 971.234 513.514 957.979 526.156L956.322 526.963C956.322 526.963 938.924 498.181 910.48 507.327C882.313 516.473 871.543 541.489 871.543 541.489C871.543 541.489 816.312 570.272 767.985 570.272C719.658 570.272 629.355 543.641 621.347 534.495C613.338 525.618 521.931 508.672 461.178 491.456C400.7 474.509 330.557 437.657 302.389 425.821C274.221 413.985 204.078 403.494 118.194 323.602C32.3101 243.979 0 206.051 0 206.051C0 206.051 17.3977 263.616 66.0009 306.925C114.328 350.233 153.542 388.161 153.542 388.161C153.542 388.161 133.382 398.652 148.295 403.763C163.207 408.874 253.233 469.398 253.233 469.398C253.233 469.398 234.455 481.234 245.225 485C255.995 489.035 305.703 515.128 305.703 515.128C305.703 515.128 289.686 529.115 301.56 534.495C313.711 539.875 362.038 547.945 362.038 547.945C362.038 547.945 337.737 563.547 355.41 570.272C372.808 576.728 390.482 579.418 390.482 579.418C390.482 579.418 381.093 591.253 390.482 592.598C399.871 593.943 436.324 600.399 436.324 600.399C436.324 600.399 426.934 608.2 436.324 614.925C445.713 621.381 470.014 635.907 470.014 635.907C470.014 635.907 468.634 650.433 480.784 651.509C492.935 652.854 511.714 651.509 511.714 651.509C511.714 651.509 519.722 677.601 538.501 677.601H568.049L582.962 651.509C582.962 651.509 570.811 676.525 597.874 685.671C624.661 694.817 669.122 697.507 687.9 698.852C706.679 700.197 713.582 698.852 713.582 698.852C713.582 698.852 696.185 766.908 677.13 777.399C658.352 787.89 593.732 818.017 570.811 828.508C547.89 838.999 472.5 871.816 472.5 871.816C472.5 871.816 476.642 882.307 484.651 886.342C492.659 890.377 486.031 907.324 496.801 911.359L507.571 915.394C507.571 915.394 522.484 928.575 526.35 928.575H535.739C535.739 928.575 534.358 941.755 538.501 943.1C542.643 944.445 552.032 943.1 552.032 943.1C552.032 943.1 558.66 952.246 562.802 952.246H574.953C574.953 952.246 576.334 961.392 585.723 961.392H607.263C607.263 961.392 604.502 967.848 611.405 969.193C618.033 970.538 628.803 969.193 628.803 969.193C628.803 969.193 626.042 969.193 640.954 969.731C655.866 970.538 677.406 961.392 677.406 961.392L692.319 970L701.708 933.955C701.708 933.955 707.231 953.591 715.239 956.281C723.248 958.971 734.018 954.936 747.549 948.48C761.081 942.024 786.487 940.679 792.01 932.878C797.257 925.078 814.379 904.096 814.379 904.096C814.379 904.096 837.852 898.985 841.718 898.985C845.584 898.985 874.028 880.693 872.647 871.547C871.266 862.402 900.815 842.765 912.966 834.964C925.117 827.163 961.293 794.346 961.293 794.346L926.221 778.744C926.221 778.744 923.46 760.452 926.221 749.961C928.43 741.084 949.142 716.068 957.703 687.285C969.854 684.595 983.109 682.981 983.109 682.981C983.109 682.981 988.632 682.174 1001.61 675.449C1014.87 668.724 1046.07 652.854 1061.81 636.176C1077.55 619.498 1058.5 599.323 1058.5 599.323L1080.04 619.767C1080.04 619.767 1087.77 616.539 1101.58 610.89C1115.39 605.241 1110.42 577.804 1110.42 577.804C1110.42 577.804 1124.78 573.5 1133.06 568.658C1141.35 563.816 1134.44 550.366 1134.44 550.366C1134.44 550.366 1146.32 529.384 1150.46 520.507C1154.6 511.362 1144.66 506.789 1144.66 506.789C1144.66 506.789 1168.41 489.842 1174.76 485.807C1181.11 481.772 1169.51 473.433 1169.51 473.433C1169.51 473.433 1181.11 465.632 1191.33 454.334C1201.27 442.768 1177.25 435.236 1177.25 435.236C1177.25 435.236 1209.28 413.447 1215.91 404.57C1222.53 395.693 1205.14 387.354 1205.14 387.354C1205.14 387.354 1230.54 347.543 1236.89 340.549C1243.25 333.555 1224.47 327.906 1224.47 327.906C1224.47 327.906 1265.34 243.71 1274.18 234.296C1282.74 224.881 1263.68 220.846 1263.68 220.846C1263.68 220.846 1276.66 172.964 1294.06 117.551C1311.73 61.8691 1300.69 1.88297 1300.69 1.88297L1299.86 0Z" fill="#EE5D53"/>
<path d="M440.742 618.153L469.462 635.907C469.462 635.907 464.768 654.199 489.345 652.047V634.831H536.015V590.178H441.018V618.153H440.742Z" fill="#F8E9D4"/>
<path d="M554.794 677.601V590.177H626.042C626.042 590.177 671.607 583.721 670.503 646.398C670.503 646.398 671.607 690.513 656.419 696.162C656.419 696.162 603.949 691.32 589.589 681.905C575.229 672.49 580.2 655.543 582.133 652.315L567.773 677.87H554.794V677.601Z" fill="#F8E9D4"/>
<path d="M667.188 782.241L621.071 804.836L620.794 821.245H667.188V782.241Z" fill="#F8E9D4"/>
<path d="M848.069 590.177H767.708L744.788 821.245H790.905L793.667 783.855H822.387L825.701 821.245H870.714L848.069 590.177Z" fill="#F8E9D4"/>
<path d="M1070.37 609.276L1069.82 590.177H996.917L981.5 683.5C981.5 683.5 1015.37 671.225 1022 664.5L1026.74 654.737L1025.5 663C1025.5 663 1078.38 629.064 1069.82 614C1061.26 598.936 1057.95 598.785 1057.95 598.785L1070.65 609.276H1070.37Z" fill="#F8E9D4"/>
<path d="M972 684.5L957.427 590.177H885.074V821.245H927.878L927 779L926.436 776.909C926.436 776.909 924.227 756.164 926.436 750.784C928.646 745.405 928 745.5 928 745.5L928.154 654.468L941 723C941 723 956.874 692.396 957.703 685.402L971.5 684.5H972Z" fill="#F8E9D4"/>
<path d="M819.073 747.002H797.257L806.094 629.72H808.303L819.073 747.002Z" fill="#EE5E54"/>
<path d="M603.121 633.217V675.987H609.749C609.749 675.987 614.996 675.987 617.481 675.18C619.966 674.373 622.728 668.724 623.004 666.572C623.28 664.42 624.385 649.357 624.385 648.012C624.385 646.667 625.489 634.831 616.652 633.217H602.845H603.121Z" fill="#EE5E54"/>
</g>
<defs>
<clipPath id="clip0_132_339">
<rect width="1304" height="970" fill="white"/>
</clipPath>
</defs>
</svg>
