<svg width="1031" height="196" viewBox="0 0 1031 196" fill="none" xmlns="http://www.w3.org/2000/svg">
<g clip-path="url(#clip0_186_388)">
<path d="M1029.06 45.4962H1023.88C1023.88 45.4962 1022.37 44.8493 1022.37 43.9869V26.5215C1022.37 25.4434 1021.51 24.3653 1020.22 24.3653H977.52C977.52 24.3653 976.442 21.3466 973.207 21.3466H742.467C742.467 21.3466 741.604 18.7591 738.585 18.7591C735.782 18.7591 657.934 18.7591 643.917 18.7591C644.132 17.2498 643.917 15.7404 641.976 13.7998C641.113 12.9374 639.82 12.2905 638.526 12.2905C636.154 12.2905 634.213 14.0155 633.566 16.1717H588.927V12.7217H586.771C586.771 12.7217 584.399 11.428 583.105 11.428C581.811 11.428 580.517 11.8592 579.439 12.7217H577.282V14.2311L572.538 13.7998C571.676 11.8592 569.735 10.7811 567.578 10.7811C565.638 10.7811 564.128 11.6436 563.05 13.153C561.972 13.153 560.893 12.2905 560.031 11.428C559.384 10.7811 558.09 11.2124 558.09 12.2905V14.4467C553.13 12.0749 548.602 6.03747 541.054 6.03747C535.016 6.03747 531.997 11.2124 531.35 15.7404H529.194C529.194 15.7404 522.724 18.1123 512.589 18.1123H483.692C466.441 18.1123 461.05 20.2685 461.05 20.2685H441.426V24.5809H407.354V16.6029C407.354 16.6029 406.923 15.5248 406.276 15.5248H377.811C377.811 15.5248 376.732 15.9561 376.732 16.6029V24.3653L374.36 21.3466H362.715L359.912 24.7965H300.178C300.178 24.7965 298.669 25.4434 298.669 26.3059V29.3246H263.087C262.009 23.2872 259.421 18.5435 255.971 15.0936C257.696 13.153 258.774 10.5655 258.343 7.76244C257.912 3.45001 254.461 6.29723e-05 250.149 -0.43118C244.542 -1.07804 239.798 3.45001 239.798 8.84055C239.798 14.0155 243.895 18.1123 248.855 18.1123C249.933 21.5622 251.442 27.1684 251.658 32.7745H248.423V30.6183H235.916C235.916 30.6183 235.053 29.7558 234.406 29.9715C233.544 29.9715 233.113 30.8339 233.113 31.6964V38.3807H231.172V37.9495C231.172 37.9495 230.74 36.8713 230.094 36.8713C229.447 36.8713 229.015 37.3026 229.015 37.9495V44.2025C229.015 44.2025 229.447 45.2806 230.094 45.2806C230.74 45.2806 231.172 44.8493 231.172 44.2025V43.7712H233.113V45.7118C233.113 45.7118 233.759 47.2212 234.406 47.4368C235.269 47.4368 235.916 47.0056 236.132 46.3587H240.876V47.868H282.28L217.155 72.8801H184.808L7.5476 86.6799C2.37212 87.1112 -1.07821 92.0705 0.431308 97.0298C2.15647 103.498 4.52857 113.201 6.25373 126.57C9.48841 150.504 4.09728 170.988 10.7823 190.825C12.2918 195.138 17.036 197.078 21.1333 195.353C31.6999 190.61 45.2855 184.572 59.7338 178.535L60.812 181.122C60.812 181.122 61.0276 181.553 61.2433 181.769L51.7549 193.197C51.7549 193.197 51.3236 194.706 51.7549 195.138C52.1862 195.569 52.6175 195.569 53.0488 195.138C53.0488 195.138 53.48 195.138 53.48 194.706L62.9684 183.278C62.9684 183.278 65.1249 183.71 66.4188 183.278C69.0065 182.416 70.0847 179.397 69.0065 177.025L67.9283 174.654C111.273 156.326 162.165 136.057 178.123 132.607C201.413 127.432 221.683 127.217 232.897 122.473C233.328 122.473 233.544 121.826 233.544 121.395V119.239C233.544 114.064 236.563 109.105 241.307 106.948C246.267 104.577 253.168 101.558 261.793 98.3235C278.182 92.2861 284.652 89.483 298.453 88.1893L299.747 103.283C300.178 107.811 302.335 111.908 306.216 115.142C310.96 119.023 317.214 121.179 324.33 121.179C325.624 121.179 326.918 121.179 328.212 121.179C337.916 120.101 347.405 114.926 352.149 108.458V110.398C351.071 114.711 355.168 118.376 359.481 117.083L433.231 95.736C438.191 94.2267 441.857 89.9143 442.504 84.7393L443.151 78.2707H445.954V83.23C445.954 86.0331 448.111 88.1893 450.914 88.1893C453.718 88.1893 455.874 86.0331 455.874 83.23V78.2707C470.969 79.1332 494.475 75.252 528.331 73.7426C558.953 72.2333 639.604 71.3708 659.659 71.3708C679.714 71.3708 708.179 65.9803 723.49 65.7646C726.078 65.7646 732.978 65.7646 742.682 65.3334V66.6271C742.682 69.2146 744.839 71.5864 747.427 71.3708C748.72 71.3708 749.799 70.7239 750.445 70.0771L763.6 76.977C763.6 76.977 764.031 76.977 764.247 76.977C764.678 76.977 765.109 76.7613 765.541 76.3301C765.972 75.6832 765.541 74.8207 764.894 74.6051L751.739 67.7052C751.739 67.7052 751.739 67.0584 751.739 66.8427V65.1178C802.632 64.2553 902.691 62.3147 911.317 62.0991V62.7459C911.317 64.6865 911.964 66.4115 913.258 67.7052C914.552 68.999 915.414 68.999 916.492 68.999L922.53 82.5831C922.53 82.5831 923.177 83.4456 923.824 83.4456C923.824 83.4456 924.256 83.4456 924.471 83.4456C925.118 83.23 925.549 82.3675 925.118 81.7206L919.08 68.1365C919.08 68.1365 920.59 65.9803 920.59 64.6865V58.4335H922.962V59.7272H921.883V62.5303H930.941L932.666 64.2553V68.7833H931.588V72.2333H946.683V62.9616H948.839V58.2179L1013.75 57.1398C1013.75 57.1398 1014.83 57.3554 1015.26 57.7866L1017.41 60.3741C1017.41 60.3741 1018.28 61.021 1018.92 61.021H1029.27C1029.27 61.021 1031.22 60.1585 1031.22 59.0804V48.0837C1031.22 48.0837 1030.35 46.1431 1029.27 46.1431L1029.06 45.4962ZM327.781 118.592C320.233 119.454 312.686 117.514 307.941 113.417C304.707 110.614 302.766 107.164 302.55 103.498C302.119 97.461 305.785 91.6392 311.607 87.758C313.117 86.6799 315.058 86.0331 316.783 85.8174L320.233 85.3862L319.371 90.7767C318.939 92.933 318.077 94.6579 316.567 96.3829C314.626 98.5391 313.548 101.342 313.548 104.361C313.548 108.889 316.136 112.986 320.018 114.926C320.449 114.926 320.88 114.926 321.096 114.926C321.311 114.495 321.096 114.064 320.88 113.633C319.586 112.77 318.508 111.908 317.645 110.398C315.273 106.301 316.352 100.911 320.018 98.1079L328.643 91.4236L329.937 84.5237L335.544 83.8768L333.388 89.2674C333.388 89.2674 333.603 90.1299 334.035 90.1299L335.328 89.6986C338.347 88.6205 341.366 88.1893 344.385 88.1893C344.385 88.1893 344.817 88.4049 345.032 88.6205C348.267 91.4236 350.208 94.8736 350.424 98.5391C351.286 108.458 340.935 117.514 327.781 119.023V118.592ZM450.699 85.6018C449.189 85.6018 447.895 84.3081 447.895 82.7987C447.895 81.2894 449.189 79.9957 450.699 79.9957C452.208 79.9957 453.502 81.2894 453.502 82.7987C453.502 84.3081 452.208 85.6018 450.699 85.6018ZM928.569 60.8053H924.471V58.8647H928.569C928.569 58.8647 928.569 61.021 928.569 60.8053Z" fill="#EE5D53"/>
</g>
<defs>
<clipPath id="clip0_186_388">
<rect width="1031" height="196" fill="white"/>
</clipPath>
</defs>
</svg>
