<svg width="953" height="1594" viewBox="0 0 953 1594" fill="none" xmlns="http://www.w3.org/2000/svg">
<path d="M53 1579H891C918.614 1579 941 1556.61 941 1529V921.084C941 903.434 931.695 887.092 916.517 878.085L462.127 608.43C445.266 598.424 424.112 599.196 408.026 610.405L24.4159 877.692C10.9978 887.042 3 902.362 3 918.716V1529C3 1556.61 25.3858 1579 53 1579Z" fill="#EE5C52"/>
<rect x="69.5" y="2.5" width="814" height="1549" rx="47.5" fill="#F9EAD5" stroke="#EE5C52" stroke-width="5"/>
<path d="M3 919.5L304 1280.5M304 1280.5L18.5 1554M304 1280.5H676.5M942 924.5L676.5 1280.5M676.5 1280.5L936 1554" stroke="#F9EAD5" stroke-width="5"/>
<path d="M3 904L322 1288.53H695.5L942 904L950 1591H3V904Z" fill="#EE5C52"/>
<path d="M322 1288.53L3 904V1591M322 1288.53L3 1591M322 1288.53H695.5M3 1591H950M950 1591L695.5 1288.53M950 1591L942 904L695.5 1288.53" stroke="#F9EAD5" stroke-width="5"/>
</svg>
