<svg width="104" height="111" viewBox="0 0 104 111" fill="none" xmlns="http://www.w3.org/2000/svg">
<g clip-path="url(#clip0_132_437)">
<path d="M88.3433 50.0848L58.9664 82.2923C54.6213 87.069 48.4814 89.8121 42.1526 89.8121C36.8392 89.8121 31.8093 87.873 27.9837 84.3732C19.2462 76.3805 18.9155 62.4286 27.2516 53.2772L56.6285 21.0697L40.9719 6.73944L11.5949 38.9469C7.65124 43.2507 4.65215 48.2166 2.66849 53.6792C0.732073 58.9288 -0.141678 64.4386 1.09319e-05 70.0194C0.165315 75.6474 1.39329 81.0626 3.66032 86.1468C6.02181 91.4438 9.37512 96.1022 13.6494 100.028C17.9237 103.929 22.8592 106.862 28.3379 108.73C32.7539 110.243 37.3824 111 42.0818 111C42.9555 111 43.8293 110.976 44.703 110.929C50.2761 110.598 55.6839 109.226 60.7611 106.838C66.0036 104.379 70.6794 100.926 74.5995 96.6225L103.976 64.415L88.3197 50.0848H88.3433ZM41.2316 13.2188L50.1108 21.3298L41.1372 31.167L32.258 23.056L41.2316 13.2188ZM79.6531 66.425L88.6267 56.5878L97.5059 64.6988L88.5323 74.536L79.6531 66.425Z" fill="#EE5E54"/>
<path d="M104 0L65.4605 24.9005L76.2997 29.6536L54.1253 50.8888L95.8292 28.1402L83.6203 22.7959L104 0Z" fill="#EE5E54"/>
</g>
<defs>
<clipPath id="clip0_132_437">
<rect width="104" height="111" fill="white"/>
</clipPath>
</defs>
</svg>
