<svg width="49" height="44" viewBox="0 0 49 44" fill="none" xmlns="http://www.w3.org/2000/svg">
<path fill-rule="evenodd" clip-rule="evenodd" d="M12 28.8175C12 28.5531 12.1149 28.2994 12.3195 28.1124C12.5241 27.9254 12.8016 27.8204 13.0909 27.8204H34.9091C35.1984 27.8204 35.4759 27.9254 35.6805 28.1124C35.8851 28.2994 36 28.5531 36 28.8175C36 29.082 35.8851 29.3356 35.6805 29.5226C35.4759 29.7096 35.1984 29.8147 34.9091 29.8147H13.0909C12.8016 29.8147 12.5241 29.7096 12.3195 29.5226C12.1149 29.3356 12 29.082 12 28.8175ZM12 20.8403C12 20.5759 12.1149 20.3222 12.3195 20.1352C12.5241 19.9482 12.8016 19.8432 13.0909 19.8432H34.9091C35.1984 19.8432 35.4759 19.9482 35.6805 20.1352C35.8851 20.3222 36 20.5759 36 20.8403C36 21.1048 35.8851 21.3584 35.6805 21.5454C35.4759 21.7324 35.1984 21.8375 34.9091 21.8375H13.0909C12.8016 21.8375 12.5241 21.7324 12.3195 21.5454C12.1149 21.3584 12 21.1048 12 20.8403ZM12 12.8631C12 12.5987 12.1149 12.345 12.3195 12.158C12.5241 11.971 12.8016 11.866 13.0909 11.866H34.9091C35.1984 11.866 35.4759 11.971 35.6805 12.158C35.8851 12.345 36 12.5987 36 12.8631C36 13.1276 35.8851 13.3812 35.6805 13.5682C35.4759 13.7552 35.1984 13.8603 34.9091 13.8603H13.0909C12.8016 13.8603 12.5241 13.7552 12.3195 13.5682C12.1149 13.3812 12 13.1276 12 12.8631Z" fill="#EE5C52"/>
<rect x="0.5" y="0.5" width="48" height="43" rx="8.5" stroke="#EE5C52"/>
</svg>
