<svg width="916" height="720" viewBox="0 0 916 720" fill="none" xmlns="http://www.w3.org/2000/svg">
<g clip-path="url(#clip0_194_3)">
<path d="M807.603 160.659C805.874 160.041 804.385 160.485 803.137 161.862C801.631 163.536 796.637 168.704 796.637 168.704C796.637 168.704 797.817 161.917 798.379 159.944C800.196 153.577 801.597 147.197 800.991 140.549C800.676 137.057 799.733 133.72 798.855 130.363C798.504 129.037 797.526 128.077 796.5 127.154C795.095 125.89 793.884 126.067 792.625 127.447C791.204 129.003 790.408 130.854 789.645 132.742C788.936 134.485 785.613 138.816 785.613 138.816C785.613 138.816 786.288 134.574 786.522 133.235C788.329 122.996 789.008 112.851 786.349 102.648C785.478 99.314 782.97 97.608 781.117 95.2577C780.107 93.9765 778.893 94.8494 778.105 95.979C776.998 97.5638 776.507 99.4105 775.826 101.169C774.961 103.404 771.769 110.572 771.769 110.572C771.769 110.572 772.096 106.687 772.187 106.049C773.065 100.277 771.273 94.8938 769.879 89.4575C769.682 88.6769 769.5 87.8683 769.127 87.1728C768.053 85.1207 766.585 82.7202 764.199 82.9467C762.019 83.1504 761.662 85.8896 761.334 87.855C760.444 93.1243 759.677 98.4172 758.919 103.696C758.762 104.765 757.64 108.133 757.64 108.133C757.64 108.133 756.794 96.7583 756.289 91.7185C755.953 88.3623 754.921 85.1675 753.979 81.9589C753.67 80.9039 753.587 79.2783 751.941 79.4135C750.55 79.5355 748.368 81.1062 748.022 82.2994C747.117 85.3935 746.633 88.0155 745.892 91.1459C743.645 100.662 742.676 110.405 740.454 119.926C740.096 121.452 738.653 124.392 738.653 124.392C738.653 124.392 736.744 115.756 736.141 111.415C735.789 108.876 735.208 106.402 734.409 103.989C733.946 102.601 733.338 101.241 732.593 99.9796C731.724 98.5291 730.318 97.5129 728.547 97.707C726.43 97.928 726.733 99.9156 726.561 101.224C725.705 107.45 724.948 113.694 724.296 119.932C722.994 132.291 721.719 144.665 719.415 156.894C717.512 166.96 713.535 176.482 709.479 185.931C703.956 198.775 697.213 211.01 689.491 222.744C685.963 228.099 681.419 232.692 677.09 237.425C667.417 248.002 658.153 258.947 648.11 269.216C641.714 275.758 634.865 281.827 627.983 287.859C626.03 289.577 617.863 293.521 617.863 293.521C617.863 293.521 622.092 285.601 622.067 283.052C622.016 277.578 619.946 275.63 614.348 276.116C612.694 276.266 612.119 275.651 612.892 274.384C614.659 271.506 614.237 268.386 614.425 265.341C614.833 258.7 611.755 253.975 605.65 251.377C603.466 250.44 603.802 249.214 604.033 247.57C604.808 241.851 605.367 236.157 604.454 230.384C603.793 226.166 602.027 223.002 597.635 221.84C595.445 221.257 594.913 219.959 595.128 217.967C595.32 216.228 595.261 214.478 595.478 212.744C596.507 204.503 592.062 199.069 585.954 194.458C584.848 193.628 583.543 192.971 582.151 193.129C578.922 193.499 578.692 191.727 578.897 189.325C579.347 184.039 577.502 179.26 575.183 174.721C572.496 169.461 566.096 167.112 560.117 168.754C559.201 169.013 558.328 169.507 557.242 169.331C556.583 160.871 554.941 152.725 549.119 146.043C548.056 144.824 547.034 143.581 545.648 142.677C541.614 140.071 538.46 140.538 535.223 144.256C534.412 145.18 533.663 146.157 532.286 146.37C531.278 145.594 531.992 144.662 532.093 143.809C533.634 130.335 528.844 118.803 519.747 109.406C513.327 102.775 505.018 103.591 499.505 112.428C497.803 115.158 496.199 117.943 493.828 120.639C493.576 116.871 493.436 113.082 493.058 109.326C492.456 103.442 490.645 98.1585 485.474 94.4485C479.978 90.501 471.853 92.8435 469.271 99.1322C467.868 102.544 467.344 106.32 464.71 109.961C463.179 106.625 461.832 103.778 460.549 100.902C458.603 96.5161 456.037 92.8123 451.232 90.813C445.569 88.4437 439.399 90.7873 437.05 96.5629C434.895 101.859 434.636 107.28 435.711 112.795C437.156 120.16 437.312 127.631 437.199 135.319C432.937 129.197 427.171 124.548 422.315 119.076C417.998 114.218 413.035 110.073 407.663 106.361C406.773 105.753 405.831 105.171 404.823 104.772C402.033 103.652 398.961 103.201 396.649 105.315C394.442 107.34 393.043 110.103 393.801 113.328C394.535 116.466 395.224 119.616 396.774 122.476C401.742 131.638 404.834 141.624 409.579 150.872C415.116 161.675 417.418 173.533 420.853 185.024C422.88 191.825 424.682 198.701 426.665 205.514C430.119 217.447 434.057 229.22 439.321 240.513C440.009 241.991 440.463 243.512 440.774 245.073C441.557 248.927 443.337 252.311 445.153 255.779C451.809 268.456 459.608 280.552 465.188 293.758C467.008 298.073 468.519 301.462 470.235 305.83C474.317 316.231 476.366 320.941 481.486 333.31C483.655 336.82 488.212 349.572 488.212 349.572C488.212 349.572 481.025 344.854 479.104 344.101C469.189 340.188 460.145 334.652 450.724 329.822C442.421 325.572 433.64 322.588 424.436 321.03C415.849 319.569 407.789 321.846 400.479 326.656C392.718 331.746 387.373 338.509 384.722 347.303C383.708 350.675 382.009 353.794 379.574 356.472C379.127 356.975 378.649 357.534 378.42 358.141C376.509 363.215 374.122 368.024 370.649 372.327C369.173 374.145 369.657 376.694 368.969 378.844L370.063 382.716C374.728 380.844 377.581 376.434 382.188 374.438C385.282 373.092 388.35 372.32 391.767 372.615C396.005 372.984 400.29 373.434 404.523 373.157C413.035 372.601 419.888 376.013 425.616 381.32C438.031 392.83 449.764 404.886 458.235 419.736C462.436 427.101 468.045 433.655 473.88 440.051C482.849 449.908 493.083 458.159 504.055 465.601C515.217 473.178 527.188 479.195 540.717 482.098C548.178 483.7 555.3 486.564 562.854 487.87C571.713 489.419 580.25 493.12 589.265 493.011C596.872 492.923 600.478 498.182 605.636 501.472C606.197 501.831 606.832 502.453 606.832 502.453C606.832 502.453 606.042 503.324 605.555 503.685C603.832 505.008 601.836 505.49 599.736 505.435C594.876 505.324 591.703 507.646 589.697 511.841C587.785 515.832 585.095 519.442 585.28 524.266C585.347 525.92 585.65 526.953 586.663 527.951C590.193 531.441 593.865 534.726 599.001 535.854C599.264 535.91 599.529 536.012 599.803 536.064C603.145 536.721 605.749 535.35 606.302 532.638C606.565 531.315 606.363 531.184 601.557 529.891C604.131 528.622 606.9 527.958 607.116 524.928C607.17 524.159 607.771 523.33 606.876 522.746C606.054 522.213 605.289 522.63 604.642 523.177C603.425 524.204 601.943 525.295 600.769 523.683C599.46 521.885 600.96 520.484 602.368 519.297C603.948 517.967 606.093 515.512 608.005 514.984C608.866 514.74 609.436 516.299 610.31 516.099C612.806 515.512 613.605 514.462 613.049 511.827C612.578 509.616 614.491 506.967 614.491 506.967C614.491 506.967 615.73 507.1 617.88 507.871C619.023 508.29 620.053 508.977 621.35 509.023C622.672 509.073 625.568 509.527 625.568 509.527C625.568 509.527 624.841 510.875 624.803 511.322C624.602 513.322 624.906 515.733 621.972 516.562C616.998 517.967 612.957 520.84 610.546 525.314C608.278 529.5 606.846 533.98 609.052 538.704C609.849 540.399 610.448 542.185 611.278 543.87C612.462 546.268 614.22 547.656 617.249 547.789C620.389 547.939 623.096 549.683 625.643 551.402C629.133 553.749 632.999 554.718 637.201 554.497C639.334 554.377 641.251 553.576 642.561 551.793C643.055 551.123 643.316 550.295 642.708 549.56C642.039 548.736 641.296 549.064 640.555 549.568C640.11 549.87 639.668 550.266 639.159 550.422C637.979 550.79 636.544 551.255 635.802 550.004C635.233 549.034 635.014 547.718 636.03 546.642C636.501 546.143 637.001 545.66 637.386 545.104C637.928 544.315 638.518 543.359 637.72 542.536C637.005 541.796 636.235 542.449 635.542 542.916C634.171 543.857 633.192 543.227 632.478 542.074C631.286 540.149 629.625 539.523 627.286 539.665C623.986 539.867 622.349 538.492 621.568 535.309C620.856 532.413 623.308 530.919 625.128 530.11C629.693 528.09 634.586 526.355 638.464 531.454C638.765 531.852 639.337 532.209 639.826 532.271C642.588 532.669 645.387 532.903 644.482 536.869C644.387 537.284 645.026 537.751 645.648 537.788C646.461 537.829 646.97 537.379 647.205 536.712C647.852 534.833 647.791 532.989 646.667 531.304C643.793 526.969 640.337 523.281 635.018 521.757C634.25 521.538 633.208 521.562 633.01 520.652C632.764 519.532 633.873 518.912 634.626 518.617C636.968 517.696 640.976 512.912 640.976 512.912C640.976 512.912 647.184 513.75 650.483 514.043C655.579 514.488 660.38 512.931 662.789 507.657C663.511 506.086 664.558 505.873 666.096 506.687C671.533 509.592 677.218 511.201 683.492 509.228C684.519 508.903 685.38 509.366 686.107 510.021C693.436 516.619 701.936 521.815 709.265 528.413C710.467 529.499 711.322 530.859 712.524 531.944C718.918 537.735 721.285 540.4 729.804 548.122C733.701 550.578 736.752 554.122 740.987 556.105C742.507 556.818 743.803 558.36 745.751 556.585C746.032 556.329 746.031 555.281 746.031 555.281C746.031 555.281 747.729 556.874 748.22 557.277C753.619 561.712 759.958 564.68 766.46 567.142C769.955 568.463 768.282 562.834 768.282 562.834C768.282 562.834 773.852 567.291 776.784 568.665C779.379 569.887 781.645 570.861 784.839 570.076C787.14 569.509 789.847 570.793 792.409 571.024C794.982 571.251 795.398 570.639 794.245 568.35C792.928 565.73 791.475 563.172 789.914 560.692C789.319 559.753 786.177 555.011 786.177 555.011C786.177 555.011 788.872 554.709 791.322 555.336C793.163 555.805 794.577 556.183 796.474 556.436C797.012 556.508 799.226 556.837 801.404 556.751C804.291 556.63 806.92 555.346 806.067 552.536C805.587 550.964 804.527 549.838 803.86 549.061C801.61 546.434 800.551 545.061 798.623 542.154C798.127 541.399 796.531 538.917 796.531 538.917C796.531 538.917 799.327 538.728 800.436 538.815C801.251 538.868 802.07 539.013 802.854 539.204C805.991 539.967 808.822 538.107 807.369 535.549C806.41 533.865 806.373 533.44 805.389 532.752C801.54 530.093 791.24 523.651 791.24 523.651C791.24 523.651 794.242 523.981 794.417 523.932C796.268 523.479 798.714 524.131 798.949 521.003C799.146 518.367 799.093 515.968 796.595 514.341C796.135 514.047 795.702 513.722 795.229 513.467C789.83 510.658 785.428 506.79 781.571 502.143C776.712 496.284 769.806 493.394 762.707 490.736C751.336 486.469 739.245 484.361 728.003 479.798C720.326 476.679 712.42 474.083 705.087 470.183C703.242 469.197 701.76 468.037 700.372 466.545C692.811 458.375 686.215 449.367 677.935 441.824C667.679 432.495 657.287 423.311 645.356 415.516C646.445 413.701 648.348 412.433 649.084 410.411C649.504 409.268 650.465 409.503 651.486 409.532C654.684 409.595 657.671 410.577 660.775 411.019C666.308 411.8 668.624 410.533 670.868 405.553C672.463 402.028 672.512 401.99 675.887 403.805C678.708 405.328 681.623 406.224 684.941 405.793C688.713 405.305 690.341 403.773 690.604 400.118C690.858 396.623 692.709 395.381 696.16 396.393C699.431 397.342 702.528 398.799 706.064 398.931C712.372 399.163 714.956 396.843 714.714 390.609C714.661 389.129 715.028 388.636 716.363 388.565C717.733 388.496 719.113 388.46 720.489 388.413C725.508 388.208 727.765 385.65 727.127 380.848C726.985 379.805 726.753 378.775 726.513 377.465C729.369 377.235 731.82 378.074 734.288 378.637C743.156 380.678 747.405 376.58 745.211 368.024C745.044 367.388 744.725 366.76 745.019 366.053C745.663 365.329 746.528 365.638 747.303 365.631C752.842 365.515 755.321 363.119 754.509 357.824C754.073 354.991 754.706 354.27 757.58 353.812C763.374 352.893 765.619 349.832 764.954 344.143C764.708 342.022 765.408 341.164 767.286 340.681C768.76 340.312 770.177 339.782 771.454 338.926C774.829 336.654 775.601 334.386 773.442 331.121C772.289 329.374 772.769 328.779 774.259 327.675C779.603 323.703 779.99 322.487 778.013 316.072C777.467 314.307 778.291 313.556 779.592 312.906C784.583 310.435 785.661 306.538 783.983 301.724C783.251 299.634 784.07 298.531 785.887 297.499C788.415 296.067 790.538 294.077 792.47 291.953C796.332 287.694 796.642 282.329 793.043 278.01C791.707 276.409 791.927 275.77 793.447 274.563C795.358 273.033 797.058 271.211 798.713 269.4C803.1 264.58 804.055 256.996 800.847 251.436C800.112 250.171 800.332 249.532 801.286 248.78C808.599 242.98 809.666 234.917 809.961 226.624C810.151 221.458 808.415 218.816 803.936 217.136C805.835 212.725 807.716 208.295 808.865 203.647C809.541 200.912 810.011 198.117 810.331 195.33C810.851 190.625 809.328 188.487 804.216 186.858C807.118 182.163 808.164 176.944 809.345 171.745C809.926 169.214 809.879 166.671 809.832 164.129C809.801 162.559 809.239 161.198 807.613 160.61L807.603 160.659Z" fill="#EF5D53"/>
</g>
<g clip-path="url(#clip1_194_3)">
<path d="M445.198 504.459C501.05 478.326 521.478 404.034 490.826 338.521C460.174 273.008 390.049 241.084 334.197 267.216C278.344 293.348 257.916 367.641 288.568 433.154C319.22 498.666 389.346 530.591 445.198 504.459Z" stroke="#F05E54" stroke-miterlimit="10"/>
<path d="M414.372 563.397C496.686 524.884 531.461 425.368 492.044 341.123C452.627 256.877 353.944 219.803 271.63 258.316C189.316 296.829 154.541 396.345 193.959 480.591C233.376 564.837 332.058 601.91 414.372 563.397Z" stroke="#F05E54" stroke-miterlimit="10"/>
<path d="M392.596 618.572C496.42 569.995 539.367 442.518 488.521 333.844C437.675 225.171 312.289 176.453 208.465 225.03C104.641 273.608 61.6939 401.085 112.54 509.758C163.386 618.432 288.771 667.149 392.596 618.572Z" stroke="#F05E54" stroke-miterlimit="10"/>
<path d="M106.727 524.459L107.459 500.155L127.551 514.716L106.727 524.459Z" fill="#F05E54" stroke="#F05E54" stroke-miterlimit="10"/>
<path d="M184.719 487.968L185.451 463.664L205.543 478.225L184.719 487.968Z" fill="#F05E54" stroke="#F05E54" stroke-miterlimit="10"/>
<path d="M282.956 442.004L283.688 417.701L303.683 432.307L282.956 442.004Z" fill="#F05E54" stroke="#F05E54" stroke-miterlimit="10"/>
</g>
<defs>
<clipPath id="clip0_194_3">
<rect width="482.814" height="557.85" fill="white" transform="translate(299 131.265) rotate(-15.7759)"/>
</clipPath>
<clipPath id="clip1_194_3">
<rect width="440.537" height="445.232" fill="white" transform="translate(0 316.694) rotate(-25.074)"/>
</clipPath>
</defs>
</svg>
