<svg width="318" height="492" viewBox="0 0 318 492" fill="none" xmlns="http://www.w3.org/2000/svg">
<rect x="2.5" y="137.5" width="313" height="352" rx="47.5" fill="#F9EAD5" stroke="#EE5C52" stroke-width="5"/>
<path d="M166.202 68.899L205.976 16.4001L200.764 13.383C199.2 12.4979 198.679 10.4865 199.561 8.91754L203.771 1.63609C204.653 0.067153 206.658 -0.455824 208.222 0.429214L229.873 12.9807L230.796 13.5036L231.718 14.0266L253.369 26.5781C254.933 27.4631 255.454 29.4746 254.572 31.0435L250.362 38.325C249.48 39.8939 247.475 40.4169 245.912 39.5318L240.699 36.5147L215.238 97.341C223.739 104.059 222.816 119.024 215.88 131.053C215.038 132.501 213.675 132.018 213.675 132.018C213.113 131.817 212.191 131.415 211.67 131.093L179.112 112.226L144.871 171.724L132 185L137.012 167.179L171.254 107.68L138.816 88.8929C138.295 88.571 137.493 88.0078 137.012 87.6055C137.012 87.6055 135.929 86.6803 136.771 85.1918C143.708 73.1633 156.138 64.8761 166.202 68.899Z" fill="#EE5C52"/>
</svg>
