<svg width="132" height="111" viewBox="0 0 132 111" fill="none" xmlns="http://www.w3.org/2000/svg">
<g clip-path="url(#clip0_132_448)">
<path d="M128.395 110.951C128.099 110.951 127.777 110.898 127.508 110.79L99.2924 100.538L61.5639 100.216C33.3214 99.9744 10.3457 76.8394 10.3457 48.6318V23.0813C10.3457 23.0813 10.3457 22.8666 10.3457 22.7593C12.0118 9.76931 23.1368 0 36.2235 0C37.3253 0 38.4539 0.0805163 39.5557 0.21471C49.7402 1.52981 58.2587 8.77627 61.2146 18.5187C61.4564 18.7335 130.491 106.684 130.491 106.684C131.216 107.597 131.243 108.912 130.571 109.851C130.061 110.549 129.255 110.951 128.422 110.951H128.395ZM15.6126 23.2692V48.6587C15.6126 73.9945 36.2504 94.7677 61.5908 94.9824L99.7761 95.3044C100.072 95.3044 100.367 95.3581 100.663 95.4655L120.548 102.685C120.548 102.685 56.6463 21.9541 56.4851 21.2831C54.4966 12.8826 47.4292 6.52182 38.8839 5.42143C37.9971 5.31407 37.1103 5.2604 36.2235 5.2604C25.8509 5.2604 17.01 12.99 15.6126 23.2692Z" fill="#EE5C52"/>
<path d="M24.3193 25.1748C24.3193 28.1002 26.6841 30.462 29.6131 30.462C32.5422 30.462 34.9069 28.1002 34.9069 25.1748C34.9069 22.2493 32.5422 19.8875 29.6131 19.8875C26.6841 19.8875 24.3193 22.2493 24.3193 25.1748Z" fill="#EE5C52"/>
<path d="M10.2651 24.8795H2.63347C1.18237 24.8795 0 23.6986 0 22.2493C0 20.8 1.18237 19.6191 2.63347 19.6191H10.2651C11.7162 19.6191 12.8986 20.8 12.8986 22.2493C12.8986 23.6986 11.7162 24.8795 10.2651 24.8795Z" fill="#EE5C52"/>
<path d="M101.711 78.7449C58.3393 78.7449 54.6847 58.6427 54.5504 57.7839C54.3354 56.3346 55.3028 54.9926 56.7539 54.7779C58.1781 54.5632 59.5217 55.5294 59.7636 56.9518C59.8442 57.2739 63.4988 73.4845 101.711 73.4845C103.162 73.4845 104.344 74.6654 104.344 76.1147C104.344 77.564 103.162 78.7449 101.711 78.7449Z" fill="#EE5C52"/>
</g>
<defs>
<clipPath id="clip0_132_448">
<rect width="131.028" height="110.951" fill="white"/>
</clipPath>
</defs>
</svg>
