<svg width="1280" height="260" viewBox="0 0 1280 260" fill="none" xmlns="http://www.w3.org/2000/svg">
<g clip-path="url(#clip0_186_301)">
<path d="M146.105 222.709C146.105 225.834 146.159 228.852 146.105 231.815C146.105 233.001 145.567 234.133 145.459 235.318C145.405 236.018 145.513 236.934 145.944 237.419C147.074 238.767 147.505 240.168 146.805 241.892C146.59 242.431 146.805 243.185 146.805 243.832C146.805 247.442 146.967 251.052 146.913 254.716C146.913 256.387 145.513 257.303 143.736 256.872C142.605 256.602 141.744 256.117 140.828 257.572C140.451 258.165 138.944 258.111 137.921 258.219C134.798 258.38 131.729 258.488 128.606 258.65C126.99 258.704 126.129 258.003 126.183 256.333C126.183 255.255 126.075 254.124 126.129 253.046C126.129 250.621 127.26 249.058 129.737 248.412C130.167 248.304 130.598 247.819 130.813 247.442C131.836 245.879 132.752 244.263 133.775 242.646C133.936 242.754 134.044 242.808 134.206 242.916C133.721 241.892 132.752 240.814 132.859 239.844C132.967 238.713 134.044 237.689 134.852 236.288C132.213 236.288 132.321 234.51 132.052 232.893C131.944 231.977 131.621 231.115 131.406 230.199C131.029 228.636 130.813 227.235 128.606 226.858C126.344 226.427 126.021 224.595 127.475 222.817C127.798 222.44 128.121 222.062 128.283 221.901C126.56 217.59 122.091 214.95 122.037 209.938C122.037 209.346 122.037 208.807 122.037 208.214C122.252 205.251 122.521 202.287 122.737 199.323C122.791 198.407 122.737 197.437 123.975 197.168C124.137 197.168 124.406 196.845 124.406 196.683C124.406 194.635 124.406 192.588 124.244 190.54C124.083 188.277 122.198 187.253 120.745 185.906C117.406 182.781 114.606 179.278 115.199 174.267C115.36 172.812 115.629 171.25 116.276 169.956C116.922 168.663 117.029 167.424 116.922 166.077C116.814 164.514 116.868 162.951 116.922 161.443C116.976 158.695 117.191 155.946 115.468 153.468C114.606 152.175 114.66 150.881 115.953 149.48C116.706 148.672 116.652 147.056 116.706 145.762C116.868 143.876 116.76 142.044 115.091 140.589C114.499 140.104 114.176 138.973 114.23 138.111C114.337 135.848 114.66 133.584 114.876 131.052C112.668 131.699 110.568 132.291 108.522 132.884C107.176 133.261 105.991 133.477 104.807 132.13C103.515 130.621 102.169 130.998 99.9609 133.046C100.122 133.638 100.338 134.231 100.338 134.339C99.3686 134.608 98.561 134.554 98.0764 134.932C95.0073 137.518 91.992 140.212 89.0306 142.906C87.5768 144.2 83.9155 147.864 83.4847 148.403C83.1616 148.78 82.5155 149.426 82.4078 149.319C81.7617 148.942 81.1156 148.403 80.6848 147.81C80.5771 147.702 81.7079 146.409 81.8694 146.301C86.4461 142.152 91.0767 138.003 95.5457 133.746C97.4302 131.968 97.3764 131.86 95.9226 129.705C95.2227 128.681 94.415 127.657 93.7689 126.58C93.4458 126.041 93.1766 125.017 93.392 124.855C93.9304 124.478 94.7381 124.263 95.3842 124.316C96.838 124.424 98.2917 124.801 99.7994 125.017C100.176 125.071 100.715 125.125 100.93 124.963C101.522 124.316 101.953 123.508 102.922 124.478C103.245 123.993 103.784 123.616 103.892 123.077C104.107 122.215 104.107 121.407 105.399 121.838C105.615 121.892 106.261 121.407 106.261 121.299C105.507 119.197 107.068 119.952 108.091 119.898C108.253 119.09 107.93 117.581 109.707 118.12C109.814 118.12 110.299 117.581 110.245 117.311C110.03 115.857 110.837 115.91 111.753 116.234C112.022 115.425 112.291 114.725 112.56 114.025C111.43 112.893 110.245 111.6 108.953 110.468C108.522 110.091 107.876 109.983 107.284 109.875C105.453 109.66 103.622 109.714 101.845 109.283C99.0994 108.636 98.3994 107.397 98.7763 104.595C97.861 104.271 96.5149 104.271 97.0533 102.655C97.1072 102.493 96.7841 102.116 96.5687 101.954C92.7997 99.4758 92.9074 96.0272 93.8766 92.1475C94.4688 89.8844 94.5765 87.5135 95.0073 85.2503C95.2765 83.9032 95.5996 82.5022 96.138 81.209C97.6995 77.6526 98.9379 73.8807 101.038 70.6477C105.238 64.1816 109.653 57.8771 114.445 51.896C115.953 49.9561 118.752 48.9323 121.068 47.8008C123.491 46.6692 126.075 45.8609 128.606 44.9988C129.898 44.5677 130.49 43.9211 130.383 42.4123C130.06 38.1016 130.113 38.1016 134.421 36.8084C134.206 35.8924 133.936 34.9224 133.829 34.0064C133.721 33.0365 133.829 32.0666 133.829 30.935C132.806 30.7195 131.836 30.3962 130.867 30.2884C128.929 30.019 128.121 28.7257 128.014 26.9476C127.96 26.0315 128.014 25.1155 128.283 24.1995C129.413 20.1582 130.383 16.063 131.783 12.1833C133.829 6.57933 138.567 3.45404 144.49 3.66958C147.397 3.77735 150.251 4.42396 153.105 5.12445C155.151 5.60941 156.658 7.0104 157.52 8.95023C159.351 13.1532 161.235 17.3562 162.689 21.6669C163.443 23.9301 163.497 26.5165 163.712 28.9413C163.82 30.2345 163.12 30.9889 161.774 30.9889C160.481 30.9889 159.135 30.8811 157.843 30.9889C157.412 30.9889 156.766 31.42 156.658 31.7971C156.12 33.5753 155.689 35.4074 155.258 37.1856C155.905 37.2395 156.658 37.3472 157.466 37.455C159.781 37.7244 161.127 38.9099 161.235 41.3347C161.235 41.7119 161.612 42.3585 161.989 42.4662C168.396 44.6216 172.973 49.2556 177.55 53.8897C178.25 54.5902 178.896 55.2907 179.488 55.9912C179.65 55.9912 179.811 55.9912 179.865 55.9912C182.342 54.0513 183.096 54.1052 184.98 56.6917C185.949 57.9849 186.972 59.2781 187.619 60.6791C189.772 65.367 193.165 69.0851 196.718 72.6953C198.764 74.7968 199.895 76.8983 197.957 79.6464C198.657 80.293 199.249 80.7779 199.787 81.3707C201.456 83.2566 202.372 85.412 201.456 87.8368C200.164 91.2315 198.818 94.6801 197.149 97.9131C195.911 100.338 194.295 100.823 191.657 100.015C188.695 99.0986 186.057 100.5 183.311 100.823C182.88 100.823 182.288 101.577 182.127 102.062C181.319 104.864 180.673 107.72 179.811 110.468C179.488 111.546 178.681 112.516 178.088 113.486C177.873 113.809 177.281 113.971 177.227 114.294C176.688 116.719 175.881 119.197 175.935 121.676C175.988 123.67 177.496 125.556 177.873 127.603C178.357 130.244 178.357 132.938 178.519 135.632C178.519 135.794 178.465 136.063 178.357 136.117C175.935 136.548 177.227 138.219 177.442 139.296C178.142 142.583 179.327 145.816 179.811 149.103C180.188 151.528 179.757 154.114 179.65 156.647C179.65 157.563 179.434 158.479 179.542 159.395C180.08 163.598 179.542 167.639 177.496 171.357C180.619 174.914 180.942 177.392 178.627 181.326C178.196 182.026 177.55 182.619 176.904 183.212C175.504 184.505 173.942 185.637 172.65 186.984C171.573 188.115 170.766 189.409 171.412 191.187C171.681 191.941 171.573 192.911 171.412 193.719C170.604 196.845 170.281 199.916 170.873 203.095C171.035 203.957 171.142 205.089 170.765 205.789C169.096 209.022 170.227 211.986 171.519 214.95C172.327 216.836 172.058 217.321 170.173 218.129C169.473 218.452 168.666 219.153 168.45 219.853C167.104 224.056 165.866 228.259 164.735 232.516C164.52 233.432 164.897 234.564 165.22 235.533C165.327 235.857 165.973 236.18 166.404 236.18C168.45 236.396 169.742 237.473 170.119 239.413C170.604 241.569 171.035 243.778 171.196 245.987C171.465 249.382 169.85 251.86 166.943 253.423C165.166 254.393 163.766 255.578 162.527 257.141C161.181 258.811 159.512 259.781 157.305 259.512C155.582 259.35 153.859 259.243 152.136 259.189C150.789 259.189 150.089 258.38 149.982 257.195C149.766 253.854 149.497 250.459 149.659 247.119C149.766 244.532 150.413 241.946 150.789 239.359C150.843 238.928 150.951 238.389 150.789 238.066C150.036 236.557 150.143 235.102 150.682 233.594C150.843 233.109 150.574 232.462 150.466 231.869C150.197 229.983 149.605 228.044 149.659 226.158C149.766 223.679 148.636 222.332 146.267 222.709H146.105ZM100.93 126.526C99.2071 126.148 96.7303 125.879 94.9534 125.556C95.7072 127.657 97.0533 128.95 97.4302 130.351C97.5918 130.351 97.8072 130.351 97.9687 130.351C98.8302 129.22 99.6917 128.142 100.93 126.58V126.526Z" fill="#EE5D53"/>
</g>
<g clip-path="url(#clip1_186_301)">
<path d="M37.8537 222.709C37.8537 225.834 37.9075 228.852 37.8537 231.815C37.8537 233.001 37.3153 234.133 37.2076 235.318C37.1537 236.018 37.2614 236.934 37.6922 237.419C38.8229 238.767 39.2536 240.168 38.5537 241.892C38.3383 242.431 38.5537 243.185 38.5537 243.832C38.5537 247.442 38.7152 251.052 38.6614 254.716C38.6614 256.387 37.2614 257.303 35.4846 256.872C34.3539 256.602 33.4924 256.117 32.577 257.572C32.2001 258.165 30.6925 258.111 29.6694 258.219C26.5465 258.38 23.4774 258.488 20.3545 258.65C18.7392 258.704 17.8777 258.003 17.9315 256.333C17.9315 255.255 17.8238 254.124 17.8776 253.046C17.8776 250.621 19.0084 249.058 21.4852 248.412C21.9159 248.304 22.3467 247.819 22.5621 247.442C23.5851 245.879 24.5004 244.263 25.5235 242.646C25.685 242.754 25.7927 242.808 25.9542 242.916C25.4696 241.892 24.5004 240.814 24.6081 239.844C24.7158 238.713 25.7927 237.689 26.6003 236.288C23.962 236.288 24.0697 234.51 23.8005 232.893C23.6928 231.977 23.3697 231.115 23.1543 230.199C22.7774 228.636 22.5621 227.235 20.3545 226.858C18.093 226.427 17.77 224.595 19.2237 222.817C19.5468 222.44 19.8699 222.062 20.0314 221.901C18.3084 217.59 13.8394 214.95 13.7855 209.938C13.7855 209.346 13.7855 208.807 13.7855 208.214C14.0009 205.251 14.2701 202.287 14.4855 199.323C14.5393 198.407 14.4855 197.437 15.7239 197.168C15.8854 197.168 16.1546 196.845 16.1546 196.683C16.1546 194.635 16.1547 192.588 15.9931 190.54C15.8316 188.277 13.947 187.253 12.4933 185.906C9.15495 182.781 6.35508 179.278 6.94736 174.267C7.10889 172.812 7.37811 171.25 8.02423 169.956C8.67036 168.663 8.77805 167.424 8.67036 166.077C8.56267 164.514 8.61651 162.951 8.67036 161.443C8.7242 158.695 8.93958 155.946 7.21658 153.468C6.35508 152.175 6.40892 150.881 7.70117 149.48C8.45498 148.672 8.40114 147.056 8.45498 145.762C8.61651 143.876 8.50883 142.044 6.83967 140.589C6.24739 140.104 5.92432 138.973 5.97817 138.111C6.08585 135.848 6.40892 133.584 6.62429 131.052C4.4167 131.699 2.31679 132.291 0.270725 132.884C-1.07537 133.261 -2.25993 133.477 -3.4445 132.13C-4.73675 130.621 -6.08284 130.998 -8.29044 133.046C-8.12891 133.638 -7.91353 134.231 -7.91353 134.339C-8.88272 134.608 -9.69037 134.554 -10.175 134.932C-13.2441 137.518 -16.2593 140.212 -19.2207 142.906C-20.6745 144.2 -24.3359 147.864 -24.7666 148.403C-25.0897 148.78 -25.7358 149.426 -25.8435 149.319C-26.4896 148.942 -27.1358 148.403 -27.5665 147.81C-27.6742 147.702 -26.5435 146.409 -26.382 146.301C-21.8052 142.152 -17.1747 138.003 -12.7056 133.746C-10.8211 131.968 -10.8749 131.86 -12.3287 129.705C-13.0287 128.681 -13.8363 127.657 -14.4825 126.58C-14.8055 126.041 -15.0748 125.017 -14.8594 124.855C-14.3209 124.478 -13.5133 124.263 -12.8672 124.316C-11.4134 124.424 -9.95959 124.801 -8.45197 125.017C-8.07506 125.071 -7.53662 125.125 -7.32125 124.963C-6.72897 124.316 -6.29822 123.508 -5.32903 124.478C-5.00597 123.993 -4.46753 123.616 -4.35984 123.077C-4.14446 122.215 -4.14446 121.407 -2.85221 121.838C-2.63684 121.892 -1.99071 121.407 -1.99071 121.299C-2.74452 119.197 -1.18306 119.952 -0.160025 119.898C0.00150681 119.09 -0.321554 117.581 1.45529 118.12C1.56298 118.12 2.04757 117.581 1.99373 117.311C1.77835 115.857 2.58601 115.91 3.50136 116.234C3.77057 115.425 4.03979 114.725 4.30901 114.025C3.17829 112.893 1.99373 111.6 0.701479 110.468C0.270729 110.091 -0.375401 109.983 -0.967682 109.875C-2.79837 109.66 -4.62906 109.714 -6.4059 109.283C-9.15194 108.636 -9.85191 107.397 -9.475 104.595C-10.3903 104.271 -11.7364 104.271 -11.198 102.655C-11.1442 102.493 -11.4672 102.116 -11.6826 101.954C-15.4517 99.4758 -15.344 96.0272 -14.3748 92.1475C-13.7825 89.8844 -13.6748 87.5135 -13.2441 85.2503C-12.9748 83.9032 -12.6518 82.5022 -12.1133 81.209C-10.5519 77.6526 -9.31347 73.8807 -7.21356 70.6477C-3.01374 64.1816 1.40145 57.8771 6.19355 51.896C7.70117 49.9561 10.501 48.9323 12.8163 47.8008C15.2393 46.6692 17.8238 45.8609 20.3545 44.9988C21.6467 44.5677 22.239 43.9211 22.1313 42.4123C21.8082 38.1016 21.8621 38.1016 26.1696 36.8084C25.9542 35.8924 25.685 34.9224 25.5773 34.0064C25.4696 33.0365 25.5773 32.0666 25.5773 30.935C24.5543 30.7195 23.5851 30.3962 22.6159 30.2884C20.6775 30.019 19.8699 28.7257 19.7622 26.9476C19.7083 26.0315 19.7622 25.1155 20.0314 24.1995C21.1621 20.1582 22.1313 16.063 23.5312 12.1833C25.5773 6.57933 30.3156 3.45404 36.2384 3.66958C39.146 3.77735 41.9997 4.42396 44.8534 5.12445C46.8995 5.60941 48.4071 7.0104 49.2686 8.95023C51.0993 13.1532 52.9838 17.3562 54.4376 21.6669C55.1914 23.9301 55.2452 26.5165 55.4606 28.9413C55.5683 30.2345 54.8683 30.9889 53.5222 30.9889C52.23 30.9889 50.8839 30.8811 49.5916 30.9889C49.1609 30.9889 48.5148 31.42 48.4071 31.7971C47.8686 33.5753 47.4379 35.4074 47.0071 37.1856C47.6533 37.2395 48.4071 37.3472 49.2147 37.455C51.53 37.7244 52.8761 38.9099 52.9838 41.3347C52.9838 41.7119 53.3607 42.3585 53.7376 42.4662C60.145 44.6216 64.7217 49.2556 69.2985 53.8897C69.9984 54.5902 70.6446 55.2907 71.2369 55.9912C71.3984 55.9912 71.5599 55.9912 71.6138 55.9912C74.0906 54.0513 74.8444 54.1052 76.7289 56.6917C77.6981 57.9849 78.7211 59.2781 79.3673 60.6791C81.521 65.367 84.9132 69.0851 88.4669 72.6953C90.5129 74.7968 91.6437 76.8983 89.7053 79.6464C90.4052 80.293 90.9975 80.7779 91.536 81.3707C93.2051 83.2566 94.1205 85.412 93.2051 87.8368C91.9129 91.2315 90.5668 94.6801 88.8976 97.9131C87.6592 100.338 86.0439 100.823 83.4055 100.015C80.4441 99.0986 77.8058 100.5 75.0598 100.823C74.629 100.823 74.0367 101.577 73.8752 102.062C73.0675 104.864 72.4214 107.72 71.5599 110.468C71.2368 111.546 70.4292 112.516 69.8369 113.486C69.6215 113.809 69.0293 113.971 68.9754 114.294C68.437 116.719 67.6293 119.197 67.6832 121.676C67.737 123.67 69.2446 125.556 69.6215 127.603C70.1061 130.244 70.1061 132.938 70.2677 135.632C70.2677 135.794 70.2138 136.063 70.1061 136.117C67.6832 136.548 68.9754 138.219 69.1908 139.296C69.8908 142.583 71.0753 145.816 71.5599 149.103C71.9368 151.528 71.5061 154.114 71.3984 156.647C71.3984 157.563 71.183 158.479 71.2907 159.395C71.8291 163.598 71.2907 167.639 69.2446 171.357C72.3676 174.914 72.6906 177.392 70.3754 181.326C69.9446 182.026 69.2985 182.619 68.6523 183.212C67.2524 184.505 65.6909 185.637 64.3987 186.984C63.3218 188.115 62.5142 189.409 63.1603 191.187C63.4295 191.941 63.3218 192.911 63.1603 193.719C62.3526 196.845 62.0296 199.916 62.6218 203.095C62.7834 203.957 62.8911 205.089 62.5142 205.789C60.845 209.022 61.9757 211.986 63.268 214.95C64.0756 216.836 63.8064 217.321 61.9219 218.129C61.2219 218.452 60.4142 219.153 60.1989 219.853C58.8528 224.056 57.6144 228.259 56.4837 232.516C56.2683 233.432 56.6452 234.564 56.9682 235.533C57.0759 235.857 57.7221 236.18 58.1528 236.18C60.1989 236.396 61.4911 237.473 61.868 239.413C62.3526 241.569 62.7834 243.778 62.9449 245.987C63.2141 249.382 61.5988 251.86 58.6912 253.423C56.9144 254.393 55.5145 255.578 54.2761 257.141C52.93 258.811 51.2608 259.781 49.0532 259.512C47.3302 259.35 45.6072 259.243 43.8842 259.189C42.5381 259.189 41.8381 258.38 41.7305 257.195C41.5151 253.854 41.2459 250.459 41.4074 247.119C41.5151 244.532 42.1612 241.946 42.5381 239.359C42.5919 238.928 42.6996 238.389 42.5381 238.066C41.7843 236.557 41.892 235.102 42.4304 233.594C42.5919 233.109 42.3227 232.462 42.215 231.869C41.9458 229.983 41.3535 228.044 41.4074 226.158C41.5151 223.679 40.3844 222.332 38.0152 222.709H37.8537ZM-7.32125 126.526C-9.04425 126.148 -11.5211 125.879 -13.2979 125.556C-12.5441 127.657 -11.198 128.95 -10.8211 130.351C-10.6596 130.351 -10.4442 130.351 -10.2827 130.351C-9.42116 129.22 -8.55966 128.142 -7.32125 126.58V126.526Z" fill="#EE5D53"/>
</g>
<g clip-path="url(#clip2_186_301)">
<path d="M256.191 221.792C256.191 224.917 256.245 227.934 256.191 230.898C256.191 232.084 255.653 233.215 255.545 234.401C255.491 235.101 255.599 236.017 256.03 236.502C257.16 237.849 257.591 239.25 256.891 240.974C256.676 241.513 256.891 242.268 256.891 242.914C256.891 246.524 257.053 250.135 256.999 253.799C256.999 255.469 255.599 256.385 253.822 255.954C252.691 255.685 251.83 255.2 250.914 256.655C250.538 257.247 249.03 257.194 248.007 257.301C244.884 257.463 241.815 257.571 238.692 257.732C237.077 257.786 236.215 257.086 236.269 255.415C236.269 254.338 236.161 253.206 236.215 252.128C236.215 249.704 237.346 248.141 239.823 247.494C240.253 247.387 240.684 246.902 240.899 246.524C241.922 244.962 242.838 243.345 243.861 241.729C244.022 241.837 244.13 241.89 244.292 241.998C243.807 240.974 242.838 239.897 242.946 238.927C243.053 237.795 244.13 236.771 244.938 235.37C242.299 235.37 242.407 233.592 242.138 231.976C242.03 231.06 241.707 230.198 241.492 229.282C241.115 227.719 240.899 226.318 238.692 225.941C236.43 225.51 236.107 223.678 237.561 221.899C237.884 221.522 238.207 221.145 238.369 220.983C236.646 216.673 232.177 214.032 232.123 209.021C232.123 208.428 232.123 207.889 232.123 207.297C232.338 204.333 232.608 201.369 232.823 198.406C232.877 197.49 232.823 196.52 234.061 196.25C234.223 196.25 234.492 195.927 234.492 195.766C234.492 193.718 234.492 191.67 234.331 189.623C234.169 187.36 232.284 186.336 230.831 184.989C227.492 181.863 224.692 178.361 225.285 173.35C225.446 171.895 225.716 170.332 226.362 169.039C227.008 167.746 227.115 166.506 227.008 165.159C226.9 163.597 226.954 162.034 227.008 160.525C227.062 157.777 227.277 155.029 225.554 152.55C224.692 151.257 224.746 149.964 226.039 148.563C226.792 147.755 226.739 146.138 226.792 144.845C226.954 142.959 226.846 141.127 225.177 139.672C224.585 139.187 224.262 138.055 224.316 137.193C224.423 134.93 224.746 132.667 224.962 130.135C222.754 130.781 220.654 131.374 218.608 131.967C217.262 132.344 216.077 132.559 214.893 131.212C213.601 129.703 212.255 130.081 210.047 132.128C210.208 132.721 210.424 133.314 210.424 133.421C209.455 133.691 208.647 133.637 208.162 134.014C205.093 136.601 202.078 139.295 199.117 141.989C197.663 143.282 194.002 146.946 193.571 147.485C193.248 147.862 192.602 148.509 192.494 148.401C191.848 148.024 191.202 147.485 190.771 146.893C190.663 146.785 191.794 145.492 191.955 145.384C196.532 141.235 201.163 137.086 205.632 132.829C207.516 131.051 207.462 130.943 206.009 128.787C205.309 127.764 204.501 126.74 203.855 125.662C203.532 125.123 203.263 124.099 203.478 123.938C204.016 123.561 204.824 123.345 205.47 123.399C206.924 123.507 208.378 123.884 209.885 124.099C210.262 124.153 210.801 124.207 211.016 124.046C211.608 123.399 212.039 122.591 213.008 123.561C213.331 123.076 213.87 122.698 213.978 122.16C214.193 121.298 214.193 120.489 215.485 120.92C215.701 120.974 216.347 120.489 216.347 120.381C215.593 118.28 217.154 119.034 218.177 118.98C218.339 118.172 218.016 116.663 219.793 117.202C219.9 117.202 220.385 116.663 220.331 116.394C220.116 114.939 220.923 114.993 221.839 115.316C222.108 114.508 222.377 113.808 222.646 113.107C221.516 111.976 220.331 110.682 219.039 109.551C218.608 109.174 217.962 109.066 217.37 108.958C215.539 108.742 213.708 108.796 211.931 108.365C209.185 107.719 208.485 106.479 208.862 103.677C207.947 103.354 206.601 103.354 207.139 101.738C207.193 101.576 206.87 101.199 206.655 101.037C202.886 98.5583 202.993 95.1098 203.963 91.2301C204.555 88.9669 204.663 86.596 205.093 84.3329C205.363 82.9858 205.686 81.5848 206.224 80.2916C207.786 76.7352 209.024 72.9633 211.124 69.7303C215.324 63.2642 219.739 56.9597 224.531 50.9786C226.039 49.0387 228.838 48.0149 231.154 46.8834C233.577 45.7518 236.161 44.9435 238.692 44.0814C239.984 43.6503 240.576 43.0037 240.469 41.4949C240.146 37.1842 240.199 37.1842 244.507 35.891C244.292 34.9749 244.022 34.005 243.915 33.089C243.807 32.1191 243.915 31.1492 243.915 30.0176C242.892 29.802 241.922 29.4787 240.953 29.371C239.015 29.1016 238.207 27.8083 238.1 26.0302C238.046 25.1141 238.1 24.1981 238.369 23.2821C239.5 19.2407 240.469 15.1455 241.869 11.2659C243.915 5.66191 248.653 2.53662 254.576 2.75216C257.483 2.85993 260.337 3.50654 263.191 4.20703C265.237 4.69199 266.744 6.09298 267.606 8.03281C269.437 12.2358 271.321 16.4388 272.775 20.7495C273.529 23.0126 273.583 25.5991 273.798 28.0239C273.906 29.3171 273.206 30.0715 271.86 30.0715C270.567 30.0715 269.221 29.9637 267.929 30.0715C267.498 30.0715 266.852 30.5025 266.744 30.8797C266.206 32.6579 265.775 34.49 265.345 36.2682C265.991 36.322 266.744 36.4298 267.552 36.5376C269.867 36.807 271.214 37.9925 271.321 40.4172C271.321 40.7944 271.698 41.441 272.075 41.5488C278.482 43.7042 283.059 48.3382 287.636 52.9723C288.336 53.6728 288.982 54.3733 289.574 55.0738C289.736 55.0738 289.897 55.0738 289.951 55.0738C292.428 53.1339 293.182 53.1878 295.066 55.7743C296.035 57.0675 297.059 58.3607 297.705 59.7617C299.858 64.4496 303.251 68.1676 306.804 71.7779C308.85 73.8794 309.981 75.9808 308.043 78.7289C308.743 79.3756 309.335 79.8605 309.873 80.4532C311.543 82.3392 312.458 84.4946 311.543 86.9193C310.25 90.314 308.904 93.7626 307.235 96.9957C305.997 99.4205 304.381 99.9054 301.743 99.0972C298.782 98.1812 296.143 99.5822 293.397 99.9055C292.966 99.9055 292.374 100.66 292.213 101.145C291.405 103.947 290.759 106.803 289.897 109.551C289.574 110.628 288.767 111.598 288.174 112.568C287.959 112.892 287.367 113.053 287.313 113.377C286.774 115.801 285.967 118.28 286.021 120.759C286.074 122.752 287.582 124.638 287.959 126.686C288.444 129.326 288.444 132.02 288.605 134.715C288.605 134.876 288.551 135.146 288.444 135.2C286.021 135.631 287.313 137.301 287.528 138.379C288.228 141.666 289.413 144.899 289.897 148.186C290.274 150.611 289.843 153.197 289.736 155.73C289.736 156.646 289.52 157.562 289.628 158.478C290.167 162.681 289.628 166.722 287.582 170.44C290.705 173.996 291.028 176.475 288.713 180.409C288.282 181.109 287.636 181.702 286.99 182.294C285.59 183.588 284.028 184.719 282.736 186.066C281.659 187.198 280.852 188.491 281.498 190.269C281.767 191.024 281.659 191.994 281.498 192.802C280.69 195.927 280.367 198.999 280.959 202.178C281.121 203.04 281.228 204.171 280.852 204.872C279.182 208.105 280.313 211.069 281.605 214.032C282.413 215.918 282.144 216.403 280.259 217.211C279.559 217.535 278.752 218.235 278.536 218.936C277.19 223.139 275.952 227.342 274.821 231.599C274.606 232.515 274.983 233.646 275.306 234.616C275.413 234.939 276.059 235.263 276.49 235.263C278.536 235.478 279.829 236.556 280.205 238.496C280.69 240.651 281.121 242.86 281.282 245.07C281.552 248.464 279.936 250.943 277.029 252.506C275.252 253.476 273.852 254.661 272.613 256.224C271.267 257.894 269.598 258.864 267.391 258.595C265.668 258.433 263.945 258.325 262.222 258.271C260.876 258.271 260.176 257.463 260.068 256.278C259.852 252.937 259.583 249.542 259.745 246.201C259.852 243.615 260.499 241.028 260.876 238.442C260.929 238.011 261.037 237.472 260.876 237.149C260.122 235.64 260.229 234.185 260.768 232.676C260.929 232.191 260.66 231.545 260.552 230.952C260.283 229.066 259.691 227.126 259.745 225.24C259.852 222.762 258.722 221.414 256.353 221.792H256.191ZM211.016 125.608C209.293 125.231 206.816 124.962 205.039 124.638C205.793 126.74 207.139 128.033 207.516 129.434C207.678 129.434 207.893 129.434 208.055 129.434C208.916 128.302 209.778 127.225 211.016 125.662V125.608Z" fill="#EE5D53"/>
</g>
<g clip-path="url(#clip3_186_301)">
<path d="M146.105 222.709C146.105 225.834 146.159 228.852 146.105 231.815C146.105 233.001 145.567 234.133 145.459 235.318C145.405 236.018 145.513 236.934 145.944 237.419C147.074 238.767 147.505 240.168 146.805 241.892C146.59 242.431 146.805 243.185 146.805 243.832C146.805 247.442 146.967 251.052 146.913 254.716C146.913 256.387 145.513 257.303 143.736 256.872C142.605 256.602 141.744 256.117 140.828 257.572C140.451 258.165 138.944 258.111 137.921 258.219C134.798 258.38 131.729 258.488 128.606 258.65C126.99 258.704 126.129 258.003 126.183 256.333C126.183 255.255 126.075 254.124 126.129 253.046C126.129 250.621 127.26 249.058 129.737 248.412C130.167 248.304 130.598 247.819 130.813 247.442C131.836 245.879 132.752 244.263 133.775 242.646C133.936 242.754 134.044 242.808 134.206 242.916C133.721 241.892 132.752 240.814 132.859 239.844C132.967 238.713 134.044 237.689 134.852 236.288C132.213 236.288 132.321 234.51 132.052 232.893C131.944 231.977 131.621 231.115 131.406 230.199C131.029 228.636 130.813 227.235 128.606 226.858C126.344 226.427 126.021 224.595 127.475 222.817C127.798 222.44 128.121 222.062 128.283 221.901C126.56 217.59 122.091 214.95 122.037 209.938C122.037 209.346 122.037 208.807 122.037 208.214C122.252 205.251 122.521 202.287 122.737 199.323C122.791 198.407 122.737 197.437 123.975 197.168C124.137 197.168 124.406 196.845 124.406 196.683C124.406 194.635 124.406 192.588 124.244 190.54C124.083 188.277 122.198 187.253 120.745 185.906C117.406 182.781 114.606 179.278 115.199 174.267C115.36 172.812 115.629 171.25 116.276 169.956C116.922 168.663 117.029 167.424 116.922 166.077C116.814 164.514 116.868 162.951 116.922 161.443C116.976 158.695 117.191 155.946 115.468 153.468C114.606 152.175 114.66 150.881 115.953 149.48C116.706 148.672 116.652 147.056 116.706 145.762C116.868 143.876 116.76 142.044 115.091 140.589C114.499 140.104 114.176 138.973 114.23 138.111C114.337 135.848 114.66 133.584 114.876 131.052C112.668 131.699 110.568 132.291 108.522 132.884C107.176 133.261 105.991 133.477 104.807 132.13C103.515 130.621 102.169 130.998 99.9609 133.046C100.122 133.638 100.338 134.231 100.338 134.339C99.3686 134.608 98.561 134.554 98.0764 134.932C95.0073 137.518 91.992 140.212 89.0306 142.906C87.5768 144.2 83.9155 147.864 83.4847 148.403C83.1616 148.78 82.5155 149.426 82.4078 149.319C81.7617 148.942 81.1156 148.403 80.6848 147.81C80.5771 147.702 81.7079 146.409 81.8694 146.301C86.4461 142.152 91.0767 138.003 95.5457 133.746C97.4302 131.968 97.3764 131.86 95.9226 129.705C95.2227 128.681 94.415 127.657 93.7689 126.58C93.4458 126.041 93.1766 125.017 93.392 124.855C93.9304 124.478 94.7381 124.263 95.3842 124.316C96.838 124.424 98.2917 124.801 99.7994 125.017C100.176 125.071 100.715 125.125 100.93 124.963C101.522 124.316 101.953 123.508 102.922 124.478C103.245 123.993 103.784 123.616 103.892 123.077C104.107 122.215 104.107 121.407 105.399 121.838C105.615 121.892 106.261 121.407 106.261 121.299C105.507 119.197 107.068 119.952 108.091 119.898C108.253 119.09 107.93 117.581 109.707 118.12C109.814 118.12 110.299 117.581 110.245 117.311C110.03 115.857 110.837 115.91 111.753 116.234C112.022 115.425 112.291 114.725 112.56 114.025C111.43 112.893 110.245 111.6 108.953 110.468C108.522 110.091 107.876 109.983 107.284 109.875C105.453 109.66 103.622 109.714 101.845 109.283C99.0994 108.636 98.3994 107.397 98.7763 104.595C97.861 104.271 96.5149 104.271 97.0533 102.655C97.1072 102.493 96.7841 102.116 96.5687 101.954C92.7997 99.4758 92.9074 96.0272 93.8766 92.1475C94.4688 89.8844 94.5765 87.5135 95.0073 85.2503C95.2765 83.9032 95.5996 82.5022 96.138 81.209C97.6995 77.6526 98.9379 73.8807 101.038 70.6477C105.238 64.1816 109.653 57.8771 114.445 51.896C115.953 49.9561 118.752 48.9323 121.068 47.8008C123.491 46.6692 126.075 45.8609 128.606 44.9988C129.898 44.5677 130.49 43.9211 130.383 42.4123C130.06 38.1016 130.113 38.1016 134.421 36.8084C134.206 35.8924 133.936 34.9224 133.829 34.0064C133.721 33.0365 133.829 32.0666 133.829 30.935C132.806 30.7195 131.836 30.3962 130.867 30.2884C128.929 30.019 128.121 28.7257 128.014 26.9476C127.96 26.0315 128.014 25.1155 128.283 24.1995C129.413 20.1582 130.383 16.063 131.783 12.1833C133.829 6.57933 138.567 3.45404 144.49 3.66958C147.397 3.77735 150.251 4.42396 153.105 5.12445C155.151 5.60941 156.658 7.0104 157.52 8.95023C159.351 13.1532 161.235 17.3562 162.689 21.6669C163.443 23.9301 163.497 26.5165 163.712 28.9413C163.82 30.2345 163.12 30.9889 161.774 30.9889C160.481 30.9889 159.135 30.8811 157.843 30.9889C157.412 30.9889 156.766 31.42 156.658 31.7971C156.12 33.5753 155.689 35.4074 155.258 37.1856C155.905 37.2395 156.658 37.3472 157.466 37.455C159.781 37.7244 161.127 38.9099 161.235 41.3347C161.235 41.7119 161.612 42.3585 161.989 42.4662C168.396 44.6216 172.973 49.2556 177.55 53.8897C178.25 54.5902 178.896 55.2907 179.488 55.9912C179.65 55.9912 179.811 55.9912 179.865 55.9912C182.342 54.0513 183.096 54.1052 184.98 56.6917C185.949 57.9849 186.972 59.2781 187.619 60.6791C189.772 65.367 193.165 69.0851 196.718 72.6953C198.764 74.7968 199.895 76.8983 197.957 79.6464C198.657 80.293 199.249 80.7779 199.787 81.3707C201.456 83.2566 202.372 85.412 201.456 87.8368C200.164 91.2315 198.818 94.6801 197.149 97.9131C195.911 100.338 194.295 100.823 191.657 100.015C188.695 99.0986 186.057 100.5 183.311 100.823C182.88 100.823 182.288 101.577 182.127 102.062C181.319 104.864 180.673 107.72 179.811 110.468C179.488 111.546 178.681 112.516 178.088 113.486C177.873 113.809 177.281 113.971 177.227 114.294C176.688 116.719 175.881 119.197 175.935 121.676C175.988 123.67 177.496 125.556 177.873 127.603C178.357 130.244 178.357 132.938 178.519 135.632C178.519 135.794 178.465 136.063 178.357 136.117C175.935 136.548 177.227 138.219 177.442 139.296C178.142 142.583 179.327 145.816 179.811 149.103C180.188 151.528 179.757 154.114 179.65 156.647C179.65 157.563 179.434 158.479 179.542 159.395C180.08 163.598 179.542 167.639 177.496 171.357C180.619 174.914 180.942 177.392 178.627 181.326C178.196 182.026 177.55 182.619 176.904 183.212C175.504 184.505 173.942 185.637 172.65 186.984C171.573 188.115 170.766 189.409 171.412 191.187C171.681 191.941 171.573 192.911 171.412 193.719C170.604 196.845 170.281 199.916 170.873 203.095C171.035 203.957 171.142 205.089 170.765 205.789C169.096 209.022 170.227 211.986 171.519 214.95C172.327 216.836 172.058 217.321 170.173 218.129C169.473 218.452 168.666 219.153 168.45 219.853C167.104 224.056 165.866 228.259 164.735 232.516C164.52 233.432 164.897 234.564 165.22 235.533C165.327 235.857 165.973 236.18 166.404 236.18C168.45 236.396 169.742 237.473 170.119 239.413C170.604 241.569 171.035 243.778 171.196 245.987C171.465 249.382 169.85 251.86 166.943 253.423C165.166 254.393 163.766 255.578 162.527 257.141C161.181 258.811 159.512 259.781 157.305 259.512C155.582 259.35 153.859 259.243 152.136 259.189C150.789 259.189 150.089 258.38 149.982 257.195C149.766 253.854 149.497 250.459 149.659 247.119C149.766 244.532 150.413 241.946 150.789 239.359C150.843 238.928 150.951 238.389 150.789 238.066C150.036 236.557 150.143 235.102 150.682 233.594C150.843 233.109 150.574 232.462 150.466 231.869C150.197 229.983 149.605 228.044 149.659 226.158C149.766 223.679 148.636 222.332 146.267 222.709H146.105ZM100.93 126.526C99.2071 126.148 96.7303 125.879 94.9534 125.556C95.7072 127.657 97.0533 128.95 97.4302 130.351C97.5918 130.351 97.8072 130.351 97.9687 130.351C98.8302 129.22 99.6917 128.142 100.93 126.58V126.526Z" fill="#EE5D53"/>
</g>
<g clip-path="url(#clip4_186_301)">
<path d="M366.277 221.792C366.277 224.917 366.331 227.934 366.277 230.898C366.277 232.084 365.739 233.215 365.631 234.401C365.577 235.101 365.685 236.017 366.116 236.502C367.246 237.849 367.677 239.25 366.977 240.974C366.762 241.513 366.977 242.268 366.977 242.914C366.977 246.524 367.139 250.135 367.085 253.799C367.085 255.469 365.685 256.385 363.908 255.954C362.777 255.685 361.916 255.2 361 256.655C360.624 257.247 359.116 257.194 358.093 257.301C354.97 257.463 351.901 257.571 348.778 257.732C347.163 257.786 346.301 257.086 346.355 255.415C346.355 254.338 346.247 253.206 346.301 252.128C346.301 249.704 347.432 248.141 349.909 247.494C350.339 247.387 350.77 246.902 350.986 246.524C352.009 244.962 352.924 243.345 353.947 241.729C354.108 241.837 354.216 241.89 354.378 241.998C353.893 240.974 352.924 239.897 353.032 238.927C353.139 237.795 354.216 236.771 355.024 235.37C352.385 235.37 352.493 233.592 352.224 231.976C352.116 231.06 351.793 230.198 351.578 229.282C351.201 227.719 350.986 226.318 348.778 225.941C346.516 225.51 346.193 223.678 347.647 221.899C347.97 221.522 348.293 221.145 348.455 220.983C346.732 216.673 342.263 214.032 342.209 209.021C342.209 208.428 342.209 207.889 342.209 207.297C342.424 204.333 342.694 201.369 342.909 198.406C342.963 197.49 342.909 196.52 344.147 196.25C344.309 196.25 344.578 195.927 344.578 195.766C344.578 193.718 344.578 191.67 344.417 189.623C344.255 187.36 342.371 186.336 340.917 184.989C337.578 181.863 334.779 178.361 335.371 173.35C335.532 171.895 335.802 170.332 336.448 169.039C337.094 167.746 337.202 166.506 337.094 165.159C336.986 163.597 337.04 162.034 337.094 160.525C337.148 157.777 337.363 155.029 335.64 152.55C334.779 151.257 334.832 149.964 336.125 148.563C336.878 147.755 336.825 146.138 336.878 144.845C337.04 142.959 336.932 141.127 335.263 139.672C334.671 139.187 334.348 138.055 334.402 137.193C334.509 134.93 334.832 132.667 335.048 130.135C332.84 130.781 330.74 131.374 328.694 131.967C327.348 132.344 326.164 132.559 324.979 131.212C323.687 129.703 322.341 130.081 320.133 132.128C320.295 132.721 320.51 133.314 320.51 133.421C319.541 133.691 318.733 133.637 318.248 134.014C315.179 136.601 312.164 139.295 309.203 141.989C307.749 143.282 304.088 146.946 303.657 147.485C303.334 147.862 302.688 148.509 302.58 148.401C301.934 148.024 301.288 147.485 300.857 146.893C300.749 146.785 301.88 145.492 302.042 145.384C306.618 141.235 311.249 137.086 315.718 132.829C317.602 131.051 317.549 130.943 316.095 128.787C315.395 127.764 314.587 126.74 313.941 125.662C313.618 125.123 313.349 124.099 313.564 123.938C314.103 123.561 314.91 123.345 315.556 123.399C317.01 123.507 318.464 123.884 319.971 124.099C320.348 124.153 320.887 124.207 321.102 124.046C321.694 123.399 322.125 122.591 323.094 123.561C323.417 123.076 323.956 122.698 324.064 122.16C324.279 121.298 324.279 120.489 325.571 120.92C325.787 120.974 326.433 120.489 326.433 120.381C325.679 118.28 327.24 119.034 328.263 118.98C328.425 118.172 328.102 116.663 329.879 117.202C329.986 117.202 330.471 116.663 330.417 116.394C330.202 114.939 331.009 114.993 331.925 115.316C332.194 114.508 332.463 113.808 332.732 113.107C331.602 111.976 330.417 110.682 329.125 109.551C328.694 109.174 328.048 109.066 327.456 108.958C325.625 108.742 323.794 108.796 322.018 108.365C319.272 107.719 318.572 106.479 318.948 103.677C318.033 103.354 316.687 103.354 317.225 101.738C317.279 101.576 316.956 101.199 316.741 101.037C312.972 98.5583 313.079 95.1098 314.049 91.2301C314.641 88.9669 314.749 86.596 315.179 84.3329C315.449 82.9858 315.772 81.5848 316.31 80.2916C317.872 76.7352 319.11 72.9633 321.21 69.7303C325.41 63.2642 329.825 56.9597 334.617 50.9786C336.125 49.0387 338.925 48.0149 341.24 46.8834C343.663 45.7518 346.247 44.9435 348.778 44.0814C350.07 43.6503 350.662 43.0037 350.555 41.4949C350.232 37.1842 350.286 37.1842 354.593 35.891C354.378 34.9749 354.108 34.005 354.001 33.089C353.893 32.1191 354.001 31.1492 354.001 30.0176C352.978 29.802 352.009 29.4787 351.039 29.371C349.101 29.1016 348.293 27.8083 348.186 26.0302C348.132 25.1141 348.186 24.1981 348.455 23.2821C349.586 19.2407 350.555 15.1455 351.955 11.2659C354.001 5.66191 358.739 2.53662 364.662 2.75216C367.569 2.85993 370.423 3.50654 373.277 4.20703C375.323 4.69199 376.831 6.09298 377.692 8.03281C379.523 12.2358 381.407 16.4388 382.861 20.7495C383.615 23.0126 383.669 25.5991 383.884 28.0239C383.992 29.3171 383.292 30.0715 381.946 30.0715C380.653 30.0715 379.307 29.9637 378.015 30.0715C377.584 30.0715 376.938 30.5025 376.831 30.8797C376.292 32.6579 375.861 34.49 375.431 36.2682C376.077 36.322 376.831 36.4298 377.638 36.5376C379.953 36.807 381.3 37.9925 381.407 40.4172C381.407 40.7944 381.784 41.441 382.161 41.5488C388.568 43.7042 393.145 48.3382 397.722 52.9723C398.422 53.6728 399.068 54.3733 399.66 55.0738C399.822 55.0738 399.983 55.0738 400.037 55.0738C402.514 53.1339 403.268 53.1878 405.152 55.7743C406.122 57.0675 407.145 58.3607 407.791 59.7617C409.944 64.4496 413.337 68.1676 416.89 71.7779C418.936 73.8794 420.067 75.9808 418.129 78.7289C418.829 79.3756 419.421 79.8605 419.959 80.4532C421.629 82.3392 422.544 84.4946 421.629 86.9193C420.336 90.314 418.99 93.7626 417.321 96.9957C416.083 99.4205 414.467 99.9054 411.829 99.0972C408.868 98.1812 406.229 99.5822 403.483 99.9055C403.052 99.9055 402.46 100.66 402.299 101.145C401.491 103.947 400.845 106.803 399.983 109.551C399.66 110.628 398.853 111.598 398.26 112.568C398.045 112.892 397.453 113.053 397.399 113.377C396.86 115.801 396.053 118.28 396.107 120.759C396.16 122.752 397.668 124.638 398.045 126.686C398.53 129.326 398.53 132.02 398.691 134.715C398.691 134.876 398.637 135.146 398.53 135.2C396.107 135.631 397.399 137.301 397.614 138.379C398.314 141.666 399.499 144.899 399.983 148.186C400.36 150.611 399.93 153.197 399.822 155.73C399.822 156.646 399.606 157.562 399.714 158.478C400.253 162.681 399.714 166.722 397.668 170.44C400.791 173.996 401.114 176.475 398.799 180.409C398.368 181.109 397.722 181.702 397.076 182.294C395.676 183.588 394.114 184.719 392.822 186.066C391.745 187.198 390.938 188.491 391.584 190.269C391.853 191.024 391.745 191.994 391.584 192.802C390.776 195.927 390.453 198.999 391.045 202.178C391.207 203.04 391.315 204.171 390.938 204.872C389.268 208.105 390.399 211.069 391.691 214.032C392.499 215.918 392.23 216.403 390.345 217.211C389.645 217.535 388.838 218.235 388.622 218.936C387.276 223.139 386.038 227.342 384.907 231.599C384.692 232.515 385.069 233.646 385.392 234.616C385.499 234.939 386.146 235.263 386.576 235.263C388.622 235.478 389.915 236.556 390.291 238.496C390.776 240.651 391.207 242.86 391.368 245.07C391.638 248.464 390.022 250.943 387.115 252.506C385.338 253.476 383.938 254.661 382.7 256.224C381.353 257.894 379.684 258.864 377.477 258.595C375.754 258.433 374.031 258.325 372.308 258.271C370.962 258.271 370.262 257.463 370.154 256.278C369.939 252.937 369.669 249.542 369.831 246.201C369.939 243.615 370.585 241.028 370.962 238.442C371.015 238.011 371.123 237.472 370.962 237.149C370.208 235.64 370.315 234.185 370.854 232.676C371.015 232.191 370.746 231.545 370.639 230.952C370.369 229.066 369.777 227.126 369.831 225.24C369.939 222.762 368.808 221.414 366.439 221.792H366.277ZM321.102 125.608C319.379 125.231 316.902 124.962 315.126 124.638C315.879 126.74 317.225 128.033 317.602 129.434C317.764 129.434 317.979 129.434 318.141 129.434C319.002 128.302 319.864 127.225 321.102 125.662V125.608Z" fill="#EE5D53"/>
</g>
<g clip-path="url(#clip5_186_301)">
<path d="M584.615 220.874C584.615 224 584.668 227.017 584.615 229.981C584.615 231.166 584.076 232.298 583.968 233.483C583.915 234.184 584.022 235.1 584.453 235.585C585.584 236.932 586.015 238.333 585.315 240.057C585.099 240.596 585.315 241.35 585.315 241.997C585.315 245.607 585.476 249.217 585.422 252.882C585.422 254.552 584.022 255.468 582.245 255.037C581.115 254.767 580.253 254.282 579.338 255.737C578.961 256.33 577.453 256.276 576.43 256.384C573.307 256.546 570.238 256.653 567.115 256.815C565.5 256.869 564.639 256.168 564.692 254.498C564.692 253.42 564.585 252.289 564.639 251.211C564.639 248.786 565.769 247.224 568.246 246.577C568.677 246.469 569.108 245.984 569.323 245.607C570.346 244.044 571.261 242.428 572.284 240.811C572.446 240.919 572.554 240.973 572.715 241.081C572.231 240.057 571.261 238.979 571.369 238.009C571.477 236.878 572.554 235.854 573.361 234.453C570.723 234.453 570.831 232.675 570.561 231.058C570.454 230.142 570.131 229.28 569.915 228.364C569.538 226.802 569.323 225.401 567.115 225.023C564.854 224.592 564.531 222.76 565.985 220.982C566.308 220.605 566.631 220.228 566.792 220.066C565.069 215.755 560.6 213.115 560.546 208.104C560.546 207.511 560.546 206.972 560.546 206.379C560.762 203.416 561.031 200.452 561.246 197.488C561.3 196.572 561.246 195.603 562.485 195.333C562.646 195.333 562.916 195.01 562.916 194.848C562.916 192.801 562.916 190.753 562.754 188.705C562.593 186.442 560.708 185.418 559.254 184.071C555.916 180.946 553.116 177.444 553.708 172.432C553.87 170.977 554.139 169.415 554.785 168.122C555.431 166.828 555.539 165.589 555.431 164.242C555.324 162.679 555.377 161.117 555.431 159.608C555.485 156.86 555.701 154.112 553.978 151.633C553.116 150.34 553.17 149.047 554.462 147.646C555.216 146.837 555.162 145.221 555.216 143.928C555.377 142.042 555.27 140.21 553.601 138.755C553.008 138.27 552.685 137.138 552.739 136.276C552.847 134.013 553.17 131.75 553.385 129.217C551.178 129.864 549.078 130.456 547.032 131.049C545.686 131.426 544.501 131.642 543.316 130.295C542.024 128.786 540.678 129.163 538.47 131.211C538.632 131.804 538.847 132.396 538.847 132.504C537.878 132.774 537.071 132.72 536.586 133.097C533.517 135.683 530.502 138.377 527.54 141.072C526.086 142.365 522.425 146.029 521.994 146.568C521.671 146.945 521.025 147.592 520.917 147.484C520.271 147.107 519.625 146.568 519.194 145.975C519.087 145.867 520.217 144.574 520.379 144.466C524.956 140.317 529.586 136.168 534.055 131.911C535.94 130.133 535.886 130.025 534.432 127.87C533.732 126.846 532.925 125.822 532.278 124.745C531.955 124.206 531.686 123.182 531.902 123.02C532.44 122.643 533.248 122.428 533.894 122.482C535.348 122.589 536.801 122.967 538.309 123.182C538.686 123.236 539.224 123.29 539.44 123.128C540.032 122.482 540.463 121.673 541.432 122.643C541.755 122.158 542.293 121.781 542.401 121.242C542.616 120.38 542.616 119.572 543.909 120.003C544.124 120.057 544.77 119.572 544.77 119.464C544.016 117.363 545.578 118.117 546.601 118.063C546.762 117.255 546.439 115.746 548.216 116.285C548.324 116.285 548.808 115.746 548.755 115.477C548.539 114.022 549.347 114.076 550.262 114.399C550.531 113.591 550.801 112.89 551.07 112.19C549.939 111.058 548.755 109.765 547.462 108.633C547.032 108.256 546.386 108.148 545.793 108.041C543.963 107.825 542.132 107.879 540.355 107.448C537.609 106.801 536.909 105.562 537.286 102.76C536.371 102.437 535.024 102.437 535.563 100.82C535.617 100.659 535.294 100.281 535.078 100.12C531.309 97.641 531.417 94.1924 532.386 90.3127C532.978 88.0496 533.086 85.6787 533.517 83.4155C533.786 82.0684 534.109 80.6674 534.648 79.3742C536.209 75.8179 537.447 72.046 539.547 68.8129C543.747 62.3468 548.162 56.0423 552.954 50.0612C554.462 48.1214 557.262 47.0976 559.577 45.966C562 44.8344 564.585 44.0262 567.115 43.164C568.408 42.7329 569 42.0863 568.892 40.5776C568.569 36.2668 568.623 36.2668 572.931 34.9736C572.715 34.0576 572.446 33.0877 572.338 32.1716C572.231 31.2017 572.338 30.2318 572.338 29.1002C571.315 28.8847 570.346 28.5614 569.377 28.4536C567.438 28.1842 566.631 26.891 566.523 25.1128C566.469 24.1968 566.523 23.2807 566.792 22.3647C567.923 18.3234 568.892 14.2282 570.292 10.3485C572.338 4.74455 577.076 1.61926 582.999 1.8348C585.907 1.94257 588.761 2.58918 591.614 3.28967C593.66 3.77463 595.168 5.17562 596.03 7.11546C597.86 11.3184 599.745 15.5214 601.199 19.8321C601.952 22.0953 602.006 24.6817 602.222 27.1065C602.329 28.3997 601.629 29.1541 600.283 29.1541C598.991 29.1541 597.645 29.0463 596.353 29.1541C595.922 29.1541 595.276 29.5852 595.168 29.9624C594.63 31.7406 594.199 33.5726 593.768 35.3508C594.414 35.4047 595.168 35.5125 595.976 35.6202C598.291 35.8896 599.637 37.0751 599.745 39.4999C599.745 39.8771 600.122 40.5237 600.499 40.6315C606.906 42.7868 611.483 47.4209 616.059 52.0549C616.759 52.7554 617.405 53.4559 617.998 54.1564C618.159 54.1564 618.321 54.1564 618.375 54.1564C620.852 52.2166 621.605 52.2705 623.49 54.8569C624.459 56.1501 625.482 57.4433 626.128 58.8443C628.282 63.5323 631.674 67.2503 635.228 70.8605C637.274 72.962 638.405 75.0635 636.466 77.8116C637.166 78.4582 637.758 78.9432 638.297 79.5359C639.966 81.4218 640.881 83.5772 639.966 86.002C638.674 89.3967 637.328 92.8453 635.659 96.0783C634.42 98.5031 632.805 98.9881 630.166 98.1798C627.205 97.2638 624.567 98.6648 621.821 98.9881C621.39 98.9881 620.798 99.7425 620.636 100.227C619.828 103.029 619.182 105.885 618.321 108.633C617.998 109.711 617.19 110.681 616.598 111.651C616.382 111.974 615.79 112.136 615.736 112.459C615.198 114.884 614.39 117.363 614.444 119.841C614.498 121.835 616.006 123.721 616.382 125.769C616.867 128.409 616.867 131.103 617.029 133.797C617.029 133.959 616.975 134.228 616.867 134.282C614.444 134.713 615.736 136.384 615.952 137.461C616.652 140.748 617.836 143.981 618.321 147.268C618.698 149.693 618.267 152.28 618.159 154.812C618.159 155.728 617.944 156.644 618.052 157.56C618.59 161.763 618.052 165.805 616.006 169.523C619.128 173.079 619.452 175.558 617.136 179.491C616.706 180.192 616.059 180.784 615.413 181.377C614.013 182.67 612.452 183.802 611.16 185.149C610.083 186.281 609.275 187.574 609.921 189.352C610.19 190.106 610.083 191.076 609.921 191.885C609.114 195.01 608.79 198.081 609.383 201.26C609.544 202.123 609.652 203.254 609.275 203.955C607.606 207.188 608.737 210.151 610.029 213.115C610.837 215.001 610.567 215.486 608.683 216.294C607.983 216.617 607.175 217.318 606.96 218.018C605.614 222.221 604.375 226.424 603.245 230.681C603.029 231.597 603.406 232.729 603.729 233.699C603.837 234.022 604.483 234.345 604.914 234.345C606.96 234.561 608.252 235.639 608.629 237.578C609.114 239.734 609.544 241.943 609.706 244.152C609.975 247.547 608.36 250.026 605.452 251.588C603.675 252.558 602.275 253.744 601.037 255.306C599.691 256.977 598.022 257.947 595.814 257.677C594.091 257.516 592.368 257.408 590.645 257.354C589.299 257.354 588.599 256.546 588.491 255.36C588.276 252.019 588.007 248.625 588.168 245.284C588.276 242.697 588.922 240.111 589.299 237.524C589.353 237.093 589.461 236.555 589.299 236.231C588.545 234.723 588.653 233.268 589.191 231.759C589.353 231.274 589.084 230.627 588.976 230.035C588.707 228.149 588.114 226.209 588.168 224.323C588.276 221.844 587.145 220.497 584.776 220.874H584.615ZM539.44 124.691C537.717 124.314 535.24 124.044 533.463 123.721C534.217 125.822 535.563 127.116 535.94 128.517C536.101 128.517 536.317 128.517 536.478 128.517C537.34 127.385 538.201 126.307 539.44 124.745V124.691Z" fill="#EE5D53"/>
</g>
<g clip-path="url(#clip6_186_301)">
<path d="M474.529 221.792C474.529 224.917 474.582 227.934 474.529 230.898C474.529 232.084 473.99 233.215 473.882 234.401C473.829 235.101 473.936 236.017 474.367 236.502C475.498 237.849 475.928 239.25 475.228 240.974C475.013 241.513 475.228 242.268 475.228 242.914C475.228 246.524 475.39 250.135 475.336 253.799C475.336 255.469 473.936 256.385 472.159 255.954C471.029 255.685 470.167 255.2 469.252 256.655C468.875 257.247 467.367 257.194 466.344 257.301C463.221 257.463 460.152 257.571 457.029 257.732C455.414 257.786 454.552 257.086 454.606 255.415C454.606 254.338 454.499 253.206 454.552 252.128C454.552 249.704 455.683 248.141 458.16 247.494C458.591 247.387 459.021 246.902 459.237 246.524C460.26 244.962 461.175 243.345 462.198 241.729C462.36 241.837 462.467 241.89 462.629 241.998C462.144 240.974 461.175 239.897 461.283 238.927C461.391 237.795 462.467 236.771 463.275 235.37C460.637 235.37 460.744 233.592 460.475 231.976C460.368 231.06 460.045 230.198 459.829 229.282C459.452 227.719 459.237 226.318 457.029 225.941C454.768 225.51 454.445 223.678 455.899 221.899C456.222 221.522 456.545 221.145 456.706 220.983C454.983 216.673 450.514 214.032 450.46 209.021C450.46 208.428 450.46 207.889 450.46 207.297C450.676 204.333 450.945 201.369 451.16 198.406C451.214 197.49 451.16 196.52 452.399 196.25C452.56 196.25 452.829 195.927 452.829 195.766C452.829 193.718 452.829 191.67 452.668 189.623C452.506 187.36 450.622 186.336 449.168 184.989C445.83 181.863 443.03 178.361 443.622 173.35C443.784 171.895 444.053 170.332 444.699 169.039C445.345 167.746 445.453 166.506 445.345 165.159C445.237 163.597 445.291 162.034 445.345 160.525C445.399 157.777 445.614 155.029 443.891 152.55C443.03 151.257 443.084 149.964 444.376 148.563C445.13 147.755 445.076 146.138 445.13 144.845C445.291 142.959 445.184 141.127 443.514 139.672C442.922 139.187 442.599 138.055 442.653 137.193C442.761 134.93 443.084 132.667 443.299 130.135C441.092 130.781 438.992 131.374 436.946 131.967C435.599 132.344 434.415 132.559 433.23 131.212C431.938 129.703 430.592 130.081 428.384 132.128C428.546 132.721 428.761 133.314 428.761 133.421C427.792 133.691 426.984 133.637 426.5 134.014C423.431 136.601 420.415 139.295 417.454 141.989C416 143.282 412.339 146.946 411.908 147.485C411.585 147.862 410.939 148.509 410.831 148.401C410.185 148.024 409.539 147.485 409.108 146.893C409.001 146.785 410.131 145.492 410.293 145.384C414.87 141.235 419.5 137.086 423.969 132.829C425.854 131.051 425.8 130.943 424.346 128.787C423.646 127.764 422.838 126.74 422.192 125.662C421.869 125.123 421.6 124.099 421.815 123.938C422.354 123.561 423.162 123.345 423.808 123.399C425.261 123.507 426.715 123.884 428.223 124.099C428.6 124.153 429.138 124.207 429.354 124.046C429.946 123.399 430.377 122.591 431.346 123.561C431.669 123.076 432.207 122.698 432.315 122.16C432.53 121.298 432.53 120.489 433.823 120.92C434.038 120.974 434.684 120.489 434.684 120.381C433.93 118.28 435.492 119.034 436.515 118.98C436.676 118.172 436.353 116.663 438.13 117.202C438.238 117.202 438.722 116.663 438.669 116.394C438.453 114.939 439.261 114.993 440.176 115.316C440.445 114.508 440.715 113.808 440.984 113.107C439.853 111.976 438.669 110.682 437.376 109.551C436.946 109.174 436.299 109.066 435.707 108.958C433.876 108.742 432.046 108.796 430.269 108.365C427.523 107.719 426.823 106.479 427.2 103.677C426.284 103.354 424.938 103.354 425.477 101.738C425.531 101.576 425.208 101.199 424.992 101.037C421.223 98.5583 421.331 95.1098 422.3 91.2301C422.892 88.9669 423 86.596 423.431 84.3329C423.7 82.9858 424.023 81.5848 424.561 80.2916C426.123 76.7352 427.361 72.9633 429.461 69.7303C433.661 63.2642 438.076 56.9597 442.868 50.9786C444.376 49.0387 447.176 48.0149 449.491 46.8834C451.914 45.7518 454.499 44.9435 457.029 44.0814C458.322 43.6503 458.914 43.0037 458.806 41.4949C458.483 37.1842 458.537 37.1842 462.844 35.891C462.629 34.9749 462.36 34.005 462.252 33.089C462.144 32.1191 462.252 31.1492 462.252 30.0176C461.229 29.802 460.26 29.4787 459.291 29.371C457.352 29.1016 456.545 27.8083 456.437 26.0302C456.383 25.1141 456.437 24.1981 456.706 23.2821C457.837 19.2407 458.806 15.1455 460.206 11.2659C462.252 5.66191 466.99 2.53662 472.913 2.75216C475.821 2.85993 478.674 3.50654 481.528 4.20703C483.574 4.69199 485.082 6.09298 485.943 8.03281C487.774 12.2358 489.659 16.4388 491.112 20.7495C491.866 23.0126 491.92 25.5991 492.135 28.0239C492.243 29.3171 491.543 30.0715 490.197 30.0715C488.905 30.0715 487.559 29.9637 486.266 30.0715C485.836 30.0715 485.19 30.5025 485.082 30.8797C484.543 32.6579 484.113 34.49 483.682 36.2682C484.328 36.322 485.082 36.4298 485.89 36.5376C488.205 36.807 489.551 37.9925 489.659 40.4172C489.659 40.7944 490.036 41.441 490.412 41.5488C496.82 43.7042 501.397 48.3382 505.973 52.9723C506.673 53.6728 507.319 54.3733 507.912 55.0738C508.073 55.0738 508.235 55.0738 508.289 55.0738C510.765 53.1339 511.519 53.1878 513.404 55.7743C514.373 57.0675 515.396 58.3607 516.042 59.7617C518.196 64.4496 521.588 68.1676 525.142 71.7779C527.188 73.8794 528.318 75.9808 526.38 78.7289C527.08 79.3756 527.672 79.8605 528.211 80.4532C529.88 82.3392 530.795 84.4946 529.88 86.9193C528.588 90.314 527.242 93.7626 525.572 96.9957C524.334 99.4205 522.719 99.9054 520.08 99.0972C517.119 98.1812 514.481 99.5822 511.735 99.9055C511.304 99.9055 510.712 100.66 510.55 101.145C509.742 103.947 509.096 106.803 508.235 109.551C507.912 110.628 507.104 111.598 506.512 112.568C506.296 112.892 505.704 113.053 505.65 113.377C505.112 115.801 504.304 118.28 504.358 120.759C504.412 122.752 505.919 124.638 506.296 126.686C506.781 129.326 506.781 132.02 506.942 134.715C506.942 134.876 506.889 135.146 506.781 135.2C504.358 135.631 505.65 137.301 505.866 138.379C506.566 141.666 507.75 144.899 508.235 148.186C508.612 150.611 508.181 153.197 508.073 155.73C508.073 156.646 507.858 157.562 507.965 158.478C508.504 162.681 507.965 166.722 505.919 170.44C509.042 173.996 509.365 176.475 507.05 180.409C506.619 181.109 505.973 181.702 505.327 182.294C503.927 183.588 502.366 184.719 501.073 186.066C499.997 187.198 499.189 188.491 499.835 190.269C500.104 191.024 499.997 191.994 499.835 192.802C499.027 195.927 498.704 198.999 499.297 202.178C499.458 203.04 499.566 204.171 499.189 204.872C497.52 208.105 498.651 211.069 499.943 214.032C500.75 215.918 500.481 216.403 498.597 217.211C497.897 217.535 497.089 218.235 496.874 218.936C495.528 223.139 494.289 227.342 493.158 231.599C492.943 232.515 493.32 233.646 493.643 234.616C493.751 234.939 494.397 235.263 494.828 235.263C496.874 235.478 498.166 236.556 498.543 238.496C499.027 240.651 499.458 242.86 499.62 245.07C499.889 248.464 498.274 250.943 495.366 252.506C493.589 253.476 492.189 254.661 490.951 256.224C489.605 257.894 487.936 258.864 485.728 258.595C484.005 258.433 482.282 258.325 480.559 258.271C479.213 258.271 478.513 257.463 478.405 256.278C478.19 252.937 477.921 249.542 478.082 246.201C478.19 243.615 478.836 241.028 479.213 238.442C479.267 238.011 479.374 237.472 479.213 237.149C478.459 235.64 478.567 234.185 479.105 232.676C479.267 232.191 478.998 231.545 478.89 230.952C478.621 229.066 478.028 227.126 478.082 225.24C478.19 222.762 477.059 221.414 474.69 221.792H474.529ZM429.354 125.608C427.631 125.231 425.154 124.962 423.377 124.638C424.131 126.74 425.477 128.033 425.854 129.434C426.015 129.434 426.231 129.434 426.392 129.434C427.254 128.302 428.115 127.225 429.354 125.662V125.608Z" fill="#EE5D53"/>
</g>
<g clip-path="url(#clip7_186_301)">
<path d="M699.288 220.874C699.288 224 699.341 227.017 699.288 229.981C699.288 231.166 698.749 232.298 698.641 233.483C698.588 234.184 698.695 235.1 699.126 235.585C700.257 236.932 700.688 238.333 699.988 240.057C699.772 240.596 699.988 241.35 699.988 241.997C699.988 245.607 700.149 249.217 700.095 252.882C700.095 254.552 698.695 255.468 696.918 255.037C695.788 254.767 694.926 254.282 694.011 255.737C693.634 256.33 692.126 256.276 691.103 256.384C687.98 256.546 684.911 256.653 681.788 256.815C680.173 256.869 679.312 256.168 679.365 254.498C679.365 253.42 679.258 252.289 679.312 251.211C679.312 248.786 680.442 247.224 682.919 246.577C683.35 246.469 683.781 245.984 683.996 245.607C685.019 244.044 685.934 242.428 686.957 240.811C687.119 240.919 687.227 240.973 687.388 241.081C686.904 240.057 685.934 238.979 686.042 238.009C686.15 236.878 687.227 235.854 688.034 234.453C685.396 234.453 685.504 232.675 685.234 231.058C685.127 230.142 684.804 229.28 684.588 228.364C684.211 226.802 683.996 225.401 681.788 225.023C679.527 224.592 679.204 222.76 680.658 220.982C680.981 220.605 681.304 220.228 681.465 220.066C679.742 215.755 675.273 213.115 675.219 208.104C675.219 207.511 675.219 206.972 675.219 206.379C675.435 203.416 675.704 200.452 675.919 197.488C675.973 196.572 675.919 195.603 677.158 195.333C677.319 195.333 677.589 195.01 677.589 194.848C677.589 192.801 677.589 190.753 677.427 188.705C677.265 186.442 675.381 185.418 673.927 184.071C670.589 180.946 667.789 177.444 668.381 172.432C668.543 170.977 668.812 169.415 669.458 168.122C670.104 166.828 670.212 165.589 670.104 164.242C669.997 162.679 670.05 161.117 670.104 159.608C670.158 156.86 670.373 154.112 668.65 151.633C667.789 150.34 667.843 149.047 669.135 147.646C669.889 146.837 669.835 145.221 669.889 143.928C670.05 142.042 669.943 140.21 668.274 138.755C667.681 138.27 667.358 137.138 667.412 136.276C667.52 134.013 667.843 131.75 668.058 129.217C665.851 129.864 663.751 130.456 661.705 131.049C660.359 131.426 659.174 131.642 657.989 130.295C656.697 128.786 655.351 129.163 653.143 131.211C653.305 131.804 653.52 132.396 653.52 132.504C652.551 132.774 651.744 132.72 651.259 133.097C648.19 135.683 645.175 138.377 642.213 141.072C640.759 142.365 637.098 146.029 636.667 146.568C636.344 146.945 635.698 147.592 635.59 147.484C634.944 147.107 634.298 146.568 633.867 145.975C633.76 145.867 634.89 144.574 635.052 144.466C639.629 140.317 644.259 136.168 648.728 131.911C650.613 130.133 650.559 130.025 649.105 127.87C648.405 126.846 647.598 125.822 646.951 124.745C646.628 124.206 646.359 123.182 646.575 123.02C647.113 122.643 647.921 122.428 648.567 122.482C650.021 122.589 651.474 122.967 652.982 123.182C653.359 123.236 653.897 123.29 654.113 123.128C654.705 122.482 655.136 121.673 656.105 122.643C656.428 122.158 656.966 121.781 657.074 121.242C657.289 120.38 657.289 119.572 658.582 120.003C658.797 120.057 659.443 119.572 659.443 119.464C658.689 117.363 660.251 118.117 661.274 118.063C661.435 117.255 661.112 115.746 662.889 116.285C662.997 116.285 663.481 115.746 663.428 115.477C663.212 114.022 664.02 114.076 664.935 114.399C665.204 113.591 665.474 112.89 665.743 112.19C664.612 111.058 663.428 109.765 662.135 108.633C661.705 108.256 661.058 108.148 660.466 108.041C658.636 107.825 656.805 107.879 655.028 107.448C652.282 106.801 651.582 105.562 651.959 102.76C651.044 102.437 649.697 102.437 650.236 100.82C650.29 100.659 649.967 100.281 649.751 100.12C645.982 97.641 646.09 94.1924 647.059 90.3127C647.651 88.0496 647.759 85.6787 648.19 83.4155C648.459 82.0684 648.782 80.6674 649.321 79.3742C650.882 75.8179 652.12 72.046 654.22 68.8129C658.42 62.3468 662.835 56.0423 667.627 50.0612C669.135 48.1214 671.935 47.0976 674.25 45.966C676.673 44.8344 679.258 44.0262 681.788 43.164C683.081 42.7329 683.673 42.0863 683.565 40.5776C683.242 36.2668 683.296 36.2668 687.603 34.9736C687.388 34.0576 687.119 33.0877 687.011 32.1716C686.904 31.2017 687.011 30.2318 687.011 29.1002C685.988 28.8847 685.019 28.5614 684.05 28.4536C682.111 28.1842 681.304 26.891 681.196 25.1128C681.142 24.1968 681.196 23.2807 681.465 22.3647C682.596 18.3234 683.565 14.2282 684.965 10.3485C687.011 4.74455 691.749 1.61926 697.672 1.8348C700.58 1.94257 703.434 2.58918 706.287 3.28967C708.333 3.77463 709.841 5.17562 710.702 7.11546C712.533 11.3184 714.418 15.5214 715.871 19.8321C716.625 22.0953 716.679 24.6817 716.895 27.1065C717.002 28.3997 716.302 29.1541 714.956 29.1541C713.664 29.1541 712.318 29.0463 711.026 29.1541C710.595 29.1541 709.949 29.5852 709.841 29.9624C709.303 31.7406 708.872 33.5726 708.441 35.3508C709.087 35.4047 709.841 35.5125 710.649 35.6202C712.964 35.8896 714.31 37.0751 714.418 39.4999C714.418 39.8771 714.795 40.5237 715.172 40.6315C721.579 42.7868 726.156 47.4209 730.732 52.0549C731.432 52.7554 732.078 53.4559 732.671 54.1564C732.832 54.1564 732.994 54.1564 733.048 54.1564C735.524 52.2166 736.278 52.2705 738.163 54.8569C739.132 56.1501 740.155 57.4433 740.801 58.8443C742.955 63.5323 746.347 67.2503 749.901 70.8605C751.947 72.962 753.078 75.0635 751.139 77.8116C751.839 78.4582 752.431 78.9432 752.97 79.5359C754.639 81.4218 755.554 83.5772 754.639 86.002C753.347 89.3967 752.001 92.8453 750.332 96.0783C749.093 98.5031 747.478 98.9881 744.839 98.1798C741.878 97.2638 739.24 98.6648 736.494 98.9881C736.063 98.9881 735.471 99.7425 735.309 100.227C734.501 103.029 733.855 105.885 732.994 108.633C732.671 109.711 731.863 110.681 731.271 111.651C731.055 111.974 730.463 112.136 730.409 112.459C729.871 114.884 729.063 117.363 729.117 119.841C729.171 121.835 730.679 123.721 731.055 125.769C731.54 128.409 731.54 131.103 731.702 133.797C731.702 133.959 731.648 134.228 731.54 134.282C729.117 134.713 730.409 136.384 730.625 137.461C731.325 140.748 732.509 143.981 732.994 147.268C733.371 149.693 732.94 152.28 732.832 154.812C732.832 155.728 732.617 156.644 732.725 157.56C733.263 161.763 732.725 165.805 730.679 169.523C733.801 173.079 734.125 175.558 731.809 179.491C731.379 180.192 730.732 180.784 730.086 181.377C728.686 182.67 727.125 183.802 725.833 185.149C724.756 186.281 723.948 187.574 724.594 189.352C724.863 190.106 724.756 191.076 724.594 191.885C723.787 195.01 723.463 198.081 724.056 201.26C724.217 202.123 724.325 203.254 723.948 203.955C722.279 207.188 723.41 210.151 724.702 213.115C725.51 215.001 725.24 215.486 723.356 216.294C722.656 216.617 721.848 217.318 721.633 218.018C720.287 222.221 719.048 226.424 717.918 230.681C717.702 231.597 718.079 232.729 718.402 233.699C718.51 234.022 719.156 234.345 719.587 234.345C721.633 234.561 722.925 235.639 723.302 237.578C723.787 239.734 724.217 241.943 724.379 244.152C724.648 247.547 723.033 250.026 720.125 251.588C718.348 252.558 716.948 253.744 715.71 255.306C714.364 256.977 712.695 257.947 710.487 257.677C708.764 257.516 707.041 257.408 705.318 257.354C703.972 257.354 703.272 256.546 703.164 255.36C702.949 252.019 702.68 248.625 702.841 245.284C702.949 242.697 703.595 240.111 703.972 237.524C704.026 237.093 704.134 236.555 703.972 236.231C703.218 234.723 703.326 233.268 703.864 231.759C704.026 231.274 703.757 230.627 703.649 230.035C703.38 228.149 702.787 226.209 702.841 224.323C702.949 221.844 701.818 220.497 699.449 220.874H699.288ZM654.113 124.691C652.39 124.314 649.913 124.044 648.136 123.721C648.89 125.822 650.236 127.116 650.613 128.517C650.774 128.517 650.99 128.517 651.151 128.517C652.013 127.385 652.874 126.307 654.113 124.745V124.691Z" fill="#EE5D53"/>
</g>
<g clip-path="url(#clip8_186_301)">
<path d="M917.625 219.957C917.625 223.082 917.679 226.1 917.625 229.063C917.625 230.249 917.087 231.38 916.979 232.566C916.925 233.266 917.033 234.182 917.463 234.667C918.594 236.014 919.025 237.415 918.325 239.14C918.11 239.678 918.325 240.433 918.325 241.079C918.325 244.69 918.486 248.3 918.433 251.964C918.433 253.634 917.033 254.551 915.256 254.119C914.125 253.85 913.264 253.365 912.348 254.82C911.971 255.413 910.464 255.359 909.441 255.467C906.318 255.628 903.249 255.736 900.126 255.898C898.51 255.952 897.649 255.251 897.703 253.581C897.703 252.503 897.595 251.371 897.649 250.294C897.649 247.869 898.78 246.306 901.256 245.66C901.687 245.552 902.118 245.067 902.333 244.69C903.356 243.127 904.272 241.511 905.295 239.894C905.456 240.002 905.564 240.056 905.726 240.163C905.241 239.14 904.272 238.062 904.379 237.092C904.487 235.96 905.564 234.937 906.372 233.536C903.733 233.536 903.841 231.757 903.572 230.141C903.464 229.225 903.141 228.363 902.926 227.447C902.549 225.884 902.333 224.483 900.126 224.106C897.864 223.675 897.541 221.843 898.995 220.065C899.318 219.687 899.641 219.31 899.803 219.149C898.08 214.838 893.611 212.197 893.557 207.186C893.557 206.594 893.557 206.055 893.557 205.462C893.772 202.498 894.041 199.535 894.257 196.571C894.311 195.655 894.257 194.685 895.495 194.416C895.657 194.416 895.926 194.092 895.926 193.931C895.926 191.883 895.926 189.836 895.764 187.788C895.603 185.525 893.718 184.501 892.265 183.154C888.926 180.029 886.126 176.526 886.719 171.515C886.88 170.06 887.149 168.497 887.796 167.204C888.442 165.911 888.549 164.672 888.442 163.324C888.334 161.762 888.388 160.199 888.442 158.69C888.495 155.942 888.711 153.194 886.988 150.716C886.126 149.422 886.18 148.129 887.472 146.728C888.226 145.92 888.172 144.303 888.226 143.01C888.388 141.124 888.28 139.292 886.611 137.837C886.019 137.352 885.696 136.221 885.749 135.359C885.857 133.095 886.18 130.832 886.396 128.3C884.188 128.946 882.088 129.539 880.042 130.132C878.696 130.509 877.511 130.725 876.327 129.377C875.035 127.869 873.688 128.246 871.481 130.293C871.642 130.886 871.858 131.479 871.858 131.587C870.889 131.856 870.081 131.802 869.596 132.179C866.527 134.766 863.512 137.46 860.551 140.154C859.097 141.447 855.435 145.112 855.005 145.65C854.682 146.028 854.035 146.674 853.928 146.566C853.282 146.189 852.636 145.65 852.205 145.058C852.097 144.95 853.228 143.657 853.389 143.549C857.966 139.4 862.597 135.251 867.066 130.994C868.95 129.216 868.896 129.108 867.443 126.953C866.743 125.929 865.935 124.905 865.289 123.827C864.966 123.288 864.697 122.265 864.912 122.103C865.45 121.726 866.258 121.51 866.904 121.564C868.358 121.672 869.812 122.049 871.319 122.265C871.696 122.319 872.235 122.372 872.45 122.211C873.042 121.564 873.473 120.756 874.442 121.726C874.765 121.241 875.304 120.864 875.411 120.325C875.627 119.463 875.627 118.654 876.919 119.086C877.134 119.139 877.781 118.654 877.781 118.547C877.027 116.445 878.588 117.2 879.611 117.146C879.773 116.337 879.45 114.829 881.227 115.368C881.334 115.368 881.819 114.829 881.765 114.559C881.55 113.104 882.357 113.158 883.273 113.482C883.542 112.673 883.811 111.973 884.08 111.272C882.95 110.141 881.765 108.848 880.473 107.716C880.042 107.339 879.396 107.231 878.804 107.123C876.973 106.908 875.142 106.962 873.365 106.531C870.619 105.884 869.919 104.645 870.296 101.843C869.381 101.519 868.035 101.519 868.573 99.9027C868.627 99.7411 868.304 99.3639 868.089 99.2022C864.32 96.7236 864.427 93.275 865.397 89.3953C865.989 87.1322 866.096 84.7613 866.527 82.4981C866.796 81.151 867.12 79.75 867.658 78.4568C869.219 74.9004 870.458 71.1285 872.558 67.8955C876.758 61.4294 881.173 55.1249 885.965 49.1438C887.472 47.2039 890.272 46.1801 892.588 45.0486C895.011 43.917 897.595 43.1087 900.126 42.2466C901.418 41.8155 902.01 41.1689 901.903 39.6602C901.58 35.3494 901.633 35.3494 905.941 34.0562C905.726 33.1402 905.456 32.1702 905.349 31.2542C905.241 30.2843 905.349 29.3144 905.349 28.1828C904.326 27.9673 903.356 27.644 902.387 27.5362C900.449 27.2668 899.641 25.9736 899.533 24.1954C899.48 23.2793 899.533 22.3633 899.803 21.4473C900.933 17.406 901.903 13.3108 903.303 9.43109C905.349 3.82713 910.087 0.701843 916.01 0.91738C918.917 1.02515 921.771 1.67176 924.625 2.37225C926.671 2.85721 928.178 4.2582 929.04 6.19804C930.871 10.401 932.755 14.604 934.209 18.9147C934.963 21.1779 935.017 23.7643 935.232 26.1891C935.34 27.4823 934.64 28.2367 933.294 28.2367C932.001 28.2367 930.655 28.1289 929.363 28.2367C928.932 28.2367 928.286 28.6678 928.178 29.045C927.64 30.8231 927.209 32.6552 926.778 34.4334C927.425 34.4873 928.178 34.595 928.986 34.7028C931.301 34.9722 932.647 36.1577 932.755 38.5825C932.755 38.9597 933.132 39.6063 933.509 39.714C939.916 41.8694 944.493 46.5034 949.07 51.1375C949.77 51.838 950.416 52.5385 951.008 53.239C951.17 53.239 951.331 53.239 951.385 53.239C953.862 51.2991 954.616 51.353 956.5 53.9395C957.469 55.2327 958.492 56.5259 959.139 57.9269C961.292 62.6148 964.684 66.3329 968.238 69.9431C970.284 72.0446 971.415 74.1461 969.477 76.8942C970.177 77.5408 970.769 78.0257 971.307 78.6185C972.976 80.5044 973.892 82.6598 972.976 85.0846C971.684 88.4793 970.338 91.9279 968.669 95.1609C967.43 97.5857 965.815 98.0707 963.177 97.2624C960.215 96.3464 957.577 97.7474 954.831 98.0707C954.4 98.0707 953.808 98.8251 953.646 99.31C952.839 102.112 952.193 104.968 951.331 107.716C951.008 108.794 950.2 109.764 949.608 110.733C949.393 111.057 948.801 111.218 948.747 111.542C948.208 113.967 947.401 116.445 947.454 118.924C947.508 120.918 949.016 122.804 949.393 124.851C949.877 127.491 949.877 130.186 950.039 132.88C950.039 133.042 949.985 133.311 949.877 133.365C947.454 133.796 948.747 135.466 948.962 136.544C949.662 139.831 950.847 143.064 951.331 146.351C951.708 148.776 951.277 151.362 951.17 153.895C951.17 154.811 950.954 155.727 951.062 156.643C951.6 160.846 951.062 164.887 949.016 168.605C952.139 172.162 952.462 174.64 950.147 178.574C949.716 179.274 949.07 179.867 948.424 180.46C947.024 181.753 945.462 182.884 944.17 184.232C943.093 185.363 942.285 186.656 942.932 188.435C943.201 189.189 943.093 190.159 942.932 190.967C942.124 194.092 941.801 197.164 942.393 200.343C942.555 201.205 942.662 202.337 942.285 203.037C940.616 206.27 941.747 209.234 943.039 212.197C943.847 214.083 943.578 214.568 941.693 215.377C940.993 215.7 940.186 216.4 939.97 217.101C938.624 221.304 937.386 225.507 936.255 229.764C936.04 230.68 936.416 231.811 936.74 232.781C936.847 233.105 937.493 233.428 937.924 233.428C939.97 233.643 941.262 234.721 941.639 236.661C942.124 238.816 942.555 241.026 942.716 243.235C942.985 246.63 941.37 249.108 938.463 250.671C936.686 251.641 935.286 252.826 934.047 254.389C932.701 256.059 931.032 257.029 928.824 256.76C927.101 256.598 925.378 256.49 923.655 256.436C922.309 256.436 921.609 255.628 921.502 254.443C921.286 251.102 921.017 247.707 921.179 244.366C921.286 241.78 921.932 239.194 922.309 236.607C922.363 236.176 922.471 235.637 922.309 235.314C921.556 233.805 921.663 232.35 922.202 230.841C922.363 230.356 922.094 229.71 921.986 229.117C921.717 227.231 921.125 225.291 921.179 223.405C921.286 220.927 920.156 219.58 917.787 219.957H917.625ZM872.45 123.773C870.727 123.396 868.25 123.127 866.473 122.804C867.227 124.905 868.573 126.198 868.95 127.599C869.112 127.599 869.327 127.599 869.489 127.599C870.35 126.468 871.212 125.39 872.45 123.827V123.773Z" fill="#EE5D53"/>
</g>
<g clip-path="url(#clip9_186_301)">
<path d="M1028.63 219.957C1028.63 223.082 1028.68 226.1 1028.63 229.063C1028.63 230.249 1028.09 231.38 1027.98 232.566C1027.93 233.266 1028.04 234.182 1028.47 234.667C1029.6 236.014 1030.03 237.415 1029.33 239.14C1029.11 239.678 1029.33 240.433 1029.33 241.079C1029.33 244.69 1029.49 248.3 1029.44 251.964C1029.44 253.634 1028.04 254.551 1026.26 254.119C1025.13 253.85 1024.27 253.365 1023.35 254.82C1022.97 255.413 1021.47 255.359 1020.44 255.467C1017.32 255.628 1014.25 255.736 1011.13 255.898C1009.51 255.952 1008.65 255.251 1008.71 253.581C1008.71 252.503 1008.6 251.371 1008.65 250.294C1008.65 247.869 1009.78 246.306 1012.26 245.66C1012.69 245.552 1013.12 245.067 1013.34 244.69C1014.36 243.127 1015.28 241.511 1016.3 239.894C1016.46 240.002 1016.57 240.056 1016.73 240.163C1016.24 239.14 1015.28 238.062 1015.38 237.092C1015.49 235.96 1016.57 234.937 1017.38 233.536C1014.74 233.536 1014.84 231.757 1014.58 230.141C1014.47 229.225 1014.14 228.363 1013.93 227.447C1013.55 225.884 1013.34 224.483 1011.13 224.106C1008.87 223.675 1008.54 221.843 1010 220.065C1010.32 219.687 1010.64 219.31 1010.81 219.149C1009.08 214.838 1004.61 212.197 1004.56 207.186C1004.56 206.594 1004.56 206.055 1004.56 205.462C1004.78 202.498 1005.04 199.535 1005.26 196.571C1005.31 195.655 1005.26 194.685 1006.5 194.416C1006.66 194.416 1006.93 194.092 1006.93 193.931C1006.93 191.883 1006.93 189.836 1006.77 187.788C1006.61 185.525 1004.72 184.501 1003.27 183.154C999.93 180.029 997.13 176.526 997.722 171.515C997.884 170.06 998.153 168.497 998.799 167.204C999.445 165.911 999.553 164.672 999.445 163.324C999.337 161.762 999.391 160.199 999.445 158.69C999.499 155.942 999.714 153.194 997.991 150.716C997.13 149.422 997.184 148.129 998.476 146.728C999.23 145.92 999.176 144.303 999.23 143.01C999.391 141.124 999.284 139.292 997.614 137.837C997.022 137.352 996.699 136.221 996.753 135.359C996.861 133.095 997.184 130.832 997.399 128.3C995.192 128.946 993.092 129.539 991.046 130.132C989.699 130.509 988.515 130.725 987.33 129.377C986.038 127.869 984.692 128.246 982.484 130.293C982.646 130.886 982.861 131.479 982.861 131.587C981.892 131.856 981.084 131.802 980.6 132.179C977.531 134.766 974.516 137.46 971.554 140.154C970.1 141.447 966.439 145.112 966.008 145.65C965.685 146.028 965.039 146.674 964.931 146.566C964.285 146.189 963.639 145.65 963.208 145.058C963.101 144.95 964.231 143.657 964.393 143.549C968.97 139.4 973.6 135.251 978.069 130.994C979.954 129.216 979.9 129.108 978.446 126.953C977.746 125.929 976.938 124.905 976.292 123.827C975.969 123.288 975.7 122.265 975.915 122.103C976.454 121.726 977.262 121.51 977.908 121.564C979.361 121.672 980.815 122.049 982.323 122.265C982.7 122.319 983.238 122.372 983.454 122.211C984.046 121.564 984.477 120.756 985.446 121.726C985.769 121.241 986.307 120.864 986.415 120.325C986.63 119.463 986.63 118.654 987.923 119.086C988.138 119.139 988.784 118.654 988.784 118.547C988.03 116.445 989.592 117.2 990.615 117.146C990.776 116.337 990.453 114.829 992.23 115.368C992.338 115.368 992.822 114.829 992.769 114.559C992.553 113.104 993.361 113.158 994.276 113.482C994.545 112.673 994.815 111.973 995.084 111.272C993.953 110.141 992.769 108.848 991.476 107.716C991.046 107.339 990.399 107.231 989.807 107.123C987.976 106.908 986.146 106.962 984.369 106.531C981.623 105.884 980.923 104.645 981.3 101.843C980.384 101.519 979.038 101.519 979.577 99.9027C979.631 99.7411 979.308 99.3639 979.092 99.2022C975.323 96.7236 975.431 93.275 976.4 89.3953C976.992 87.1322 977.1 84.7613 977.531 82.4981C977.8 81.151 978.123 79.75 978.661 78.4568C980.223 74.9004 981.461 71.1285 983.561 67.8955C987.761 61.4294 992.176 55.1249 996.968 49.1438C998.476 47.2039 1001.28 46.1801 1003.59 45.0486C1006.01 43.917 1008.6 43.1087 1011.13 42.2466C1012.42 41.8155 1013.01 41.1689 1012.91 39.6602C1012.58 35.3494 1012.64 35.3494 1016.94 34.0562C1016.73 33.1402 1016.46 32.1702 1016.35 31.2542C1016.24 30.2843 1016.35 29.3144 1016.35 28.1828C1015.33 27.9673 1014.36 27.644 1013.39 27.5362C1011.45 27.2668 1010.64 25.9736 1010.54 24.1954C1010.48 23.2793 1010.54 22.3633 1010.81 21.4473C1011.94 17.406 1012.91 13.3108 1014.31 9.43109C1016.35 3.82713 1021.09 0.701843 1027.01 0.91738C1029.92 1.02515 1032.77 1.67176 1035.63 2.37225C1037.67 2.85721 1039.18 4.2582 1040.04 6.19804C1041.87 10.401 1043.76 14.604 1045.21 18.9147C1045.97 21.1779 1046.02 23.7643 1046.24 26.1891C1046.34 27.4823 1045.64 28.2367 1044.3 28.2367C1043 28.2367 1041.66 28.1289 1040.37 28.2367C1039.94 28.2367 1039.29 28.6678 1039.18 29.045C1038.64 30.8231 1038.21 32.6552 1037.78 34.4334C1038.43 34.4873 1039.18 34.595 1039.99 34.7028C1042.3 34.9722 1043.65 36.1577 1043.76 38.5825C1043.76 38.9597 1044.14 39.6063 1044.51 39.714C1050.92 41.8694 1055.5 46.5034 1060.07 51.1375C1060.77 51.838 1061.42 52.5385 1062.01 53.239C1062.17 53.239 1062.33 53.239 1062.39 53.239C1064.87 51.2991 1065.62 51.353 1067.5 53.9395C1068.47 55.2327 1069.5 56.5259 1070.14 57.9269C1072.3 62.6148 1075.69 66.3329 1079.24 69.9431C1081.29 72.0446 1082.42 74.1461 1080.48 76.8942C1081.18 77.5408 1081.77 78.0257 1082.31 78.6185C1083.98 80.5044 1084.9 82.6598 1083.98 85.0846C1082.69 88.4793 1081.34 91.9279 1079.67 95.1609C1078.43 97.5857 1076.82 98.0707 1074.18 97.2624C1071.22 96.3464 1068.58 97.7474 1065.83 98.0707C1065.4 98.0707 1064.81 98.8251 1064.65 99.31C1063.84 102.112 1063.2 104.968 1062.33 107.716C1062.01 108.794 1061.2 109.764 1060.61 110.733C1060.4 111.057 1059.8 111.218 1059.75 111.542C1059.21 113.967 1058.4 116.445 1058.46 118.924C1058.51 120.918 1060.02 122.804 1060.4 124.851C1060.88 127.491 1060.88 130.186 1061.04 132.88C1061.04 133.042 1060.99 133.311 1060.88 133.365C1058.46 133.796 1059.75 135.466 1059.97 136.544C1060.67 139.831 1061.85 143.064 1062.33 146.351C1062.71 148.776 1062.28 151.362 1062.17 153.895C1062.17 154.811 1061.96 155.727 1062.07 156.643C1062.6 160.846 1062.07 164.887 1060.02 168.605C1063.14 172.162 1063.47 174.64 1061.15 178.574C1060.72 179.274 1060.07 179.867 1059.43 180.46C1058.03 181.753 1056.47 182.884 1055.17 184.232C1054.1 185.363 1053.29 186.656 1053.94 188.435C1054.2 189.189 1054.1 190.159 1053.94 190.967C1053.13 194.092 1052.8 197.164 1053.4 200.343C1053.56 201.205 1053.67 202.337 1053.29 203.037C1051.62 206.27 1052.75 209.234 1054.04 212.197C1054.85 214.083 1054.58 214.568 1052.7 215.377C1052 215.7 1051.19 216.4 1050.97 217.101C1049.63 221.304 1048.39 225.507 1047.26 229.764C1047.04 230.68 1047.42 231.811 1047.74 232.781C1047.85 233.105 1048.5 233.428 1048.93 233.428C1050.97 233.643 1052.27 234.721 1052.64 236.661C1053.13 238.816 1053.56 241.026 1053.72 243.235C1053.99 246.63 1052.37 249.108 1049.47 250.671C1047.69 251.641 1046.29 252.826 1045.05 254.389C1043.7 256.059 1042.04 257.029 1039.83 256.76C1038.11 256.598 1036.38 256.49 1034.66 256.436C1033.31 256.436 1032.61 255.628 1032.51 254.443C1032.29 251.102 1032.02 247.707 1032.18 244.366C1032.29 241.78 1032.94 239.194 1033.31 236.607C1033.37 236.176 1033.47 235.637 1033.31 235.314C1032.56 233.805 1032.67 232.35 1033.21 230.841C1033.37 230.356 1033.1 229.71 1032.99 229.117C1032.72 227.231 1032.13 225.291 1032.18 223.405C1032.29 220.927 1031.16 219.58 1028.79 219.957H1028.63ZM983.454 123.773C981.731 123.396 979.254 123.127 977.477 122.804C978.231 124.905 979.577 126.198 979.954 127.599C980.115 127.599 980.331 127.599 980.492 127.599C981.354 126.468 982.215 125.39 983.454 123.827V123.773Z" fill="#EE5D53"/>
</g>
<g clip-path="url(#clip10_186_301)">
<path d="M1142.38 219.039C1142.38 222.165 1142.44 225.182 1142.38 228.146C1142.38 229.331 1141.85 230.463 1141.74 231.648C1141.68 232.349 1141.79 233.265 1142.22 233.75C1143.35 235.097 1143.78 236.498 1143.08 238.222C1142.87 238.761 1143.08 239.515 1143.08 240.162C1143.08 243.772 1143.25 247.383 1143.19 251.047C1143.19 252.717 1141.79 253.633 1140.01 253.202C1138.88 252.933 1138.02 252.448 1137.11 253.903C1136.73 254.495 1135.22 254.441 1134.2 254.549C1131.08 254.711 1128.01 254.819 1124.88 254.98C1123.27 255.034 1122.41 254.334 1122.46 252.663C1122.46 251.586 1122.35 250.454 1122.41 249.376C1122.41 246.952 1123.54 245.389 1126.02 244.742C1126.45 244.634 1126.88 244.15 1127.09 243.772C1128.12 242.21 1129.03 240.593 1130.05 238.977C1130.22 239.084 1130.32 239.138 1130.48 239.246C1130 238.222 1129.03 237.145 1129.14 236.175C1129.25 235.043 1130.32 234.019 1131.13 232.618C1128.49 232.618 1128.6 230.84 1128.33 229.224C1128.22 228.308 1127.9 227.445 1127.68 226.529C1127.31 224.967 1127.09 223.566 1124.88 223.189C1122.62 222.757 1122.3 220.925 1123.75 219.147C1124.08 218.77 1124.4 218.393 1124.56 218.231C1122.84 213.92 1118.37 211.28 1118.32 206.269C1118.32 205.676 1118.32 205.137 1118.32 204.545C1118.53 201.581 1118.8 198.617 1119.02 195.654C1119.07 194.738 1119.02 193.768 1120.25 193.498C1120.42 193.498 1120.69 193.175 1120.69 193.013C1120.69 190.966 1120.69 188.918 1120.52 186.871C1120.36 184.607 1118.48 183.584 1117.02 182.237C1113.69 179.111 1110.89 175.609 1111.48 170.598C1111.64 169.143 1111.91 167.58 1112.55 166.287C1113.2 164.994 1113.31 163.754 1113.2 162.407C1113.09 160.844 1113.15 159.282 1113.2 157.773C1113.25 155.025 1113.47 152.277 1111.75 149.798C1110.89 148.505 1110.94 147.212 1112.23 145.811C1112.99 145.003 1112.93 143.386 1112.99 142.093C1113.15 140.207 1113.04 138.375 1111.37 136.92C1110.78 136.435 1110.45 135.303 1110.51 134.441C1110.62 132.178 1110.94 129.915 1111.15 127.382C1108.95 128.029 1106.85 128.622 1104.8 129.214C1103.46 129.592 1102.27 129.807 1101.09 128.46C1099.79 126.951 1098.45 127.328 1096.24 129.376C1096.4 129.969 1096.62 130.562 1096.62 130.669C1095.65 130.939 1094.84 130.885 1094.36 131.262C1091.29 133.848 1088.27 136.543 1085.31 139.237C1083.86 140.53 1080.19 144.194 1079.76 144.733C1079.44 145.11 1078.79 145.757 1078.69 145.649C1078.04 145.272 1077.39 144.733 1076.96 144.14C1076.86 144.033 1077.99 142.739 1078.15 142.632C1082.73 138.483 1087.36 134.333 1091.82 130.077C1093.71 128.298 1093.66 128.191 1092.2 126.035C1091.5 125.011 1090.69 123.988 1090.05 122.91C1089.72 122.371 1089.46 121.347 1089.67 121.186C1090.21 120.809 1091.02 120.593 1091.66 120.647C1093.12 120.755 1094.57 121.132 1096.08 121.347C1096.46 121.401 1096.99 121.455 1097.21 121.293C1097.8 120.647 1098.23 119.839 1099.2 120.809C1099.52 120.324 1100.06 119.946 1100.17 119.408C1100.39 118.545 1100.39 117.737 1101.68 118.168C1101.89 118.222 1102.54 117.737 1102.54 117.629C1101.79 115.528 1103.35 116.282 1104.37 116.228C1104.53 115.42 1104.21 113.911 1105.99 114.45C1106.09 114.45 1106.58 113.911 1106.52 113.642C1106.31 112.187 1107.12 112.241 1108.03 112.564C1108.3 111.756 1108.57 111.055 1108.84 110.355C1107.71 109.223 1106.52 107.93 1105.23 106.799C1104.8 106.421 1104.15 106.314 1103.56 106.206C1101.73 105.99 1099.9 106.044 1098.12 105.613C1095.38 104.967 1094.68 103.727 1095.06 100.925C1094.14 100.602 1092.79 100.602 1093.33 98.9854C1093.39 98.8237 1093.06 98.4465 1092.85 98.2849C1089.08 95.8062 1089.19 92.3576 1090.16 88.478C1090.75 86.2148 1090.86 83.8439 1091.29 81.5808C1091.56 80.2337 1091.88 78.8327 1092.42 77.5395C1093.98 73.9831 1095.22 70.2112 1097.32 66.9781C1101.52 60.512 1105.93 54.2076 1110.72 48.2264C1112.23 46.2866 1115.03 45.2628 1117.35 44.1312C1119.77 42.9996 1122.35 42.1914 1124.88 41.3292C1126.18 40.8982 1126.77 40.2516 1126.66 38.7428C1126.34 34.4321 1126.39 34.4321 1130.7 33.1388C1130.48 32.2228 1130.22 31.2529 1130.11 30.3369C1130 29.3669 1130.11 28.397 1130.11 27.2654C1129.08 27.0499 1128.12 26.7266 1127.15 26.6188C1125.21 26.3494 1124.4 25.0562 1124.29 23.278C1124.24 22.362 1124.29 21.446 1124.56 20.5299C1125.69 16.4886 1126.66 12.3934 1128.06 8.51373C1130.11 2.90977 1134.85 -0.215516 1140.77 2.1317e-05C1143.68 0.10779 1146.53 0.754401 1149.38 1.4549C1151.43 1.93985 1152.94 3.34084 1153.8 5.28068C1155.63 9.48365 1157.51 13.6866 1158.97 17.9974C1159.72 20.2605 1159.78 22.8469 1159.99 25.2717C1160.1 26.565 1159.4 27.3193 1158.05 27.3193C1156.76 27.3193 1155.41 27.2116 1154.12 27.3193C1153.69 27.3193 1153.05 27.7504 1152.94 28.1276C1152.4 29.9058 1151.97 31.7378 1151.54 33.516C1152.18 33.5699 1152.94 33.6777 1153.75 33.7854C1156.06 34.0549 1157.41 35.2403 1157.51 37.6651C1157.51 38.0423 1157.89 38.6889 1158.27 38.7967C1164.68 40.952 1169.25 45.5861 1173.83 50.2201C1174.53 50.9206 1175.17 51.6211 1175.77 52.3216C1175.93 52.3216 1176.09 52.3216 1176.14 52.3216C1178.62 50.3818 1179.37 50.4357 1181.26 53.0221C1182.23 54.3153 1183.25 55.6086 1183.9 57.0096C1186.05 61.6975 1189.44 65.4155 1193 69.0257C1195.04 71.1272 1196.17 73.2287 1194.24 75.9768C1194.94 76.6234 1195.53 77.1084 1196.07 77.7011C1197.74 79.5871 1198.65 81.7424 1197.74 84.1672C1196.44 87.5619 1195.1 91.0105 1193.43 94.2436C1192.19 96.6684 1190.57 97.1533 1187.94 96.345C1184.97 95.429 1182.34 96.83 1179.59 97.1533C1179.16 97.1533 1178.57 97.9077 1178.41 98.3927C1177.6 101.195 1176.95 104.05 1176.09 106.799C1175.77 107.876 1174.96 108.846 1174.37 109.816C1174.15 110.139 1173.56 110.301 1173.51 110.624C1172.97 113.049 1172.16 115.528 1172.21 118.007C1172.27 120 1173.78 121.886 1174.15 123.934C1174.64 126.574 1174.64 129.268 1174.8 131.963C1174.8 132.124 1174.74 132.394 1174.64 132.447C1172.21 132.879 1173.51 134.549 1173.72 135.627C1174.42 138.914 1175.61 142.147 1176.09 145.434C1176.47 147.858 1176.04 150.445 1175.93 152.977C1175.93 153.893 1175.71 154.809 1175.82 155.725C1176.36 159.928 1175.82 163.97 1173.78 167.688C1176.9 171.244 1177.22 173.723 1174.91 177.656C1174.47 178.357 1173.83 178.95 1173.18 179.542C1171.78 180.836 1170.22 181.967 1168.93 183.314C1167.85 184.446 1167.04 185.739 1167.69 187.517C1167.96 188.272 1167.85 189.241 1167.69 190.05C1166.88 193.175 1166.56 196.246 1167.15 199.426C1167.31 200.288 1167.42 201.419 1167.04 202.12C1165.38 205.353 1166.51 208.317 1167.8 211.28C1168.61 213.166 1168.34 213.651 1166.45 214.459C1165.75 214.783 1164.94 215.483 1164.73 216.184C1163.38 220.387 1162.14 224.59 1161.01 228.846C1160.8 229.762 1161.18 230.894 1161.5 231.864C1161.61 232.187 1162.25 232.511 1162.68 232.511C1164.73 232.726 1166.02 233.804 1166.4 235.744C1166.88 237.899 1167.31 240.108 1167.48 242.317C1167.74 245.712 1166.13 248.191 1163.22 249.753C1161.44 250.723 1160.04 251.909 1158.81 253.472C1157.46 255.142 1155.79 256.112 1153.58 255.842C1151.86 255.681 1150.14 255.573 1148.41 255.519C1147.07 255.519 1146.37 254.711 1146.26 253.525C1146.05 250.185 1145.78 246.79 1145.94 243.449C1146.05 240.863 1146.69 238.276 1147.07 235.69C1147.12 235.259 1147.23 234.72 1147.07 234.396C1146.31 232.888 1146.42 231.433 1146.96 229.924C1147.12 229.439 1146.85 228.793 1146.75 228.2C1146.48 226.314 1145.88 224.374 1145.94 222.488C1146.05 220.009 1144.91 218.662 1142.55 219.039H1142.38ZM1097.21 122.856C1095.49 122.479 1093.01 122.209 1091.23 121.886C1091.99 123.988 1093.33 125.281 1093.71 126.682C1093.87 126.682 1094.09 126.682 1094.25 126.682C1095.11 125.55 1095.97 124.473 1097.21 122.91V122.856Z" fill="#EE5D53"/>
</g>
<g clip-path="url(#clip11_186_301)">
<path d="M807.539 220.874C807.539 224 807.593 227.017 807.539 229.981C807.539 231.166 807 232.298 806.893 233.483C806.839 234.184 806.947 235.1 807.377 235.585C808.508 236.932 808.939 238.333 808.239 240.057C808.023 240.596 808.239 241.35 808.239 241.997C808.239 245.607 808.4 249.217 808.347 252.882C808.347 254.552 806.947 255.468 805.17 255.037C804.039 254.767 803.178 254.282 802.262 255.737C801.885 256.33 800.378 256.276 799.355 256.384C796.232 256.546 793.163 256.653 790.04 256.815C788.424 256.869 787.563 256.168 787.617 254.498C787.617 253.42 787.509 252.289 787.563 251.211C787.563 248.786 788.694 247.224 791.17 246.577C791.601 246.469 792.032 245.984 792.247 245.607C793.27 244.044 794.186 242.428 795.209 240.811C795.37 240.919 795.478 240.973 795.639 241.081C795.155 240.057 794.186 238.979 794.293 238.009C794.401 236.878 795.478 235.854 796.286 234.453C793.647 234.453 793.755 232.675 793.486 231.058C793.378 230.142 793.055 229.28 792.84 228.364C792.463 226.802 792.247 225.401 790.04 225.023C787.778 224.592 787.455 222.76 788.909 220.982C789.232 220.605 789.555 220.228 789.717 220.066C787.994 215.755 783.525 213.115 783.471 208.104C783.471 207.511 783.471 206.972 783.471 206.379C783.686 203.416 783.955 200.452 784.171 197.488C784.225 196.572 784.171 195.603 785.409 195.333C785.571 195.333 785.84 195.01 785.84 194.848C785.84 192.801 785.84 190.753 785.678 188.705C785.517 186.442 783.632 185.418 782.178 184.071C778.84 180.946 776.04 177.444 776.633 172.432C776.794 170.977 777.063 169.415 777.709 168.122C778.356 166.828 778.463 165.589 778.356 164.242C778.248 162.679 778.302 161.117 778.356 159.608C778.409 156.86 778.625 154.112 776.902 151.633C776.04 150.34 776.094 149.047 777.386 147.646C778.14 146.837 778.086 145.221 778.14 143.928C778.302 142.042 778.194 140.21 776.525 138.755C775.933 138.27 775.61 137.138 775.663 136.276C775.771 134.013 776.094 131.75 776.309 129.217C774.102 129.864 772.002 130.456 769.956 131.049C768.61 131.426 767.425 131.642 766.241 130.295C764.948 128.786 763.602 129.163 761.395 131.211C761.556 131.804 761.772 132.396 761.772 132.504C760.802 132.774 759.995 132.72 759.51 133.097C756.441 135.683 753.426 138.377 750.464 141.072C749.011 142.365 745.349 146.029 744.919 146.568C744.595 146.945 743.949 147.592 743.842 147.484C743.196 147.107 742.549 146.568 742.119 145.975C742.011 145.867 743.142 144.574 743.303 144.466C747.88 140.317 752.511 136.168 756.98 131.911C758.864 130.133 758.81 130.025 757.356 127.87C756.656 126.846 755.849 125.822 755.203 124.745C754.88 124.206 754.61 123.182 754.826 123.02C755.364 122.643 756.172 122.428 756.818 122.482C758.272 122.589 759.726 122.967 761.233 123.182C761.61 123.236 762.149 123.29 762.364 123.128C762.956 122.482 763.387 121.673 764.356 122.643C764.679 122.158 765.218 121.781 765.325 121.242C765.541 120.38 765.541 119.572 766.833 120.003C767.048 120.057 767.694 119.572 767.694 119.464C766.941 117.363 768.502 118.117 769.525 118.063C769.687 117.255 769.364 115.746 771.14 116.285C771.248 116.285 771.733 115.746 771.679 115.477C771.464 114.022 772.271 114.076 773.187 114.399C773.456 113.591 773.725 112.89 773.994 112.19C772.863 111.058 771.679 109.765 770.387 108.633C769.956 108.256 769.31 108.148 768.717 108.041C766.887 107.825 765.056 107.879 763.279 107.448C760.533 106.801 759.833 105.562 760.21 102.76C759.295 102.437 757.949 102.437 758.487 100.82C758.541 100.659 758.218 100.281 758.003 100.12C754.234 97.641 754.341 94.1924 755.31 90.3127C755.903 88.0496 756.01 85.6787 756.441 83.4155C756.71 82.0684 757.033 80.6674 757.572 79.3742C759.133 75.8179 760.372 72.046 762.472 68.8129C766.671 62.3468 771.087 56.0423 775.879 50.0612C777.386 48.1214 780.186 47.0976 782.502 45.966C784.924 44.8344 787.509 44.0262 790.04 43.164C791.332 42.7329 791.924 42.0863 791.816 40.5776C791.493 36.2668 791.547 36.2668 795.855 34.9736C795.639 34.0576 795.37 33.0877 795.262 32.1716C795.155 31.2017 795.262 30.2318 795.262 29.1002C794.239 28.8847 793.27 28.5614 792.301 28.4536C790.363 28.1842 789.555 26.891 789.447 25.1128C789.394 24.1968 789.447 23.2807 789.717 22.3647C790.847 18.3234 791.816 14.2282 793.216 10.3485C795.262 4.74455 800.001 1.61926 805.924 1.8348C808.831 1.94257 811.685 2.58918 814.539 3.28967C816.585 3.77463 818.092 5.17562 818.954 7.11546C820.784 11.3184 822.669 15.5214 824.123 19.8321C824.877 22.0953 824.93 24.6817 825.146 27.1065C825.253 28.3997 824.554 29.1541 823.207 29.1541C821.915 29.1541 820.569 29.0463 819.277 29.1541C818.846 29.1541 818.2 29.5852 818.092 29.9624C817.554 31.7406 817.123 33.5726 816.692 35.3508C817.338 35.4047 818.092 35.5125 818.9 35.6202C821.215 35.8896 822.561 37.0751 822.669 39.4999C822.669 39.8771 823.046 40.5237 823.423 40.6315C829.83 42.7868 834.407 47.4209 838.984 52.0549C839.684 52.7554 840.33 53.4559 840.922 54.1564C841.084 54.1564 841.245 54.1564 841.299 54.1564C843.776 52.2166 844.53 52.2705 846.414 54.8569C847.383 56.1501 848.406 57.4433 849.052 58.8443C851.206 63.5323 854.598 67.2503 858.152 70.8605C860.198 72.962 861.329 75.0635 859.39 77.8116C860.09 78.4582 860.683 78.9432 861.221 79.5359C862.89 81.4218 863.806 83.5772 862.89 86.002C861.598 89.3967 860.252 92.8453 858.583 96.0783C857.344 98.5031 855.729 98.9881 853.091 98.1798C850.129 97.2638 847.491 98.6648 844.745 98.9881C844.314 98.9881 843.722 99.7425 843.56 100.227C842.753 103.029 842.107 105.885 841.245 108.633C840.922 109.711 840.114 110.681 839.522 111.651C839.307 111.974 838.714 112.136 838.661 112.459C838.122 114.884 837.314 117.363 837.368 119.841C837.422 121.835 838.93 123.721 839.307 125.769C839.791 128.409 839.791 131.103 839.953 133.797C839.953 133.959 839.899 134.228 839.791 134.282C837.368 134.713 838.661 136.384 838.876 137.461C839.576 140.748 840.76 143.981 841.245 147.268C841.622 149.693 841.191 152.28 841.084 154.812C841.084 155.728 840.868 156.644 840.976 157.56C841.514 161.763 840.976 165.805 838.93 169.523C842.053 173.079 842.376 175.558 840.061 179.491C839.63 180.192 838.984 180.784 838.338 181.377C836.938 182.67 835.376 183.802 834.084 185.149C833.007 186.281 832.199 187.574 832.845 189.352C833.115 190.106 833.007 191.076 832.845 191.885C832.038 195.01 831.715 198.081 832.307 201.26C832.469 202.123 832.576 203.254 832.199 203.955C830.53 207.188 831.661 210.151 832.953 213.115C833.761 215.001 833.492 215.486 831.607 216.294C830.907 216.617 830.099 217.318 829.884 218.018C828.538 222.221 827.3 226.424 826.169 230.681C825.953 231.597 826.33 232.729 826.653 233.699C826.761 234.022 827.407 234.345 827.838 234.345C829.884 234.561 831.176 235.639 831.553 237.578C832.038 239.734 832.469 241.943 832.63 244.152C832.899 247.547 831.284 250.026 828.376 251.588C826.6 252.558 825.2 253.744 823.961 255.306C822.615 256.977 820.946 257.947 818.738 257.677C817.015 257.516 815.292 257.408 813.569 257.354C812.223 257.354 811.523 256.546 811.416 255.36C811.2 252.019 810.931 248.625 811.093 245.284C811.2 242.697 811.846 240.111 812.223 237.524C812.277 237.093 812.385 236.555 812.223 236.231C811.469 234.723 811.577 233.268 812.116 231.759C812.277 231.274 812.008 230.627 811.9 230.035C811.631 228.149 811.039 226.209 811.093 224.323C811.2 221.844 810.07 220.497 807.7 220.874H807.539ZM762.364 124.691C760.641 124.314 758.164 124.044 756.387 123.721C757.141 125.822 758.487 127.116 758.864 128.517C759.026 128.517 759.241 128.517 759.403 128.517C760.264 127.385 761.126 126.307 762.364 124.745V124.691Z" fill="#EE5D53"/>
</g>
<line x1="-6.00171" y1="255.995" x2="1280" y2="255.995" stroke="#EE5E54" stroke-width="5"/>
<g clip-path="url(#clip12_186_301)">
<path d="M1254.3 221.792C1254.3 224.917 1254.36 227.934 1254.3 230.898C1254.3 232.084 1253.77 233.215 1253.66 234.401C1253.61 235.101 1253.71 236.017 1254.14 236.502C1255.27 237.849 1255.7 239.25 1255 240.974C1254.79 241.513 1255 242.268 1255 242.914C1255 246.524 1255.17 250.135 1255.11 253.799C1255.11 255.469 1253.71 256.385 1251.94 255.954C1250.81 255.685 1249.94 255.2 1249.03 256.655C1248.65 257.247 1247.14 257.194 1246.12 257.301C1243 257.463 1239.93 257.571 1236.81 257.732C1235.19 257.786 1234.33 257.086 1234.38 255.415C1234.38 254.338 1234.28 253.206 1234.33 252.128C1234.33 249.704 1235.46 248.141 1237.94 247.494C1238.37 247.387 1238.8 246.902 1239.01 246.524C1240.04 244.962 1240.95 243.345 1241.97 241.729C1242.14 241.837 1242.24 241.89 1242.41 241.998C1241.92 240.974 1240.95 239.897 1241.06 238.927C1241.17 237.795 1242.24 236.771 1243.05 235.37C1240.41 235.37 1240.52 233.592 1240.25 231.976C1240.14 231.06 1239.82 230.198 1239.61 229.282C1239.23 227.719 1239.01 226.318 1236.81 225.941C1234.54 225.51 1234.22 223.678 1235.68 221.899C1236 221.522 1236.32 221.145 1236.48 220.983C1234.76 216.673 1230.29 214.032 1230.24 209.021C1230.24 208.428 1230.24 207.889 1230.24 207.297C1230.45 204.333 1230.72 201.369 1230.94 198.406C1230.99 197.49 1230.94 196.52 1232.18 196.25C1232.34 196.25 1232.61 195.927 1232.61 195.766C1232.61 193.718 1232.61 191.67 1232.44 189.623C1232.28 187.36 1230.4 186.336 1228.94 184.989C1225.61 181.863 1222.81 178.361 1223.4 173.35C1223.56 171.895 1223.83 170.332 1224.48 169.039C1225.12 167.746 1225.23 166.506 1225.12 165.159C1225.01 163.597 1225.07 162.034 1225.12 160.525C1225.18 157.777 1225.39 155.029 1223.67 152.55C1222.81 151.257 1222.86 149.964 1224.15 148.563C1224.91 147.755 1224.85 146.138 1224.91 144.845C1225.07 142.959 1224.96 141.127 1223.29 139.672C1222.7 139.187 1222.38 138.055 1222.43 137.193C1222.54 134.93 1222.86 132.667 1223.08 130.135C1220.87 130.781 1218.77 131.374 1216.72 131.967C1215.38 132.344 1214.19 132.559 1213.01 131.212C1211.71 129.703 1210.37 130.081 1208.16 132.128C1208.32 132.721 1208.54 133.314 1208.54 133.421C1207.57 133.691 1206.76 133.637 1206.28 134.014C1203.21 136.601 1200.19 139.295 1197.23 141.989C1195.78 143.282 1192.12 146.946 1191.68 147.485C1191.36 147.862 1190.72 148.509 1190.61 148.401C1189.96 148.024 1189.32 147.485 1188.88 146.893C1188.78 146.785 1189.91 145.492 1190.07 145.384C1194.65 141.235 1199.28 137.086 1203.75 132.829C1205.63 131.051 1205.58 130.943 1204.12 128.787C1203.42 127.764 1202.61 126.74 1201.97 125.662C1201.65 125.123 1201.38 124.099 1201.59 123.938C1202.13 123.561 1202.94 123.345 1203.58 123.399C1205.04 123.507 1206.49 123.884 1208 124.099C1208.38 124.153 1208.91 124.207 1209.13 124.046C1209.72 123.399 1210.15 122.591 1211.12 123.561C1211.45 123.076 1211.98 122.698 1212.09 122.16C1212.31 121.298 1212.31 120.489 1213.6 120.92C1213.81 120.974 1214.46 120.489 1214.46 120.381C1213.71 118.28 1215.27 119.034 1216.29 118.98C1216.45 118.172 1216.13 116.663 1217.91 117.202C1218.01 117.202 1218.5 116.663 1218.45 116.394C1218.23 114.939 1219.04 114.993 1219.95 115.316C1220.22 114.508 1220.49 113.808 1220.76 113.107C1219.63 111.976 1218.45 110.682 1217.15 109.551C1216.72 109.174 1216.08 109.066 1215.48 108.958C1213.65 108.742 1211.82 108.796 1210.05 108.365C1207.3 107.719 1206.6 106.479 1206.98 103.677C1206.06 103.354 1204.71 103.354 1205.25 101.738C1205.31 101.576 1204.98 101.199 1204.77 101.037C1201 98.5583 1201.11 95.1098 1202.08 91.2301C1202.67 88.9669 1202.78 86.596 1203.21 84.3329C1203.48 82.9858 1203.8 81.5848 1204.34 80.2916C1205.9 76.7352 1207.14 72.9633 1209.24 69.7303C1213.44 63.2642 1217.85 56.9597 1222.64 50.9786C1224.15 49.0387 1226.95 48.0149 1229.27 46.8834C1231.69 45.7518 1234.28 44.9435 1236.81 44.0814C1238.1 43.6503 1238.69 43.0037 1238.58 41.4949C1238.26 37.1842 1238.31 37.1842 1242.62 35.891C1242.41 34.9749 1242.14 34.005 1242.03 33.089C1241.92 32.1191 1242.03 31.1492 1242.03 30.0176C1241.01 29.802 1240.04 29.4787 1239.07 29.371C1237.13 29.1016 1236.32 27.8083 1236.21 26.0302C1236.16 25.1141 1236.21 24.1981 1236.48 23.2821C1237.61 19.2407 1238.58 15.1455 1239.98 11.2659C1242.03 5.66191 1246.77 2.53662 1252.69 2.75216C1255.6 2.85993 1258.45 3.50654 1261.3 4.20703C1263.35 4.69199 1264.86 6.09298 1265.72 8.03281C1267.55 12.2358 1269.44 16.4388 1270.89 20.7495C1271.64 23.0126 1271.7 25.5991 1271.91 28.0239C1272.02 29.3171 1271.32 30.0715 1269.97 30.0715C1268.68 30.0715 1267.34 29.9637 1266.04 30.0715C1265.61 30.0715 1264.97 30.5025 1264.86 30.8797C1264.32 32.6579 1263.89 34.49 1263.46 36.2682C1264.1 36.322 1264.86 36.4298 1265.67 36.5376C1267.98 36.807 1269.33 37.9925 1269.44 40.4172C1269.44 40.7944 1269.81 41.441 1270.19 41.5488C1276.6 43.7042 1281.17 48.3382 1285.75 52.9723C1286.45 53.6728 1287.1 54.3733 1287.69 55.0738C1287.85 55.0738 1288.01 55.0738 1288.07 55.0738C1290.54 53.1339 1291.3 53.1878 1293.18 55.7743C1294.15 57.0675 1295.17 58.3607 1295.82 59.7617C1297.97 64.4496 1301.36 68.1676 1304.92 71.7779C1306.96 73.8794 1308.09 75.9808 1306.16 78.7289C1306.86 79.3756 1307.45 79.8605 1307.99 80.4532C1309.66 82.3392 1310.57 84.4946 1309.66 86.9193C1308.36 90.314 1307.02 93.7626 1305.35 96.9957C1304.11 99.4205 1302.5 99.9054 1299.86 99.0972C1296.9 98.1812 1294.26 99.5822 1291.51 99.9055C1291.08 99.9055 1290.49 100.66 1290.33 101.145C1289.52 103.947 1288.87 106.803 1288.01 109.551C1287.69 110.628 1286.88 111.598 1286.29 112.568C1286.07 112.892 1285.48 113.053 1285.43 113.377C1284.89 115.801 1284.08 118.28 1284.13 120.759C1284.19 122.752 1285.7 124.638 1286.07 126.686C1286.56 129.326 1286.56 132.02 1286.72 134.715C1286.72 134.876 1286.67 135.146 1286.56 135.2C1284.13 135.631 1285.43 137.301 1285.64 138.379C1286.34 141.666 1287.53 144.899 1288.01 148.186C1288.39 150.611 1287.96 153.197 1287.85 155.73C1287.85 156.646 1287.63 157.562 1287.74 158.478C1288.28 162.681 1287.74 166.722 1285.7 170.44C1288.82 173.996 1289.14 176.475 1286.83 180.409C1286.4 181.109 1285.75 181.702 1285.1 182.294C1283.7 183.588 1282.14 184.719 1280.85 186.066C1279.77 187.198 1278.97 188.491 1279.61 190.269C1279.88 191.024 1279.77 191.994 1279.61 192.802C1278.8 195.927 1278.48 198.999 1279.07 202.178C1279.23 203.04 1279.34 204.171 1278.97 204.872C1277.3 208.105 1278.43 211.069 1279.72 214.032C1280.53 215.918 1280.26 216.403 1278.37 217.211C1277.67 217.535 1276.87 218.235 1276.65 218.936C1275.3 223.139 1274.07 227.342 1272.93 231.599C1272.72 232.515 1273.1 233.646 1273.42 234.616C1273.53 234.939 1274.17 235.263 1274.6 235.263C1276.65 235.478 1277.94 236.556 1278.32 238.496C1278.8 240.651 1279.23 242.86 1279.4 245.07C1279.67 248.464 1278.05 250.943 1275.14 252.506C1273.37 253.476 1271.97 254.661 1270.73 256.224C1269.38 257.894 1267.71 258.864 1265.5 258.595C1263.78 258.433 1262.06 258.325 1260.34 258.271C1258.99 258.271 1258.29 257.463 1258.18 256.278C1257.97 252.937 1257.7 249.542 1257.86 246.201C1257.97 243.615 1258.61 241.028 1258.99 238.442C1259.04 238.011 1259.15 237.472 1258.99 237.149C1258.24 235.64 1258.34 234.185 1258.88 232.676C1259.04 232.191 1258.77 231.545 1258.67 230.952C1258.4 229.066 1257.8 227.126 1257.86 225.24C1257.97 222.762 1256.84 221.414 1254.47 221.792H1254.3ZM1209.13 125.608C1207.41 125.231 1204.93 124.962 1203.15 124.638C1203.91 126.74 1205.25 128.033 1205.63 129.434C1205.79 129.434 1206.01 129.434 1206.17 129.434C1207.03 128.302 1207.89 127.225 1209.13 125.662V125.608Z" fill="#EE5D53"/>
</g>
<defs>
<clipPath id="clip0_186_301">
<rect width="121.095" height="255.95" fill="white" transform="translate(80.631 3.66956)"/>
</clipPath>
<clipPath id="clip1_186_301">
<rect width="121.095" height="255.95" fill="white" transform="translate(-27.6204 3.66956)"/>
</clipPath>
<clipPath id="clip2_186_301">
<rect width="121.095" height="255.95" fill="white" transform="translate(190.717 2.75214)"/>
</clipPath>
<clipPath id="clip3_186_301">
<rect width="121.095" height="255.95" fill="white" transform="translate(80.631 3.66956)"/>
</clipPath>
<clipPath id="clip4_186_301">
<rect width="121.095" height="255.95" fill="white" transform="translate(300.803 2.75214)"/>
</clipPath>
<clipPath id="clip5_186_301">
<rect width="121.095" height="255.95" fill="white" transform="translate(519.141 1.83478)"/>
</clipPath>
<clipPath id="clip6_186_301">
<rect width="121.095" height="255.95" fill="white" transform="translate(409.054 2.75214)"/>
</clipPath>
<clipPath id="clip7_186_301">
<rect width="121.095" height="255.95" fill="white" transform="translate(633.814 1.83478)"/>
</clipPath>
<clipPath id="clip8_186_301">
<rect width="121.095" height="255.95" fill="white" transform="translate(852.151 0.917358)"/>
</clipPath>
<clipPath id="clip9_186_301">
<rect width="121.095" height="255.95" fill="white" transform="translate(963.154 0.917358)"/>
</clipPath>
<clipPath id="clip10_186_301">
<rect width="121.095" height="255.95" fill="white" transform="translate(1076.91)"/>
</clipPath>
<clipPath id="clip11_186_301">
<rect width="121.095" height="255.95" fill="white" transform="translate(742.065 1.83478)"/>
</clipPath>
<clipPath id="clip12_186_301">
<rect width="121.095" height="255.95" fill="white" transform="translate(1188.83 2.75214)"/>
</clipPath>
</defs>
</svg>
