<svg width="1232" height="1024" viewBox="0 0 1232 1024" fill="none" xmlns="http://www.w3.org/2000/svg">
<g clip-path="url(#clip0_194_23)">
<path fill-rule="evenodd" clip-rule="evenodd" d="M18.853 836.583C28.4423 828.52 34.9873 811.634 42.4456 805.702C32.2475 808.288 24.637 806.31 20.6795 797.335C9.72043 802.355 4.39308 797.335 1.65331 787.751C-5.50056 790.489 -11.4368 783.491 -16.4597 769.8C-28.7887 776.037 -33.355 761.738 -35.7903 741.505C-43.8575 748.046 -49.0326 741.809 -51.468 722.946C-59.3829 722.946 -59.8395 711.993 -57.5564 697.237C-70.1898 701.953 -73.3862 685.98 -64.4058 670.767C-74.1472 674.114 -81.6055 666.356 -73.0818 650.383C-82.8232 646.427 -81.91 634.714 -70.4942 615.242C-77.6481 606.267 -81.1489 597.291 -76.887 588.772C-92.2602 573.864 -91.4992 557.739 -82.9754 551.502C-98.653 530.357 -98.9575 517.426 -84.1931 512.558C-97.4354 486.393 -95 472.853 -79.6268 469.659C-93.1735 433.605 -81.3011 424.022 -67.9066 424.022C-74.9083 414.286 -70.7986 410.33 -65.1669 407.136C-75.6693 395.27 -75.8216 386.447 -67.45 379.449C-80.5401 351.458 -73.3862 341.722 -61.666 338.984C-72.9296 314.948 -72.9296 300.344 -53.2945 302.322C-50.2503 286.805 -35.7903 283.915 -27.2666 304.908C-20.8738 293.499 -12.35 294.716 2.41436 315.861C45.3376 377.472 78.2149 445.775 100.438 521.381C126.77 529.292 113.68 602.92 130.118 645.667C140.164 621.935 168.019 610.374 190.089 628.781C194.047 628.477 197.852 629.389 201.048 632.28C207.898 631.823 212.616 634.257 215.204 639.886C208.05 638.213 199.831 641.864 191.764 645.515C188.263 654.642 177.76 659.966 174.107 671.072C186.741 677.461 194.199 684.611 199.374 697.693C206.528 715.644 201.505 737.093 203.788 769.952C223.575 781.514 241.536 799.16 262.693 809.809C284.916 821.066 310.944 820.914 334.689 834.909C332.558 837.952 328.752 839.017 323.121 839.017C367.109 858.185 408.815 887.544 454.173 909.146C461.327 912.493 443.823 917.817 439.105 915.688C444.28 919.643 444.889 922.989 443.519 925.88C434.082 924.967 427.841 920.251 421.448 915.84C418.252 921.316 408.206 922.533 390.397 918.426C383.548 923.142 374.263 924.663 361.782 921.316C357.977 928.162 343.669 931.356 329.97 930.596C323.577 941.244 313.227 945.352 299.072 943.07C296.788 955.24 287.504 956.153 275.022 951.741C273.044 961.781 267.26 964.519 257.67 959.804C251.734 966.193 245.037 965.28 237.579 959.651C231.947 963.607 226.772 963.759 221.901 962.085C218.4 973.647 206.985 974.103 199.831 966.801C192.068 972.278 184.762 971.517 182.479 964.519C169.997 967.41 164.67 963.15 162.844 955.696C152.798 957.674 144.122 957.826 145.796 946.721C138.186 947.481 131.793 945.656 129.814 935.007C122.356 937.137 118.855 935.007 119.007 928.77C112.919 928.162 108.961 922.229 115.506 914.166C109.722 911.884 107.287 908.842 108.961 901.388C106.83 899.562 105.613 895.759 106.374 891.956C92.2182 899.562 82.3246 900.779 73.6486 900.171C55.2312 929.379 51.7304 971.061 36.0527 1004.98C29.0511 1020.2 22.2016 1025.22 13.3735 1017.61C2.71877 1030.09 -4.89172 1022.94 -7.02266 1010.46C-17.9818 1022.33 -26.2011 1023.85 -29.7019 1007.42C-37.6169 1018.52 -43.553 1017.31 -47.6627 1003.62C-53.1423 1007.27 -58.013 1004.22 -59.2307 991.445C-74.2995 990.837 -76.7348 973.951 -67.45 953.262C-74.2995 949.003 -77.6481 943.526 -73.5384 934.703C-77.9525 929.683 -77.9525 922.837 -73.3862 914.014C-80.3879 904.582 -77.8003 899.106 -73.8428 894.086C-79.779 885.871 -73.5384 880.547 -65.7757 878.113C-68.8199 865.791 -14.1765 856.663 18.5486 836.735L18.853 836.583Z" fill="#EE5D53"/>
</g>
<path d="M441.155 848.469C604.74 737.417 647.325 514.78 536.273 351.195C425.221 187.611 202.584 145.026 39 256.078" stroke="#EE5C52" stroke-width="30"/>
<path d="M581 276.5H606.329C619.032 276.5 629.329 266.203 629.329 253.5V80C629.329 67.2975 639.627 57 652.329 57H864.778M657.005 468H698.443C711.146 468 721.443 457.703 721.443 445V390C721.443 377.297 731.741 367 744.443 367H915.999M629.329 655.5H669.116C681.818 655.5 692.116 665.797 692.116 678.5V742C692.116 754.703 702.413 765 715.116 765H889" stroke="#EE5C52" stroke-width="5"/>
<path d="M528.762 382.689L528.748 382.667L528.733 382.646L519.733 369.646L519.703 369.602L519.669 369.56L510.419 358.06L510.405 358.043L510.391 358.026L500.141 346.026L500.092 345.968L500.037 345.916L488.537 334.916L488.475 334.857L488.408 334.806L475.908 325.306L475.883 325.287L475.857 325.269L464.379 317.284C459.247 313.419 457.714 306.378 460.779 300.728L503.719 221.569C507.972 213.728 517.95 211.086 525.526 215.796L528.659 217.744L551.056 234.168L568.978 250.099L586.939 267.561L604.353 285.473L619.789 306.386L619.793 306.391L634.027 325.844C634.49 326.476 634.904 327.143 635.266 327.837L638.67 334.373C642.847 342.394 639.3 352.272 630.975 355.803L549.104 390.525C542.156 393.472 534.096 390.986 530.014 384.637L528.762 382.689Z" fill="#F9EAD5" stroke="#EE5C52" stroke-width="3"/>
<path d="M420.765 292.971L420.741 292.96L420.718 292.95L406.156 286.79L406.106 286.769L406.055 286.751L392.086 281.991L392.065 281.984L392.043 281.978L376.961 277.331L376.889 277.309L376.815 277.294L361.212 274.161L361.129 274.144L361.044 274.137L345.4 272.807L345.369 272.804L345.337 272.803L331.369 272.205C324.964 271.688 319.9 266.562 319.463 260.149L313.344 170.302C312.738 161.402 319.751 153.829 328.671 153.75L332.36 153.717L360.07 155.597L383.737 159.455L408.256 164.586L432.554 170.39L456.789 179.787L456.795 179.79L479.233 188.598C479.962 188.884 480.668 189.225 481.346 189.618L487.72 193.316C495.543 197.853 497.836 208.096 492.696 215.535L442.141 288.697C437.851 294.906 429.712 297.122 422.866 293.946L420.765 292.971Z" fill="#F9EAD5" stroke="#EE5C52" stroke-width="3"/>
<path d="M569.999 500.95L569.997 500.877L569.987 500.805L565.93 469.787C565.813 468.897 565.632 468.017 565.388 467.154L557.253 438.375L557.232 438.303L557.205 438.233L552.758 426.959C549.937 419.807 552.785 411.667 559.451 407.835L634.402 364.74C642.154 360.283 652.058 363.291 656.022 371.305L657.63 374.558L668.002 400.322L674.832 423.308L680.888 447.615L686.242 472.016L688.333 497.925L688.333 497.931L690.172 521.966C690.232 522.747 690.232 523.531 690.173 524.312L689.62 531.661C688.941 540.678 680.719 547.202 671.783 545.813L583.659 532.115C576.303 530.972 570.799 524.76 570.549 517.319L569.999 500.95Z" fill="#F9EAD5" stroke="#EE5C52" stroke-width="3"/>
<path d="M543.126 636.84L543.163 636.778L543.194 636.712L556.639 608.466C557.024 607.656 557.35 606.818 557.615 605.961L566.419 577.38L566.441 577.308L566.456 577.234L568.847 565.354C570.364 557.816 577.177 552.53 584.855 552.933L671.194 557.47C680.123 557.939 686.804 565.845 685.778 574.727L685.362 578.332L680.073 605.597L673.32 628.606L665.199 652.303L656.438 675.698L644.118 698.586L644.115 698.591L632.602 719.769C632.228 720.457 631.802 721.116 631.328 721.74L626.871 727.609C621.403 734.811 610.955 735.821 604.208 729.801L537.664 670.426C532.109 665.47 530.862 657.264 534.694 650.882L543.126 636.84Z" fill="#F9EAD5" stroke="#EE5C52" stroke-width="3"/>
<rect x="864.5" y="18.5" width="319" height="245" rx="5.5" stroke="#EE5C52" stroke-width="5"/>
<rect x="862" y="18" width="324" height="52" rx="6" fill="#EE5C52"/>
<rect x="910.5" y="323.5" width="319" height="245" rx="5.5" stroke="#EE5C52" stroke-width="5"/>
<rect x="908" y="323" width="324" height="52" rx="6" fill="#EE5C52"/>
<rect x="887.5" y="725.5" width="319" height="245" rx="5.5" stroke="#EE5C52" stroke-width="5"/>
<rect x="885" y="725" width="324" height="52" rx="6" fill="#EE5C52"/>
<circle cx="936.5" cy="750.5" r="42" fill="#F9EAD5" stroke="#EE5C52" stroke-width="3"/>
<circle cx="965.5" cy="348.5" r="42" fill="#F9EAD5" stroke="#EE5C52" stroke-width="3"/>
<circle cx="921.5" cy="43.5" r="42" fill="#F9EAD5" stroke="#EE5C52" stroke-width="3"/>
<g clip-path="url(#clip1_194_23)">
<path d="M938.774 40.0119L925.215 54.81C923.21 57.0047 920.376 58.265 917.455 58.265C915.003 58.265 912.681 57.3741 910.916 55.7661C906.883 52.0937 906.73 45.6834 910.578 41.4787L924.136 26.6806L916.91 20.0965L903.351 34.8945C901.531 36.872 900.147 39.1536 899.232 41.6634C898.338 44.0754 897.935 46.6069 898 49.1711C898.076 51.7569 898.643 54.245 899.689 56.581C900.779 59.0147 902.327 61.1551 904.3 62.9587C906.272 64.7514 908.55 66.0986 911.079 66.957C913.117 67.6523 915.253 68 917.422 68C917.826 68 918.229 67.9891 918.632 67.9674C921.204 67.8153 923.7 67.1851 926.044 66.0878C928.463 64.9578 930.621 63.3715 932.431 61.3941L945.989 46.5961L938.763 40.0119H938.774ZM917.03 23.0735L921.128 26.8002L916.986 31.32L912.888 27.5933L917.03 23.0735ZM934.763 47.5196L938.905 42.9998L943.003 46.7265L938.861 51.2463L934.763 47.5196Z" fill="#EE5E54"/>
<path d="M946 17L928.213 28.4408L933.215 30.6246L922.981 40.3813L942.229 29.9293L936.594 27.4738L946 17Z" fill="#EE5E54"/>
</g>
<g clip-path="url(#clip2_194_23)">
<path d="M965.866 368C945.299 368 937.151 349.536 937.07 349.348C936.977 349.124 936.977 348.876 937.07 348.652C937.151 348.464 945.299 330 965.866 330C986.432 330 993.872 348.487 993.942 348.676C994.023 348.888 994.023 349.112 993.942 349.324C993.872 349.513 986.444 368 965.866 368ZM938.822 349.006C940.029 351.492 948.003 366.256 965.866 366.256C983.728 366.256 991.133 351.398 992.201 349.006C991.133 346.614 983.775 331.756 965.866 331.756C947.957 331.756 940.029 346.52 938.822 349.006Z" fill="#F15F55"/>
<path d="M965.494 358.491C960.341 358.491 956.139 354.226 956.139 348.994C956.139 343.762 960.341 339.497 965.494 339.497C970.648 339.497 974.849 343.762 974.849 348.994C974.849 354.226 970.659 358.491 965.494 358.491ZM965.494 341.253C961.293 341.253 957.869 344.729 957.869 348.994C957.869 353.26 961.293 356.736 965.494 356.736C969.696 356.736 973.12 353.26 973.12 348.994C973.12 344.729 969.696 341.253 965.494 341.253Z" fill="#F15F55"/>
</g>
<g clip-path="url(#clip3_194_23)">
<path d="M927.529 775C921.172 775 916 769.724 916 763.248C916 762.612 916.501 762.101 917.124 762.101C917.748 762.101 918.249 762.612 918.249 763.248C918.249 768.462 922.408 772.716 927.529 772.716C930.166 772.716 934.203 770.089 934.203 766.856C934.203 763.624 936.738 761.204 938.976 759.108C939.62 758.514 940.223 757.941 940.754 757.377C943.095 754.885 944.383 751.611 944.383 748.149C944.383 744.687 943.013 741.204 940.519 738.681C938.056 736.178 934.786 734.802 931.311 734.802C931.28 734.802 931.249 734.802 931.219 734.802C927.733 734.823 924.463 736.241 922 738.796C919.536 741.35 918.197 744.718 918.238 748.274C918.238 748.91 917.748 749.432 917.124 749.432C916.501 749.432 915.99 748.931 915.99 748.295C915.949 744.124 917.513 740.182 920.405 737.19C923.287 734.197 927.13 732.539 931.208 732.508C935.317 732.476 939.191 734.093 942.114 737.044C945.037 740.005 946.642 743.936 946.642 748.139C946.642 752.341 945.129 756.032 942.38 758.952C941.797 759.578 941.133 760.193 940.489 760.787C938.496 762.643 936.441 764.572 936.441 766.835C936.441 769.098 935.317 771.11 933.293 772.737C931.566 774.124 929.348 774.99 927.519 774.99L927.529 775Z" fill="#EE5D53"/>
<path d="M923.41 760.464C922.787 760.464 922.286 759.953 922.286 759.317C922.286 758.681 922.787 758.17 923.41 758.17C925.812 758.17 927.764 756.178 927.764 753.728C927.764 751.277 925.812 749.286 923.41 749.286C922.787 749.286 922.286 748.775 922.286 748.139C922.286 743.05 926.343 738.921 931.321 738.921C936.298 738.921 940.356 743.06 940.356 748.139C940.356 748.775 939.855 749.286 939.232 749.286C938.608 749.286 938.107 748.775 938.107 748.139C938.107 744.322 935.062 741.215 931.321 741.215C927.928 741.215 925.096 743.78 924.606 747.106C927.672 747.68 930.002 750.433 930.002 753.728C930.002 757.44 927.038 760.464 923.4 760.464H923.41Z" fill="#EE5D53"/>
<path d="M951.486 769.838C951.2 769.838 950.924 769.734 950.699 769.515C950.249 769.077 950.249 768.347 950.679 767.888C955.104 763.259 957.741 755.605 957.741 747.419C957.741 739.234 955.104 731.58 950.679 726.95C950.249 726.491 950.249 725.772 950.699 725.323C951.149 724.885 951.854 724.885 952.294 725.344C957.118 730.391 960 738.65 960 747.419C960 756.189 957.118 764.447 952.294 769.494C952.069 769.724 951.783 769.838 951.486 769.838Z" fill="#EE5D53"/>
<path d="M947.439 761.548C947.153 761.548 946.877 761.444 946.652 761.225C946.202 760.787 946.202 760.057 946.631 759.599C949.248 756.856 950.822 752.299 950.822 747.419C950.822 742.539 949.258 737.982 946.631 735.24C946.202 734.781 946.202 734.062 946.652 733.613C947.101 733.175 947.807 733.175 948.246 733.634C951.272 736.794 953.07 741.945 953.07 747.419C953.07 752.894 951.272 758.034 948.246 761.204C948.021 761.434 947.735 761.548 947.439 761.548Z" fill="#EE5D53"/>
</g>
<defs>
<clipPath id="clip0_194_23">
<rect width="551" height="734" fill="white" transform="translate(-95 290)"/>
</clipPath>
<clipPath id="clip1_194_23">
<rect width="48" height="51" fill="white" transform="translate(898 17)"/>
</clipPath>
<clipPath id="clip2_194_23">
<rect width="57" height="38" fill="white" transform="translate(937 330)"/>
</clipPath>
<clipPath id="clip3_194_23">
<rect width="44" height="50" fill="white" transform="translate(916 725)"/>
</clipPath>
</defs>
</svg>
