<svg width="550" height="338" viewBox="0 0 550 338" fill="none" xmlns="http://www.w3.org/2000/svg">
<mask id="path-1-outside-1_191_7" maskUnits="userSpaceOnUse" x="118" y="180" width="378" height="122" fill="black">
<rect fill="white" x="118" y="180" width="378" height="122"/>
<path d="M146.562 297C130.854 297 123 285.75 123 263.25V215.812C123 195.271 132 185 150 185C157.417 185 163.104 186.5 167.062 189.5C171.021 192.458 173.75 196.792 175.25 202.5C176.75 208.208 177.5 215.167 177.5 223.375H156V213.625C156 211.25 155.667 209.271 155 207.688C154.375 206.062 153.042 205.25 151 205.25C148.458 205.25 146.771 206.104 145.938 207.812C145.146 209.521 144.75 211.396 144.75 213.438V266.75C144.75 269.708 145.125 272.125 145.875 274C146.667 275.833 148.188 276.75 150.438 276.75C152.771 276.75 154.312 275.833 155.062 274C155.854 272.125 156.25 269.667 156.25 266.625V250.938H150.375V231.938H177.25V296H168.438L164.688 286.75C160.854 293.583 154.812 297 146.562 297ZM186 296V186H230V207.25H208.375V228.688H229.125V249.375H208.375V274.562H231.438V296H186ZM248.188 296V207.125H235.125V186H283.25V207.125H270.188V296H248.188ZM344.812 297C335.646 297 328.896 294.438 324.562 289.312C320.229 284.146 318.062 276.562 318.062 266.562V186H339.438V265.688C339.438 267.521 339.542 269.292 339.75 271C339.958 272.667 340.438 274.042 341.188 275.125C341.938 276.208 343.146 276.75 344.812 276.75C346.521 276.75 347.75 276.229 348.5 275.188C349.25 274.104 349.708 272.708 349.875 271C350.083 269.292 350.188 267.521 350.188 265.688V186H371.562V266.562C371.562 276.562 369.396 284.146 365.062 289.312C360.729 294.438 353.979 297 344.812 297ZM406.125 297C396.083 297 388.833 294.5 384.375 289.5C379.958 284.5 377.75 276.542 377.75 265.625V254.875H399.5V268.625C399.5 271.167 399.875 273.167 400.625 274.625C401.417 276.042 402.771 276.75 404.688 276.75C406.688 276.75 408.062 276.167 408.812 275C409.604 273.833 410 271.917 410 269.25C410 265.875 409.667 263.062 409 260.812C408.333 258.521 407.167 256.354 405.5 254.312C403.875 252.229 401.604 249.812 398.688 247.062L388.812 237.688C381.438 230.729 377.75 222.771 377.75 213.812C377.75 204.438 379.917 197.292 384.25 192.375C388.625 187.458 394.938 185 403.188 185C413.271 185 420.417 187.688 424.625 193.062C428.875 198.438 431 206.604 431 217.562H408.625V210C408.625 208.5 408.188 207.333 407.312 206.5C406.479 205.667 405.333 205.25 403.875 205.25C402.125 205.25 400.833 205.75 400 206.75C399.208 207.708 398.812 208.958 398.812 210.5C398.812 212.042 399.229 213.708 400.062 215.5C400.896 217.292 402.542 219.354 405 221.688L417.688 233.875C420.229 236.292 422.562 238.854 424.688 241.562C426.812 244.229 428.521 247.354 429.812 250.938C431.104 254.479 431.75 258.812 431.75 263.938C431.75 274.271 429.833 282.375 426 288.25C422.208 294.083 415.583 297 406.125 297ZM441.188 219.375L445.312 204.625H437.375V186H460.75V204.062L454.375 219.375H441.188ZM470.75 219.375L474.875 204.625H466.938V186H490.312V204.062L483.938 219.375H470.75Z"/>
</mask>
<path d="M146.562 297C130.854 297 123 285.75 123 263.25V215.812C123 195.271 132 185 150 185C157.417 185 163.104 186.5 167.062 189.5C171.021 192.458 173.75 196.792 175.25 202.5C176.75 208.208 177.5 215.167 177.5 223.375H156V213.625C156 211.25 155.667 209.271 155 207.688C154.375 206.062 153.042 205.25 151 205.25C148.458 205.25 146.771 206.104 145.938 207.812C145.146 209.521 144.75 211.396 144.75 213.438V266.75C144.75 269.708 145.125 272.125 145.875 274C146.667 275.833 148.188 276.75 150.438 276.75C152.771 276.75 154.312 275.833 155.062 274C155.854 272.125 156.25 269.667 156.25 266.625V250.938H150.375V231.938H177.25V296H168.438L164.688 286.75C160.854 293.583 154.812 297 146.562 297ZM186 296V186H230V207.25H208.375V228.688H229.125V249.375H208.375V274.562H231.438V296H186ZM248.188 296V207.125H235.125V186H283.25V207.125H270.188V296H248.188ZM344.812 297C335.646 297 328.896 294.438 324.562 289.312C320.229 284.146 318.062 276.562 318.062 266.562V186H339.438V265.688C339.438 267.521 339.542 269.292 339.75 271C339.958 272.667 340.438 274.042 341.188 275.125C341.938 276.208 343.146 276.75 344.812 276.75C346.521 276.75 347.75 276.229 348.5 275.188C349.25 274.104 349.708 272.708 349.875 271C350.083 269.292 350.188 267.521 350.188 265.688V186H371.562V266.562C371.562 276.562 369.396 284.146 365.062 289.312C360.729 294.438 353.979 297 344.812 297ZM406.125 297C396.083 297 388.833 294.5 384.375 289.5C379.958 284.5 377.75 276.542 377.75 265.625V254.875H399.5V268.625C399.5 271.167 399.875 273.167 400.625 274.625C401.417 276.042 402.771 276.75 404.688 276.75C406.688 276.75 408.062 276.167 408.812 275C409.604 273.833 410 271.917 410 269.25C410 265.875 409.667 263.062 409 260.812C408.333 258.521 407.167 256.354 405.5 254.312C403.875 252.229 401.604 249.812 398.688 247.062L388.812 237.688C381.438 230.729 377.75 222.771 377.75 213.812C377.75 204.438 379.917 197.292 384.25 192.375C388.625 187.458 394.938 185 403.188 185C413.271 185 420.417 187.688 424.625 193.062C428.875 198.438 431 206.604 431 217.562H408.625V210C408.625 208.5 408.188 207.333 407.312 206.5C406.479 205.667 405.333 205.25 403.875 205.25C402.125 205.25 400.833 205.75 400 206.75C399.208 207.708 398.812 208.958 398.812 210.5C398.812 212.042 399.229 213.708 400.062 215.5C400.896 217.292 402.542 219.354 405 221.688L417.688 233.875C420.229 236.292 422.562 238.854 424.688 241.562C426.812 244.229 428.521 247.354 429.812 250.938C431.104 254.479 431.75 258.812 431.75 263.938C431.75 274.271 429.833 282.375 426 288.25C422.208 294.083 415.583 297 406.125 297ZM441.188 219.375L445.312 204.625H437.375V186H460.75V204.062L454.375 219.375H441.188ZM470.75 219.375L474.875 204.625H466.938V186H490.312V204.062L483.938 219.375H470.75Z" fill="#F9EAD5"/>
<path d="M167.062 189.5L164.042 193.485L164.056 193.495L164.069 193.505L167.062 189.5ZM177.5 223.375V228.375H182.5V223.375H177.5ZM156 223.375H151V228.375H156V223.375ZM155 207.688L150.333 209.482L150.361 209.556L150.392 209.628L155 207.688ZM145.938 207.812L141.444 205.62L141.422 205.665L141.401 205.71L145.938 207.812ZM145.875 274L141.233 275.857L141.258 275.92L141.285 275.982L145.875 274ZM155.062 274L150.456 272.055L150.445 272.081L150.435 272.107L155.062 274ZM156.25 250.938H161.25V245.938H156.25V250.938ZM150.375 250.938H145.375V255.938H150.375V250.938ZM150.375 231.938V226.938H145.375V231.938H150.375ZM177.25 231.938H182.25V226.938H177.25V231.938ZM177.25 296V301H182.25V296H177.25ZM168.438 296L163.804 297.879L165.069 301H168.438V296ZM164.688 286.75L169.321 284.871L165.414 275.235L160.327 284.304L164.688 286.75ZM146.562 292C140.068 292 135.836 289.776 132.99 285.7C129.917 281.298 128 274.072 128 263.25H118C118 274.928 120.01 284.577 124.791 291.425C129.8 298.599 137.348 302 146.562 302V292ZM128 263.25V215.812H118V263.25H128ZM128 215.812C128 206.162 130.128 199.858 133.511 195.998C136.782 192.265 141.955 190 150 190V180C140.045 180 131.718 182.871 125.989 189.408C120.372 195.819 118 204.921 118 215.812H128ZM150 190C156.839 190 161.288 191.398 164.042 193.485L170.083 185.515C164.92 181.602 157.994 180 150 180V190ZM164.069 193.505C166.955 195.662 169.144 198.935 170.414 203.771L180.086 201.229C178.356 194.648 175.087 189.255 170.056 185.495L164.069 193.505ZM170.414 203.771C171.772 208.938 172.5 215.442 172.5 223.375H182.5C182.5 214.891 181.728 207.478 180.086 201.229L170.414 203.771ZM177.5 218.375H156V228.375H177.5V218.375ZM161 223.375V213.625H151V223.375H161ZM161 213.625C161 210.822 160.612 208.132 159.608 205.747L150.392 209.628C150.721 210.41 151 211.678 151 213.625H161ZM159.667 205.893C159.006 204.175 157.851 202.636 156.133 201.59C154.476 200.58 152.663 200.25 151 200.25V210.25C151.379 210.25 151.253 210.326 150.929 210.129C150.767 210.03 150.618 209.899 150.501 209.753C150.387 209.611 150.342 209.505 150.333 209.482L159.667 205.893ZM151 200.25C147.303 200.25 143.402 201.605 141.444 205.62L150.431 210.005C150.417 210.035 150.372 210.111 150.287 210.198C150.202 210.284 150.123 210.333 150.086 210.352C150.032 210.379 150.256 210.25 151 210.25V200.25ZM141.401 205.71C140.279 208.131 139.75 210.732 139.75 213.438H149.75C149.75 212.06 150.013 210.91 150.474 209.915L141.401 205.71ZM139.75 213.438V266.75H149.75V213.438H139.75ZM139.75 266.75C139.75 270.075 140.163 273.184 141.233 275.857L150.517 272.143C150.087 271.066 149.75 269.342 149.75 266.75H139.75ZM141.285 275.982C142.04 277.732 143.265 279.282 145.028 280.345C146.75 281.383 148.643 281.75 150.438 281.75V271.75C150.211 271.75 150.097 271.727 150.068 271.72C150.044 271.714 150.098 271.724 150.19 271.78C150.235 271.807 150.281 271.84 150.325 271.877C150.369 271.915 150.405 271.952 150.432 271.985C150.489 272.053 150.492 272.078 150.465 272.018L141.285 275.982ZM150.438 281.75C152.239 281.75 154.156 281.397 155.899 280.36C157.701 279.289 158.949 277.704 159.69 275.893L150.435 272.107C150.421 272.142 150.436 272.091 150.51 272.002C150.588 271.909 150.687 271.825 150.788 271.765C150.99 271.645 150.969 271.75 150.438 271.75V281.75ZM159.669 275.945C160.816 273.228 161.25 270.035 161.25 266.625H151.25C151.25 269.298 150.892 271.022 150.456 272.055L159.669 275.945ZM161.25 266.625V250.938H151.25V266.625H161.25ZM156.25 245.938H150.375V255.938H156.25V245.938ZM155.375 250.938V231.938H145.375V250.938H155.375ZM150.375 236.938H177.25V226.938H150.375V236.938ZM172.25 231.938V296H182.25V231.938H172.25ZM177.25 291H168.438V301H177.25V291ZM173.071 294.121L169.321 284.871L160.054 288.629L163.804 297.879L173.071 294.121ZM160.327 284.304C157.435 289.459 153.122 292 146.562 292V302C156.503 302 164.274 297.707 169.048 289.196L160.327 284.304ZM186 296H181V301H186V296ZM186 186V181H181V186H186ZM230 186H235V181H230V186ZM230 207.25V212.25H235V207.25H230ZM208.375 207.25V202.25H203.375V207.25H208.375ZM208.375 228.688H203.375V233.688H208.375V228.688ZM229.125 228.688H234.125V223.688H229.125V228.688ZM229.125 249.375V254.375H234.125V249.375H229.125ZM208.375 249.375V244.375H203.375V249.375H208.375ZM208.375 274.562H203.375V279.562H208.375V274.562ZM231.438 274.562H236.438V269.562H231.438V274.562ZM231.438 296V301H236.438V296H231.438ZM191 296V186H181V296H191ZM186 191H230V181H186V191ZM225 186V207.25H235V186H225ZM230 202.25H208.375V212.25H230V202.25ZM203.375 207.25V228.688H213.375V207.25H203.375ZM208.375 233.688H229.125V223.688H208.375V233.688ZM224.125 228.688V249.375H234.125V228.688H224.125ZM229.125 244.375H208.375V254.375H229.125V244.375ZM203.375 249.375V274.562H213.375V249.375H203.375ZM208.375 279.562H231.438V269.562H208.375V279.562ZM226.438 274.562V296H236.438V274.562H226.438ZM231.438 291H186V301H231.438V291ZM248.188 296H243.188V301H248.188V296ZM248.188 207.125H253.188V202.125H248.188V207.125ZM235.125 207.125H230.125V212.125H235.125V207.125ZM235.125 186V181H230.125V186H235.125ZM283.25 186H288.25V181H283.25V186ZM283.25 207.125V212.125H288.25V207.125H283.25ZM270.188 207.125V202.125H265.188V207.125H270.188ZM270.188 296V301H275.188V296H270.188ZM253.188 296V207.125H243.188V296H253.188ZM248.188 202.125H235.125V212.125H248.188V202.125ZM240.125 207.125V186H230.125V207.125H240.125ZM235.125 191H283.25V181H235.125V191ZM278.25 186V207.125H288.25V186H278.25ZM283.25 202.125H270.188V212.125H283.25V202.125ZM265.188 207.125V296H275.188V207.125H265.188ZM270.188 291H248.188V301H270.188V291ZM324.562 289.312L320.732 292.526L320.738 292.533L320.744 292.541L324.562 289.312ZM318.062 186V181H313.062V186H318.062ZM339.438 186H344.438V181H339.438V186ZM339.75 271L334.787 271.605L334.788 271.613L334.789 271.62L339.75 271ZM348.5 275.188L352.558 278.109L352.585 278.072L352.611 278.034L348.5 275.188ZM349.875 271L344.912 270.395L344.904 270.455L344.899 270.515L349.875 271ZM350.188 186V181H345.188V186H350.188ZM371.562 186H376.562V181H371.562V186ZM365.062 289.312L368.881 292.541L368.887 292.533L368.893 292.526L365.062 289.312ZM344.812 292C336.551 292 331.451 289.715 328.381 286.084L320.744 292.541C326.341 299.16 334.741 302 344.812 302V292ZM328.393 286.099C325.106 282.18 323.062 275.937 323.062 266.562H313.062C313.062 277.188 315.352 286.112 320.732 292.526L328.393 286.099ZM323.062 266.562V186H313.062V266.562H323.062ZM318.062 191H339.438V181H318.062V191ZM334.438 186V265.688H344.438V186H334.438ZM334.438 265.688C334.438 267.71 334.552 269.684 334.787 271.605L344.713 270.395C344.531 268.9 344.438 267.332 344.438 265.688H334.438ZM334.789 271.62C335.07 273.873 335.759 276.068 337.077 277.971L345.298 272.279C345.116 272.015 344.847 271.461 344.711 270.38L334.789 271.62ZM337.077 277.971C339.007 280.76 341.992 281.75 344.812 281.75V271.75C344.508 271.75 344.519 271.699 344.702 271.781C344.796 271.823 344.911 271.891 345.029 271.988C345.146 272.086 345.236 272.189 345.298 272.279L337.077 277.971ZM344.812 281.75C347.547 281.75 350.573 280.865 352.558 278.109L344.442 272.266C344.522 272.156 344.625 272.045 344.749 271.947C344.872 271.85 344.985 271.789 345.065 271.756C345.214 271.692 345.176 271.75 344.812 271.75V281.75ZM352.611 278.034C353.971 276.069 354.626 273.792 354.851 271.485L344.899 270.515C344.79 271.624 344.529 272.139 344.389 272.341L352.611 278.034ZM354.838 271.605C355.073 269.684 355.188 267.71 355.188 265.688H345.188C345.188 267.332 345.094 268.9 344.912 270.395L354.838 271.605ZM355.188 265.688V186H345.188V265.688H355.188ZM350.188 191H371.562V181H350.188V191ZM366.562 186V266.562H376.562V186H366.562ZM366.562 266.562C366.562 275.937 364.519 282.18 361.232 286.099L368.893 292.526C374.273 286.112 376.562 277.188 376.562 266.562H366.562ZM361.244 286.084C358.174 289.715 353.074 292 344.812 292V302C354.884 302 363.284 299.16 368.881 292.541L361.244 286.084ZM384.375 289.5L380.628 292.81L380.635 292.819L380.643 292.828L384.375 289.5ZM377.75 254.875V249.875H372.75V254.875H377.75ZM399.5 254.875H404.5V249.875H399.5V254.875ZM400.625 274.625L396.179 276.912L396.218 276.989L396.26 277.064L400.625 274.625ZM408.812 275L404.675 272.192L404.64 272.244L404.607 272.296L408.812 275ZM409 260.812L404.199 262.209L404.202 262.221L404.206 262.233L409 260.812ZM405.5 254.312L401.557 257.388L401.592 257.431L401.627 257.474L405.5 254.312ZM398.688 247.062L395.245 250.689L395.251 250.695L395.257 250.7L398.688 247.062ZM388.812 237.688L392.255 234.061L392.249 234.056L392.244 234.051L388.812 237.688ZM384.25 192.375L380.515 189.051L380.507 189.06L380.499 189.069L384.25 192.375ZM424.625 193.062L420.688 196.145L420.695 196.154L420.703 196.164L424.625 193.062ZM431 217.562V222.562H436V217.562H431ZM408.625 217.562H403.625V222.562H408.625V217.562ZM407.312 206.5L403.777 210.036L403.82 210.079L403.864 210.121L407.312 206.5ZM400 206.75L396.159 203.549L396.152 203.557L396.145 203.566L400 206.75ZM405 221.688L408.464 218.082L408.453 218.071L408.442 218.061L405 221.688ZM417.688 233.875L414.224 237.481L414.233 237.49L414.242 237.499L417.688 233.875ZM424.688 241.562L420.754 244.649L420.765 244.664L420.777 244.679L424.688 241.562ZM429.812 250.938L425.109 252.633L425.112 252.642L425.115 252.651L429.812 250.938ZM426 288.25L421.813 285.518L421.808 285.525L426 288.25ZM406.125 292C396.793 292 391.226 289.671 388.107 286.172L380.643 292.828C386.44 299.329 395.374 302 406.125 302V292ZM388.122 286.19C384.89 282.531 382.75 276.049 382.75 265.625H372.75C372.75 277.034 375.026 286.469 380.628 292.81L388.122 286.19ZM382.75 265.625V254.875H372.75V265.625H382.75ZM377.75 259.875H399.5V249.875H377.75V259.875ZM394.5 254.875V268.625H404.5V254.875H394.5ZM394.5 268.625C394.5 271.566 394.919 274.462 396.179 276.912L405.071 272.338C404.831 271.871 404.5 270.767 404.5 268.625H394.5ZM396.26 277.064C398.111 280.377 401.351 281.75 404.688 281.75V271.75C404.335 271.75 404.355 271.685 404.552 271.788C404.65 271.839 404.752 271.912 404.842 272.002C404.931 272.09 404.976 272.161 404.99 272.186L396.26 277.064ZM404.688 281.75C407.574 281.75 410.981 280.873 413.018 277.704L404.607 272.296C404.697 272.155 404.816 272.019 404.954 271.906C405.09 271.795 405.205 271.735 405.266 271.71C405.323 271.686 405.316 271.697 405.219 271.714C405.12 271.731 404.948 271.75 404.688 271.75V281.75ZM412.95 277.808C414.616 275.352 415 272.159 415 269.25H405C405 270.357 404.916 271.146 404.806 271.676C404.693 272.224 404.589 272.319 404.675 272.192L412.95 277.808ZM415 269.25C415 265.585 414.643 262.256 413.794 259.392L404.206 262.233C404.691 263.869 405 266.165 405 269.25H415ZM413.801 259.416C412.928 256.415 411.42 253.658 409.373 251.151L401.627 257.474C402.913 259.05 403.739 260.626 404.199 262.209L413.801 259.416ZM409.443 251.237C407.603 248.879 405.135 246.27 402.118 243.425L395.257 250.7C398.073 253.355 400.147 255.579 401.557 257.388L409.443 251.237ZM402.13 243.436L392.255 234.061L385.37 241.314L395.245 250.689L402.13 243.436ZM392.244 234.051C385.725 227.9 382.75 221.207 382.75 213.812H372.75C372.75 224.335 377.15 233.558 385.381 241.324L392.244 234.051ZM382.75 213.812C382.75 205.137 384.759 199.359 388.001 195.681L380.499 189.069C375.074 195.224 372.75 203.738 372.75 213.812H382.75ZM387.985 195.699C391.18 192.108 395.976 190 403.188 190V180C393.899 180 386.07 182.809 380.515 189.051L387.985 195.699ZM403.188 190C412.493 190 417.813 192.473 420.688 196.145L428.562 189.98C423.02 182.902 414.049 180 403.188 180V190ZM420.703 196.164C423.945 200.264 426 207.101 426 217.562H436C436 206.107 433.805 196.611 428.547 189.961L420.703 196.164ZM431 212.562H408.625V222.562H431V212.562ZM413.625 217.562V210H403.625V217.562H413.625ZM413.625 210C413.625 207.484 412.856 204.875 410.761 202.879L403.864 210.121C403.809 210.068 403.754 210.004 403.706 209.931C403.659 209.859 403.63 209.796 403.615 209.756C403.585 209.676 403.625 209.731 403.625 210H413.625ZM410.848 202.964C408.865 200.981 406.326 200.25 403.875 200.25V210.25C404.133 210.25 404.19 210.287 404.119 210.261C404.083 210.248 404.026 210.223 403.959 210.181C403.891 210.138 403.829 210.087 403.777 210.036L410.848 202.964ZM403.875 200.25C401.184 200.25 398.242 201.049 396.159 203.549L403.841 209.951C403.77 210.036 403.685 210.114 403.594 210.179C403.505 210.242 403.433 210.275 403.399 210.288C403.339 210.311 403.461 210.25 403.875 210.25V200.25ZM396.145 203.566C394.449 205.619 393.812 208.084 393.812 210.5H403.812C403.812 210.154 403.857 209.975 403.876 209.916C403.891 209.868 403.89 209.892 403.855 209.934L396.145 203.566ZM393.812 210.5C393.812 212.945 394.472 215.336 395.529 217.609L404.596 213.391C403.987 212.081 403.812 211.138 403.812 210.5H393.812ZM395.529 217.609C396.752 220.238 398.922 222.813 401.558 225.314L408.442 218.061C406.161 215.896 405.04 214.345 404.596 213.391L395.529 217.609ZM401.536 225.293L414.224 237.481L421.151 230.269L408.464 218.082L401.536 225.293ZM414.242 237.499C416.612 239.751 418.781 242.135 420.754 244.649L428.621 238.476C426.344 235.574 423.847 232.832 421.133 230.251L414.242 237.499ZM420.777 244.679C422.525 246.871 423.981 249.504 425.109 252.633L434.516 249.242C433.061 245.205 431.1 241.587 428.598 238.446L420.777 244.679ZM425.115 252.651C426.149 255.485 426.75 259.201 426.75 263.938H436.75C436.75 258.424 436.059 253.473 434.51 249.224L425.115 252.651ZM426.75 263.938C426.75 273.733 424.92 280.755 421.813 285.518L430.187 290.982C434.746 283.995 436.75 274.808 436.75 263.938H426.75ZM421.808 285.525C419.253 289.455 414.564 292 406.125 292V302C416.603 302 425.164 298.711 430.192 290.975L421.808 285.525ZM441.188 219.375L436.372 218.028L434.597 224.375H441.188V219.375ZM445.312 204.625L450.128 205.972L451.903 199.625H445.312V204.625ZM437.375 204.625H432.375V209.625H437.375V204.625ZM437.375 186V181H432.375V186H437.375ZM460.75 186H465.75V181H460.75V186ZM460.75 204.062L465.366 205.984L465.75 205.062V204.062H460.75ZM454.375 219.375V224.375H457.709L458.991 221.297L454.375 219.375ZM470.75 219.375L465.935 218.028L464.16 224.375H470.75V219.375ZM474.875 204.625L479.69 205.972L481.465 199.625H474.875V204.625ZM466.938 204.625H461.938V209.625H466.938V204.625ZM466.938 186V181H461.938V186H466.938ZM490.312 186H495.312V181H490.312V186ZM490.312 204.062L494.928 205.984L495.312 205.062V204.062H490.312ZM483.938 219.375V224.375H487.272L488.553 221.297L483.938 219.375ZM446.003 220.722L450.128 205.972L440.497 203.278L436.372 218.028L446.003 220.722ZM445.312 199.625H437.375V209.625H445.312V199.625ZM442.375 204.625V186H432.375V204.625H442.375ZM437.375 191H460.75V181H437.375V191ZM455.75 186V204.062H465.75V186H455.75ZM456.134 202.141L449.759 217.453L458.991 221.297L465.366 205.984L456.134 202.141ZM454.375 214.375H441.188V224.375H454.375V214.375ZM475.565 220.722L479.69 205.972L470.06 203.278L465.935 218.028L475.565 220.722ZM474.875 199.625H466.938V209.625H474.875V199.625ZM471.938 204.625V186H461.938V204.625H471.938ZM466.938 191H490.312V181H466.938V191ZM485.312 186V204.062H495.312V186H485.312ZM485.697 202.141L479.322 217.453L488.553 221.297L494.928 205.984L485.697 202.141ZM483.938 214.375H470.75V224.375H483.938V214.375Z" fill="#EE5C52" mask="url(#path-1-outside-1_191_7)"/>
<mask id="path-3-outside-2_191_7" maskUnits="userSpaceOnUse" x="-2" y="35" width="553" height="122" fill="black">
<rect fill="white" x="-2" y="35" width="553" height="122"/>
<path d="M3.375 74.375V56.3125L9.75 41H22.9375L18.8125 55.75H26.75V74.375H3.375ZM32.6875 74.375V56.3125L39.0625 41H52.25L48.125 55.75H56.0625V74.375H32.6875ZM89.875 152C81.9167 152 75.5 149.521 70.625 144.562C65.7917 139.604 63.375 132.667 63.375 123.75V73C63.375 62.3333 65.4792 54.1667 69.6875 48.5C73.9375 42.8333 80.8333 40 90.375 40C95.5833 40 100.208 40.9583 104.25 42.875C108.333 44.7917 111.542 47.6667 113.875 51.5C116.208 55.2917 117.375 60.0833 117.375 65.875V84.875H95.5V68.625C95.5 65.3333 95.0833 63.125 94.25 62C93.4167 60.8333 92.125 60.25 90.375 60.25C88.3333 60.25 86.9583 61 86.25 62.5C85.5417 63.9583 85.1875 65.9167 85.1875 68.375V123.438C85.1875 126.479 85.625 128.625 86.5 129.875C87.4167 131.125 88.7083 131.75 90.375 131.75C92.25 131.75 93.5625 130.979 94.3125 129.438C95.1042 127.896 95.5 125.896 95.5 123.438V103.625H117.625V124.438C117.625 134.104 115.188 141.125 110.312 145.5C105.438 149.833 98.625 152 89.875 152ZM151.25 152C142.458 152 135.729 149.354 131.062 144.062C126.438 138.729 124.125 131.042 124.125 121V68.75C124.125 59.3333 126.417 52.1875 131 47.3125C135.625 42.4375 142.375 40 151.25 40C160.125 40 166.854 42.4375 171.438 47.3125C176.062 52.1875 178.375 59.3333 178.375 68.75V121C178.375 131.042 176.042 138.729 171.375 144.062C166.75 149.354 160.042 152 151.25 152ZM151.438 131.75C154.771 131.75 156.438 128.521 156.438 122.062V68.375C156.438 62.9583 154.812 60.25 151.562 60.25C147.896 60.25 146.062 63.0208 146.062 68.5625V122.188C146.062 125.604 146.479 128.062 147.312 129.562C148.146 131.021 149.521 131.75 151.438 131.75ZM187.25 151V41H220.75L230 108.062L239.188 41H273V151H252.875V71.75L240.25 151H220.5L207.125 71.75V151H187.25ZM282.75 151V41H326.75V62.25H305.125V83.6875H325.875V104.375H305.125V129.562H328.188V151H282.75ZM362.5 151L373.125 41H410.438L420.875 151H400.062L398.5 133.25H385.25L383.875 151H362.5ZM386.812 115.688H396.812L392 59.75H391L386.812 115.688ZM427.625 151V41H450.25L460.375 93.6875V41H481.625V151H460.125L449.125 96V151H427.625ZM491.375 151V41H521.625C529.542 41 535.5 43.2083 539.5 47.625C543.5 52 545.5 58.4167 545.5 66.875V118.375C545.5 128.792 543.667 136.833 540 142.5C536.375 148.167 530 151 520.875 151H491.375ZM513.5 131.562H517.312C521.354 131.562 523.375 129.604 523.375 125.688V68.9375C523.375 65.2708 522.875 62.9167 521.875 61.875C520.917 60.7917 518.938 60.25 515.938 60.25H513.5V131.562Z"/>
</mask>
<path d="M3.375 74.375V56.3125L9.75 41H22.9375L18.8125 55.75H26.75V74.375H3.375ZM32.6875 74.375V56.3125L39.0625 41H52.25L48.125 55.75H56.0625V74.375H32.6875ZM89.875 152C81.9167 152 75.5 149.521 70.625 144.562C65.7917 139.604 63.375 132.667 63.375 123.75V73C63.375 62.3333 65.4792 54.1667 69.6875 48.5C73.9375 42.8333 80.8333 40 90.375 40C95.5833 40 100.208 40.9583 104.25 42.875C108.333 44.7917 111.542 47.6667 113.875 51.5C116.208 55.2917 117.375 60.0833 117.375 65.875V84.875H95.5V68.625C95.5 65.3333 95.0833 63.125 94.25 62C93.4167 60.8333 92.125 60.25 90.375 60.25C88.3333 60.25 86.9583 61 86.25 62.5C85.5417 63.9583 85.1875 65.9167 85.1875 68.375V123.438C85.1875 126.479 85.625 128.625 86.5 129.875C87.4167 131.125 88.7083 131.75 90.375 131.75C92.25 131.75 93.5625 130.979 94.3125 129.438C95.1042 127.896 95.5 125.896 95.5 123.438V103.625H117.625V124.438C117.625 134.104 115.188 141.125 110.312 145.5C105.438 149.833 98.625 152 89.875 152ZM151.25 152C142.458 152 135.729 149.354 131.062 144.062C126.438 138.729 124.125 131.042 124.125 121V68.75C124.125 59.3333 126.417 52.1875 131 47.3125C135.625 42.4375 142.375 40 151.25 40C160.125 40 166.854 42.4375 171.438 47.3125C176.062 52.1875 178.375 59.3333 178.375 68.75V121C178.375 131.042 176.042 138.729 171.375 144.062C166.75 149.354 160.042 152 151.25 152ZM151.438 131.75C154.771 131.75 156.438 128.521 156.438 122.062V68.375C156.438 62.9583 154.812 60.25 151.562 60.25C147.896 60.25 146.062 63.0208 146.062 68.5625V122.188C146.062 125.604 146.479 128.062 147.312 129.562C148.146 131.021 149.521 131.75 151.438 131.75ZM187.25 151V41H220.75L230 108.062L239.188 41H273V151H252.875V71.75L240.25 151H220.5L207.125 71.75V151H187.25ZM282.75 151V41H326.75V62.25H305.125V83.6875H325.875V104.375H305.125V129.562H328.188V151H282.75ZM362.5 151L373.125 41H410.438L420.875 151H400.062L398.5 133.25H385.25L383.875 151H362.5ZM386.812 115.688H396.812L392 59.75H391L386.812 115.688ZM427.625 151V41H450.25L460.375 93.6875V41H481.625V151H460.125L449.125 96V151H427.625ZM491.375 151V41H521.625C529.542 41 535.5 43.2083 539.5 47.625C543.5 52 545.5 58.4167 545.5 66.875V118.375C545.5 128.792 543.667 136.833 540 142.5C536.375 148.167 530 151 520.875 151H491.375ZM513.5 131.562H517.312C521.354 131.562 523.375 129.604 523.375 125.688V68.9375C523.375 65.2708 522.875 62.9167 521.875 61.875C520.917 60.7917 518.938 60.25 515.938 60.25H513.5V131.562Z" fill="#F9EAD5"/>
<path d="M3.375 74.375H-1.625V79.375H3.375V74.375ZM3.375 56.3125L-1.24094 54.3908L-1.625 55.3133V56.3125H3.375ZM9.75 41V36H6.41562L5.13406 39.0783L9.75 41ZM22.9375 41L27.7527 42.3466L29.5277 36H22.9375V41ZM18.8125 55.75L13.9973 54.4034L12.2224 60.75H18.8125V55.75ZM26.75 55.75H31.75V50.75H26.75V55.75ZM26.75 74.375V79.375H31.75V74.375H26.75ZM32.6875 74.375H27.6875V79.375H32.6875V74.375ZM32.6875 56.3125L28.0716 54.3908L27.6875 55.3133V56.3125H32.6875ZM39.0625 41V36H35.7281L34.4466 39.0783L39.0625 41ZM52.25 41L57.0652 42.3466L58.8401 36H52.25V41ZM48.125 55.75L43.3098 54.4034L41.5349 60.75H48.125V55.75ZM56.0625 55.75H61.0625V50.75H56.0625V55.75ZM56.0625 74.375V79.375H61.0625V74.375H56.0625ZM8.375 74.375V56.3125H-1.625V74.375H8.375ZM7.99094 58.2342L14.3659 42.9217L5.13406 39.0783L-1.24094 54.3908L7.99094 58.2342ZM9.75 46H22.9375V36H9.75V46ZM18.1223 39.6534L13.9973 54.4034L23.6277 57.0966L27.7527 42.3466L18.1223 39.6534ZM18.8125 60.75H26.75V50.75H18.8125V60.75ZM21.75 55.75V74.375H31.75V55.75H21.75ZM26.75 69.375H3.375V79.375H26.75V69.375ZM37.6875 74.375V56.3125H27.6875V74.375H37.6875ZM37.3034 58.2342L43.6784 42.9217L34.4466 39.0783L28.0716 54.3908L37.3034 58.2342ZM39.0625 46H52.25V36H39.0625V46ZM47.4348 39.6534L43.3098 54.4034L52.9402 57.0966L57.0652 42.3466L47.4348 39.6534ZM48.125 60.75H56.0625V50.75H48.125V60.75ZM51.0625 55.75V74.375H61.0625V55.75H51.0625ZM56.0625 69.375H32.6875V79.375H56.0625V69.375ZM70.625 144.562L67.0446 148.053L67.0521 148.06L67.0596 148.068L70.625 144.562ZM69.6875 48.5L65.6875 45.5L65.6804 45.5094L65.6734 45.5189L69.6875 48.5ZM104.25 42.875L102.108 47.3927L102.117 47.397L102.125 47.4012L104.25 42.875ZM113.875 51.5L109.604 54.0997L109.61 54.1101L109.617 54.1205L113.875 51.5ZM117.375 84.875V89.875H122.375V84.875H117.375ZM95.5 84.875H90.5V89.875H95.5V84.875ZM94.25 62L90.1813 64.9062L90.2065 64.9414L90.2322 64.9761L94.25 62ZM86.25 62.5L90.7475 64.6845L90.7595 64.6598L90.7712 64.635L86.25 62.5ZM86.5 129.875L82.4038 132.742L82.4354 132.787L82.468 132.832L86.5 129.875ZM94.3125 129.438L89.8647 127.153L89.84 127.202L89.8163 127.25L94.3125 129.438ZM95.5 103.625V98.625H90.5V103.625H95.5ZM117.625 103.625H122.625V98.625H117.625V103.625ZM110.312 145.5L113.634 149.237L113.643 149.229L113.652 149.221L110.312 145.5ZM89.875 147C83.0464 147 77.9871 144.919 74.1904 141.057L67.0596 148.068C73.0129 154.123 80.7869 157 89.875 157V147ZM74.2054 141.072C70.5228 137.295 68.375 131.754 68.375 123.75H58.375C58.375 133.58 61.0605 141.914 67.0446 148.053L74.2054 141.072ZM68.375 123.75V73H58.375V123.75H68.375ZM68.375 73C68.375 62.8875 70.3861 55.9455 73.7016 51.4811L65.6734 45.5189C60.5722 52.3878 58.375 61.7792 58.375 73H68.375ZM73.6875 51.5C76.6878 47.4996 81.817 45 90.375 45V35C79.8497 35 71.1872 38.1671 65.6875 45.5L73.6875 51.5ZM90.375 45C94.9635 45 98.837 45.8418 102.108 47.3927L106.392 38.3573C101.58 36.0749 96.2032 35 90.375 35V45ZM102.125 47.4012C105.325 48.9028 107.784 51.1101 109.604 54.0997L118.146 48.9003C115.299 44.2233 111.342 40.6806 106.375 38.3488L102.125 47.4012ZM109.617 54.1205C111.34 56.9201 112.375 60.7356 112.375 65.875H122.375C122.375 59.4311 121.077 53.6632 118.133 48.8795L109.617 54.1205ZM112.375 65.875V84.875H122.375V65.875H112.375ZM117.375 79.875H95.5V89.875H117.375V79.875ZM100.5 84.875V68.625H90.5V84.875H100.5ZM100.5 68.625C100.5 66.7973 100.387 65.0878 100.101 63.573C99.8278 62.1262 99.3254 60.4516 98.2678 59.0239L90.2322 64.9761C90.008 64.6734 90.1305 64.6655 90.2742 65.427C90.405 66.1205 90.5 67.161 90.5 68.625H100.5ZM98.3187 59.0938C96.3353 56.3171 93.3379 55.25 90.375 55.25V65.25C90.7027 65.25 90.7324 65.3049 90.5983 65.2444C90.5306 65.2138 90.446 65.1644 90.3605 65.094C90.2753 65.0238 90.2162 64.955 90.1813 64.9062L98.3187 59.0938ZM90.375 55.25C88.7638 55.25 87.0297 55.5441 85.4182 56.423C83.7441 57.3362 82.5068 58.7174 81.7288 60.365L90.7712 64.635C90.7481 64.684 90.6888 64.7898 90.5751 64.9127C90.4593 65.0377 90.3284 65.1356 90.2068 65.202C89.9703 65.3309 89.9445 65.25 90.375 65.25V55.25ZM81.7525 60.3155C80.587 62.7149 80.1875 65.5154 80.1875 68.375H90.1875C90.1875 66.3179 90.4963 65.2018 90.7475 64.6845L81.7525 60.3155ZM80.1875 68.375V123.438H90.1875V68.375H80.1875ZM80.1875 123.438C80.1875 126.657 80.5925 130.155 82.4038 132.742L90.5962 127.008C90.6834 127.132 90.5517 127.001 90.4148 126.329C90.2833 125.684 90.1875 124.742 90.1875 123.438H80.1875ZM82.468 132.832C84.4062 135.475 87.2553 136.75 90.375 136.75V126.75C90.2707 126.75 90.2262 126.74 90.2288 126.741C90.2337 126.742 90.2738 126.751 90.3341 126.78C90.3952 126.81 90.4509 126.847 90.494 126.884C90.5357 126.919 90.5463 126.938 90.532 126.918L82.468 132.832ZM90.375 136.75C91.9976 136.75 93.7143 136.413 95.2977 135.483C96.9083 134.537 98.0589 133.166 98.8087 131.625L89.8163 127.25C89.8089 127.265 89.8341 127.21 89.9131 127.121C89.9952 127.029 90.1051 126.936 90.2335 126.86C90.5044 126.701 90.6274 126.75 90.375 126.75V136.75ZM98.7603 131.722C100.035 129.24 100.5 126.379 100.5 123.438H90.5C90.5 125.413 90.1738 126.551 89.8647 127.153L98.7603 131.722ZM100.5 123.438V103.625H90.5V123.438H100.5ZM95.5 108.625H117.625V98.625H95.5V108.625ZM112.625 103.625V124.438H122.625V103.625H112.625ZM112.625 124.438C112.625 133.368 110.372 138.729 106.973 141.779L113.652 149.221C120.003 143.521 122.625 134.841 122.625 124.438H112.625ZM106.991 141.763C103.305 145.039 97.8241 147 89.875 147V157C99.4259 157 107.57 154.627 113.634 149.237L106.991 141.763ZM131.062 144.062L127.285 147.338L127.299 147.354L127.312 147.37L131.062 144.062ZM131 47.3125L127.373 43.8712L127.365 43.8794L127.357 43.8876L131 47.3125ZM171.438 47.3125L167.795 50.7374L167.802 50.7456L167.81 50.7538L171.438 47.3125ZM171.375 144.062L167.612 140.77L167.61 140.772L171.375 144.062ZM147.312 129.562L142.942 131.991L142.956 132.017L142.971 132.043L147.312 129.562ZM151.25 147C143.512 147 138.304 144.715 134.813 140.755L127.312 147.37C133.154 153.994 141.404 157 151.25 157V147ZM134.84 140.787C131.28 136.681 129.125 130.341 129.125 121H119.125C119.125 131.743 121.595 140.777 127.285 147.338L134.84 140.787ZM129.125 121V68.75H119.125V121H129.125ZM129.125 68.75C129.125 60.0858 131.232 54.3651 134.643 50.7374L127.357 43.8876C121.601 50.0099 119.125 58.5808 119.125 68.75H129.125ZM134.627 50.7538C138.033 47.1645 143.287 45 151.25 45V35C141.463 35 133.217 37.7105 127.373 43.8712L134.627 50.7538ZM151.25 45C159.216 45 164.436 47.1654 167.795 50.7374L175.08 43.8876C169.272 37.7096 161.034 35 151.25 35V45ZM167.81 50.7538C171.253 54.3824 173.375 60.0966 173.375 68.75H183.375C183.375 58.57 180.872 49.9926 175.065 43.8712L167.81 50.7538ZM173.375 68.75V121H183.375V68.75H173.375ZM173.375 121C173.375 130.331 171.204 136.665 167.612 140.77L175.138 147.355C180.879 140.793 183.375 131.752 183.375 121H173.375ZM167.61 140.772C164.165 144.714 158.99 147 151.25 147V157C161.094 157 169.335 153.994 175.14 147.353L167.61 140.772ZM151.438 136.75C153.114 136.75 154.81 136.332 156.338 135.345C157.842 134.373 158.902 133.034 159.631 131.621C161.013 128.942 161.438 125.559 161.438 122.062H151.438C151.438 125.024 151.028 126.485 150.744 127.035C150.64 127.237 150.658 127.109 150.912 126.944C151.033 126.867 151.16 126.812 151.276 126.78C151.387 126.749 151.449 126.75 151.438 126.75V136.75ZM161.438 122.062V68.375H151.438V122.062H161.438ZM161.438 68.375C161.438 65.3299 161.01 62.2148 159.506 59.7088C157.758 56.7958 154.881 55.25 151.562 55.25V65.25C151.667 65.25 151.515 65.2664 151.267 65.1286C151.012 64.9871 150.915 64.8271 150.931 64.8537C150.967 64.913 151.106 65.1819 151.23 65.8009C151.352 66.4128 151.438 67.2558 151.438 68.375H161.438ZM151.562 55.25C148.256 55.25 145.218 56.6214 143.268 59.5691C141.557 62.1544 141.062 65.3988 141.062 68.5625H151.062C151.062 67.4371 151.157 66.6006 151.289 66.0027C151.421 65.4024 151.568 65.1462 151.607 65.0871C151.624 65.0616 151.557 65.1587 151.406 65.2349C151.274 65.3011 151.279 65.25 151.562 65.25V55.25ZM141.062 68.5625V122.188H151.062V68.5625H141.062ZM141.062 122.188C141.062 125.767 141.457 129.318 142.942 131.991L151.683 127.134C151.501 126.807 151.062 125.441 151.062 122.188H141.062ZM142.971 132.043C144.836 135.307 148.031 136.75 151.438 136.75V126.75C151.109 126.75 151.129 126.689 151.311 126.786C151.399 126.832 151.486 126.896 151.558 126.967C151.628 127.037 151.656 127.085 151.654 127.082L142.971 132.043ZM187.25 151H182.25V156H187.25V151ZM187.25 41V36H182.25V41H187.25ZM220.75 41L225.703 40.3168L225.108 36H220.75V41ZM230 108.062L225.047 108.746L234.954 108.741L230 108.062ZM239.188 41V36H234.826L234.234 40.3213L239.188 41ZM273 41H278V36H273V41ZM273 151V156H278V151H273ZM252.875 151H247.875V156H252.875V151ZM252.875 71.75H257.875L247.937 70.9634L252.875 71.75ZM240.25 151V156H244.517L245.188 151.787L240.25 151ZM220.5 151L215.57 151.832L216.273 156H220.5V151ZM207.125 71.75L212.055 70.9179L202.125 71.75H207.125ZM207.125 151V156H212.125V151H207.125ZM192.25 151V41H182.25V151H192.25ZM187.25 46H220.75V36H187.25V46ZM215.797 41.6832L225.047 108.746L234.953 107.379L225.703 40.3168L215.797 41.6832ZM234.954 108.741L244.141 41.6787L234.234 40.3213L225.046 107.384L234.954 108.741ZM239.188 46H273V36H239.188V46ZM268 41V151H278V41H268ZM273 146H252.875V156H273V146ZM257.875 151V71.75H247.875V151H257.875ZM247.937 70.9634L235.312 150.213L245.188 151.787L257.813 72.5366L247.937 70.9634ZM240.25 146H220.5V156H240.25V146ZM225.43 150.168L212.055 70.9179L202.195 72.5821L215.57 151.832L225.43 150.168ZM202.125 71.75V151H212.125V71.75H202.125ZM207.125 146H187.25V156H207.125V146ZM282.75 151H277.75V156H282.75V151ZM282.75 41V36H277.75V41H282.75ZM326.75 41H331.75V36H326.75V41ZM326.75 62.25V67.25H331.75V62.25H326.75ZM305.125 62.25V57.25H300.125V62.25H305.125ZM305.125 83.6875H300.125V88.6875H305.125V83.6875ZM325.875 83.6875H330.875V78.6875H325.875V83.6875ZM325.875 104.375V109.375H330.875V104.375H325.875ZM305.125 104.375V99.375H300.125V104.375H305.125ZM305.125 129.562H300.125V134.562H305.125V129.562ZM328.188 129.562H333.188V124.562H328.188V129.562ZM328.188 151V156H333.188V151H328.188ZM287.75 151V41H277.75V151H287.75ZM282.75 46H326.75V36H282.75V46ZM321.75 41V62.25H331.75V41H321.75ZM326.75 57.25H305.125V67.25H326.75V57.25ZM300.125 62.25V83.6875H310.125V62.25H300.125ZM305.125 88.6875H325.875V78.6875H305.125V88.6875ZM320.875 83.6875V104.375H330.875V83.6875H320.875ZM325.875 99.375H305.125V109.375H325.875V99.375ZM300.125 104.375V129.562H310.125V104.375H300.125ZM305.125 134.562H328.188V124.562H305.125V134.562ZM323.188 129.562V151H333.188V129.562H323.188ZM328.188 146H282.75V156H328.188V146ZM362.5 151L357.523 150.519L356.994 156H362.5V151ZM373.125 41V36H368.585L368.148 40.5193L373.125 41ZM410.438 41L415.415 40.5277L414.986 36H410.438V41ZM420.875 151V156H426.372L425.853 150.528L420.875 151ZM400.062 151L395.082 151.438L395.483 156H400.062V151ZM398.5 133.25L403.481 132.812L403.079 128.25H398.5V133.25ZM385.25 133.25V128.25H380.622L380.265 132.864L385.25 133.25ZM383.875 151V156H388.503L388.86 151.386L383.875 151ZM386.812 115.688L381.826 115.314L381.424 120.688H386.812V115.688ZM396.812 115.688V120.688H402.261L401.794 115.259L396.812 115.688ZM392 59.75L396.982 59.3214L396.588 54.75H392V59.75ZM391 59.75V54.75H386.36L386.014 59.3767L391 59.75ZM367.477 151.481L378.102 41.4807L368.148 40.5193L357.523 150.519L367.477 151.481ZM373.125 46H410.438V36H373.125V46ZM405.46 41.4723L415.897 151.472L425.853 150.528L415.415 40.5277L405.46 41.4723ZM420.875 146H400.062V156H420.875V146ZM405.043 150.562L403.481 132.812L393.519 133.688L395.082 151.438L405.043 150.562ZM398.5 128.25H385.25V138.25H398.5V128.25ZM380.265 132.864L378.89 150.614L388.86 151.386L390.235 133.636L380.265 132.864ZM383.875 146H362.5V156H383.875V146ZM386.812 120.688H396.812V110.688H386.812V120.688ZM401.794 115.259L396.982 59.3214L387.018 60.1786L391.831 116.116L401.794 115.259ZM392 54.75H391V64.75H392V54.75ZM386.014 59.3767L381.826 115.314L391.799 116.061L395.986 60.1233L386.014 59.3767ZM427.625 151H422.625V156H427.625V151ZM427.625 41V36H422.625V41H427.625ZM450.25 41L455.16 40.0564L454.381 36H450.25V41ZM460.375 93.6875L455.465 94.6311L465.375 93.6875H460.375ZM460.375 41V36H455.375V41H460.375ZM481.625 41H486.625V36H481.625V41ZM481.625 151V156H486.625V151H481.625ZM460.125 151L455.222 151.981L456.026 156H460.125V151ZM449.125 96L454.028 95.0194L444.125 96H449.125ZM449.125 151V156H454.125V151H449.125ZM432.625 151V41H422.625V151H432.625ZM427.625 46H450.25V36H427.625V46ZM445.34 41.9436L455.465 94.6311L465.285 92.7439L455.16 40.0564L445.34 41.9436ZM465.375 93.6875V41H455.375V93.6875H465.375ZM460.375 46H481.625V36H460.375V46ZM476.625 41V151H486.625V41H476.625ZM481.625 146H460.125V156H481.625V146ZM465.028 150.019L454.028 95.0194L444.222 96.9806L455.222 151.981L465.028 150.019ZM444.125 96V151H454.125V96H444.125ZM449.125 146H427.625V156H449.125V146ZM491.375 151H486.375V156H491.375V151ZM491.375 41V36H486.375V41H491.375ZM539.5 47.625L535.794 50.9814L535.802 50.9901L535.81 50.9988L539.5 47.625ZM540 142.5L535.802 139.784L535.795 139.795L535.788 139.806L540 142.5ZM513.5 131.562H508.5V136.562H513.5V131.562ZM521.875 61.875L518.13 65.1879L518.198 65.2642L518.268 65.3377L521.875 61.875ZM513.5 60.25V55.25H508.5V60.25H513.5ZM496.375 151V41H486.375V151H496.375ZM491.375 46H521.625V36H491.375V46ZM521.625 46C528.617 46 533.026 47.9251 535.794 50.9814L543.206 44.2686C537.974 38.4915 530.466 36 521.625 36V46ZM535.81 50.9988C538.667 54.1243 540.5 59.1354 540.5 66.875H550.5C550.5 57.698 548.333 49.8757 543.19 44.2512L535.81 50.9988ZM540.5 66.875V118.375H550.5V66.875H540.5ZM540.5 118.375C540.5 128.312 538.733 135.255 535.802 139.784L544.198 145.216C548.601 138.412 550.5 129.271 550.5 118.375H540.5ZM535.788 139.806C533.394 143.547 528.969 146 520.875 146V156C531.031 156 539.356 152.786 544.212 145.194L535.788 139.806ZM520.875 146H491.375V156H520.875V146ZM513.5 136.562H517.312V126.562H513.5V136.562ZM517.312 136.562C520.065 136.562 523.056 135.897 525.339 133.684C527.652 131.443 528.375 128.457 528.375 125.688H518.375C518.375 126.251 518.301 126.537 518.268 126.631C518.244 126.7 518.263 126.616 518.38 126.503C518.642 126.249 518.601 126.562 517.312 126.562V136.562ZM528.375 125.688V68.9375H518.375V125.688H528.375ZM528.375 68.9375C528.375 66.9162 528.241 65.0297 527.891 63.3831C527.562 61.8367 526.926 59.917 525.482 58.4123L518.268 65.3377C517.824 64.8747 517.938 64.6528 518.109 65.4606C518.259 66.1682 518.375 67.2921 518.375 68.9375H528.375ZM525.62 58.5621C524.279 57.0468 522.544 56.2583 520.992 55.8336C519.424 55.4045 517.698 55.25 515.938 55.25V65.25C517.177 65.25 517.941 65.3663 518.352 65.4789C518.779 65.5958 518.512 65.6199 518.13 65.1879L525.62 58.5621ZM515.938 55.25H513.5V65.25H515.938V55.25ZM508.5 60.25V131.562H518.5V60.25H508.5Z" fill="#EE5C52" mask="url(#path-3-outside-2_191_7)"/>
</svg>
