<svg width="524" height="1061" viewBox="0 0 524 1061" fill="none" xmlns="http://www.w3.org/2000/svg">
<g clip-path="url(#clip0_132_364)">
<mask id="mask0_132_364" style="mask-type:luminance" maskUnits="userSpaceOnUse" x="10" y="-148" width="501" height="1201">
<path d="M510.32 1052.5L510.32 -147.5L10.3199 -147.5L10.3199 1052.5L510.32 1052.5Z" fill="white"/>
</mask>
<g mask="url(#mask0_132_364)">
<path d="M79.52 429.39C73.68 422.05 68.02 414.05 59.03 411.38C32.06 403.35 23.85 384.96 27.81 358.9C28.07 357.18 27.99 355.38 27.88 353.63C27.25 343.65 31.4799 335.97 38.4 329.07C49.43 318.08 62.67 310.15 75.59 301.89C89.76 292.84 98.7 280.56 102.32 264.29C105.95 247.98 110.33 231.86 114.42 215.67C116.25 208.43 118.14 200.94 116.7 193.49C106.11 138.59 86.88 109.28 39.77 102.31C24.83 100.1 20.14 92.45 20.19 77.32C20.26 56.65 16.71 49.72 0.48999 45.46V122.65C3.09998 124.14 5.67993 125.72 8.25995 127.37C14.21 131.18 20.73 134.49 27.63 135.5C55.13 139.5 71.58 154.16 81.34 180.86C88.73 201.08 92.8 219.91 87.96 240.96C80.65 272.69 69.04 284.08 36.83 288.5C24.44 290.2 12.31 289.49 1 283.07C0.830017 282.98 0.659973 282.89 0.5 282.8V422.07C8.60999 434.38 21.39 441.9 38.4 445.17C50.32 447.46 60.65 452.68 70.81 459.12C95.29 474.62 119.61 490.44 146.19 502.37C158.19 507.75 170.14 513.45 180.66 521.63C189.88 528.8 193.76 537.8 190.79 549.46C189.49 554.57 188.71 559.83 187.27 564.89C183.1 579.64 186.26 593.67 191.14 607.52C194.76 617.79 202.16 622.71 213.09 623.34C227.57 624.16 237.87 617.93 244.09 605.37C251.71 589.98 260.29 574.31 248.56 557.06C244.12 550.52 238.99 544.44 235.77 537.12C233.18 531.25 232.11 525.42 235.67 519.46C240.29 511.7 245.46 511.31 250.71 518.64C253.79 522.93 255.74 527.91 258.36 532.49C275.63 562.64 315.69 571.59 343.74 551.1C357.16 541.3 371.36 536.56 388.11 538.48C402.01 540.07 416.2 537.95 426.98 529.02C458.2 503.17 486.94 453.3 450.68 409.03C445.12 402.24 439.98 395.02 436.67 386.76C428.9 367.36 417.6 350.16 404.11 334.32C392.45 320.62 381.84 306.08 370.5 292.14C358.12 276.92 353.4 259.55 355.57 240.58C356.87 229.17 357.78 217.81 357.4 206.4C356.39 176.14 371.52 153.2 392.04 133.84C413.35 113.73 429.08 113.92 450.82 132.63C465.8 145.52 482.21 156.71 496.2 170.75C504.4 178.98 513.23 185.37 522.86 189.74V165.34C509.56 158.53 497.64 148.58 488.32 135.71C479.57 123.64 479.88 114.04 489.49 102.31C492.83 98.23 496.67 94.52 498.77 89.57C500.76 84.88 501.54 80.11 497.4 76.13C493.61 72.48 489.24 73.87 485.04 75.43C482.15 76.5 479.32 77.89 476.96 79.84C467.94 87.27 457.54 89.55 446.17 88.71C432.5 87.7 420.11 91.7 408.55 98.68C367.51 123.47 345.22 160.59 338.48 207.33C336.87 218.52 337.36 230.12 337.07 241.54C336.56 262.5 342.11 280.92 354.25 298.32C379.56 334.58 408.85 368.46 424.34 410.88C424.94 412.51 425.83 414.17 427.03 415.4C448.49 437.32 445.88 460.98 434.19 486.79C423.11 511.24 417.77 516.06 390.69 516.22C368.82 516.34 347.26 515.34 326.05 524.76C309.01 532.33 296.88 524.67 290.67 506.27C285.47 490.85 274.85 481.44 260.34 475.4C243.52 468.4 228.42 473.88 213.73 481.65C205.5 486.01 197.4 491.06 187.7 489.25C145.08 481.28 107.27 464.3 79.52 429.46V429.39Z" fill="url(#paint0_linear_132_364)" stroke="#EF5D53" stroke-miterlimit="10"/>
<path d="M474.5 1059.62C471.75 1050.54 464.05 1046.42 450.88 1046.99C445.13 1047.24 439.38 1048.02 434.1 1050.18C424.41 1054.14 415.41 1053.2 406.26 1048.5C400.81 1045.7 394.93 1043.72 389.11 1041.7C375 1036.79 362.25 1039.44 350.77 1048.68C346.62 1052.02 342.8 1055.67 339.33 1059.62H474.5Z" fill="url(#paint1_linear_132_364)" stroke="#EF5D53" stroke-miterlimit="10"/>
<path d="M358.27 204.01C358.89 216.73 358.04 229.43 356.37 242.14C354.51 256.29 355.65 270.49 364.02 282.66C374.44 297.8 384.99 312.98 397.98 326.08C427.93 356.27 444.99 394.66 464.64 431.28C471.43 443.94 474.22 458.84 468.08 473.4C460.67 490.94 451.15 507.12 437.49 520.68C425.06 533.01 410.48 540.35 392.8 539.82C371.73 539.19 353.88 545.49 340.3 562.15C330.65 574 318.58 577.45 303.79 573.77C286 569.34 273.06 576.54 263.85 591.81C259.27 599.41 255.79 607.42 253.48 615.97C251.65 622.77 249.79 629.6 246.71 635.93C227.09 676.22 205.92 715.79 200.18 761.38C196.88 787.56 156.35 800.77 133.59 787.72C129.62 785.44 126.93 782.11 125.08 777.97C107.07 737.79 108.66 699.5 136.13 663.76C144.97 652.26 154.3 641.14 163.13 629.62C169.4 621.44 173.53 612.42 175.04 602.11C177.46 585.57 178.24 568.87 180.02 552.27C181.44 539.01 175.46 528.34 166.04 519.53C158.57 512.54 149.88 507.31 140.26 503.9C126.52 499.02 113.83 492.11 101.01 485.28C76.7199 472.33 54.3199 456.11 26.6899 449.09C16.2099 446.43 7.19995 440.97 0.47998 433.19L0.47998 1059.65H12.36C14.2899 1057.9 16.17 1055.96 17.99 1053.82C37.03 1031.39 61.2999 1025.72 88.4299 1024.55C100.92 1024.01 110.78 1027.8 117.81 1038.36C126.42 1051.29 138.41 1058.25 154 1059.47C154.59 1059.52 155.18 1059.59 155.77 1059.66H280.78C297.45 1048.95 313.75 1037.74 329.83 1026.16C351.66 1010.44 376.1 1002.46 403.15 1006.93C426.42 1010.77 449.09 1010.95 472.28 1005.24C488.53 1001.24 505.6 1001.1 520.15 1012.59C521.03 1013.29 521.93 1013.96 522.82 1014.61L522.82 192.16C516.38 189.44 510.5 185.45 505.33 179.81C486.93 159.72 464.41 145.42 441.14 131.97C421.7 120.73 404.13 121.67 388.25 137.68C370.25 155.82 356.91 176.66 358.24 204.02L358.27 204.01Z" fill="url(#paint2_linear_132_364)" stroke="#EF5D53" stroke-miterlimit="10"/>
<path d="M14 1051.11C11.35 1054.48 8.38997 1057.31 5.21997 1059.62H33.66C35.86 1057.04 38.41 1054.71 40.9 1052.39C62.43 1032.25 88.74 1033.28 107.68 1055.88C108.79 1057.2 109.92 1058.44 111.08 1059.63H180.24C179.3 1059.45 178.36 1059.26 177.4 1059.12C171.78 1058.26 166.27 1055.84 160.69 1055.77C140.77 1055.52 126.74 1046.62 117.01 1029.37C114.05 1024.11 108.15 1020.24 101.79 1020.04C68.59 1018.99 37.05 1021.87 14.01 1051.14L14 1051.11Z" fill="url(#paint3_linear_132_364)" stroke="#EF5D53" stroke-miterlimit="10"/>
<path d="M392.44 1020.67C420.97 1027.93 448.69 1028.13 476.64 1018.47C487.07 1014.87 498.54 1015.9 506.8 1023.11C511.97 1027.62 517.31 1031.73 522.85 1035.47V1007.99C505.78 997.08 487.09 996.94 466.75 1000.83C453.69 1003.33 441.23 1008.15 426.73 1004.99C390.88 997.18 355.91 999.33 325.32 1023.01C310.73 1034.3 295.51 1044.58 279.92 1054.44C277.19 1056.17 274.44 1057.88 271.71 1059.62H303.1C313.97 1052.32 324.55 1044.67 334.73 1036.35C351.46 1022.67 370.93 1015.19 392.44 1020.67Z" fill="url(#paint4_linear_132_364)" stroke="#EF5D53" stroke-miterlimit="10"/>
<path d="M383.01 135.6C348.27 171.59 349.52 216.49 352.14 261.36C353.45 283.84 371.15 298.3 383.19 315.3C398.61 337.06 418.7 355.62 428.86 380.93C433.33 392.07 439.47 401.88 446.56 411.5C458.53 427.76 468.72 446.06 462.02 466.52C455.97 484.98 447.69 503.11 433.78 517.88C423.73 528.54 410.98 534.94 397.48 533.64C372.92 531.26 351.55 535.42 333.48 552.87C332.3 554.01 330.33 554.38 328.69 555C306.15 563.41 274.52 551.94 262.75 530.94C259.53 525.19 256.83 519.15 253.79 513.3C249.58 505.22 243.34 503.76 236.68 509.68C229.1 516.42 224.5 524.57 229.39 535.32C233.24 543.78 237.71 551.83 244.01 558.66C247.42 562.36 250.05 566.04 249.79 571.38C249 587.79 243.57 602.51 231.79 613.89C219.45 625.81 199.84 619.08 194.16 603.22C187.66 585.08 190.42 567.87 195.62 550.5C199.7 536.86 195.5 526.15 184.47 518.12C178.12 513.49 171.27 509.31 164.15 506.01C129.44 489.93 96.51 470.75 64.78 449.47C58.02 444.94 50.74 442.89 42.82 441.44C18.05 436.9 7.23999 429.59 0.5 411.19V439.02C9.71002 447.93 21.76 453.81 35.99 457.7C43.54 459.77 51.29 460.81 58.27 465.22C84.97 482.08 111.59 499.11 141.8 509.49C150.93 512.63 159.05 518.25 165.75 525.42C172.95 533.12 177.73 542.19 175.55 552.9C173.78 561.61 173.96 570.33 173.09 579.03C171.14 598.58 169.76 618.29 154.51 633.71C145.93 642.39 138.75 652.49 131.28 662.21C104.1 697.55 100.26 746.66 121.86 783.84C123.76 787.11 126.88 790.19 130.17 792.07C157.22 807.52 202.23 790.58 205.75 761.56C207.95 743.44 211.19 725.25 218.19 707.92C232.12 673.4 252.92 641.85 262.13 605.26C263.67 599.13 268.13 593.56 271.89 588.19C278.58 578.62 288.14 574.23 299.38 577.79C318.37 583.8 333.61 579.92 345.65 563.72C356.93 548.55 372.77 543.62 390.91 544.82C410.35 546.11 425.69 537.59 439.5 525.15C452.45 513.48 460.71 498.56 469.17 483.57C478.71 466.66 476.63 450.14 470.93 432.96C462.66 408.04 443.19 389.26 434.07 364.81C430.97 356.49 425.04 350.04 419.3 343.27C404 325.24 387.04 308.65 373.14 289.39C364.62 277.58 359.21 265.14 360.52 250.24C361.86 234.97 364.51 219.75 363.17 204.35C360.86 177.76 374.03 157.95 391.66 140.5C404.19 128.1 420.56 124.92 433.63 133.05C456.25 147.12 480.85 158.52 498.41 179.84C505.43 188.36 513.63 193.95 522.86 197.4V185.23C518.81 183.06 514.95 180.34 511.23 177.14C488.69 157.69 465.92 138.49 442.86 119.66C437.25 115.08 430.68 110.54 422.4 112.95C407.44 117.29 394.07 124.16 383.01 135.61V135.6Z" fill="url(#paint5_linear_132_364)" stroke="#EF5D53" stroke-miterlimit="10"/>
<path d="M345.51 1059.62C361.04 1041.84 375.52 1038.31 397.67 1050.13C411.68 1057.61 425.84 1061.14 441.05 1053.29C446.71 1050.37 453.13 1051.35 459.25 1051.55C465.53 1051.76 469.18 1054.6 470.62 1059.62H502.23C502.35 1057.59 502.4 1055.49 502.39 1053.34C502.31 1032.09 489.95 1020.32 469.41 1025.56C442.09 1032.53 415.65 1031.42 388.75 1024.62C372.09 1020.41 355.81 1023.21 342.68 1034.4C332.48 1043.09 321.92 1051.32 311.44 1059.62H345.53H345.51Z" fill="url(#paint6_linear_132_364)" stroke="#EF5D53" stroke-miterlimit="10"/>
<path d="M105.21 1059.62C103.16 1057.51 101.05 1055.45 98.87 1053.46C82.69 1038.7 63.36 1038.23 46.42 1052.17C43.68 1054.42 41.27 1056.95 39 1059.62H105.21Z" fill="url(#paint7_linear_132_364)" stroke="#EF5D53" stroke-miterlimit="10"/>
<path d="M111.91 1053.15C98.1301 1033.6 81.8301 1029.35 58.8201 1036.11C45.0401 1040.15 35.2801 1048.89 27.5101 1059.62H45.6701C63.2801 1041.73 79.0401 1041.36 98.3501 1059.62H117.33C115.42 1057.72 113.62 1055.57 111.91 1053.16V1053.15Z" fill="url(#paint8_linear_132_364)" stroke="#EF5D53" stroke-miterlimit="10"/>
<path d="M497.27 1042.96C497.7 1048.69 497.81 1054.28 497.47 1059.62H522.85V1030.31C522.79 1030.24 522.73 1030.18 522.68 1030.11C507.18 1011.06 487.8 1007.89 465.82 1015.96C445.29 1023.49 424.97 1023.75 403.96 1017.57C377.8 1009.87 352.92 1014.18 332.2 1031.97C320.16 1042.31 306.92 1050.65 294.08 1059.62H319.35C328.25 1052.84 337.11 1046.01 345.28 1038.31C357.14 1027.12 372.46 1025.54 388.56 1029.38C405.15 1033.34 421.82 1036.61 439.24 1035.91C451.37 1035.42 462.18 1030.34 473.93 1028.93C484.91 1027.61 496.55 1033.48 497.27 1042.97V1042.96Z" fill="url(#paint9_linear_132_364)" stroke="#EF5D53" stroke-miterlimit="10"/>
<path d="M400.26 511.5C409.99 511.8 418.79 507.19 423.37 498.51C433.99 478.38 438.92 456.69 429.17 435.2C422.25 419.94 416.11 404.59 410.98 388.68C407.47 377.79 402.08 367.57 395.37 358.26C379.95 336.88 366.39 314.22 350.84 292.95C341.07 279.58 337.17 264.62 336.65 248.61C335.41 210.72 340.78 175.06 363.29 142.37C381.05 116.57 401.57 94.82 430.53 83.73C450.36 76.13 468.8 66.62 487.56 57C504.4 48.37 515.46 36.24 522.85 21.57V-73.75C516.16 -86.48 506.23 -97.99 492.2 -106.17C474.49 -116.5 455.42 -120.1 435.77 -122.63C411.88 -125.71 400.62 -136.55 402.43 -154.49L0.5 -154.49V35.49C1.98999 35.91 3.53998 36.32 5.15997 36.7C8.14996 37.41 11.11 38.29 14.11 38.94C25.4 41.39 33.53 47.96 36.6 58.92C42.19 78.88 55.74 91.04 73.73 99.1C88.82 105.86 97.85 117.69 103.3 132.74C108.11 146.02 113.88 158.92 121.55 170.71C132.79 188.01 132.06 204.45 120.33 220.94C111.51 233.35 106.07 247.14 103.8 262.18C101.66 276.41 96.02 289.07 87.32 300.53C78.67 311.91 76.84 324.54 77.38 338.97C78.41 366.35 86.06 392.78 87.05 420.06C87.36 428.68 90.72 436.35 96.09 443.01C112.93 463.91 157.78 489.84 194.33 475.87C221.05 465.66 246.57 466.79 272.67 476.35C283.53 480.32 295 482.71 306.35 480.11C322.32 476.46 334.52 481.63 345.53 492.82C360.52 508.06 380.25 510.87 400.24 511.5H400.26Z" fill="url(#paint10_linear_132_364)" stroke="#EF5D53" stroke-miterlimit="10"/>
<path d="M504.66 38.82C485.17 56.28 461.4 70.34 434.8 77.14C408.47 83.87 388.38 100.68 373.22 121.74C351.46 151.97 332.08 183.76 331.74 223.45C331.52 249.23 332.3 273.67 347.66 296.41C366.78 324.71 388.17 351.71 403.13 382.6C409.37 395.48 410.31 411.42 418.1 422.97C433.32 445.54 430.32 467.78 422.75 490.89C419.02 502.28 409.57 508.56 398.37 507.32C378.47 505.12 358.24 502.85 343.99 485.06C336.16 475.28 324.76 471.22 311.97 474.4C300.08 477.36 288.68 476.43 277.05 472.67C252.29 464.66 227.74 457.95 201.41 468.63C161.94 484.64 129.81 468.66 101.23 442.08C94.68 435.99 91.48 427.78 91.44 418.38C91.32 391.15 82.88 364.91 82.04 337.58C81.65 324.91 82.73 314.27 90.38 304.44C99.42 292.83 106.18 280.36 107.92 265.33C109.82 248.88 116.34 234.28 126.13 220.76C138.18 204.12 137.76 186.99 126.59 169.47C120.25 159.52 114.1 148.97 110.55 137.83C103.75 116.47 92.13 100.78 70.79 92.06C59.9 87.61 47.8 80.97 45.49 68.64C40.59 42.56 23.1 34.12 0.47998 30.42V49.58C12.25 52.24 16.47 59.07 15.13 72.56C13.26 91.45 16.6 104.87 44.3 108.74C74.88 113.02 91.43 131.89 102.66 159.05C113.53 185.31 110.28 210.07 104.88 237.14C97.97 271.76 82.79 296.57 51.12 312.63C30.53 323.07 18.56 340.32 22.84 365.32C23.5 369.16 22.93 373.22 22.93 377.18C22.94 396.09 28.11 403.24 46.19 410.52C55.52 414.28 65.78 417.37 71.47 426.39C94.38 462.75 131.05 478.16 169.28 490.89C186.01 496.46 201.62 495.4 217.97 484.89C244.32 467.95 278.25 480.16 285.89 506.82C292.85 531.08 310.52 539.24 333.4 527.78C343.17 522.88 352.84 520.48 363.69 520.93C375.97 521.44 388.3 520.78 400.6 521.11C417.2 521.55 428.17 513.67 434.23 498.75C438.85 487.37 442.33 475.51 447.15 464.23C451.28 454.57 451.03 445.74 446.26 436.46C439.03 422.4 426.68 411.2 422.12 395.85C413.59 367.16 392.74 346.36 377.05 322.23C365.66 304.71 347.96 290.23 344.76 268.63C338.22 224.47 339.41 181.56 367.62 142.93C390.14 112.1 416.36 90.19 456.99 93.68C465.52 94.41 470.69 89.27 477.04 85.56C482.94 82.11 489.82 72.32 495.75 79.26C501.24 85.69 492.02 92.28 487.03 97.52C474.46 110.74 471.92 124.25 483.25 137.4C495.23 151.31 507.87 163.82 522.84 171.98V13.66C518.79 22.97 512.85 31.5 504.65 38.84L504.66 38.82Z" fill="url(#paint11_linear_132_364)" stroke="#EF5D53" stroke-miterlimit="10"/>
<path d="M0.500023 288.52C10.58 293.7 21.24 295.63 32.31 293.88C53.11 290.58 76.23 288.16 85.37 265.69C95.97 239.61 102.36 212.05 88.04 184.48C84.82 178.28 80.89 172.16 79.19 165.52C74.66 147.9 62.45 139.42 46.01 135.69C29.78 132.01 14.51 126.5 0.509972 117.39L0.509972 288.52H0.500023Z" fill="url(#paint12_linear_132_364)" stroke="#EF5D53" stroke-miterlimit="10"/>
<path d="M373.9 199.17C372.66 213.54 373.92 227.97 371.52 242.46C368.77 259.06 373.39 274.27 384.26 287.96C396.37 303.22 411.05 315.54 425.13 328.73C454.79 356.52 468.13 393.98 482.12 430.75C487.99 446.17 491.79 463.62 485.17 478.45C466.55 520.22 438.24 552.39 389.98 560.79C381.03 562.35 371.42 563.2 364.85 570.87C348.2 590.33 327.81 602.09 301.92 605.45C285.96 607.52 279.18 617.65 278.83 634.11C278.61 644.22 278.45 654.35 278.87 664.45C279.47 678.81 272.84 688.01 259.56 692.28C250.66 695.14 244.56 700.93 239.28 708.22C226.54 725.84 224.34 746.43 223.67 767.02C223.17 782.34 217.68 792.43 203.45 799.14C186.42 807.17 169.28 812.87 151.77 811.25C144.54 811.25 138.81 811.49 133.11 811.2C120 810.54 106.19 805.86 103.61 793.26C99.07 771.03 88.01 750.23 88.81 726.84C89.02 720.61 90.15 714.9 92.3 708.96C101.43 683.76 116.84 662.43 133.19 641.76C143.48 628.75 151.43 614.87 153.96 598.39C155.55 588.02 156.91 577.56 157.34 567.09C158.32 543.12 146.74 527.37 123.43 522.69C109.66 519.92 98.03 513.71 86.46 506.42C67.5699 494.51 49.12 481.54 29.15 471.77C18.9 466.76 9.15997 461.43 0.5 455.12L0.5 1035.85C2.40002 1033.93 4.25 1031.66 6.04999 1029.03C13.55 1018.09 23.11 1011.58 35.8 1009.28C53.44 1006.08 71.18 1003.42 88.76 999.94C111.7 995.4 124.25 999.98 137.02 1019.47C143.28 1029.03 150.74 1036.25 162.07 1039.45C180.61 1044.7 199.15 1050.04 217.39 1056.26C230.75 1060.81 243.05 1059.71 255.64 1053.89C274.5 1045.17 291.34 1033.44 307.95 1021.12C338.79 998.23 371.45 980.71 412.12 985.17C425.96 986.69 440.52 986.72 454.12 984.14C478.35 979.54 500.99 978.96 522.86 989.49L522.86 212.37C510.64 209.38 499.87 203.46 492.41 191.84C475.77 165.96 450.55 154.37 422.97 145.48C416.95 143.54 411.93 144.09 406.63 146.97C385.89 158.23 375.88 176.44 373.92 199.17H373.9Z" fill="url(#paint13_linear_132_364)" stroke="#EF5D53" stroke-miterlimit="10"/>
<path d="M123.19 719.84C121.76 684.93 140.34 661.99 164.64 643.27C181.72 630.12 206.72 644.6 209.89 668.59C210.85 675.87 211.2 683.47 208.56 690.75C201.37 710.57 196.69 731.09 191.54 751.49C186.97 769.59 174.45 779.95 158.27 779.57C145.18 779.26 135.54 773.76 131.32 760.65C126.88 746.88 121.62 733.27 123.19 719.84Z" fill="url(#paint14_linear_132_364)" stroke="#EF5D53" stroke-miterlimit="10"/>
<path d="M399.3 476.7C407.38 471.76 406.47 462.11 404.39 453.82C400.36 437.7 394.37 422.04 392.88 405.34C392.09 396.5 390.87 387.75 386.29 380.06C372.59 357.08 359.82 333.41 344.35 311.67C332.24 294.65 320.87 279 319.81 256.59C318.48 228.56 321.05 201.45 331.71 175.81C338.58 159.31 349.54 144.56 357.43 128.42C372.78 97 398.92 76.76 428.06 60.25C439.38 53.84 452.05 49.24 462.92 41.99C476.37 33 493.6 29.87 504.07 16.59C522.79 -7.18001 523.06 -44.07 503.21 -67.84C483.9 -90.96 457.2 -107.98 424.85 -87.84C423.75 -87.15 422.39 -86.9 421.21 -86.31C411.74 -81.52 402.97 -84.08 398.21 -92.34C387 -111.8 372.9 -130.4 373.51 -154.5L0.500061 -154.5V-127.14C5.59009 -105.8 10.9401 -84.36 4.37006 -62.04C3.12006 -57.78 1.81006 -53.53 0.500061 -49.28V9.21001C3.82007 11.32 8.03 13.19 13.25 15.02C21.11 17.78 28.85 20.89 36.63 23.9C46.4 27.68 54.91 33.95 59.35 43.08C68.5 61.89 82.72 74.36 101.44 82.8C115.01 88.92 122.66 100.54 122.86 114.98C123.14 134.95 130.83 151.33 145.08 163.83C173.89 189.11 171.22 225.73 137.32 244.14C128.98 248.67 124.41 255.51 122.01 264.48C118.62 277.17 116.04 290.31 110.72 302.2C104.24 316.68 100.91 331.19 101.96 346.91C102.19 372.74 109.44 398.08 107.76 424.13C107.42 429.49 111.16 433.99 115.11 437.7C135.76 457.11 159.37 466.08 187.18 455.93C208.89 448.01 229.89 445.15 252.28 454.16C266.46 459.87 283.18 465.03 297.32 459.5C327.31 447.78 351.62 453.61 374.48 474.67C381.34 480.99 391.63 481.39 399.3 476.7Z" fill="url(#paint15_linear_132_364)" stroke="#EF5D53" stroke-miterlimit="10"/>
<path d="M522.85 92.19C511.36 103.55 498.04 114.39 502.2 134.39C502.55 136.09 502.92 137.99 503.91 139.33C509.42 146.8 515.84 152.75 522.85 157.3V92.19Z" fill="url(#paint16_linear_132_364)" stroke="#EF5D53" stroke-miterlimit="10"/>
<path d="M0.500031 264.18C8.94003 267.7 17.47 271 26.43 273.15C61.13 281.47 83.27 264.29 83.64 225.71C83.33 224.17 82.64 219.86 81.57 215.65C77.92 201.3 66.46 193.6 55.58 185.4C40.28 173.86 27.64 158.74 9.01999 151.64C5.85999 150.43 3.04002 149.85 0.490021 149.9L0.490021 264.18H0.500031Z" fill="url(#paint17_linear_132_364)" stroke="#EF5D53" stroke-miterlimit="10"/>
<path d="M393.82 178.14C379.24 202.26 379.31 229.76 381.6 255.85C384.1 284.28 404.29 302.55 430.51 312.3C449.74 319.45 462.6 331.39 468.07 351.22C469 354.59 470.41 357.84 471.81 361.06C485.99 393.51 491.98 428.04 498.33 462.49C497.4 468.31 498 473.93 495.98 479.57C486.21 506.92 468.97 529.13 446.27 546.24C407.29 575.62 365.27 600.02 319.27 617.13C303.26 623.08 297.46 632.22 297.26 649.24C297.2 654.96 296.91 660.7 297.31 666.39C299.14 692.99 289.26 712.26 263.71 722.66C251.86 727.48 245.24 737.38 242.77 749.69C240.88 759.11 238.92 768.49 239.07 778.31C239.35 796.76 228.62 810.01 210.83 814.28C176.65 822.49 141.39 822.12 106.8 827.06C94.32 828.84 87.96 822.38 86.27 810.37C82.99 787.07 83.15 763.13 72.89 741.12C68.22 731.12 70.79 721.29 75.34 711.92C85.71 690.57 97.12 669.92 112.39 651.46C121 641.05 130.03 630.77 135.47 617.98C143.82 598.33 142.68 578.76 136.34 558.93C131.5 543.81 118.15 539.84 105.64 534.58C103.22 533.56 100.8 532.42 98.6 530.99C69.18 511.91 38.55 494.78 9.71997 474.7C6.57996 472.51 3.50995 470.28 0.509949 467.99L0.509949 998.17C10.71 987.59 22.92 980.97 39.5 982.25C47.06 982.84 55.03 979.97 62.63 977.96C96.33 969.05 123.74 980.33 144.41 1006.35C156.06 1021.01 169.74 1030.21 186.98 1035.3C194.95 1037.66 203.31 1038.84 211.09 1041.65C234.55 1050.13 256 1046.22 275.93 1032.08C289.86 1022.19 303.23 1011.48 317.48 1002.08C326.22 996.31 336.41 992.64 343.85 984.93C352.62 975.84 362.93 972.29 375.65 971.97C393.54 971.51 410.85 976.54 429.27 973.34C460.46 967.92 491.92 962.1 522.86 972.16L522.86 225.19C521.48 225.13 520.1 225.09 518.71 225.07C501.76 224.85 488.93 217.44 482.15 200.21C473.61 178.5 456.3 166.82 433.75 161.91C414.7 157.76 403.91 161.48 393.84 178.14H393.82Z" fill="url(#paint18_linear_132_364)" stroke="#EF5D53" stroke-miterlimit="10"/>
<path d="M136.3 711.27C135.99 693.75 143.59 680.76 155.2 670.06C161.13 664.6 169.04 661.46 176.96 664.78C184.14 667.8 188.28 674.39 188.97 682.37C190.79 703.56 185.28 723.38 174.81 741.35C164.85 758.44 151.56 757.2 142.7 739.39C138.16 730.26 136.09 720.49 136.31 711.27H136.3Z" fill="url(#paint19_linear_132_364)" stroke="#EF5D53" stroke-miterlimit="10"/>
<path d="M251.64 444.32C265.96 450.72 281.73 455.73 297.44 449.04C318.38 440.13 339.62 434.3 362.59 436.52C370.89 437.32 375.31 432.15 375.79 424.96C376.61 412.76 379.11 399.92 374.47 388.37C362.5 358.58 350.39 327.85 324.33 307.64C308.12 295.07 302.96 281.2 305.08 262.42C305.57 258.08 304.83 253.61 305.2 249.24C307.97 216.62 313.85 184.84 333 157.24C341.59 144.86 348.69 131.94 353.08 117.44C355.77 108.53 360.03 99.38 367.28 94.05C389.17 77.95 404.8 55.89 423.13 36.55C437.39 21.5 453.02 14.89 472.69 14.28C485.52 13.88 494.81 7.57999 501.46 -3.55002C512.99 -22.85 507.31 -40.54 495.18 -56.05C474.55 -82.4 452.41 -85.99 432.33 -60.96C422.69 -48.94 414.2 -48.45 401.64 -57.62C395.59 -62.03 390.36 -67.3 386.3 -73.74C370.45 -98.88 359.19 -125.75 352.4 -154.49L12.5 -154.49C12.27 -150.4 12.77 -145.95 14.1 -141.21C23.01 -109.62 20.67 -79 12.4 -47.87C2.97 -12.37 6.53 -5.77002 39.68 10.86C41.64 11.85 43.6 12.86 45.58 13.81C58.72 20.14 70.16 28.15 79.5 39.97C87.82 50.51 97.48 60.34 110.2 66.41C132.01 76.82 142.9 93.66 139 118.45C136.54 134.04 143.78 145.16 154.49 155.47C163.64 164.27 172.27 174.05 175.49 186.81C182.6 214.93 173.27 239.76 149.5 257.12C144.11 261.05 138.36 265.02 136.11 271.29C125.67 300.39 109.35 327.91 112.55 360.71C114.42 379.86 118.15 398.77 118.76 418.12C119.06 427.85 126.02 434.77 134.5 439.54C151.21 448.94 169.02 450.4 186.61 443.83C208.65 435.59 229.65 434.49 251.65 444.33L251.64 444.32Z" fill="url(#paint20_linear_132_364)" stroke="#EF5D53" stroke-miterlimit="10"/>
<path d="M0.500015 241.81C14.73 249.93 30.96 250.93 46.6 251.29C61.62 251.63 69.16 234.84 61.7 221.45C52.15 204.32 36.26 195.7 19.03 188.37C11.52 185.18 5.58002 186.33 0.500015 189.98L0.500015 241.82V241.81Z" fill="url(#paint21_linear_132_364)" stroke="#EF5D53" stroke-miterlimit="10"/>
<path d="M404.95 190.15C388.55 208.24 387.65 230.37 391.41 251.93C396.97 283.82 415.7 295.11 447.21 289.47C458.58 287.43 469.24 288.42 476.88 298.68C481.17 304.44 478.51 311.51 480.43 317.85C493.02 359.39 499.35 402.15 506.19 444.92C512.98 487.39 493.09 517.79 465.38 544.68C448.15 561.41 428.32 574.88 417.9 598.15C404.46 628.15 393.63 632.35 361.74 624.84C339.68 619.64 315.37 631.73 313.54 649.89C312.36 661.57 311.64 673.59 314.61 685.3C316.64 693.3 315.58 700.69 311.97 708.26C304.9 723.08 292.87 733.16 280.6 743.16C268.83 752.75 258.92 763.03 256.88 779.52C255.16 793.44 249.58 806.64 243.89 819.49C237.11 834.79 228.74 839.15 212.57 835.47C176.31 827.22 141.56 829.4 108.26 847.61C94.35 855.21 83.19 850.17 76.97 834.39C72.45 822.94 70.05 810.83 70.45 798.37C71.06 779.57 67.59 761.75 58.5 745.09C52.89 734.81 51.83 723.39 57.65 713.49C73.87 685.92 89.34 657.59 111.73 634.36C141.48 603.48 127.39 566.94 105.24 550.14C90 538.58 73.7 528.16 56.55 519.03C36.49 508.36 17.74 496.08 0.509949 482.02L0.509949 961.16C6.54993 957.37 13.21 954.72 20.88 954.46C37.71 953.9 53.83 950.66 69.95 946.2C89.81 940.71 105.84 948.7 119.74 962.28C130.11 972.42 141.19 982.02 150.34 993.2C169.27 1016.32 195.06 1025.85 222.49 1033.46C243.24 1039.21 260.44 1032.66 276.57 1020.64C290.23 1010.45 302.43 998.53 317.18 989.53C336.65 977.65 339.02 962.81 326.67 943.9C322.35 937.29 318.13 930.61 314.13 923.81C308.6 914.42 301.1 909.2 289.71 908.59C281.5 908.15 273.34 905.68 265.31 903.56C256.71 901.29 250.79 895.72 253.02 886.38C255.29 876.86 262.88 873.02 272.33 875.1C282.68 877.38 292.62 881.04 300.02 889.3C305.93 895.9 312.58 901.74 320.39 905.82C332.87 912.34 342.53 921.86 349.49 933.68C356.24 945.13 366.24 951.91 378.15 955.42C391.11 959.24 404.37 962.79 417.83 961.7C425.69 961.81 432.98 961.1 440.41 959.75C458.44 956.47 475.96 950.93 494.75 950.87C508.37 950.83 517.18 949.26 522.87 945.06L522.87 242.95C518.22 243.87 513.57 245.29 508.89 247.31C499.79 251.25 491.55 249.86 483.75 242.2C473.96 232.59 467.46 222.25 465.52 208.3C463.54 194.08 456.16 182.69 441.32 178.27C426.59 173.89 414.98 179.09 404.97 190.14L404.95 190.15Z" fill="url(#paint22_linear_132_364)" stroke="#EF5D53" stroke-miterlimit="10"/>
<path d="M297.99 438.5C312.03 432.28 326.04 425.94 339.8 419.13C353.44 412.38 360.71 401.07 357.68 385.82C352.24 358.45 341.88 332.34 316.98 317.78C295.66 305.32 275.04 292.64 257.33 275.41C245.18 263.59 229.29 255.65 221.13 239.64C217.49 232.49 217.31 225.93 222.86 220.24C228.2 214.76 235.1 213.15 242.22 216.62C248.11 219.49 253.87 222.8 259.27 226.52C268.23 232.68 275.83 232.19 283.96 224.51C292.21 216.72 297.72 207.48 301.84 197.22C307.42 183.34 313.68 169.97 322.79 157.87C330.41 147.75 338.51 137.36 340.82 124.5C344.09 106.25 353.24 91.97 367.18 80.25C391.71 59.63 402.61 33.16 406.42 1.28C408.66 -17.49 401.73 -29.37 392.07 -42.76C366.76 -77.84 342.57 -112.84 333.6 -154.5L59.39 -154.5C57.99 -153.78 56.5799 -153.1 55.1499 -152.51C44.6799 -148.21 40.39 -140.42 39.33 -130.36C36.4799 -103.26 30.2899 -76.86 24.0399 -50.41C17.9099 -24.46 23.24 -13.86 46.17 -0.350006C66.87 11.85 89.37 21.37 105.7 40.2C111.7 47.11 118.77 53.03 126.07 58.79C143.51 72.57 158.36 89.38 153.95 113.32C150.99 129.38 156 139.93 165.96 151.15C194.22 182.98 205.13 218.71 175 253.24C168.08 261.17 159.91 268.03 153.18 276.1C134.21 298.88 123.17 325.13 119.6 355.15C122.29 372.19 124.93 389.46 127.76 406.7C130.34 422.37 139.66 430.97 155.12 434.82C163.81 436.99 171.59 435.87 179.64 433.72C206.27 426.61 232.18 421.88 258.4 437.46C269.97 444.34 284.71 444.36 297.99 438.48V438.5Z" fill="url(#paint23_linear_132_364)" stroke="#EF5D53" stroke-miterlimit="10"/>
<path d="M11.67 217.27C11.96 213.14 14.61 212.61 17.24 212.5C21.57 212.33 25.42 214.21 26.23 218.41C26.84 221.61 24.09 224.2 20.43 223.6C16.42 222.94 13.41 220.49 11.67 217.26V217.27Z" fill="url(#paint24_linear_132_364)" stroke="#EF5D53" stroke-miterlimit="10"/>
<path d="M495.86 930.09C503.42 927.89 511.28 925.18 515.51 917.79C517.98 913.47 520.42 909.13 522.85 904.79L522.85 308.18C518.74 317.32 514.92 326.58 512.17 336.27C511.17 339.78 511.85 343.11 511.95 346.59C512.97 384.23 520.65 421.79 520.11 458.92C519.48 502.28 499.66 540.88 465.27 569.87C462.24 572.43 459.17 574.64 457.04 578.13C443.37 600.57 428.78 622.5 416.04 645.46C405.14 665.09 391.4 679.92 367.99 681.68C354.21 682.71 346.8 689.69 341.89 701.94C333 724.09 321.44 743.88 301.51 759.12C281.49 774.42 264.75 793.6 265.62 821.82C265.59 841.17 271.84 848.32 293.1 860.98C320.18 877.12 346.93 894.15 365.59 920.7C383.21 945.77 408.45 951.33 436.3 946.22C456.47 942.52 476.11 935.84 495.87 930.08L495.86 930.09Z" fill="url(#paint25_linear_132_364)" stroke="#EF5D53" stroke-miterlimit="10"/>
<path d="M0.500092 941.21C4.33008 939.59 8.40005 938.51 12.7201 938.2C35.6901 936.53 57.58 930.66 78.8501 922.27C88.5701 918.44 98 918.75 106.84 923.48C120.41 930.75 134.12 938.85 142.69 951.78C160.39 978.47 184.99 996.91 211.41 1013.63C229.05 1024.8 247.63 1029.08 265.11 1015.3C277.76 1005.33 288.47 992.77 299.39 980.77C307.45 971.91 306.65 961.8 301.42 951.39C291.85 932.35 275.82 929.07 256.25 929.73C225.32 930.78 204.39 910.4 202.28 879.66C200.53 854.09 182.61 841.04 157.58 844.72C140.53 847.23 127.85 856.55 114.31 865.5C97.17 876.83 79.69 872.41 71.46 854.21C65.15 840.27 61.0101 825.34 59.9201 809.84C58.4101 788.38 56.69 767.33 43.4601 748.64C33.4601 734.52 33.9301 719.41 44.5901 704.58C65.05 676.12 84.7901 647.15 104.89 618.43C109.48 611.86 113.95 605.33 112.87 599.03C112.62 581.58 105.91 569.34 94.72 560.12C76.5 545.11 58.5401 529.81 35.5301 521.66C22.58 517.07 11.3101 509.38 0.500092 500.9L0.500092 941.22V941.21Z" fill="url(#paint26_linear_132_364)" stroke="#EF5D53" stroke-miterlimit="10"/>
<path d="M402.79 233.93C401.8 225.34 405.48 217.82 410.71 211.19C421.2 197.9 434.9 198.74 443.73 213.12C446.46 217.57 448.86 222.44 450.27 227.43C453.36 238.4 457.23 250.15 446.5 259.12C439.09 265.3 430.52 270.91 420.09 265.64C407.36 259.19 402.08 248.31 402.79 233.94V233.93Z" fill="url(#paint27_linear_132_364)" stroke="#EF5D53" stroke-miterlimit="10"/>
<path d="M292.91 176.47C296.4 171.44 300.15 166.57 304.09 161.88C316.86 146.66 328.35 130.97 331.5 110.44C334.24 92.57 344.6 79.4 359.12 68.89C372.79 59 382.3 45.67 383.8 28.58C385.89 4.76999 385.47 -18.46 369.31 -39.04C348.83 -65.13 339.13 -98.54 314.05 -121.79C310.83 -124.78 307.73 -130.92 308.55 -134.74C309.96 -141.3 310.21 -147.9 310.23 -154.51L85.4 -154.51C62.56 -125.13 46.37 -91.61 38.21 -52.79C34.62 -35.7 39.73 -23.42 52.45 -13.59C62.53 -5.79001 74 -0.0500031 86.12 4.09999C102.62 9.74998 117.49 17.39 126.37 33.6C130.38 40.92 136.32 46.85 141.89 53.1C157.89 71.06 170.2 91.16 172.82 115.74C173.75 124.46 173.4 133.22 178.56 141.02C186.79 153.46 194.64 166.14 202.73 178.66C208.44 187.49 216.41 191.59 227.15 191.29C235.86 191.05 244.57 190.6 253.35 192.6C270.79 196.59 282.61 191.32 292.91 176.46V176.47Z" fill="url(#paint28_linear_132_364)" stroke="#EF5D53" stroke-miterlimit="10"/>
<path d="M278.4 431.67C270.48 431.56 263.12 429.42 256.88 425.42C238.49 413.64 218.97 413.26 198.66 418.07C189.65 420.21 180.56 420.97 171.28 420.81C150.72 420.45 143.76 414.91 136.22 395.65C120.08 354.4 133.44 320.37 160.83 289.45C164.32 285.51 168.25 281.96 171.98 278.23C192.68 257.55 207.09 256.52 228.5 277.17C249.41 297.35 272.73 312.59 300.18 322.17C324.58 330.69 336.29 350.32 341.64 374.31C343.73 383.68 342.48 393.52 335.95 400.52C320.38 417.24 301.37 428.39 278.4 431.66V431.67Z" fill="url(#paint29_linear_132_364)" stroke="#EF5D53" stroke-miterlimit="10"/>
<path d="M495.25 915.27C502.93 912.65 508.89 907.86 513.04 900.5C516.42 894.49 519.74 888.46 522.85 882.34V814.5C521.11 810.36 519.77 806.07 519.16 801.53C516.22 779.57 507.16 759.18 506.51 736.28C505.95 716.69 506.73 699.16 522.86 687.52V507.91C522.8 508.05 522.75 508.19 522.69 508.33C515.1 526.08 508.41 543.99 507.87 563.82C507.41 580.76 501.59 594.31 482 597.7C470.38 599.71 461.68 607.44 453.96 616.19C437.66 634.67 430.04 657.99 418.83 679.28C411.84 692.54 402.43 699.69 387.02 700.78C371.17 701.9 357.86 708.28 349.86 723.95C336.36 750.39 322.57 775.96 296.2 793.72C277.13 806.57 280.97 831.02 299.94 844.71C327.3 864.46 353.94 884.81 375.5 911.47C392.62 932.64 415.81 940.56 442.75 932.53C460.41 927.27 477.84 921.23 495.28 915.27H495.25Z" fill="url(#paint30_linear_132_364)" stroke="#EF5D53" stroke-miterlimit="10"/>
<path d="M0.500023 927.78C6.90002 925.46 13.78 924.08 21.42 924.02C36.29 923.9 50.33 917.98 62.47 908.19C72.41 900.18 75.69 891.2 70.19 879.6C60.29 858.72 55.96 836.36 51.97 813.88C48.45 794.08 46.4 774.1 34.21 756.7C17.52 732.87 19.82 716.88 38.58 693.77C59.91 667.5 78.4 639.2 93.73 608.94C97.71 601.08 99.27 592.21 94.93 584.84C78.34 556.66 56.17 534.35 22.43 529.02C14.88 527.83 7.51 526.54 0.480003 524.76L0.480003 927.77L0.500023 927.78Z" fill="url(#paint31_linear_132_364)" stroke="#EF5D53" stroke-miterlimit="10"/>
<path d="M157.3 861.52C173.64 861.18 181.23 871.25 181.04 890.7C180.91 904.43 181.76 918.01 194.42 925.7C213.61 937.36 231.44 951.82 255.43 954.25C274.63 956.2 283.18 967.23 271.9 986.05C269.43 990.17 267.46 994.7 264.41 998.32C249.82 1015.64 236.3 1012.63 219.34 997.74C195.24 976.58 176.45 951.01 154.21 928.48C147.84 922.03 139.41 917.67 132.12 912.1C121.3 903.82 118.69 894.87 125.5 883.8C133.37 871 145.05 862.91 157.31 861.52H157.3Z" fill="url(#paint32_linear_132_364)" stroke="#EF5D53" stroke-miterlimit="10"/>
<path d="M275.56 166.04C295.51 149.95 311.03 129.92 319.61 104.91C326.47 84.93 336.33 67.22 353.87 53.23C375.31 36.12 375.72 7.98999 355.59 -9.79001C340.57 -23.06 334.77 -39.32 331.5 -57.81C326.65 -85.19 315.49 -95.67 288.47 -99.14C279.01 -100.36 270.24 -102.8 266 -112.59C261.75 -122.4 267.37 -130.02 273.13 -136.37C278.32 -142.1 282.77 -148.06 286.24 -154.49L99.78 -154.49C79.13 -125.73 64.69 -93.38 55.04 -58.95C49.59 -39.51 56.54 -24.01 74.52 -13.99C81.09 -10.33 88.27 -8.45001 95.47 -6.40001C109.77 -2.33 125.89 0.299988 134.08 14.14C150.34 41.63 170.37 66.86 182.2 97.08C188.91 114.23 192.3 132.41 200.76 149.06C216.81 180.62 259.02 179.4 275.55 166.06L275.56 166.04Z" fill="url(#paint33_linear_132_364)" stroke="#EF5D53" stroke-miterlimit="10"/>
<path d="M279.54 420.74C274.03 421.43 267.17 420.87 262.57 417.19C241.2 400.1 217.64 403.53 193.66 408.24C156.07 415.62 127.67 386.6 137.44 349.01C143.94 324.01 158.37 303.15 179.37 287.08C193.31 276.42 212.79 280.02 221.87 289C243.09 309.99 269.18 321.84 296.78 331.27C315.73 337.74 326.68 351.45 328.64 370.91C331.1 395.39 305.84 420.64 279.54 420.73V420.74Z" fill="url(#paint34_linear_132_364)" stroke="#EF5D53" stroke-miterlimit="10"/>
<path d="M379.01 729.68C388.36 731.09 397.33 734.8 407.2 734.92C422.16 735.11 433.94 730.99 439.89 715.97C441.51 711.88 443.65 707.45 448.86 707.43C454.08 707.4 455.75 712.04 457.97 715.86C462.07 722.89 464.13 730.3 463.43 738.5C462.23 752.67 468.17 764.29 477.69 773.97C495.9 792.52 505.72 816.36 517.09 838.77C527.81 859.9 509.76 895.85 487.09 903.9C470.58 909.76 453.64 914.42 436.86 919.5C419.02 924.9 404.18 919.05 391.35 906.72C367.63 883.92 348.72 856.67 324.49 834.28C317.04 827.4 314.47 818.39 322.03 809.75C337.92 791.59 346.94 769.7 356.58 748.09C360.9 738.41 367.63 731.25 379 729.68H379.01Z" fill="url(#paint35_linear_132_364)" stroke="#EF5D53" stroke-miterlimit="10"/>
<path d="M476.34 645C476.08 647.99 474.81 650.14 471.46 649.56C468.62 649.07 466.61 647.22 467.27 644.12C467.83 641.47 469.69 639.07 472.56 639.19C475.84 639.33 476.24 642.27 476.35 644.99L476.34 645Z" fill="url(#paint36_linear_132_364)" stroke="#EF5D53" stroke-miterlimit="10"/>
<path d="M0.500084 545.83L0.500084 913.8C5.23009 912.44 10.2001 911.49 15.4701 910.89C41.4201 907.96 56.3901 895.55 52.1901 864.71C51.0701 856.48 50.8001 848.1 49.1901 839.98C43.6901 812.15 40.2101 783.89 21.7001 760.11C7.41006 741.75 8.85005 714.67 23.4401 696.31C39.0301 676.69 53.2301 656.15 66.2201 634.79C88.1401 598.75 78.3801 583.02 56.9401 556.55C44.5701 541.28 27.05 536.94 9.45004 543.27C6.40003 544.37 3.42007 545.21 0.490074 545.82L0.500084 545.83Z" fill="url(#paint37_linear_132_364)" stroke="#EF5D53" stroke-miterlimit="10"/>
<path d="M266.48 149.18C287.86 124.37 311.22 100.82 321.06 68.19C324.38 57.17 329.31 47.32 337.14 38.41C349.21 24.67 348.01 14.08 332.53 4.73999C315.16 -5.74001 310.57 -19.15 314.87 -38.51C320.19 -62.45 306.99 -78.96 282.35 -83.95C274.35 -85.57 265.68 -84.7 258.3 -89.76C241.86 -101.03 240.16 -121.2 255.81 -140.39C259.58 -145.01 263.12 -149.68 266.26 -154.51L114.43 -154.51C113.59 -153.32 112.77 -152.1 111.95 -150.9C92.38 -122.07 82.55 -89.21 73.78 -56.17C68.32 -35.59 77.63 -24 99.04 -19.83C114.99 -16.72 130.91 -13.52 142.06 0.209991C171.07 35.91 194.96 74.37 204.92 119.95C210.19 144.05 222.42 156.9 242.18 156.88C251.11 156.91 260.24 156.4 266.47 149.17L266.48 149.18Z" fill="url(#paint38_linear_132_364)" stroke="#EF5D53" stroke-miterlimit="10"/>
<path d="M146.64 360.37C147.25 336.23 160.25 318.1 177.31 303.24C189.71 292.45 206.09 294.07 219.53 304.66C239.82 320.64 262.52 331.4 287.18 338.89C308.28 345.31 315.69 355.22 315.7 373.11C315.73 400.32 287 419.66 264.6 404.81C240.85 389.07 218.14 390.55 193.17 397.62C172.43 403.49 156.57 395.44 148.95 377.35C146.61 371.79 147.15 366.17 146.63 360.36L146.64 360.37Z" fill="url(#paint39_linear_132_364)" stroke="#EF5D53" stroke-miterlimit="10"/>
<path d="M398.36 761.15C423.68 761.15 435.81 770.3 439.35 792.77C441.87 808.78 450.19 818.26 465.81 821.2C472 822.36 477.49 824.84 482.94 827.67C505.47 839.36 509.3 863.59 489.21 878.47C469.94 892.75 446.32 899.68 422.78 900.21C404.07 900.63 391.85 885.32 382.3 870.15C375.08 858.69 369.15 846.51 363.58 834.04C354.32 813.32 358.5 794.57 369 776.41C375.67 764.88 386.09 758.93 398.35 761.14L398.36 761.15Z" fill="url(#paint40_linear_132_364)" stroke="#EF5D53" stroke-miterlimit="10"/>
<path d="M0.500095 570.07L0.500095 893.92C3.51009 893.33 6.66006 893 9.96006 892.9C24.9901 892.47 36.0101 883.02 38.3101 868.36C43.5601 835.01 38.5601 802.2 17.1201 776.55C-3.01994 752.46 -2.62993 708.09 16.0701 685.1C27.6601 670.86 36.9301 654.75 47.7301 639.83C64.1101 617.21 61.0101 594.56 48.1501 572.07C39.1501 556.32 28.3501 553.79 13.1801 563.8C9.08006 566.5 4.8201 568.64 0.500095 570.08V570.07Z" fill="url(#paint41_linear_132_364)" stroke="#EF5D53" stroke-miterlimit="10"/>
<path d="M263.57 124.14C271.03 113.79 279.53 104.4 288.62 95.44C311.36 73.01 311.31 48.67 288.87 25.76C275.82 12.43 275.03 7.36998 284.62 -8.69002C290.08 -17.83 294.5 -27.3 296.52 -37.76C299.55 -53.42 290.49 -64.7 274.77 -64.77C267.77 -64.8 260.61 -65.05 253.81 -63.73C243.58 -61.75 236.87 -65.71 232.01 -74.06C220.24 -94.31 225.97 -131.87 244.21 -152.86C244.69 -153.41 245.15 -153.96 245.6 -154.51L142.92 -154.51C140.93 -152.9 138.92 -151.3 136.88 -149.72C130.13 -144.49 123.93 -139.12 120.73 -131.12C111.58 -108.19 105.79 -84.56 104.52 -59.73C103.88 -47.31 109.15 -40.99 120.57 -37.96C133.05 -34.65 144.47 -28.85 153.62 -19.67C162.63 -10.64 173.52 -10.51 184.31 -12.97C206.85 -18.11 215.63 -14.39 219.57 7.97998C224.76 37.47 239.03 66.92 223.23 97.44C221.67 100.45 220.72 104.3 221.02 107.63C222.04 119.02 222.95 130.96 236.01 135.84C248.65 140.57 256.74 133.6 263.57 124.12V124.14Z" fill="url(#paint42_linear_132_364)" stroke="#EF5D53" stroke-miterlimit="10"/>
<path d="M189.18 362.61C184.93 362.4 179.39 360.31 179.22 352.43C179 342.15 188.56 330.41 196.85 331.44C205.36 332.49 211.06 338.36 212.39 346.67C213.59 354.19 201.67 362.81 189.17 362.61H189.18Z" fill="url(#paint43_linear_132_364)" stroke="#EF5D53" stroke-miterlimit="10"/>
<path d="M430 874.72C423.4 875.21 417.04 872.88 412.93 868.78C396.67 852.53 383.13 834.48 381.63 810.16C381.2 803.16 383.97 797.14 387.78 791.81C394.9 781.85 408.81 782.87 414.9 793.52C418.86 800.45 420.65 808.16 422.28 815.88C424.92 828.35 431.84 835.87 444.95 837.87C451.77 838.91 458.69 840.97 464.9 843.94C475.47 849.01 475.95 857.75 466.08 863.83C455.11 870.59 442.65 873.22 430 874.72Z" fill="url(#paint44_linear_132_364)" stroke="#EF5D53" stroke-miterlimit="10"/>
<path d="M0.500057 875.23C2.36006 874.74 4.25002 874.32 6.21002 873.95C17.87 871.79 26.53 865.26 28.53 851.47C32.15 826.53 26.21 803.76 10.73 785.15C6.63004 780.23 3.24001 774.8 0.510006 769.04L0.510006 875.22L0.500057 875.23Z" fill="url(#paint45_linear_132_364)" stroke="#EF5D53" stroke-miterlimit="10"/>
<path d="M0.500034 688.09C2.42003 684.2 4.64 680.58 7.15 677.33C18.52 662.6 30.57 647.61 35.05 628.59C37.81 616.84 31.7 604.04 20.16 603.81C13.25 603.67 6.76998 602.36 0.509983 600.48L0.509983 688.09H0.500034Z" fill="url(#paint46_linear_132_364)" stroke="#EF5D53" stroke-miterlimit="10"/>
<path d="M268.22 69.81C268.2 62.6 271.47 56.62 278.7 55.44C283.8 54.61 283.87 60.26 284 64.21C284.25 71.7 280.82 77.61 273.61 78.79C268.48 79.64 268.6 73.94 268.22 69.81Z" fill="url(#paint47_linear_132_364)" stroke="#EF5D53" stroke-miterlimit="10"/>
</g>
<rect x="124" y="883" width="322" height="54" fill="#D9D9D9"/>
</g>
<defs>
<linearGradient id="paint0_linear_132_364" x1="261.67" y1="45.45" x2="261.67" y2="623.39" gradientUnits="userSpaceOnUse">
<stop stop-color="#F9EAD5"/>
<stop offset="1" stop-color="#F9EAD5"/>
</linearGradient>
<linearGradient id="paint1_linear_132_364" x1="406.92" y1="1039.27" x2="406.92" y2="1059.62" gradientUnits="userSpaceOnUse">
<stop stop-color="#F9EAD5"/>
<stop offset="1" stop-color="#F9EAD5"/>
</linearGradient>
<linearGradient id="paint2_linear_132_364" x1="261.67" y1="124.45" x2="261.67" y2="1059.62" gradientUnits="userSpaceOnUse">
<stop stop-color="#F9EAD5"/>
<stop offset="1" stop-color="#F9EAD5"/>
</linearGradient>
<linearGradient id="paint3_linear_132_364" x1="92.72" y1="1019.84" x2="92.72" y2="1059.62" gradientUnits="userSpaceOnUse">
<stop stop-color="#F9EAD5"/>
<stop offset="1" stop-color="#F9EAD5"/>
</linearGradient>
<linearGradient id="paint4_linear_132_364" x1="397.28" y1="998.51" x2="397.28" y2="1059.62" gradientUnits="userSpaceOnUse">
<stop stop-color="#F9EAD5"/>
<stop offset="1" stop-color="#F9EAD5"/>
</linearGradient>
<linearGradient id="paint5_linear_132_364" x1="261.67" y1="112.27" x2="261.67" y2="797.89" gradientUnits="userSpaceOnUse">
<stop stop-color="#F9EAD5"/>
<stop offset="1" stop-color="#F9EAD5"/>
</linearGradient>
<linearGradient id="paint6_linear_132_364" x1="406.9" y1="1022.76" x2="406.9" y2="1059.62" gradientUnits="userSpaceOnUse">
<stop stop-color="#F9EAD5"/>
<stop offset="1" stop-color="#F9EAD5"/>
</linearGradient>
<linearGradient id="paint7_linear_132_364" x1="72.1" y1="1042.04" x2="72.1" y2="1059.62" gradientUnits="userSpaceOnUse">
<stop stop-color="#F9EAD5"/>
<stop offset="1" stop-color="#F9EAD5"/>
</linearGradient>
<linearGradient id="paint8_linear_132_364" x1="72.4201" y1="1033.12" x2="72.4201" y2="1059.62" gradientUnits="userSpaceOnUse">
<stop stop-color="#F9EAD5"/>
<stop offset="1" stop-color="#F9EAD5"/>
</linearGradient>
<linearGradient id="paint9_linear_132_364" x1="408.46" y1="1011.81" x2="408.46" y2="1059.62" gradientUnits="userSpaceOnUse">
<stop stop-color="#F9EAD5"/>
<stop offset="1" stop-color="#F9EAD5"/>
</linearGradient>
<linearGradient id="paint10_linear_132_364" x1="261.67" y1="-155" x2="261.67" y2="511.52" gradientUnits="userSpaceOnUse">
<stop stop-color="#F9EAD5"/>
<stop offset="1" stop-color="#F9EAD5"/>
</linearGradient>
<linearGradient id="paint11_linear_132_364" x1="261.67" y1="13.63" x2="261.67" y2="532.86" gradientUnits="userSpaceOnUse">
<stop stop-color="#F9EAD5"/>
<stop offset="1" stop-color="#F9EAD5"/>
</linearGradient>
<linearGradient id="paint12_linear_132_364" x1="48.42" y1="117.39" x2="48.42" y2="294.51" gradientUnits="userSpaceOnUse">
<stop stop-color="#F9EAD5"/>
<stop offset="1" stop-color="#F9EAD5"/>
</linearGradient>
<linearGradient id="paint13_linear_132_364" x1="261.67" y1="144.33" x2="261.67" y2="1059.08" gradientUnits="userSpaceOnUse">
<stop stop-color="#F9EAD5"/>
<stop offset="1" stop-color="#F9EAD5"/>
</linearGradient>
<linearGradient id="paint14_linear_132_364" x1="166.76" y1="638.3" x2="166.76" y2="779.58" gradientUnits="userSpaceOnUse">
<stop stop-color="#F9EAD5"/>
<stop offset="1" stop-color="#F9EAD5"/>
</linearGradient>
<linearGradient id="paint15_linear_132_364" x1="259.3" y1="-155" x2="259.3" y2="479.86" gradientUnits="userSpaceOnUse">
<stop stop-color="#F9EAD5"/>
<stop offset="1" stop-color="#F9EAD5"/>
</linearGradient>
<linearGradient id="paint16_linear_132_364" x1="512.13" y1="92.19" x2="512.13" y2="157.3" gradientUnits="userSpaceOnUse">
<stop stop-color="#F9EAD5"/>
<stop offset="1" stop-color="#F9EAD5"/>
</linearGradient>
<linearGradient id="paint17_linear_132_364" x1="42.07" y1="149.9" x2="42.07" y2="275.2" gradientUnits="userSpaceOnUse">
<stop stop-color="#F9EAD5"/>
<stop offset="1" stop-color="#F9EAD5"/>
</linearGradient>
<linearGradient id="paint18_linear_132_364" x1="261.67" y1="160.35" x2="261.67" y2="1046.1" gradientUnits="userSpaceOnUse">
<stop stop-color="#F9EAD5"/>
<stop offset="1" stop-color="#F9EAD5"/>
</linearGradient>
<linearGradient id="paint19_linear_132_364" x1="162.79" y1="663.42" x2="162.79" y2="753.49" gradientUnits="userSpaceOnUse">
<stop stop-color="#F9EAD5"/>
<stop offset="1" stop-color="#F9EAD5"/>
</linearGradient>
<linearGradient id="paint20_linear_132_364" x1="257.81" y1="-155" x2="257.81" y2="452.21" gradientUnits="userSpaceOnUse">
<stop stop-color="#F9EAD5"/>
<stop offset="1" stop-color="#F9EAD5"/>
</linearGradient>
<linearGradient id="paint21_linear_132_364" x1="32.55" y1="186.5" x2="32.55" y2="251.29" gradientUnits="userSpaceOnUse">
<stop stop-color="#F9EAD5"/>
<stop offset="1" stop-color="#F9EAD5"/>
</linearGradient>
<linearGradient id="paint22_linear_132_364" x1="261.67" y1="176.73" x2="261.67" y2="1035.54" gradientUnits="userSpaceOnUse">
<stop stop-color="#F9EAD5"/>
<stop offset="1" stop-color="#F9EAD5"/>
</linearGradient>
<linearGradient id="paint23_linear_132_364" x1="214.27" y1="-155" x2="214.27" y2="442.78" gradientUnits="userSpaceOnUse">
<stop stop-color="#F9EAD5"/>
<stop offset="1" stop-color="#F9EAD5"/>
</linearGradient>
<linearGradient id="paint24_linear_132_364" x1="19" y1="212.49" x2="19" y2="223.7" gradientUnits="userSpaceOnUse">
<stop stop-color="#F9EAD5"/>
<stop offset="1" stop-color="#F9EAD5"/>
</linearGradient>
<linearGradient id="paint25_linear_132_364" x1="394.22" y1="308.18" x2="394.22" y2="947.95" gradientUnits="userSpaceOnUse">
<stop stop-color="#F9EAD5"/>
<stop offset="1" stop-color="#F9EAD5"/>
</linearGradient>
<linearGradient id="paint26_linear_132_364" x1="152.94" y1="500.89" x2="152.94" y2="1023.94" gradientUnits="userSpaceOnUse">
<stop stop-color="#F9EAD5"/>
<stop offset="1" stop-color="#F9EAD5"/>
</linearGradient>
<linearGradient id="paint27_linear_132_364" x1="428.1" y1="201.76" x2="428.1" y2="267.74" gradientUnits="userSpaceOnUse">
<stop stop-color="#F9EAD5"/>
<stop offset="1" stop-color="#F9EAD5"/>
</linearGradient>
<linearGradient id="paint28_linear_132_364" x1="210.89" y1="-155" x2="210.89" y2="193.9" gradientUnits="userSpaceOnUse">
<stop stop-color="#F9EAD5"/>
<stop offset="1" stop-color="#F9EAD5"/>
</linearGradient>
<linearGradient id="paint29_linear_132_364" x1="235.9" y1="262.2" x2="235.9" y2="431.67" gradientUnits="userSpaceOnUse">
<stop stop-color="#F9EAD5"/>
<stop offset="1" stop-color="#F9EAD5"/>
</linearGradient>
<linearGradient id="paint30_linear_132_364" x1="403.25" y1="507.91" x2="403.25" y2="935.61" gradientUnits="userSpaceOnUse">
<stop stop-color="#F9EAD5"/>
<stop offset="1" stop-color="#F9EAD5"/>
</linearGradient>
<linearGradient id="paint31_linear_132_364" x1="49.02" y1="524.77" x2="49.02" y2="927.78" gradientUnits="userSpaceOnUse">
<stop stop-color="#F9EAD5"/>
<stop offset="1" stop-color="#F9EAD5"/>
</linearGradient>
<linearGradient id="paint32_linear_132_364" x1="199.34" y1="861.52" x2="199.34" y2="1010.15" gradientUnits="userSpaceOnUse">
<stop stop-color="#F9EAD5"/>
<stop offset="1" stop-color="#F9EAD5"/>
</linearGradient>
<linearGradient id="paint33_linear_132_364" x1="211.78" y1="-155" x2="211.78" y2="174.91" gradientUnits="userSpaceOnUse">
<stop stop-color="#F9EAD5"/>
<stop offset="1" stop-color="#F9EAD5"/>
</linearGradient>
<linearGradient id="paint34_linear_132_364" x1="232.15" y1="280.53" x2="232.15" y2="420.99" gradientUnits="userSpaceOnUse">
<stop stop-color="#F9EAD5"/>
<stop offset="1" stop-color="#F9EAD5"/>
</linearGradient>
<linearGradient id="paint35_linear_132_364" x1="418.88" y1="707.44" x2="418.88" y2="921.52" gradientUnits="userSpaceOnUse">
<stop stop-color="#F9EAD5"/>
<stop offset="1" stop-color="#F9EAD5"/>
</linearGradient>
<linearGradient id="paint36_linear_132_364" x1="471.74" y1="639.2" x2="471.74" y2="649.66" gradientUnits="userSpaceOnUse">
<stop stop-color="#F9EAD5"/>
<stop offset="1" stop-color="#F9EAD5"/>
</linearGradient>
<linearGradient id="paint37_linear_132_364" x1="39.5501" y1="540.46" x2="39.5501" y2="913.8" gradientUnits="userSpaceOnUse">
<stop stop-color="#F9EAD5"/>
<stop offset="1" stop-color="#F9EAD5"/>
</linearGradient>
<linearGradient id="paint38_linear_132_364" x1="208.76" y1="-155" x2="208.76" y2="156.89" gradientUnits="userSpaceOnUse">
<stop stop-color="#F9EAD5"/>
<stop offset="1" stop-color="#F9EAD5"/>
</linearGradient>
<linearGradient id="paint39_linear_132_364" x1="231.17" y1="295.89" x2="231.17" y2="409.97" gradientUnits="userSpaceOnUse">
<stop stop-color="#F9EAD5"/>
<stop offset="1" stop-color="#F9EAD5"/>
</linearGradient>
<linearGradient id="paint40_linear_132_364" x1="430.38" y1="760.7" x2="430.38" y2="900.22" gradientUnits="userSpaceOnUse">
<stop stop-color="#F9EAD5"/>
<stop offset="1" stop-color="#F9EAD5"/>
</linearGradient>
<linearGradient id="paint41_linear_132_364" x1="29.7101" y1="557.85" x2="29.7101" y2="893.92" gradientUnits="userSpaceOnUse">
<stop stop-color="#F9EAD5"/>
<stop offset="1" stop-color="#F9EAD5"/>
</linearGradient>
<linearGradient id="paint42_linear_132_364" x1="205.08" y1="-155" x2="205.08" y2="137.38" gradientUnits="userSpaceOnUse">
<stop stop-color="#F9EAD5"/>
<stop offset="1" stop-color="#F9EAD5"/>
</linearGradient>
<linearGradient id="paint43_linear_132_364" x1="195.85" y1="331.37" x2="195.85" y2="362.61" gradientUnits="userSpaceOnUse">
<stop stop-color="#F9EAD5"/>
<stop offset="1" stop-color="#F9EAD5"/>
</linearGradient>
<linearGradient id="paint44_linear_132_364" x1="427.38" y1="784.91" x2="427.38" y2="874.78" gradientUnits="userSpaceOnUse">
<stop stop-color="#F9EAD5"/>
<stop offset="1" stop-color="#F9EAD5"/>
</linearGradient>
<linearGradient id="paint45_linear_132_364" x1="15.02" y1="769.05" x2="15.02" y2="875.23" gradientUnits="userSpaceOnUse">
<stop stop-color="#F9EAD5"/>
<stop offset="1" stop-color="#F9EAD5"/>
</linearGradient>
<linearGradient id="paint46_linear_132_364" x1="18.1" y1="600.48" x2="18.1" y2="688.09" gradientUnits="userSpaceOnUse">
<stop stop-color="#F9EAD5"/>
<stop offset="1" stop-color="#F9EAD5"/>
</linearGradient>
<linearGradient id="paint47_linear_132_364" x1="276.12" y1="55.36" x2="276.12" y2="78.87" gradientUnits="userSpaceOnUse">
<stop stop-color="#F9EAD5"/>
<stop offset="1" stop-color="#F9EAD5"/>
</linearGradient>
<clipPath id="clip0_132_364">
<rect width="1215.12" height="523.35" fill="white" transform="matrix(0 1 -1 0 523.35 -155)"/>
</clipPath>
</defs>
</svg>
