<svg width="524" height="938" viewBox="0 0 524 938" fill="none" xmlns="http://www.w3.org/2000/svg">
<g clip-path="url(#clip0_132_364)">
<mask id="mask0_132_364" style="mask-type:luminance" maskUnits="userSpaceOnUse" x="10" y="-271" width="501" height="1201">
<path d="M510.32 929.5L510.32 -270.5L10.3199 -270.5L10.3199 929.5L510.32 929.5Z" fill="white"/>
</mask>
<g mask="url(#mask0_132_364)">
<path d="M79.52 306.39C73.68 299.05 68.02 291.05 59.03 288.38C32.06 280.35 23.85 261.96 27.81 235.9C28.07 234.18 27.99 232.38 27.88 230.63C27.25 220.65 31.4799 212.97 38.4 206.07C49.43 195.08 62.67 187.15 75.59 178.89C89.76 169.84 98.7 157.56 102.32 141.29C105.95 124.98 110.33 108.86 114.42 92.67C116.25 85.43 118.14 77.94 116.7 70.49C106.11 15.59 86.88 -13.72 39.77 -20.69C24.83 -22.9 20.14 -30.55 20.19 -45.68C20.26 -66.35 16.71 -73.28 0.48999 -77.54V-0.350021C3.09998 1.13998 5.67993 2.71998 8.25995 4.36998C14.21 8.17998 20.73 11.49 27.63 12.5C55.13 16.5 71.58 31.16 81.34 57.86C88.73 78.08 92.8 96.91 87.96 117.96C80.65 149.69 69.04 161.08 36.83 165.5C24.44 167.2 12.31 166.49 1 160.07C0.830017 159.98 0.659973 159.89 0.5 159.8V299.07C8.60999 311.38 21.39 318.9 38.4 322.17C50.32 324.46 60.65 329.68 70.81 336.12C95.29 351.62 119.61 367.44 146.19 379.37C158.19 384.75 170.14 390.45 180.66 398.63C189.88 405.8 193.76 414.8 190.79 426.46C189.49 431.57 188.71 436.83 187.27 441.89C183.1 456.64 186.26 470.67 191.14 484.52C194.76 494.79 202.16 499.71 213.09 500.34C227.57 501.16 237.87 494.93 244.09 482.37C251.71 466.98 260.29 451.31 248.56 434.06C244.12 427.52 238.99 421.44 235.77 414.12C233.18 408.25 232.11 402.42 235.67 396.46C240.29 388.7 245.46 388.31 250.71 395.64C253.79 399.93 255.74 404.91 258.36 409.49C275.63 439.64 315.69 448.59 343.74 428.1C357.16 418.3 371.36 413.56 388.11 415.48C402.01 417.07 416.2 414.95 426.98 406.02C458.2 380.17 486.94 330.3 450.68 286.03C445.12 279.24 439.98 272.02 436.67 263.76C428.9 244.36 417.6 227.16 404.11 211.32C392.45 197.62 381.84 183.08 370.5 169.14C358.12 153.92 353.4 136.55 355.57 117.58C356.87 106.17 357.78 94.81 357.4 83.4C356.39 53.14 371.52 30.2 392.04 10.84C413.35 -9.27002 429.08 -9.08001 450.82 9.62999C465.8 22.52 482.21 33.71 496.2 47.75C504.4 55.98 513.23 62.37 522.86 66.74V42.34C509.56 35.53 497.64 25.58 488.32 12.71C479.57 0.639977 479.88 -8.96002 489.49 -20.69C492.83 -24.77 496.67 -28.48 498.77 -33.43C500.76 -38.12 501.54 -42.89 497.4 -46.87C493.61 -50.52 489.24 -49.13 485.04 -47.57C482.15 -46.5 479.32 -45.11 476.96 -43.16C467.94 -35.73 457.54 -33.45 446.17 -34.29C432.5 -35.3 420.11 -31.3 408.55 -24.32C367.51 0.469978 345.22 37.59 338.48 84.33C336.87 95.52 337.36 107.12 337.07 118.54C336.56 139.5 342.11 157.92 354.25 175.32C379.56 211.58 408.85 245.46 424.34 287.88C424.94 289.51 425.83 291.17 427.03 292.4C448.49 314.32 445.88 337.98 434.19 363.79C423.11 388.24 417.77 393.06 390.69 393.22C368.82 393.34 347.26 392.34 326.05 401.76C309.01 409.33 296.88 401.67 290.67 383.27C285.47 367.85 274.85 358.44 260.34 352.4C243.52 345.4 228.42 350.88 213.73 358.65C205.5 363.01 197.4 368.06 187.7 366.25C145.08 358.28 107.27 341.3 79.52 306.46V306.39Z" fill="url(#paint0_linear_132_364)" stroke="#EF5D53" stroke-miterlimit="10"/>
<path d="M474.5 936.62C471.75 927.54 464.05 923.42 450.88 923.99C445.13 924.24 439.38 925.02 434.1 927.18C424.41 931.14 415.41 930.2 406.26 925.5C400.81 922.7 394.93 920.72 389.11 918.7C375 913.79 362.25 916.44 350.77 925.68C346.62 929.02 342.8 932.67 339.33 936.62H474.5Z" fill="url(#paint1_linear_132_364)" stroke="#EF5D53" stroke-miterlimit="10"/>
<path d="M358.27 81.01C358.89 93.73 358.04 106.43 356.37 119.14C354.51 133.29 355.65 147.49 364.02 159.66C374.44 174.8 384.99 189.98 397.98 203.08C427.93 233.27 444.99 271.66 464.64 308.28C471.43 320.94 474.22 335.84 468.08 350.4C460.67 367.94 451.15 384.12 437.49 397.68C425.06 410.01 410.48 417.35 392.8 416.82C371.73 416.19 353.88 422.49 340.3 439.15C330.65 451 318.58 454.45 303.79 450.77C286 446.34 273.06 453.54 263.85 468.81C259.27 476.41 255.79 484.42 253.48 492.97C251.65 499.77 249.79 506.6 246.71 512.93C227.09 553.22 205.92 592.79 200.18 638.38C196.88 664.56 156.35 677.77 133.59 664.72C129.62 662.44 126.93 659.11 125.08 654.97C107.07 614.79 108.66 576.5 136.13 540.76C144.97 529.26 154.3 518.14 163.13 506.62C169.4 498.44 173.53 489.42 175.04 479.11C177.46 462.57 178.24 445.87 180.02 429.27C181.44 416.01 175.46 405.34 166.04 396.53C158.57 389.54 149.88 384.31 140.26 380.9C126.52 376.02 113.83 369.11 101.01 362.28C76.7199 349.33 54.3199 333.11 26.6899 326.09C16.2099 323.43 7.19995 317.97 0.47998 310.19L0.47998 936.65H12.36C14.2899 934.9 16.17 932.96 17.99 930.82C37.03 908.39 61.2999 902.72 88.4299 901.55C100.92 901.01 110.78 904.8 117.81 915.36C126.42 928.29 138.41 935.25 154 936.47C154.59 936.52 155.18 936.59 155.77 936.66H280.78C297.45 925.95 313.75 914.74 329.83 903.16C351.66 887.44 376.1 879.46 403.15 883.93C426.42 887.77 449.09 887.95 472.28 882.24C488.53 878.24 505.6 878.1 520.15 889.59C521.03 890.29 521.93 890.96 522.82 891.61L522.82 69.16C516.38 66.44 510.5 62.45 505.33 56.81C486.93 36.72 464.41 22.42 441.14 8.96999C421.7 -2.27001 404.13 -1.33002 388.25 14.68C370.25 32.82 356.91 53.66 358.24 81.02L358.27 81.01Z" fill="url(#paint2_linear_132_364)" stroke="#EF5D53" stroke-miterlimit="10"/>
<path d="M14 928.11C11.35 931.48 8.38997 934.31 5.21997 936.62H33.66C35.86 934.04 38.41 931.71 40.9 929.39C62.43 909.25 88.74 910.28 107.68 932.88C108.79 934.2 109.92 935.44 111.08 936.63H180.24C179.3 936.45 178.36 936.26 177.4 936.12C171.78 935.26 166.27 932.84 160.69 932.77C140.77 932.52 126.74 923.62 117.01 906.37C114.05 901.11 108.15 897.24 101.79 897.04C68.59 895.99 37.05 898.87 14.01 928.14L14 928.11Z" fill="url(#paint3_linear_132_364)" stroke="#EF5D53" stroke-miterlimit="10"/>
<path d="M392.44 897.67C420.97 904.93 448.69 905.13 476.64 895.47C487.07 891.87 498.54 892.9 506.8 900.11C511.97 904.62 517.31 908.73 522.85 912.47V884.99C505.78 874.08 487.09 873.94 466.75 877.83C453.69 880.33 441.23 885.15 426.73 881.99C390.88 874.18 355.91 876.33 325.32 900.01C310.73 911.3 295.51 921.58 279.92 931.44C277.19 933.17 274.44 934.88 271.71 936.62L303.1 936.62C313.97 929.32 324.55 921.67 334.73 913.35C351.46 899.67 370.93 892.19 392.44 897.67Z" fill="url(#paint4_linear_132_364)" stroke="#EF5D53" stroke-miterlimit="10"/>
<path d="M383.01 12.6C348.27 48.59 349.52 93.49 352.14 138.36C353.45 160.84 371.15 175.3 383.19 192.3C398.61 214.06 418.7 232.62 428.86 257.93C433.33 269.07 439.47 278.88 446.56 288.5C458.53 304.76 468.72 323.06 462.02 343.52C455.97 361.98 447.69 380.11 433.78 394.88C423.73 405.54 410.98 411.94 397.48 410.64C372.92 408.26 351.55 412.42 333.48 429.87C332.3 431.01 330.33 431.38 328.69 432C306.15 440.41 274.52 428.94 262.75 407.94C259.53 402.19 256.83 396.15 253.79 390.3C249.58 382.22 243.34 380.76 236.68 386.68C229.1 393.42 224.5 401.57 229.39 412.32C233.24 420.78 237.71 428.83 244.01 435.66C247.42 439.36 250.05 443.04 249.79 448.38C249 464.79 243.57 479.51 231.79 490.89C219.45 502.81 199.84 496.08 194.16 480.22C187.66 462.08 190.42 444.87 195.62 427.5C199.7 413.86 195.5 403.15 184.47 395.12C178.12 390.49 171.27 386.31 164.15 383.01C129.44 366.93 96.51 347.75 64.78 326.47C58.02 321.94 50.74 319.89 42.82 318.44C18.05 313.9 7.23999 306.59 0.5 288.19V316.02C9.71002 324.93 21.76 330.81 35.99 334.7C43.54 336.77 51.29 337.81 58.27 342.22C84.97 359.08 111.59 376.11 141.8 386.49C150.93 389.63 159.05 395.25 165.75 402.42C172.95 410.12 177.73 419.19 175.55 429.9C173.78 438.61 173.96 447.33 173.09 456.03C171.14 475.58 169.76 495.29 154.51 510.71C145.93 519.39 138.75 529.49 131.28 539.21C104.1 574.55 100.26 623.66 121.86 660.84C123.76 664.11 126.88 667.19 130.17 669.07C157.22 684.52 202.23 667.58 205.75 638.56C207.95 620.44 211.19 602.25 218.19 584.92C232.12 550.4 252.92 518.85 262.13 482.26C263.67 476.13 268.13 470.56 271.89 465.19C278.58 455.62 288.14 451.23 299.38 454.79C318.37 460.8 333.61 456.92 345.65 440.72C356.93 425.55 372.77 420.62 390.91 421.82C410.35 423.11 425.69 414.59 439.5 402.15C452.45 390.48 460.71 375.56 469.17 360.57C478.71 343.66 476.63 327.14 470.93 309.96C462.66 285.04 443.19 266.26 434.07 241.81C430.97 233.49 425.04 227.04 419.3 220.27C404 202.24 387.04 185.65 373.14 166.39C364.62 154.58 359.21 142.14 360.52 127.24C361.86 111.97 364.51 96.75 363.17 81.35C360.86 54.76 374.03 34.95 391.66 17.5C404.19 5.1 420.56 1.91999 433.63 10.05C456.25 24.12 480.85 35.52 498.41 56.84C505.43 65.36 513.63 70.95 522.86 74.4V62.23C518.81 60.06 514.95 57.34 511.23 54.14C488.69 34.69 465.92 15.49 442.86 -3.34C437.25 -7.92 430.68 -12.46 422.4 -10.05C407.44 -5.70999 394.07 1.15999 383.01 12.61V12.6Z" fill="url(#paint5_linear_132_364)" stroke="#EF5D53" stroke-miterlimit="10"/>
<path d="M345.51 936.62C361.04 918.84 375.52 915.31 397.67 927.13C411.68 934.61 425.84 938.14 441.05 930.29C446.71 927.37 453.13 928.35 459.25 928.55C465.53 928.76 469.18 931.6 470.62 936.62H502.23C502.35 934.59 502.4 932.49 502.39 930.34C502.31 909.09 489.95 897.32 469.41 902.56C442.09 909.53 415.65 908.42 388.75 901.62C372.09 897.41 355.81 900.21 342.68 911.4C332.48 920.09 321.92 928.32 311.44 936.62H345.53H345.51Z" fill="url(#paint6_linear_132_364)" stroke="#EF5D53" stroke-miterlimit="10"/>
<path d="M105.21 936.62C103.16 934.51 101.05 932.45 98.87 930.46C82.69 915.7 63.36 915.23 46.42 929.17C43.68 931.42 41.27 933.95 39 936.62H105.21Z" fill="url(#paint7_linear_132_364)" stroke="#EF5D53" stroke-miterlimit="10"/>
<path d="M111.91 930.15C98.1301 910.6 81.8301 906.35 58.8201 913.11C45.0401 917.15 35.2801 925.89 27.5101 936.62H45.6701C63.2801 918.73 79.0401 918.36 98.3501 936.62H117.33C115.42 934.72 113.62 932.57 111.91 930.16V930.15Z" fill="url(#paint8_linear_132_364)" stroke="#EF5D53" stroke-miterlimit="10"/>
<path d="M497.27 919.96C497.7 925.69 497.81 931.28 497.47 936.62H522.85V907.31C522.79 907.24 522.73 907.18 522.68 907.11C507.18 888.06 487.8 884.89 465.82 892.96C445.29 900.49 424.97 900.75 403.96 894.57C377.8 886.87 352.92 891.18 332.2 908.97C320.16 919.31 306.92 927.65 294.08 936.62L319.35 936.62C328.25 929.84 337.11 923.01 345.28 915.31C357.14 904.12 372.46 902.54 388.56 906.38C405.15 910.34 421.82 913.61 439.24 912.91C451.37 912.42 462.18 907.34 473.93 905.93C484.91 904.61 496.55 910.48 497.27 919.97V919.96Z" fill="url(#paint9_linear_132_364)" stroke="#EF5D53" stroke-miterlimit="10"/>
<path d="M400.26 388.5C409.99 388.8 418.79 384.19 423.37 375.51C433.99 355.38 438.92 333.69 429.17 312.2C422.25 296.94 416.11 281.59 410.98 265.68C407.47 254.79 402.08 244.57 395.37 235.26C379.95 213.88 366.39 191.22 350.84 169.95C341.07 156.58 337.17 141.62 336.65 125.61C335.41 87.7199 340.78 52.06 363.29 19.37C381.05 -6.43002 401.57 -28.18 430.53 -39.27C450.36 -46.87 468.8 -56.38 487.56 -66C504.4 -74.63 515.46 -86.76 522.85 -101.43V-196.75C516.16 -209.48 506.23 -220.99 492.2 -229.17C474.49 -239.5 455.42 -243.1 435.77 -245.63C411.88 -248.71 400.62 -259.55 402.43 -277.49L0.5 -277.49V-87.51C1.98999 -87.09 3.53998 -86.68 5.15997 -86.3C8.14996 -85.59 11.11 -84.71 14.11 -84.06C25.4 -81.61 33.53 -75.04 36.6 -64.08C42.19 -44.12 55.74 -31.96 73.73 -23.9C88.82 -17.14 97.85 -5.31003 103.3 9.73996C108.11 23.02 113.88 35.92 121.55 47.71C132.79 65.0099 132.06 81.45 120.33 97.94C111.51 110.35 106.07 124.14 103.8 139.18C101.66 153.41 96.02 166.07 87.32 177.53C78.67 188.91 76.84 201.54 77.38 215.97C78.41 243.35 86.06 269.78 87.05 297.06C87.36 305.68 90.72 313.35 96.09 320.01C112.93 340.91 157.78 366.84 194.33 352.87C221.05 342.66 246.57 343.79 272.67 353.35C283.53 357.32 295 359.71 306.35 357.11C322.32 353.46 334.52 358.63 345.53 369.82C360.52 385.06 380.25 387.87 400.24 388.5H400.26Z" fill="url(#paint10_linear_132_364)" stroke="#EF5D53" stroke-miterlimit="10"/>
<path d="M504.66 -84.18C485.17 -66.72 461.4 -52.66 434.8 -45.86C408.47 -39.13 388.38 -22.32 373.22 -1.26004C351.46 28.97 332.08 60.76 331.74 100.45C331.52 126.23 332.3 150.67 347.66 173.41C366.78 201.71 388.17 228.71 403.13 259.6C409.37 272.48 410.31 288.42 418.1 299.97C433.32 322.54 430.32 344.78 422.75 367.89C419.02 379.28 409.57 385.56 398.37 384.32C378.47 382.12 358.24 379.85 343.99 362.06C336.16 352.28 324.76 348.22 311.97 351.4C300.08 354.36 288.68 353.43 277.05 349.67C252.29 341.66 227.74 334.95 201.41 345.63C161.94 361.64 129.81 345.66 101.23 319.08C94.68 312.99 91.48 304.78 91.44 295.38C91.32 268.15 82.88 241.91 82.04 214.58C81.65 201.91 82.73 191.27 90.38 181.44C99.42 169.83 106.18 157.36 107.92 142.33C109.82 125.88 116.34 111.28 126.13 97.76C138.18 81.12 137.76 63.99 126.59 46.47C120.25 36.52 114.1 25.97 110.55 14.83C103.75 -6.53004 92.13 -22.22 70.79 -30.94C59.9 -35.39 47.8 -42.03 45.49 -54.36C40.59 -80.44 23.1 -88.88 0.47998 -92.58V-73.42C12.25 -70.76 16.47 -63.93 15.13 -50.44C13.26 -31.55 16.6 -18.13 44.3 -14.26C74.88 -9.98004 91.43 8.88995 102.66 36.05C113.53 62.31 110.28 87.07 104.88 114.14C97.97 148.76 82.79 173.57 51.12 189.63C30.53 200.07 18.56 217.32 22.84 242.32C23.5 246.16 22.93 250.22 22.93 254.18C22.94 273.09 28.11 280.24 46.19 287.52C55.52 291.28 65.78 294.37 71.47 303.39C94.38 339.75 131.05 355.16 169.28 367.89C186.01 373.46 201.62 372.4 217.97 361.89C244.32 344.95 278.25 357.16 285.89 383.82C292.85 408.08 310.52 416.24 333.4 404.78C343.17 399.88 352.84 397.48 363.69 397.93C375.97 398.44 388.3 397.78 400.6 398.11C417.2 398.55 428.17 390.67 434.23 375.75C438.85 364.37 442.33 352.51 447.15 341.23C451.28 331.57 451.03 322.74 446.26 313.46C439.03 299.4 426.68 288.2 422.12 272.85C413.59 244.16 392.74 223.36 377.05 199.23C365.66 181.71 347.96 167.23 344.76 145.63C338.22 101.47 339.41 58.56 367.62 19.93C390.14 -10.9 416.36 -32.81 456.99 -29.32C465.52 -28.59 470.69 -33.73 477.04 -37.44C482.94 -40.89 489.82 -50.68 495.75 -43.74C501.24 -37.31 492.02 -30.72 487.03 -25.48C474.46 -12.26 471.92 1.24996 483.25 14.4C495.23 28.31 507.87 40.82 522.84 48.98V-109.34C518.79 -100.03 512.85 -91.5 504.65 -84.16L504.66 -84.18Z" fill="url(#paint11_linear_132_364)" stroke="#EF5D53" stroke-miterlimit="10"/>
<path d="M0.500023 165.52C10.58 170.7 21.24 172.63 32.31 170.88C53.11 167.58 76.23 165.16 85.37 142.69C95.97 116.61 102.36 89.05 88.04 61.48C84.82 55.28 80.89 49.16 79.19 42.52C74.66 24.9 62.45 16.42 46.01 12.69C29.78 9.01 14.51 3.50001 0.509972 -5.60999L0.509972 165.52H0.500023Z" fill="url(#paint12_linear_132_364)" stroke="#EF5D53" stroke-miterlimit="10"/>
<path d="M373.9 76.17C372.66 90.54 373.92 104.97 371.52 119.46C368.77 136.06 373.39 151.27 384.26 164.96C396.37 180.22 411.05 192.54 425.13 205.73C454.79 233.52 468.13 270.98 482.12 307.75C487.99 323.17 491.79 340.62 485.17 355.45C466.55 397.22 438.24 429.39 389.98 437.79C381.03 439.35 371.42 440.2 364.85 447.87C348.2 467.33 327.81 479.09 301.92 482.45C285.96 484.52 279.18 494.65 278.83 511.11C278.61 521.22 278.45 531.35 278.87 541.45C279.47 555.81 272.84 565.01 259.56 569.28C250.66 572.14 244.56 577.93 239.28 585.22C226.54 602.84 224.34 623.43 223.67 644.02C223.17 659.34 217.68 669.43 203.45 676.14C186.42 684.17 169.28 689.87 151.77 688.25C144.54 688.25 138.81 688.49 133.11 688.2C120 687.54 106.19 682.86 103.61 670.26C99.07 648.03 88.01 627.23 88.81 603.84C89.02 597.61 90.15 591.9 92.3 585.96C101.43 560.76 116.84 539.43 133.19 518.76C143.48 505.75 151.43 491.87 153.96 475.39C155.55 465.02 156.91 454.56 157.34 444.09C158.32 420.12 146.74 404.37 123.43 399.69C109.66 396.92 98.03 390.71 86.46 383.42C67.5699 371.51 49.12 358.54 29.15 348.77C18.9 343.76 9.15997 338.43 0.5 332.12L0.5 912.85C2.40002 910.93 4.25 908.66 6.04999 906.03C13.55 895.09 23.11 888.58 35.8 886.28C53.44 883.08 71.18 880.42 88.76 876.94C111.7 872.4 124.25 876.98 137.02 896.47C143.28 906.03 150.74 913.25 162.07 916.45C180.61 921.7 199.15 927.04 217.39 933.26C230.75 937.81 243.05 936.71 255.64 930.89C274.5 922.17 291.34 910.44 307.95 898.12C338.79 875.23 371.45 857.71 412.12 862.17C425.96 863.69 440.52 863.72 454.12 861.14C478.35 856.54 500.99 855.96 522.86 866.49L522.86 89.37C510.64 86.38 499.87 80.46 492.41 68.84C475.77 42.96 450.55 31.37 422.97 22.48C416.95 20.54 411.93 21.09 406.63 23.97C385.89 35.23 375.88 53.44 373.92 76.17H373.9Z" fill="url(#paint13_linear_132_364)" stroke="#EF5D53" stroke-miterlimit="10"/>
<path d="M123.19 596.84C121.76 561.93 140.34 538.99 164.64 520.27C181.72 507.12 206.72 521.6 209.89 545.59C210.85 552.87 211.2 560.47 208.56 567.75C201.37 587.57 196.69 608.09 191.54 628.49C186.97 646.59 174.45 656.95 158.27 656.57C145.18 656.26 135.54 650.76 131.32 637.65C126.88 623.88 121.62 610.27 123.19 596.84Z" fill="url(#paint14_linear_132_364)" stroke="#EF5D53" stroke-miterlimit="10"/>
<path d="M399.3 353.7C407.38 348.76 406.47 339.11 404.39 330.82C400.36 314.7 394.37 299.04 392.88 282.34C392.09 273.5 390.87 264.75 386.29 257.06C372.59 234.08 359.82 210.41 344.35 188.67C332.24 171.65 320.87 156 319.81 133.59C318.48 105.56 321.05 78.45 331.71 52.81C338.58 36.31 349.54 21.56 357.43 5.42001C372.78 -26 398.92 -46.24 428.06 -62.75C439.38 -69.16 452.05 -73.76 462.92 -81.01C476.37 -90 493.6 -93.13 504.07 -106.41C522.79 -130.18 523.06 -167.07 503.21 -190.84C483.9 -213.96 457.2 -230.98 424.85 -210.84C423.75 -210.15 422.39 -209.9 421.21 -209.31C411.74 -204.52 402.97 -207.08 398.21 -215.34C387 -234.8 372.9 -253.4 373.51 -277.5L0.500061 -277.5V-250.14C5.59009 -228.8 10.9401 -207.36 4.37006 -185.04C3.12006 -180.78 1.81006 -176.53 0.500061 -172.28V-113.79C3.82007 -111.68 8.03 -109.81 13.25 -107.98C21.11 -105.22 28.85 -102.11 36.63 -99.1C46.4 -95.32 54.91 -89.05 59.35 -79.92C68.5 -61.11 82.72 -48.64 101.44 -40.2C115.01 -34.08 122.66 -22.46 122.86 -8.01999C123.14 11.95 130.83 28.33 145.08 40.83C173.89 66.11 171.22 102.73 137.32 121.14C128.98 125.67 124.41 132.51 122.01 141.48C118.62 154.17 116.04 167.31 110.72 179.2C104.24 193.68 100.91 208.19 101.96 223.91C102.19 249.74 109.44 275.08 107.76 301.13C107.42 306.49 111.16 310.99 115.11 314.7C135.76 334.11 159.37 343.08 187.18 332.93C208.89 325.01 229.89 322.15 252.28 331.16C266.46 336.87 283.18 342.03 297.32 336.5C327.31 324.78 351.62 330.61 374.48 351.67C381.34 357.99 391.63 358.39 399.3 353.7Z" fill="url(#paint15_linear_132_364)" stroke="#EF5D53" stroke-miterlimit="10"/>
<path d="M522.85 -30.81C511.36 -19.45 498.04 -8.61 502.2 11.39C502.55 13.09 502.92 14.99 503.91 16.33C509.42 23.8 515.84 29.75 522.85 34.3V-30.81Z" fill="url(#paint16_linear_132_364)" stroke="#EF5D53" stroke-miterlimit="10"/>
<path d="M0.500031 141.18C8.94003 144.7 17.47 148 26.43 150.15C61.13 158.47 83.27 141.29 83.64 102.71C83.33 101.17 82.64 96.86 81.57 92.65C77.92 78.3 66.46 70.6 55.58 62.4C40.28 50.86 27.64 35.74 9.01999 28.64C5.85999 27.43 3.04002 26.85 0.490021 26.9L0.490021 141.18H0.500031Z" fill="url(#paint17_linear_132_364)" stroke="#EF5D53" stroke-miterlimit="10"/>
<path d="M393.82 55.14C379.24 79.26 379.31 106.76 381.6 132.85C384.1 161.28 404.29 179.55 430.51 189.3C449.74 196.45 462.6 208.39 468.07 228.22C469 231.59 470.41 234.84 471.81 238.06C485.99 270.51 491.98 305.04 498.33 339.49C497.4 345.31 498 350.93 495.98 356.57C486.21 383.92 468.97 406.13 446.27 423.24C407.29 452.62 365.27 477.02 319.27 494.13C303.26 500.08 297.46 509.22 297.26 526.24C297.2 531.96 296.91 537.7 297.31 543.39C299.14 569.99 289.26 589.26 263.71 599.66C251.86 604.48 245.24 614.38 242.77 626.69C240.88 636.11 238.92 645.49 239.07 655.31C239.35 673.76 228.62 687.01 210.83 691.28C176.65 699.49 141.39 699.12 106.8 704.06C94.32 705.84 87.96 699.38 86.27 687.37C82.99 664.07 83.15 640.13 72.89 618.12C68.22 608.12 70.79 598.29 75.34 588.92C85.71 567.57 97.12 546.92 112.39 528.46C121 518.05 130.03 507.77 135.47 494.98C143.82 475.33 142.68 455.76 136.34 435.93C131.5 420.81 118.15 416.84 105.64 411.58C103.22 410.56 100.8 409.42 98.6 407.99C69.18 388.91 38.55 371.78 9.71997 351.7C6.57996 349.51 3.50995 347.28 0.509949 344.99L0.509949 875.17C10.71 864.59 22.92 857.97 39.5 859.25C47.06 859.84 55.03 856.97 62.63 854.96C96.33 846.05 123.74 857.33 144.41 883.35C156.06 898.01 169.74 907.21 186.98 912.3C194.95 914.66 203.31 915.84 211.09 918.65C234.55 927.13 256 923.22 275.93 909.08C289.86 899.19 303.23 888.48 317.48 879.08C326.22 873.31 336.41 869.64 343.85 861.93C352.62 852.84 362.93 849.29 375.65 848.97C393.54 848.51 410.85 853.54 429.27 850.34C460.46 844.92 491.92 839.1 522.86 849.16L522.86 102.19C521.48 102.13 520.1 102.09 518.71 102.07C501.76 101.85 488.93 94.44 482.15 77.21C473.61 55.5 456.3 43.82 433.75 38.91C414.7 34.76 403.91 38.48 393.84 55.14H393.82Z" fill="url(#paint18_linear_132_364)" stroke="#EF5D53" stroke-miterlimit="10"/>
<path d="M136.3 588.27C135.99 570.75 143.59 557.76 155.2 547.06C161.13 541.6 169.04 538.46 176.96 541.78C184.14 544.8 188.28 551.39 188.97 559.37C190.79 580.56 185.28 600.38 174.81 618.35C164.85 635.44 151.56 634.2 142.7 616.39C138.16 607.26 136.09 597.49 136.31 588.27H136.3Z" fill="url(#paint19_linear_132_364)" stroke="#EF5D53" stroke-miterlimit="10"/>
<path d="M251.64 321.32C265.96 327.72 281.73 332.73 297.44 326.04C318.38 317.13 339.62 311.3 362.59 313.52C370.89 314.32 375.31 309.15 375.79 301.96C376.61 289.76 379.11 276.92 374.47 265.37C362.5 235.58 350.39 204.85 324.33 184.64C308.12 172.07 302.96 158.2 305.08 139.42C305.57 135.08 304.83 130.61 305.2 126.24C307.97 93.62 313.85 61.84 333 34.24C341.59 21.86 348.69 8.93997 353.08 -5.56003C355.77 -14.47 360.03 -23.62 367.28 -28.95C389.17 -45.05 404.8 -67.11 423.13 -86.45C437.39 -101.5 453.02 -108.11 472.69 -108.72C485.52 -109.12 494.81 -115.42 501.46 -126.55C512.99 -145.85 507.31 -163.54 495.18 -179.05C474.55 -205.4 452.41 -208.99 432.33 -183.96C422.69 -171.94 414.2 -171.45 401.64 -180.62C395.59 -185.03 390.36 -190.3 386.3 -196.74C370.45 -221.88 359.19 -248.75 352.4 -277.49L12.5 -277.49C12.27 -273.4 12.77 -268.95 14.1 -264.21C23.01 -232.62 20.67 -202 12.4 -170.87C2.97 -135.37 6.53 -128.77 39.68 -112.14C41.64 -111.15 43.6 -110.14 45.58 -109.19C58.72 -102.86 70.16 -94.85 79.5 -83.03C87.82 -72.49 97.48 -62.66 110.2 -56.59C132.01 -46.18 142.9 -29.34 139 -4.55002C136.54 11.04 143.78 22.16 154.49 32.47C163.64 41.27 172.27 51.05 175.49 63.81C182.6 91.93 173.27 116.76 149.5 134.12C144.11 138.05 138.36 142.02 136.11 148.29C125.67 177.39 109.35 204.91 112.55 237.71C114.42 256.86 118.15 275.77 118.76 295.12C119.06 304.85 126.02 311.77 134.5 316.54C151.21 325.94 169.02 327.4 186.61 320.83C208.65 312.59 229.65 311.49 251.65 321.33L251.64 321.32Z" fill="url(#paint20_linear_132_364)" stroke="#EF5D53" stroke-miterlimit="10"/>
<path d="M0.500015 118.81C14.73 126.93 30.96 127.93 46.6 128.29C61.62 128.63 69.16 111.84 61.7 98.45C52.15 81.32 36.26 72.7 19.03 65.37C11.52 62.18 5.58002 63.33 0.500015 66.98L0.500015 118.82V118.81Z" fill="url(#paint21_linear_132_364)" stroke="#EF5D53" stroke-miterlimit="10"/>
<path d="M404.95 67.15C388.55 85.24 387.65 107.37 391.41 128.93C396.97 160.82 415.7 172.11 447.21 166.47C458.58 164.43 469.24 165.42 476.88 175.68C481.17 181.44 478.51 188.51 480.43 194.85C493.02 236.39 499.35 279.15 506.19 321.92C512.98 364.39 493.09 394.79 465.38 421.68C448.15 438.41 428.32 451.88 417.9 475.15C404.46 505.15 393.63 509.35 361.74 501.84C339.68 496.64 315.37 508.73 313.54 526.89C312.36 538.57 311.64 550.59 314.61 562.3C316.64 570.3 315.58 577.69 311.97 585.26C304.9 600.08 292.87 610.16 280.6 620.16C268.83 629.75 258.92 640.03 256.88 656.52C255.16 670.44 249.58 683.64 243.89 696.49C237.11 711.79 228.74 716.15 212.57 712.47C176.31 704.22 141.56 706.4 108.26 724.61C94.35 732.21 83.19 727.17 76.97 711.39C72.45 699.94 70.05 687.83 70.45 675.37C71.06 656.57 67.59 638.75 58.5 622.09C52.89 611.81 51.83 600.39 57.65 590.49C73.87 562.92 89.34 534.59 111.73 511.36C141.48 480.48 127.39 443.94 105.24 427.14C90 415.58 73.7 405.16 56.55 396.03C36.49 385.36 17.74 373.08 0.509949 359.02L0.509949 838.16C6.54993 834.37 13.21 831.72 20.88 831.46C37.71 830.9 53.83 827.66 69.95 823.2C89.81 817.71 105.84 825.7 119.74 839.28C130.11 849.42 141.19 859.02 150.34 870.2C169.27 893.32 195.06 902.85 222.49 910.46C243.24 916.21 260.44 909.66 276.57 897.64C290.23 887.45 302.43 875.53 317.18 866.53C336.65 854.65 339.02 839.81 326.67 820.9C322.35 814.29 318.13 807.61 314.13 800.81C308.6 791.42 301.1 786.2 289.71 785.59C281.5 785.15 273.34 782.68 265.31 780.56C256.71 778.29 250.79 772.72 253.02 763.38C255.29 753.86 262.88 750.02 272.33 752.1C282.68 754.38 292.62 758.04 300.02 766.3C305.93 772.9 312.58 778.74 320.39 782.82C332.87 789.34 342.53 798.86 349.49 810.68C356.24 822.13 366.24 828.91 378.15 832.42C391.11 836.24 404.37 839.79 417.83 838.7C425.69 838.81 432.98 838.1 440.41 836.75C458.44 833.47 475.96 827.93 494.75 827.87C508.37 827.83 517.18 826.26 522.87 822.06L522.87 119.95C518.22 120.87 513.57 122.29 508.89 124.31C499.79 128.25 491.55 126.86 483.75 119.2C473.96 109.59 467.46 99.25 465.52 85.3C463.54 71.08 456.16 59.69 441.32 55.27C426.59 50.89 414.98 56.09 404.97 67.14L404.95 67.15Z" fill="url(#paint22_linear_132_364)" stroke="#EF5D53" stroke-miterlimit="10"/>
<path d="M297.99 315.5C312.03 309.28 326.04 302.94 339.8 296.13C353.44 289.38 360.71 278.07 357.68 262.82C352.24 235.45 341.88 209.34 316.98 194.78C295.66 182.32 275.04 169.64 257.33 152.41C245.18 140.59 229.29 132.65 221.13 116.64C217.49 109.49 217.31 102.93 222.86 97.24C228.2 91.76 235.1 90.15 242.22 93.62C248.11 96.49 253.87 99.8 259.27 103.52C268.23 109.68 275.83 109.19 283.96 101.51C292.21 93.72 297.72 84.48 301.84 74.22C307.42 60.34 313.68 46.97 322.79 34.87C330.41 24.75 338.51 14.36 340.82 1.5C344.09 -16.75 353.24 -31.03 367.18 -42.75C391.71 -63.37 402.61 -89.84 406.42 -121.72C408.66 -140.49 401.73 -152.37 392.07 -165.76C366.76 -200.84 342.57 -235.84 333.6 -277.5L59.39 -277.5C57.99 -276.78 56.5799 -276.1 55.1499 -275.51C44.6799 -271.21 40.39 -263.42 39.33 -253.36C36.4799 -226.26 30.2899 -199.86 24.0399 -173.41C17.9099 -147.46 23.24 -136.86 46.17 -123.35C66.87 -111.15 89.37 -101.63 105.7 -82.8C111.7 -75.89 118.77 -69.97 126.07 -64.21C143.51 -50.43 158.36 -33.62 153.95 -9.67999C150.99 6.38 156 16.93 165.96 28.15C194.22 59.98 205.13 95.71 175 130.24C168.08 138.17 159.91 145.03 153.18 153.1C134.21 175.88 123.17 202.13 119.6 232.15C122.29 249.19 124.93 266.46 127.76 283.7C130.34 299.37 139.66 307.97 155.12 311.82C163.81 313.99 171.59 312.87 179.64 310.72C206.27 303.61 232.18 298.88 258.4 314.46C269.97 321.34 284.71 321.36 297.99 315.48V315.5Z" fill="url(#paint23_linear_132_364)" stroke="#EF5D53" stroke-miterlimit="10"/>
<path d="M11.67 94.27C11.96 90.14 14.61 89.61 17.24 89.5C21.57 89.33 25.42 91.21 26.23 95.41C26.84 98.61 24.09 101.2 20.43 100.6C16.42 99.94 13.41 97.49 11.67 94.26V94.27Z" fill="url(#paint24_linear_132_364)" stroke="#EF5D53" stroke-miterlimit="10"/>
<path d="M495.86 807.09C503.42 804.89 511.28 802.18 515.51 794.79C517.98 790.47 520.42 786.13 522.85 781.79L522.85 185.18C518.74 194.32 514.92 203.58 512.17 213.27C511.17 216.78 511.85 220.11 511.95 223.59C512.97 261.23 520.65 298.79 520.11 335.92C519.48 379.28 499.66 417.88 465.27 446.87C462.24 449.43 459.17 451.64 457.04 455.13C443.37 477.57 428.78 499.5 416.04 522.46C405.14 542.09 391.4 556.92 367.99 558.68C354.21 559.71 346.8 566.69 341.89 578.94C333 601.09 321.44 620.88 301.51 636.12C281.49 651.42 264.75 670.6 265.62 698.82C265.59 718.17 271.84 725.32 293.1 737.98C320.18 754.12 346.93 771.15 365.59 797.7C383.21 822.77 408.45 828.33 436.3 823.22C456.47 819.52 476.11 812.84 495.87 807.08L495.86 807.09Z" fill="url(#paint25_linear_132_364)" stroke="#EF5D53" stroke-miterlimit="10"/>
<path d="M0.500092 818.21C4.33008 816.59 8.40005 815.51 12.7201 815.2C35.6901 813.53 57.58 807.66 78.8501 799.27C88.5701 795.44 98 795.75 106.84 800.48C120.41 807.75 134.12 815.85 142.69 828.78C160.39 855.47 184.99 873.91 211.41 890.63C229.05 901.8 247.63 906.08 265.11 892.3C277.76 882.33 288.47 869.77 299.39 857.77C307.45 848.91 306.65 838.8 301.42 828.39C291.85 809.35 275.82 806.07 256.25 806.73C225.32 807.78 204.39 787.4 202.28 756.66C200.53 731.09 182.61 718.04 157.58 721.72C140.53 724.23 127.85 733.55 114.31 742.5C97.17 753.83 79.69 749.41 71.46 731.21C65.15 717.27 61.0101 702.34 59.9201 686.84C58.4101 665.38 56.69 644.33 43.4601 625.64C33.4601 611.52 33.9301 596.41 44.5901 581.58C65.05 553.12 84.7901 524.15 104.89 495.43C109.48 488.86 113.95 482.33 112.87 476.03C112.62 458.58 105.91 446.34 94.72 437.12C76.5 422.11 58.5401 406.81 35.5301 398.66C22.58 394.07 11.3101 386.38 0.500092 377.9L0.500092 818.22V818.21Z" fill="url(#paint26_linear_132_364)" stroke="#EF5D53" stroke-miterlimit="10"/>
<path d="M402.79 110.93C401.8 102.34 405.48 94.82 410.71 88.19C421.2 74.9 434.9 75.74 443.73 90.12C446.46 94.57 448.86 99.44 450.27 104.43C453.36 115.4 457.23 127.15 446.5 136.12C439.09 142.3 430.52 147.91 420.09 142.64C407.36 136.19 402.08 125.31 402.79 110.94V110.93Z" fill="url(#paint27_linear_132_364)" stroke="#EF5D53" stroke-miterlimit="10"/>
<path d="M292.91 53.47C296.4 48.44 300.15 43.57 304.09 38.88C316.86 23.66 328.35 7.97 331.5 -12.56C334.24 -30.43 344.6 -43.6 359.12 -54.11C372.79 -64 382.3 -77.33 383.8 -94.42C385.89 -118.23 385.47 -141.46 369.31 -162.04C348.83 -188.13 339.13 -221.54 314.05 -244.79C310.83 -247.78 307.73 -253.92 308.55 -257.74C309.96 -264.3 310.21 -270.9 310.23 -277.51L85.4 -277.51C62.56 -248.13 46.37 -214.61 38.21 -175.79C34.62 -158.7 39.73 -146.42 52.45 -136.59C62.53 -128.79 74 -123.05 86.12 -118.9C102.62 -113.25 117.49 -105.61 126.37 -89.4C130.38 -82.08 136.32 -76.15 141.89 -69.9C157.89 -51.94 170.2 -31.84 172.82 -7.26001C173.75 1.45999 173.4 10.22 178.56 18.02C186.79 30.46 194.64 43.14 202.73 55.66C208.44 64.49 216.41 68.59 227.15 68.29C235.86 68.05 244.57 67.6 253.35 69.6C270.79 73.59 282.61 68.32 292.91 53.46V53.47Z" fill="url(#paint28_linear_132_364)" stroke="#EF5D53" stroke-miterlimit="10"/>
<path d="M278.4 308.67C270.48 308.56 263.12 306.42 256.88 302.42C238.49 290.64 218.97 290.26 198.66 295.07C189.65 297.21 180.56 297.97 171.28 297.81C150.72 297.45 143.76 291.91 136.22 272.65C120.08 231.4 133.44 197.37 160.83 166.45C164.32 162.51 168.25 158.96 171.98 155.23C192.68 134.55 207.09 133.52 228.5 154.17C249.41 174.35 272.73 189.59 300.18 199.17C324.58 207.69 336.29 227.32 341.64 251.31C343.73 260.68 342.48 270.52 335.95 277.52C320.38 294.24 301.37 305.39 278.4 308.66V308.67Z" fill="url(#paint29_linear_132_364)" stroke="#EF5D53" stroke-miterlimit="10"/>
<path d="M495.25 792.27C502.93 789.65 508.89 784.86 513.04 777.5C516.42 771.49 519.74 765.46 522.85 759.34V691.5C521.11 687.36 519.77 683.07 519.16 678.53C516.22 656.57 507.16 636.18 506.51 613.28C505.95 593.69 506.73 576.16 522.86 564.52V384.91C522.8 385.05 522.75 385.19 522.69 385.33C515.1 403.08 508.41 420.99 507.87 440.82C507.41 457.76 501.59 471.31 482 474.7C470.38 476.71 461.68 484.44 453.96 493.19C437.66 511.67 430.04 534.99 418.83 556.28C411.84 569.54 402.43 576.69 387.02 577.78C371.17 578.9 357.86 585.28 349.86 600.95C336.36 627.39 322.57 652.96 296.2 670.72C277.13 683.57 280.97 708.02 299.94 721.71C327.3 741.46 353.94 761.81 375.5 788.47C392.62 809.64 415.81 817.56 442.75 809.53C460.41 804.27 477.84 798.23 495.28 792.27H495.25Z" fill="url(#paint30_linear_132_364)" stroke="#EF5D53" stroke-miterlimit="10"/>
<path d="M0.500023 804.78C6.90002 802.46 13.78 801.08 21.42 801.02C36.29 800.9 50.33 794.98 62.47 785.19C72.41 777.18 75.69 768.2 70.19 756.6C60.29 735.72 55.96 713.36 51.97 690.88C48.45 671.08 46.4 651.1 34.21 633.7C17.52 609.87 19.82 593.88 38.58 570.77C59.91 544.5 78.4 516.2 93.73 485.94C97.71 478.08 99.27 469.21 94.93 461.84C78.34 433.66 56.17 411.35 22.43 406.02C14.88 404.83 7.51 403.54 0.480003 401.76L0.480003 804.77L0.500023 804.78Z" fill="url(#paint31_linear_132_364)" stroke="#EF5D53" stroke-miterlimit="10"/>
<path d="M157.3 738.52C173.64 738.18 181.23 748.25 181.04 767.7C180.91 781.43 181.76 795.01 194.42 802.7C213.61 814.36 231.44 828.82 255.43 831.25C274.63 833.2 283.18 844.23 271.9 863.05C269.43 867.17 267.46 871.7 264.41 875.32C249.82 892.64 236.3 889.63 219.34 874.74C195.24 853.58 176.45 828.01 154.21 805.48C147.84 799.03 139.41 794.67 132.12 789.1C121.3 780.82 118.69 771.87 125.5 760.8C133.37 748 145.05 739.91 157.31 738.52H157.3Z" fill="url(#paint32_linear_132_364)" stroke="#EF5D53" stroke-miterlimit="10"/>
<path d="M275.56 43.04C295.51 26.95 311.03 6.91998 319.61 -18.09C326.47 -38.07 336.33 -55.78 353.87 -69.77C375.31 -86.88 375.72 -115.01 355.59 -132.79C340.57 -146.06 334.77 -162.32 331.5 -180.81C326.65 -208.19 315.49 -218.67 288.47 -222.14C279.01 -223.36 270.24 -225.8 266 -235.59C261.75 -245.4 267.37 -253.02 273.13 -259.37C278.32 -265.1 282.77 -271.06 286.24 -277.49L99.78 -277.49C79.13 -248.73 64.69 -216.38 55.04 -181.95C49.59 -162.51 56.54 -147.01 74.52 -136.99C81.09 -133.33 88.27 -131.45 95.47 -129.4C109.77 -125.33 125.89 -122.7 134.08 -108.86C150.34 -81.37 170.37 -56.14 182.2 -25.92C188.91 -8.77002 192.3 9.40997 200.76 26.06C216.81 57.62 259.02 56.4 275.55 43.06L275.56 43.04Z" fill="url(#paint33_linear_132_364)" stroke="#EF5D53" stroke-miterlimit="10"/>
<path d="M279.54 297.74C274.03 298.43 267.17 297.87 262.57 294.19C241.2 277.1 217.64 280.53 193.66 285.24C156.07 292.62 127.67 263.6 137.44 226.01C143.94 201.01 158.37 180.15 179.37 164.08C193.31 153.42 212.79 157.02 221.87 166C243.09 186.99 269.18 198.84 296.78 208.27C315.73 214.74 326.68 228.45 328.64 247.91C331.1 272.39 305.84 297.64 279.54 297.73V297.74Z" fill="url(#paint34_linear_132_364)" stroke="#EF5D53" stroke-miterlimit="10"/>
<path d="M379.01 606.68C388.36 608.09 397.33 611.8 407.2 611.92C422.16 612.11 433.94 607.99 439.89 592.97C441.51 588.88 443.65 584.45 448.86 584.43C454.08 584.4 455.75 589.04 457.97 592.86C462.07 599.89 464.13 607.3 463.43 615.5C462.23 629.67 468.17 641.29 477.69 650.97C495.9 669.52 505.72 693.36 517.09 715.77C527.81 736.9 509.76 772.85 487.09 780.9C470.58 786.76 453.64 791.42 436.86 796.5C419.02 801.9 404.18 796.05 391.35 783.72C367.63 760.92 348.72 733.67 324.49 711.28C317.04 704.4 314.47 695.39 322.03 686.75C337.92 668.59 346.94 646.7 356.58 625.09C360.9 615.41 367.63 608.25 379 606.68H379.01Z" fill="url(#paint35_linear_132_364)" stroke="#EF5D53" stroke-miterlimit="10"/>
<path d="M476.34 522C476.08 524.99 474.81 527.14 471.46 526.56C468.62 526.07 466.61 524.22 467.27 521.12C467.83 518.47 469.69 516.07 472.56 516.19C475.84 516.33 476.24 519.27 476.35 521.99L476.34 522Z" fill="url(#paint36_linear_132_364)" stroke="#EF5D53" stroke-miterlimit="10"/>
<path d="M0.500084 422.83L0.500084 790.8C5.23009 789.44 10.2001 788.49 15.4701 787.89C41.4201 784.96 56.3901 772.55 52.1901 741.71C51.0701 733.48 50.8001 725.1 49.1901 716.98C43.6901 689.15 40.2101 660.89 21.7001 637.11C7.41006 618.75 8.85005 591.67 23.4401 573.31C39.0301 553.69 53.2301 533.15 66.2201 511.79C88.1401 475.75 78.3801 460.02 56.9401 433.55C44.5701 418.28 27.05 413.94 9.45004 420.27C6.40003 421.37 3.42007 422.21 0.490074 422.82L0.500084 422.83Z" fill="url(#paint37_linear_132_364)" stroke="#EF5D53" stroke-miterlimit="10"/>
<path d="M266.48 26.18C287.86 1.37 311.22 -22.18 321.06 -54.81C324.38 -65.83 329.31 -75.68 337.14 -84.59C349.21 -98.33 348.01 -108.92 332.53 -118.26C315.16 -128.74 310.57 -142.15 314.87 -161.51C320.19 -185.45 306.99 -201.96 282.35 -206.95C274.35 -208.57 265.68 -207.7 258.3 -212.76C241.86 -224.03 240.16 -244.2 255.81 -263.39C259.58 -268.01 263.12 -272.68 266.26 -277.51L114.43 -277.51C113.59 -276.32 112.77 -275.1 111.95 -273.9C92.38 -245.07 82.55 -212.21 73.78 -179.17C68.32 -158.59 77.63 -147 99.04 -142.83C114.99 -139.72 130.91 -136.52 142.06 -122.79C171.07 -87.09 194.96 -48.63 204.92 -3.04999C210.19 21.05 222.42 33.9 242.18 33.88C251.11 33.91 260.24 33.4 266.47 26.17L266.48 26.18Z" fill="url(#paint38_linear_132_364)" stroke="#EF5D53" stroke-miterlimit="10"/>
<path d="M146.64 237.37C147.25 213.23 160.25 195.1 177.31 180.24C189.71 169.45 206.09 171.07 219.53 181.66C239.82 197.64 262.52 208.4 287.18 215.89C308.28 222.31 315.69 232.22 315.7 250.11C315.73 277.32 287 296.66 264.6 281.81C240.85 266.07 218.14 267.55 193.17 274.62C172.43 280.49 156.57 272.44 148.95 254.35C146.61 248.79 147.15 243.17 146.63 237.36L146.64 237.37Z" fill="url(#paint39_linear_132_364)" stroke="#EF5D53" stroke-miterlimit="10"/>
<path d="M398.36 638.15C423.68 638.15 435.81 647.3 439.35 669.77C441.87 685.78 450.19 695.26 465.81 698.2C472 699.36 477.49 701.84 482.94 704.67C505.47 716.36 509.3 740.59 489.21 755.47C469.94 769.75 446.32 776.68 422.78 777.21C404.07 777.63 391.85 762.32 382.3 747.15C375.08 735.69 369.15 723.51 363.58 711.04C354.32 690.32 358.5 671.57 369 653.41C375.67 641.88 386.09 635.93 398.35 638.14L398.36 638.15Z" fill="url(#paint40_linear_132_364)" stroke="#EF5D53" stroke-miterlimit="10"/>
<path d="M0.500095 447.07L0.500095 770.92C3.51009 770.33 6.66006 770 9.96006 769.9C24.9901 769.47 36.0101 760.02 38.3101 745.36C43.5601 712.01 38.5601 679.2 17.1201 653.55C-3.01994 629.46 -2.62993 585.09 16.0701 562.1C27.6601 547.86 36.9301 531.75 47.7301 516.83C64.1101 494.21 61.0101 471.56 48.1501 449.07C39.1501 433.32 28.3501 430.79 13.1801 440.8C9.08006 443.5 4.8201 445.64 0.500095 447.08V447.07Z" fill="url(#paint41_linear_132_364)" stroke="#EF5D53" stroke-miterlimit="10"/>
<path d="M263.57 1.14001C271.03 -9.20999 279.53 -18.6 288.62 -27.56C311.36 -49.99 311.31 -74.33 288.87 -97.24C275.82 -110.57 275.03 -115.63 284.62 -131.69C290.08 -140.83 294.5 -150.3 296.52 -160.76C299.55 -176.42 290.49 -187.7 274.77 -187.77C267.77 -187.8 260.61 -188.05 253.81 -186.73C243.58 -184.75 236.87 -188.71 232.01 -197.06C220.24 -217.31 225.97 -254.87 244.21 -275.86C244.69 -276.41 245.15 -276.96 245.6 -277.51L142.92 -277.51C140.93 -275.9 138.92 -274.3 136.88 -272.72C130.13 -267.49 123.93 -262.12 120.73 -254.12C111.58 -231.19 105.79 -207.56 104.52 -182.73C103.88 -170.31 109.15 -163.99 120.57 -160.96C133.05 -157.65 144.47 -151.85 153.62 -142.67C162.63 -133.64 173.52 -133.51 184.31 -135.97C206.85 -141.11 215.63 -137.39 219.57 -115.02C224.76 -85.53 239.03 -56.08 223.23 -25.56C221.67 -22.55 220.72 -18.7 221.02 -15.37C222.04 -3.97998 222.95 7.95999 236.01 12.84C248.65 17.57 256.74 10.6 263.57 1.12V1.14001Z" fill="url(#paint42_linear_132_364)" stroke="#EF5D53" stroke-miterlimit="10"/>
<path d="M189.18 239.61C184.93 239.4 179.39 237.31 179.22 229.43C179 219.15 188.56 207.41 196.85 208.44C205.36 209.49 211.06 215.36 212.39 223.67C213.59 231.19 201.67 239.81 189.17 239.61H189.18Z" fill="url(#paint43_linear_132_364)" stroke="#EF5D53" stroke-miterlimit="10"/>
<path d="M430 751.72C423.4 752.21 417.04 749.88 412.93 745.78C396.67 729.53 383.13 711.48 381.63 687.16C381.2 680.16 383.97 674.14 387.78 668.81C394.9 658.85 408.81 659.87 414.9 670.52C418.86 677.45 420.65 685.16 422.28 692.88C424.92 705.35 431.84 712.87 444.95 714.87C451.77 715.91 458.69 717.97 464.9 720.94C475.47 726.01 475.95 734.75 466.08 740.83C455.11 747.59 442.65 750.22 430 751.72Z" fill="url(#paint44_linear_132_364)" stroke="#EF5D53" stroke-miterlimit="10"/>
<path d="M0.500057 752.23C2.36006 751.74 4.25002 751.32 6.21002 750.95C17.87 748.79 26.53 742.26 28.53 728.47C32.15 703.53 26.21 680.76 10.73 662.15C6.63004 657.23 3.24001 651.8 0.510006 646.04L0.510006 752.22L0.500057 752.23Z" fill="url(#paint45_linear_132_364)" stroke="#EF5D53" stroke-miterlimit="10"/>
<path d="M0.500034 565.09C2.42003 561.2 4.64 557.58 7.15 554.33C18.52 539.6 30.57 524.61 35.05 505.59C37.81 493.84 31.7 481.04 20.16 480.81C13.25 480.67 6.76998 479.36 0.509983 477.48L0.509983 565.09H0.500034Z" fill="url(#paint46_linear_132_364)" stroke="#EF5D53" stroke-miterlimit="10"/>
</g>
</g>
<defs>
<linearGradient id="paint0_linear_132_364" x1="261.67" y1="-77.55" x2="261.67" y2="500.39" gradientUnits="userSpaceOnUse">
<stop stop-color="#F9EAD5"/>
<stop offset="1" stop-color="#F9EAD5"/>
</linearGradient>
<linearGradient id="paint1_linear_132_364" x1="406.92" y1="916.27" x2="406.92" y2="936.62" gradientUnits="userSpaceOnUse">
<stop stop-color="#F9EAD5"/>
<stop offset="1" stop-color="#F9EAD5"/>
</linearGradient>
<linearGradient id="paint2_linear_132_364" x1="261.67" y1="1.44998" x2="261.67" y2="936.62" gradientUnits="userSpaceOnUse">
<stop stop-color="#F9EAD5"/>
<stop offset="1" stop-color="#F9EAD5"/>
</linearGradient>
<linearGradient id="paint3_linear_132_364" x1="92.72" y1="896.84" x2="92.72" y2="936.62" gradientUnits="userSpaceOnUse">
<stop stop-color="#F9EAD5"/>
<stop offset="1" stop-color="#F9EAD5"/>
</linearGradient>
<linearGradient id="paint4_linear_132_364" x1="397.28" y1="875.51" x2="397.28" y2="936.62" gradientUnits="userSpaceOnUse">
<stop stop-color="#F9EAD5"/>
<stop offset="1" stop-color="#F9EAD5"/>
</linearGradient>
<linearGradient id="paint5_linear_132_364" x1="261.67" y1="-10.73" x2="261.67" y2="674.89" gradientUnits="userSpaceOnUse">
<stop stop-color="#F9EAD5"/>
<stop offset="1" stop-color="#F9EAD5"/>
</linearGradient>
<linearGradient id="paint6_linear_132_364" x1="406.9" y1="899.76" x2="406.9" y2="936.62" gradientUnits="userSpaceOnUse">
<stop stop-color="#F9EAD5"/>
<stop offset="1" stop-color="#F9EAD5"/>
</linearGradient>
<linearGradient id="paint7_linear_132_364" x1="72.1" y1="919.04" x2="72.1" y2="936.62" gradientUnits="userSpaceOnUse">
<stop stop-color="#F9EAD5"/>
<stop offset="1" stop-color="#F9EAD5"/>
</linearGradient>
<linearGradient id="paint8_linear_132_364" x1="72.4201" y1="910.12" x2="72.4201" y2="936.62" gradientUnits="userSpaceOnUse">
<stop stop-color="#F9EAD5"/>
<stop offset="1" stop-color="#F9EAD5"/>
</linearGradient>
<linearGradient id="paint9_linear_132_364" x1="408.46" y1="888.81" x2="408.46" y2="936.62" gradientUnits="userSpaceOnUse">
<stop stop-color="#F9EAD5"/>
<stop offset="1" stop-color="#F9EAD5"/>
</linearGradient>
<linearGradient id="paint10_linear_132_364" x1="261.67" y1="-278" x2="261.67" y2="388.52" gradientUnits="userSpaceOnUse">
<stop stop-color="#F9EAD5"/>
<stop offset="1" stop-color="#F9EAD5"/>
</linearGradient>
<linearGradient id="paint11_linear_132_364" x1="261.67" y1="-109.37" x2="261.67" y2="409.86" gradientUnits="userSpaceOnUse">
<stop stop-color="#F9EAD5"/>
<stop offset="1" stop-color="#F9EAD5"/>
</linearGradient>
<linearGradient id="paint12_linear_132_364" x1="48.42" y1="-5.60999" x2="48.42" y2="171.51" gradientUnits="userSpaceOnUse">
<stop stop-color="#F9EAD5"/>
<stop offset="1" stop-color="#F9EAD5"/>
</linearGradient>
<linearGradient id="paint13_linear_132_364" x1="261.67" y1="21.33" x2="261.67" y2="936.08" gradientUnits="userSpaceOnUse">
<stop stop-color="#F9EAD5"/>
<stop offset="1" stop-color="#F9EAD5"/>
</linearGradient>
<linearGradient id="paint14_linear_132_364" x1="166.76" y1="515.3" x2="166.76" y2="656.58" gradientUnits="userSpaceOnUse">
<stop stop-color="#F9EAD5"/>
<stop offset="1" stop-color="#F9EAD5"/>
</linearGradient>
<linearGradient id="paint15_linear_132_364" x1="259.3" y1="-278" x2="259.3" y2="356.86" gradientUnits="userSpaceOnUse">
<stop stop-color="#F9EAD5"/>
<stop offset="1" stop-color="#F9EAD5"/>
</linearGradient>
<linearGradient id="paint16_linear_132_364" x1="512.13" y1="-30.81" x2="512.13" y2="34.3" gradientUnits="userSpaceOnUse">
<stop stop-color="#F9EAD5"/>
<stop offset="1" stop-color="#F9EAD5"/>
</linearGradient>
<linearGradient id="paint17_linear_132_364" x1="42.07" y1="26.9" x2="42.07" y2="152.2" gradientUnits="userSpaceOnUse">
<stop stop-color="#F9EAD5"/>
<stop offset="1" stop-color="#F9EAD5"/>
</linearGradient>
<linearGradient id="paint18_linear_132_364" x1="261.67" y1="37.35" x2="261.67" y2="923.1" gradientUnits="userSpaceOnUse">
<stop stop-color="#F9EAD5"/>
<stop offset="1" stop-color="#F9EAD5"/>
</linearGradient>
<linearGradient id="paint19_linear_132_364" x1="162.79" y1="540.42" x2="162.79" y2="630.49" gradientUnits="userSpaceOnUse">
<stop stop-color="#F9EAD5"/>
<stop offset="1" stop-color="#F9EAD5"/>
</linearGradient>
<linearGradient id="paint20_linear_132_364" x1="257.81" y1="-278" x2="257.81" y2="329.21" gradientUnits="userSpaceOnUse">
<stop stop-color="#F9EAD5"/>
<stop offset="1" stop-color="#F9EAD5"/>
</linearGradient>
<linearGradient id="paint21_linear_132_364" x1="32.55" y1="63.5" x2="32.55" y2="128.29" gradientUnits="userSpaceOnUse">
<stop stop-color="#F9EAD5"/>
<stop offset="1" stop-color="#F9EAD5"/>
</linearGradient>
<linearGradient id="paint22_linear_132_364" x1="261.67" y1="53.73" x2="261.67" y2="912.54" gradientUnits="userSpaceOnUse">
<stop stop-color="#F9EAD5"/>
<stop offset="1" stop-color="#F9EAD5"/>
</linearGradient>
<linearGradient id="paint23_linear_132_364" x1="214.27" y1="-278" x2="214.27" y2="319.78" gradientUnits="userSpaceOnUse">
<stop stop-color="#F9EAD5"/>
<stop offset="1" stop-color="#F9EAD5"/>
</linearGradient>
<linearGradient id="paint24_linear_132_364" x1="19" y1="89.49" x2="19" y2="100.7" gradientUnits="userSpaceOnUse">
<stop stop-color="#F9EAD5"/>
<stop offset="1" stop-color="#F9EAD5"/>
</linearGradient>
<linearGradient id="paint25_linear_132_364" x1="394.22" y1="185.18" x2="394.22" y2="824.95" gradientUnits="userSpaceOnUse">
<stop stop-color="#F9EAD5"/>
<stop offset="1" stop-color="#F9EAD5"/>
</linearGradient>
<linearGradient id="paint26_linear_132_364" x1="152.94" y1="377.89" x2="152.94" y2="900.94" gradientUnits="userSpaceOnUse">
<stop stop-color="#F9EAD5"/>
<stop offset="1" stop-color="#F9EAD5"/>
</linearGradient>
<linearGradient id="paint27_linear_132_364" x1="428.1" y1="78.76" x2="428.1" y2="144.74" gradientUnits="userSpaceOnUse">
<stop stop-color="#F9EAD5"/>
<stop offset="1" stop-color="#F9EAD5"/>
</linearGradient>
<linearGradient id="paint28_linear_132_364" x1="210.89" y1="-278" x2="210.89" y2="70.9" gradientUnits="userSpaceOnUse">
<stop stop-color="#F9EAD5"/>
<stop offset="1" stop-color="#F9EAD5"/>
</linearGradient>
<linearGradient id="paint29_linear_132_364" x1="235.9" y1="139.2" x2="235.9" y2="308.67" gradientUnits="userSpaceOnUse">
<stop stop-color="#F9EAD5"/>
<stop offset="1" stop-color="#F9EAD5"/>
</linearGradient>
<linearGradient id="paint30_linear_132_364" x1="403.25" y1="384.91" x2="403.25" y2="812.61" gradientUnits="userSpaceOnUse">
<stop stop-color="#F9EAD5"/>
<stop offset="1" stop-color="#F9EAD5"/>
</linearGradient>
<linearGradient id="paint31_linear_132_364" x1="49.02" y1="401.77" x2="49.02" y2="804.78" gradientUnits="userSpaceOnUse">
<stop stop-color="#F9EAD5"/>
<stop offset="1" stop-color="#F9EAD5"/>
</linearGradient>
<linearGradient id="paint32_linear_132_364" x1="199.34" y1="738.52" x2="199.34" y2="887.15" gradientUnits="userSpaceOnUse">
<stop stop-color="#F9EAD5"/>
<stop offset="1" stop-color="#F9EAD5"/>
</linearGradient>
<linearGradient id="paint33_linear_132_364" x1="211.78" y1="-278" x2="211.78" y2="51.91" gradientUnits="userSpaceOnUse">
<stop stop-color="#F9EAD5"/>
<stop offset="1" stop-color="#F9EAD5"/>
</linearGradient>
<linearGradient id="paint34_linear_132_364" x1="232.15" y1="157.53" x2="232.15" y2="297.99" gradientUnits="userSpaceOnUse">
<stop stop-color="#F9EAD5"/>
<stop offset="1" stop-color="#F9EAD5"/>
</linearGradient>
<linearGradient id="paint35_linear_132_364" x1="418.88" y1="584.44" x2="418.88" y2="798.52" gradientUnits="userSpaceOnUse">
<stop stop-color="#F9EAD5"/>
<stop offset="1" stop-color="#F9EAD5"/>
</linearGradient>
<linearGradient id="paint36_linear_132_364" x1="471.74" y1="516.2" x2="471.74" y2="526.66" gradientUnits="userSpaceOnUse">
<stop stop-color="#F9EAD5"/>
<stop offset="1" stop-color="#F9EAD5"/>
</linearGradient>
<linearGradient id="paint37_linear_132_364" x1="39.5501" y1="417.46" x2="39.5501" y2="790.8" gradientUnits="userSpaceOnUse">
<stop stop-color="#F9EAD5"/>
<stop offset="1" stop-color="#F9EAD5"/>
</linearGradient>
<linearGradient id="paint38_linear_132_364" x1="208.76" y1="-278" x2="208.76" y2="33.89" gradientUnits="userSpaceOnUse">
<stop stop-color="#F9EAD5"/>
<stop offset="1" stop-color="#F9EAD5"/>
</linearGradient>
<linearGradient id="paint39_linear_132_364" x1="231.17" y1="172.89" x2="231.17" y2="286.97" gradientUnits="userSpaceOnUse">
<stop stop-color="#F9EAD5"/>
<stop offset="1" stop-color="#F9EAD5"/>
</linearGradient>
<linearGradient id="paint40_linear_132_364" x1="430.38" y1="637.7" x2="430.38" y2="777.22" gradientUnits="userSpaceOnUse">
<stop stop-color="#F9EAD5"/>
<stop offset="1" stop-color="#F9EAD5"/>
</linearGradient>
<linearGradient id="paint41_linear_132_364" x1="29.7101" y1="434.85" x2="29.7101" y2="770.92" gradientUnits="userSpaceOnUse">
<stop stop-color="#F9EAD5"/>
<stop offset="1" stop-color="#F9EAD5"/>
</linearGradient>
<linearGradient id="paint42_linear_132_364" x1="205.08" y1="-278" x2="205.08" y2="14.38" gradientUnits="userSpaceOnUse">
<stop stop-color="#F9EAD5"/>
<stop offset="1" stop-color="#F9EAD5"/>
</linearGradient>
<linearGradient id="paint43_linear_132_364" x1="195.85" y1="208.37" x2="195.85" y2="239.61" gradientUnits="userSpaceOnUse">
<stop stop-color="#F9EAD5"/>
<stop offset="1" stop-color="#F9EAD5"/>
</linearGradient>
<linearGradient id="paint44_linear_132_364" x1="427.38" y1="661.91" x2="427.38" y2="751.78" gradientUnits="userSpaceOnUse">
<stop stop-color="#F9EAD5"/>
<stop offset="1" stop-color="#F9EAD5"/>
</linearGradient>
<linearGradient id="paint45_linear_132_364" x1="15.02" y1="646.05" x2="15.02" y2="752.23" gradientUnits="userSpaceOnUse">
<stop stop-color="#F9EAD5"/>
<stop offset="1" stop-color="#F9EAD5"/>
</linearGradient>
<linearGradient id="paint46_linear_132_364" x1="18.1" y1="477.48" x2="18.1" y2="565.09" gradientUnits="userSpaceOnUse">
<stop stop-color="#F9EAD5"/>
<stop offset="1" stop-color="#F9EAD5"/>
</linearGradient>
<clipPath id="clip0_132_364">
<rect width="1215.12" height="523.35" fill="white" transform="matrix(0 1 -1 0 523.35 -278)"/>
</clipPath>
</defs>
</svg>
