<svg width="93" height="93" viewBox="0 0 93 93" fill="none" xmlns="http://www.w3.org/2000/svg">
<mask id="mask0_132_236" style="mask-type:luminance" maskUnits="userSpaceOnUse" x="0" y="0" width="93" height="93">
<path d="M46.5094 92.1361C71.849 92.1361 92.3909 71.5107 92.3909 46.0681C92.3909 20.6254 71.849 0 46.5094 0C21.1697 0 0.627808 20.6254 0.627808 46.0681C0.627808 71.5107 21.1697 92.1361 46.5094 92.1361Z" fill="white"/>
</mask>
<g mask="url(#mask0_132_236)">
<path d="M115.608 0H-22V7.08028H115.608V0Z" fill="#EE5D53"/>
<path d="M115.608 14.1791H-22V21.2594H115.608V14.1791Z" fill="#EE5D53"/>
<path d="M115.608 28.3396H-22V35.4199H115.608V28.3396Z" fill="#EE5D53"/>
<path d="M115.608 42.5187H-22V49.599H115.608V42.5187Z" fill="#EE5D53"/>
<path d="M115.608 56.6978H-22V63.778H115.608V56.6978Z" fill="#EE5D53"/>
<path d="M115.608 70.8583H-22V77.9386H115.608V70.8583Z" fill="#EE5D53"/>
<path d="M115.608 85.0374H-22V92.1176H115.608V85.0374Z" fill="#EE5D53"/>
<path d="M47.7245 0H-22V49.599H47.7245V0Z" fill="#EE5D53"/>
<path d="M7.09025 2.0705L6.44584 4.03005H4.40216L6.0592 5.23167L5.4148 7.20971L7.09025 5.98961L8.74729 7.20971L8.10288 5.23167L9.77833 4.03005H7.71624L7.09025 2.0705Z" fill="white"/>
<path d="M18.6343 2.0705L18.0083 4.03005H15.9646L17.6216 5.23167L16.9772 7.20971L18.6343 5.98961L20.3097 7.20971L19.6653 5.23167L21.3408 4.03005H19.2787L18.6343 2.0705Z" fill="white"/>
<path d="M30.1967 2.0705L29.5707 4.03005H27.5086L29.1656 5.23167L28.5397 7.20971L30.1967 5.98961L31.8721 7.20971L31.2277 5.23167L32.8848 4.03005H30.8411L30.1967 2.0705Z" fill="#F9EAD5"/>
<path d="M40.7281 5.23167L40.1022 7.20971L41.7592 5.98961L43.4162 7.20971L42.7902 5.23167L44.4473 4.03005H42.4036L41.7592 2.0705L41.1332 4.03005H39.0711L40.7281 5.23167Z" fill="#F9EAD5"/>
<path d="M1.309 7.04333L0.664593 9.00289H-1.37909L0.27795 10.223L-0.348042 12.1825L1.309 10.9624L2.96604 12.1825L2.32163 10.223L3.99708 9.00289H1.93499L1.309 7.04333Z" fill="white"/>
<path d="M12.8714 7.04333L12.227 9.00289H10.1833L11.8404 10.223L11.196 12.1825L12.8714 10.9624L14.5285 12.1825L13.8841 10.223L15.5411 9.00289H13.4974L12.8714 7.04333Z" fill="white"/>
<path d="M24.4155 7.04333L23.7895 9.00289H21.7274L23.4029 10.223L22.7585 12.1825L24.4155 10.9624L26.0725 12.1825L25.4465 10.223L27.1036 9.00289H25.0599L24.4155 7.04333Z" fill="#F9EAD5"/>
<path d="M35.9779 7.04333L35.3519 9.00289H33.2899L34.9469 10.223L34.3209 12.1825L35.9779 10.9624L37.635 12.1825L37.009 10.223L38.666 9.00289H36.6223L35.9779 7.04333Z" fill="#F9EAD5"/>
<path d="M7.09025 12.0162L6.44584 13.9757H4.40216L6.0592 15.1958L5.4148 17.1554L7.09025 15.9353L8.74729 17.1554L8.10288 15.1958L9.77833 13.9757H7.71624L7.09025 12.0162Z" fill="white"/>
<path d="M18.6343 12.0162L18.0083 13.9757H15.9646L17.6216 15.1958L16.9772 17.1554L18.6343 15.9353L20.3097 17.1554L19.6653 15.1958L21.3408 13.9757H19.2787L18.6343 12.0162Z" fill="#F9EAD5"/>
<path d="M30.1967 12.0162L29.5707 13.9757H27.5086L29.1656 15.1958L28.5397 17.1554L30.1967 15.9353L31.8721 17.1554L31.2277 15.1958L32.8848 13.9757H30.8411L30.1967 12.0162Z" fill="#F9EAD5"/>
<path d="M41.7592 12.0162L41.1332 13.9757H39.0711L40.7281 15.1958L40.1022 17.1554L41.7592 15.9353L43.4162 17.1554L42.7902 15.1958L44.4473 13.9757H42.4036L41.7592 12.0162Z" fill="#F9EAD5"/>
<path d="M1.309 16.989L0.664593 18.9486H-1.37909L0.27795 20.1687L-0.348042 22.1282L1.309 20.9081L2.96604 22.1282L2.32163 20.1687L3.99708 18.9486H1.93499L1.309 16.989Z" fill="white"/>
<path d="M12.8714 16.989L12.227 18.9486H10.1833L11.8404 20.1687L11.196 22.1282L12.8714 20.9081L14.5285 22.1282L13.8841 20.1687L15.5411 18.9486H13.4974L12.8714 16.989Z" fill="#F9EAD5"/>
<path d="M24.4155 16.989L23.7895 18.9486H21.7274L23.4029 20.1687L22.7585 22.1282L24.4155 20.9081L26.0725 22.1282L25.4465 20.1687L27.1036 18.9486H25.0599L24.4155 16.989Z" fill="#F9EAD5"/>
<path d="M35.9779 16.989L35.3519 18.9486H33.2899L34.9469 20.1687L34.3209 22.1282L35.9779 20.9081L37.635 22.1282L37.009 20.1687L38.666 18.9486H36.6223L35.9779 16.989Z" fill="#F9EAD5"/>
<path d="M7.09025 21.9618L6.44584 23.9213H4.40216L6.0592 25.1415L5.4148 27.101L7.09025 25.8809L8.74729 27.101L8.10288 25.1415L9.77833 23.9213H7.71624L7.09025 21.9618Z" fill="#F9EAD5"/>
<path d="M18.6343 21.9618L18.0083 23.9213H15.9646L17.6216 25.1415L16.9772 27.101L18.6343 25.8809L20.3097 27.101L19.6653 25.1415L21.3408 23.9213H19.2787L18.6343 21.9618Z" fill="#F9EAD5"/>
<path d="M30.1967 21.9618L29.5707 23.9213H27.5086L29.1656 25.1415L28.5397 27.101L30.1967 25.8809L31.8721 27.101L31.2277 25.1415L32.8848 23.9213H30.8411L30.1967 21.9618Z" fill="#F9EAD5"/>
<path d="M41.7592 21.9618L41.1332 23.9213H39.0711L40.7281 25.1415L40.1022 27.101L41.7592 25.8809L43.4162 27.101L42.7902 25.1415L44.4473 23.9213H42.4036L41.7592 21.9618Z" fill="#F9EAD5"/>
<path d="M1.309 26.9346L0.683003 28.8942H-1.37909L0.27795 30.0958L-0.348042 32.0554L1.309 30.8537L2.96604 32.0554L2.34004 30.0958L3.99708 28.8942H1.9534L1.32741 26.9346H1.309Z" fill="white"/>
<path d="M12.8714 26.9346L12.227 28.8942H10.1833L11.8404 30.0958L11.2144 32.0554L12.8714 30.8537L14.5285 32.0554L13.9025 30.0958L15.5595 28.8942H13.5158L12.8898 26.9346H12.8714Z" fill="#F9EAD5"/>
<path d="M24.4155 26.9346L23.7895 28.8942H21.7458L23.4029 30.0958L22.7769 32.0554L24.4339 30.8537L26.091 32.0554L25.465 30.0958L27.122 28.8942H25.0783L24.4523 26.9346H24.4155Z" fill="#F9EAD5"/>
<path d="M35.978 26.9346L35.352 28.8942H33.3083L34.9653 30.0958L34.3393 32.0554L35.9964 30.8537L37.6534 32.0554L37.0274 30.0958L38.6845 28.8942H36.6408L36.0148 26.9346H35.978Z" fill="#F9EAD5"/>
<path d="M7.09021 31.9075L6.46421 33.867H4.42053L6.07757 35.0686L5.45158 37.0282L7.10862 35.8266L8.76565 37.0282L8.13966 35.0686L9.7967 33.867H7.75302L7.12703 31.9075H7.09021Z" fill="#F9EAD5"/>
<path d="M18.6343 31.9075L18.0083 33.867H15.9646L17.6216 35.0686L16.9956 37.0282L18.6527 35.8266L20.3097 37.0282L19.6837 35.0686L21.3408 33.867H19.2787L18.6527 31.9075H18.6343Z" fill="#F9EAD5"/>
<path d="M30.1967 31.9075L29.5707 33.867H27.527L29.1841 35.0686L28.5581 37.0282L30.2151 35.8266L31.8722 37.0282L31.2462 35.0686L32.9032 33.867H30.8595L30.2335 31.9075H30.1967Z" fill="#F9EAD5"/>
<path d="M41.7592 31.9075L41.1332 33.867H39.0711L40.7281 35.0686L40.1022 37.0282L41.7592 35.8266L43.4162 37.0282L42.7902 35.0686L44.4473 33.867H42.4036L41.7776 31.9075H41.7592Z" fill="#F9EAD5"/>
<path d="M1.93499 38.8584L1.309 36.8988L0.664593 38.8584H-1.37909L0.27795 40.06L-0.348042 42.0195L1.309 40.8179L2.96604 42.0195L2.32163 40.06L3.99708 38.8584H1.93499Z" fill="#F9EAD5"/>
<path d="M13.4974 38.8584L12.8714 36.8988L12.227 38.8584H10.1833L11.8404 40.06L11.196 42.0195L12.8714 40.8179L14.5285 42.0195L13.8841 40.06L15.5411 38.8584H13.4974Z" fill="#F9EAD5"/>
<path d="M25.0599 38.8584L24.4155 36.8988L23.7895 38.8584H21.7274L23.4029 40.06L22.7585 42.0195L24.4155 40.8179L26.0725 42.0195L25.4465 40.06L27.1036 38.8584H25.0599Z" fill="#F9EAD5"/>
<path d="M36.6223 38.8584L35.9779 36.8988L35.3519 38.8584H33.2899L34.9469 40.06L34.3209 42.0195L35.9779 40.8179L37.635 42.0195L37.009 40.06L38.666 38.8584H36.6223Z" fill="#F9EAD5"/>
<path d="M7.71624 43.8312L7.09025 41.8716L6.44584 43.8312H4.40216L6.0592 45.0328L5.4148 46.9924L7.09025 45.7908L8.74729 46.9924L8.10288 45.0328L9.77833 43.8312H7.71624Z" fill="#F9EAD5"/>
<path d="M19.2787 43.8312L18.6343 41.8716L18.0083 43.8312H15.9646L17.6216 45.0328L16.9772 46.9924L18.6343 45.7908L20.3097 46.9924L19.6653 45.0328L21.3408 43.8312H19.2787Z" fill="#F9EAD5"/>
<path d="M30.8411 43.8312L30.1967 41.8716L29.5707 43.8312H27.5086L29.1656 45.0328L28.5397 46.9924L30.1967 45.7908L31.8721 46.9924L31.2277 45.0328L32.8848 43.8312H30.8411Z" fill="#F9EAD5"/>
<path d="M42.4036 43.8312L41.7592 41.8716L41.1332 43.8312H39.0711L40.7281 45.0328L40.1022 46.9924L41.7592 45.7908L43.4162 46.9924L42.7902 45.0328L44.4473 43.8312H42.4036Z" fill="#F9EAD5"/>
</g>
</svg>
